<svg id="svg165" xmlns="http://www.w3.org/2000/svg" viewBox="0 0 428.95 86.22"><defs><style>.cls-1{fill:#fffdfd;}</style></defs><g id="g163"><path id="path161" class="cls-1" d="M39,60.11l-9.75,9.74-9.74-9.74,9.74-9.74ZM62.63,36.47,79.32,53.16l9.74-9.74L62.63,17,36.21,43.42,46,53.16ZM96,50.37l-9.73,9.74L96,69.85l9.73-9.74ZM62.63,83.75,46,67.07,36.21,76.8l26.42,26.42L89.06,76.8l-9.74-9.73Zm0-13.9,9.74-9.74-9.74-9.74L52.9,60.11Zm102.77.93v-.13c0-6.35-3.37-9.53-8.86-11.62,3.37-1.89,6.22-4.87,6.22-10.2V48.7c0-7.43-5.95-12.23-15.61-12.23H125.22V83.75h22.49c10.67,0,17.7-4.32,17.7-13Zm-13-20.21c0,3.51-2.91,5-7.5,5h-9.58v-10h10.27c4.39,0,6.82,1.75,6.82,4.86Zm2.63,18.92c0,3.51-2.77,5.12-7.37,5.12H135.35V64.23h12c5.34,0,7.71,2,7.71,5.14Zm32.2,14.26V36.47H176.82V83.75Zm55.92,0V36.47h-10.3V65.59L210.72,36.47h-9.59V83.75H211.4V53.69l22.89,30.06Zm57.62,0L280.5,36.13h-9.59L250.65,83.75h10.6l4.34-10.6h20l4.32,10.6ZM281.89,64h-12.6l6.28-15.33Zm68.5,19.79V36.47h-10.3V65.59L317.92,36.47h-9.58V83.75H318.6V53.69l22.9,30.06Zm53.7-7.63-6.62-6.69C393.76,72.8,390.45,75,385,75c-8.1,0-13.71-6.74-13.71-14.86V60c0-8.11,5.74-14.73,13.71-14.73,4.73,0,8.42,2,12.1,5.33L403.73,43c-4.39-4.32-9.72-7.29-18.64-7.29-14.52,0-24.65,11-24.65,24.42v.14a23.86,23.86,0,0,0,24.25,24.32c9.1,0,14.5-3.22,19.36-8.42Zm44.39,7.63V74.49H422.77V64.54h22.3V55.28h-22.3V45.72h25.34V36.46H412.43V83.75Z" transform="translate(-19.52 -17)"/></g></svg>