<svg xmlns="http://www.w3.org/2000/svg" viewBox="0 0 154.24 118.72"><defs><style>.cls-1{fill:#fd7658;}.cls-2{fill:#f88859;}.cls-3{fill:#de624c;}.cls-4{fill:#fda859;}.cls-5{fill:#fcc700;}.cls-6{fill:#fff;}</style></defs><g id="OBJECTS"><path class="cls-1" d="M141.66,21.78V93.67a4.59,4.59,0,0,1-.12,1.06,4.34,4.34,0,0,1-4.2,3.27H22.65a4.32,4.32,0,0,1-4.31-4.33V21.78a4.31,4.31,0,0,1,4.31-4.32H137.34A4.31,4.31,0,0,1,141.66,21.78Z"/><path class="cls-2" d="M141.66,21.78V82.37c-7.64-.92-15.2-3.44-21-8.39-6.48-5.48-10.49-14.29-8.76-22.6C107.47,63.06,93.26,69.16,81,66.63S58.94,54.51,53.36,43.35c-3-5.9-7.39-16.54-8-25.89h92A4.31,4.31,0,0,1,141.66,21.78Z"/><path class="cls-3" d="M141.54,94.73a4.34,4.34,0,0,1-4.2,3.27H22.65a4.32,4.32,0,0,1-4.31-4.33v-9a16.13,16.13,0,0,0,2.67,3c4.53,4,10.79,5.46,16.81,5.43s11.94-1.43,17.85-2.57a214.52,214.52,0,0,1,57.56-3.19C122.94,88.18,133.25,90,141.54,94.73Z"/><rect class="cls-4" x="28.5" y="27.96" width="18.42" height="18.42" rx="2.03"/><rect class="cls-5" x="29.29" y="28.74" width="16.85" height="16.85" rx="1.64"/><path class="cls-4" d="M40.73,43.05h-6a1.79,1.79,0,0,1-1.79-1.78v-8.2a1.79,1.79,0,0,1,1.79-1.78h6a1.79,1.79,0,0,1,1.79,1.78v8.2A1.79,1.79,0,0,1,40.73,43.05Zm-6-10.19a.21.21,0,0,0-.22.21v8.2a.22.22,0,0,0,.22.21h6a.22.22,0,0,0,.22-.21v-8.2a.21.21,0,0,0-.22-.21Z"/><rect class="cls-4" x="29.29" y="33.45" width="4.41" height="1.57"/><rect class="cls-4" x="29.29" y="36.39" width="4.41" height="1.57"/><rect class="cls-4" x="29.29" y="39.33" width="4.41" height="1.57"/><rect class="cls-4" x="41.73" y="33.45" width="4.41" height="1.57"/><rect class="cls-4" x="41.73" y="36.39" width="4.41" height="1.57"/><rect class="cls-4" x="41.73" y="39.33" width="4.41" height="1.57"/><path class="cls-6" d="M30.83,55V60.1H29.49v-4h-1V55Z"/><path class="cls-6" d="M36.51,58.48c0,1-.81,1.67-2.08,1.67a3.48,3.48,0,0,1-2-.62l.54-1a2,2,0,0,0,1.38.63c.56,0,.87-.23.87-.63s-.31-.63-.88-.63h-.86v-.71L34.66,56h-2V55h3.58v.78L34.88,57l.25,0A1.43,1.43,0,0,1,36.51,58.48Z"/><path class="cls-6" d="M41.11,57.53c0,1.67-.72,2.6-2,2.6s-2-.93-2-2.6.71-2.59,2-2.59S41.11,55.86,41.11,57.53Zm-2.74,0c0,1.17.22,1.66.74,1.66s.72-.49.72-1.66-.21-1.66-.72-1.66S38.37,56.35,38.37,57.53Z"/><path class="cls-6" d="M45.71,55v.92L43.78,60.1H42.37l1.87-4.05H42.81v.71H41.63V55Z"/><path class="cls-6" d="M56.1,59.14c.8,0,1.18-.51,1.17-1.35a1.38,1.38,0,0,1-1.19.55,1.54,1.54,0,0,1-1.63-1.66,1.71,1.71,0,0,1,1.88-1.77c1.35,0,2.17,1,2.17,2.54s-.9,2.7-2.32,2.7a3.37,3.37,0,0,1-1.63-.42l.5-.92A1.8,1.8,0,0,0,56.1,59.14Zm-.45-2.46a.64.64,0,0,0,.71.7.68.68,0,0,0,.76-.72.74.74,0,0,0-1.47,0Z"/><path class="cls-6" d="M61.77,55V60.1H60.43v-4h-1V55Z"/><path class="cls-6" d="M66.28,55V60.1H64.94v-4H64V55Z"/><path class="cls-6" d="M72,58.48c0,1-.81,1.67-2.08,1.67a3.48,3.48,0,0,1-2-.62l.54-1a1.94,1.94,0,0,0,1.38.63c.56,0,.87-.23.87-.63s-.31-.63-.88-.63h-.86v-.71L70.1,56h-2V55h3.59v.78L70.32,57l.26,0A1.43,1.43,0,0,1,72,58.48Z"/><path class="cls-6" d="M85,57.53c0,1.67-.72,2.6-2,2.6s-2-.93-2-2.6.7-2.59,2-2.59S85,55.86,85,57.53Zm-2.74,0c0,1.17.22,1.66.74,1.66s.72-.49.72-1.66-.21-1.66-.72-1.66S82.22,56.35,82.22,57.53Z"/><path class="cls-6" d="M87.46,56.82c1.21,0,2,.64,2,1.55,0,1.08-.82,1.78-2.09,1.78a3.72,3.72,0,0,1-2-.64l.53-1a1.86,1.86,0,0,0,1.34.65c.52,0,.81-.24.81-.65s-.29-.61-.8-.61c-.27,0-1.11,0-1.43,0V55h3.44v1.08H87v.78Z"/><path class="cls-6" d="M91.55,59.14c.79,0,1.18-.51,1.17-1.35a1.38,1.38,0,0,1-1.19.55,1.54,1.54,0,0,1-1.63-1.66,1.71,1.71,0,0,1,1.88-1.77c1.35,0,2.17,1,2.17,2.54s-.9,2.7-2.32,2.7A3.37,3.37,0,0,1,90,59.73l.5-.92A1.8,1.8,0,0,0,91.55,59.14Zm-.45-2.46a.64.64,0,0,0,.71.7.68.68,0,0,0,.76-.72.74.74,0,0,0-1.47,0Z"/><path class="cls-6" d="M96.91,56.46c0-.28-.21-.44-.58-.44a2.41,2.41,0,0,0-1.42.65l-.51-1a3.63,3.63,0,0,1,2.12-.77c1,0,1.79.54,1.79,1.35a2.78,2.78,0,0,1-1,1.71l-1,1.05h2.19V60.1h-3.9v-.89l1.86-1.91A1.53,1.53,0,0,0,96.91,56.46Z"/><path class="cls-6" d="M109.82,56.46c0-.28-.21-.44-.58-.44a2.41,2.41,0,0,0-1.42.65l-.51-1a3.63,3.63,0,0,1,2.12-.77c1,0,1.79.54,1.79,1.35a2.78,2.78,0,0,1-1,1.71l-1,1.05h2.19V60.1h-3.9v-.89l1.86-1.91A1.53,1.53,0,0,0,109.82,56.46Z"/><path class="cls-6" d="M116,55v.92l-1.93,4.21h-1.41l1.87-4.05h-1.43v.71h-1.18V55Z"/><path class="cls-6" d="M119.14,55V60.1H117.8v-4h-1V55Z"/><path class="cls-6" d="M123.65,55V60.1h-1.34v-4h-1V55Z"/><path class="cls-6" d="M30,69.41v3.3h-.86V70.12H28.5v-.71Z"/><path class="cls-6" d="M32.9,69.41v3.3H32V70.12h-.63v-.71Z"/><path class="cls-6" d="M35.92,68.9,34.4,73.23h-.7l1.52-4.33Z"/><path class="cls-6" d="M37.27,70.37c0-.18-.13-.28-.37-.28a1.57,1.57,0,0,0-.91.41l-.33-.63a2.35,2.35,0,0,1,1.37-.5c.66,0,1.15.35,1.15.87a1.8,1.8,0,0,1-.64,1.1l-.68.68h1.41v.69H35.76v-.57L37,70.91A1,1,0,0,0,37.27,70.37Z"/><path class="cls-6" d="M41.13,71.67c0,.63-.52,1.08-1.34,1.08a2.21,2.21,0,0,1-1.3-.41l.35-.66a1.23,1.23,0,0,0,.89.41c.36,0,.56-.15.56-.41s-.2-.4-.57-.4h-.55v-.46l.77-.74H38.67v-.66H41v.5l-.89.82.16,0A.93.93,0,0,1,41.13,71.67Z"/><path class="cls-6" d="M28.89,66.34l.34,1,.35-1H30l-.54,1.37H29l-.54-1.37Z"/><path class="cls-6" d="M30.88,67.47h-.59l-.1.24h-.36l.59-1.37h.36l.58,1.37H31Zm-.1-.27-.19-.49-.19.49Z"/><path class="cls-6" d="M31.84,66.34v1.07h.58v.3h-.94V66.34Z"/><path class="cls-6" d="M33,66.34v1.37h-.36V66.34Z"/><path class="cls-6" d="M34.54,67a.68.68,0,0,1-.75.68h-.58V66.34h.59A.68.68,0,0,1,34.54,67Zm-.37,0a.37.37,0,0,0-.37-.4h-.23v.79h.24A.36.36,0,0,0,34.17,67Z"/><path class="cls-6" d="M36.19,66.34v.29h-.67v.3h.62v.29h-.62v.49h-.36V66.34Z"/><path class="cls-6" d="M37.18,67.71l-.2-.38h-.27v.38h-.36V66.34H37c.37,0,.57.18.57.48a.45.45,0,0,1-.24.44l.28.45Zm-.47-.66H37a.2.2,0,0,0,.23-.22c0-.13-.08-.2-.23-.2h-.26Z"/><path class="cls-6" d="M39.17,67a.75.75,0,1,1-.74-.7A.71.71,0,0,1,39.17,67Zm-1.12,0a.39.39,0,0,0,.38.39A.37.37,0,0,0,38.8,67a.37.37,0,0,0-.37-.39A.38.38,0,0,0,38.05,67Z"/><path class="cls-6" d="M39.74,66.34l.36.8.37-.8h.39v1.37h-.32v-.87l-.32.74H40l-.32-.74v.87h-.32V66.34Z"/><rect class="cls-6" x="28.5" y="81.44" width="57.97" height="3.61"/><path class="cls-4" d="M104.87,100.53H80.21v2.6c0,3.19,5.83,5.77,13,5.77s13-2.58,13-5.77v-2.6Z"/><path class="cls-5" d="M106.27,100.53v.1c-.12,3.14-5.91,5.67-13,5.67s-13-2.59-13-5.77a2.64,2.64,0,0,1,.21-1c1.09-2.7,6.42-4.75,12.82-4.75s11.73,2,12.82,4.75a2.51,2.51,0,0,1,.21.92Z"/><ellipse class="cls-4" cx="93.24" cy="100.53" rx="10.6" ry="4.69"/><path class="cls-5" d="M94.44,102.27v1H92.51v-1a14.19,14.19,0,0,1-3.67-.69l1-.92a11.89,11.89,0,0,0,3.69.68c.78,0,1.28-.13,1.28-.37,0-.76-5.37-.3-5.37-1.9,0-.71,1.17-1.21,3-1.34v-1h1.93v.94a15.24,15.24,0,0,1,3.19.48l-1,.94a15.72,15.72,0,0,0-3.28-.49c-.64,0-1.07.11-1.07.31,0,.75,5.37.32,5.37,2C97.64,101.7,96.27,102.16,94.44,102.27Z"/><path class="cls-4" d="M109.44,97.58H84.78v2.6c0,3.19,5.84,5.78,13,5.78s13-2.59,13-5.78v-2.6Z"/><path class="cls-5" d="M110.84,97.58v.1c-.12,3.15-5.91,5.67-13,5.67s-13-2.58-13-5.77a2.67,2.67,0,0,1,.21-1c1.1-2.69,6.42-4.74,12.82-4.74s11.73,2,12.82,4.74a2.56,2.56,0,0,1,.21.93Z"/><ellipse class="cls-4" cx="97.81" cy="97.58" rx="10.6" ry="4.69"/><path class="cls-5" d="M99,99.33v1H97.08v-1a13.39,13.39,0,0,1-3.67-.69l1-.92a11.91,11.91,0,0,0,3.69.69c.79,0,1.28-.13,1.28-.37,0-.77-5.37-.3-5.37-1.9,0-.72,1.17-1.21,3-1.35v-1H99v.94a14.57,14.57,0,0,1,3.19.49l-1,.93a15.65,15.65,0,0,0-3.28-.48c-.64,0-1.06.1-1.06.31,0,.75,5.36.32,5.36,1.94C102.21,98.76,100.84,99.22,99,99.33Z"/><path class="cls-4" d="M103,91.59H78.31v2.6c0,3.19,5.84,5.77,13,5.77s13-2.58,13-5.77v-2.6Z"/><path class="cls-5" d="M104.38,91.59a.38.38,0,0,1,0,.1c-.12,3.14-5.91,5.67-13,5.67s-13-2.59-13-5.77a2.48,2.48,0,0,1,.22-1c1.09-2.7,6.41-4.75,12.81-4.75s11.73,2,12.82,4.75a2.52,2.52,0,0,1,.21.93A.31.31,0,0,1,104.38,91.59Z"/><ellipse class="cls-4" cx="91.34" cy="91.59" rx="10.6" ry="4.69"/><path class="cls-5" d="M92.54,93.33v1H90.61v-1A14,14,0,0,1,87,92.64l1-.92a12,12,0,0,0,3.69.68c.79,0,1.28-.13,1.28-.37,0-.76-5.36-.3-5.36-1.9,0-.71,1.16-1.21,3-1.34v-1h1.93v.94a15.14,15.14,0,0,1,3.19.48l-1,.94a15.72,15.72,0,0,0-3.28-.49c-.64,0-1.06.11-1.06.31,0,.75,5.36.33,5.36,2C95.74,92.76,94.38,93.22,92.54,93.33Z"/><path class="cls-4" d="M111.88,86H87.22v2.6c0,3.19,5.83,5.77,13,5.77s13-2.58,13-5.77V86Z"/><path class="cls-5" d="M113.28,86a.38.38,0,0,1,0,.1c-.11,3.14-5.91,5.67-13,5.67s-13-2.59-13-5.77a2.64,2.64,0,0,1,.21-1c1.09-2.7,6.42-4.75,12.82-4.75s11.72,2,12.82,4.75a2.67,2.67,0,0,1,.2.92A.41.41,0,0,1,113.28,86Z"/><ellipse class="cls-4" cx="100.25" cy="85.95" rx="10.6" ry="4.69"/><path class="cls-5" d="M101.45,87.69v1H99.51v-1A14.11,14.11,0,0,1,95.85,87l1-.92a12,12,0,0,0,3.69.68c.79,0,1.28-.13,1.28-.37,0-.76-5.36-.3-5.36-1.9,0-.71,1.16-1.21,3-1.34v-1h1.94v.94a15.14,15.14,0,0,1,3.18.48l-1,.94a15.8,15.8,0,0,0-3.29-.49c-.64,0-1.06.11-1.06.31,0,.75,5.37.32,5.37,2C104.65,87.12,103.28,87.58,101.45,87.69Z"/><circle class="cls-5" cx="49.83" cy="95.48" r="13.05" transform="translate(-43.09 41.03) rotate(-32.07)"/><circle class="cls-4" cx="49.83" cy="95.48" r="10.61" transform="translate(-15.22 9.65) rotate(-9.6)"/><path class="cls-5" d="M53.11,99.56l1,2-1.75.84-1-2a7.66,7.66,0,0,1-4,.17l0-2.32a6.59,6.59,0,0,0,4-.2c.71-.34,1-.82.8-1.31-.75-1.56-5.14,1.7-6.7-1.56-.7-1.46-.13-3,1.42-4L46,89.19l1.75-.83.91,1.91A7.63,7.63,0,0,1,52,89.89v2.33a7.94,7.94,0,0,0-3.44.44c-.58.27-.86.66-.66,1.08.73,1.53,5.16-1.65,6.74,1.66C55.44,97,54.66,98.55,53.11,99.56Z"/></g></svg>