<svg xmlns="http://www.w3.org/2000/svg" viewBox="0 0 162.66 159.32"><defs><style>.cls-1{isolation:isolate;}.cls-2{fill:#1d1a28;}.cls-3{fill:#13304e;}.cls-4{fill:#e0a668;}.cls-5{fill:#6340bc;}.cls-6,.cls-7{fill:#8e81d3;}.cls-6{opacity:0.7;}.cls-8{fill:#fbb62d;}.cls-14,.cls-9{fill:#7b8c9d;}.cls-9{opacity:0.5;mix-blend-mode:multiply;}.cls-10{fill:#fb9129;}.cls-11,.cls-15{fill:#fbd34c;}.cls-12{fill:#fff;}.cls-13{fill:#ea8015;}.cls-15{opacity:0.25;}</style></defs><g class="cls-1"><g id="OBJECTS"><rect class="cls-2" x="27.79" y="137.58" width="101.31" height="12.21"/><rect class="cls-3" x="17.66" y="61.55" width="121.57" height="80.95" rx="11.22"/><rect class="cls-4" x="22.14" y="66.13" width="112.61" height="71.78" rx="4.61"/><rect class="cls-5" x="29.22" y="122.53" width="8.85" height="8.85" rx="2.97"/><rect class="cls-5" x="29.22" y="111.65" width="8.85" height="8.85" rx="2.97"/><rect class="cls-5" x="118.82" y="122.53" width="8.85" height="8.85" rx="2.97"/><rect class="cls-5" x="118.82" y="111.65" width="8.85" height="8.85" rx="2.97"/><path class="cls-5" d="M118.42,87.75a1.75,1.75,0,1,0-1.75,1.75A1.75,1.75,0,0,0,118.42,87.75Z"/><path class="cls-5" d="M125,84.82a1.75,1.75,0,1,0-1.75,1.75A1.75,1.75,0,0,0,125,84.82Z"/><path class="cls-5" d="M131.44,96.74a1.75,1.75,0,1,0-1.75,1.75A1.75,1.75,0,0,0,131.44,96.74Z"/><path class="cls-5" d="M120.93,116.93a.22.22,0,0,1-.22-.22V88h-4a.22.22,0,0,1,0-.44h4.26a.22.22,0,0,1,.22.22v29A.22.22,0,0,1,120.93,116.93Z"/><path class="cls-5" d="M123.24,115.31a.22.22,0,0,1-.22-.22V86a.22.22,0,0,1,.44,0v29.09A.22.22,0,0,1,123.24,115.31Z"/><path class="cls-5" d="M125.74,115.31a.22.22,0,0,1-.22-.22V96.74a.22.22,0,0,1,.22-.22h3.12a.22.22,0,0,1,0,.44H126v18.13A.22.22,0,0,1,125.74,115.31Z"/><path class="cls-3" d="M148.47,146v2.91a5.53,5.53,0,0,1-5.53,5.53H14a5.53,5.53,0,0,1-5.53-5.53V146Z"/><path class="cls-6" d="M94.54,146h0a4.69,4.69,0,0,1-4.7,4.69H67.05a4.69,4.69,0,0,1-4.7-4.69H94.54Z"/><rect class="cls-7" x="71.12" y="63.14" width="11.89" height="1.42" rx="0.71"/><path class="cls-7" d="M85.77,63.85a.81.81,0,1,0-.8.8A.8.8,0,0,0,85.77,63.85Z"/><circle class="cls-8" cx="20.18" cy="149.79" r="1.48"/><path class="cls-8" d="M29.27,149.79a1.48,1.48,0,1,0-1.48,1.48A1.48,1.48,0,0,0,29.27,149.79Z"/><circle class="cls-8" cx="35.4" cy="149.79" r="1.48"/><path class="cls-3" d="M51.4,92.59V127.3h53.07a5.36,5.36,0,0,0,5.37-5.37V95.58a5.36,5.36,0,0,0-5.37-5.37H53.78A2.39,2.39,0,0,0,51.4,92.59Z"/><path class="cls-9" d="M87.75,90.21v28.26h22.09V95.58a5.38,5.38,0,0,0-5.37-5.37Z"/><path class="cls-10" d="M70.66,103.7c0,.44,0,.87.06,1.3a15,15,0,0,0,.46,2.61,13.87,13.87,0,0,0,.89,2.46,14.4,14.4,0,0,0,1.33,2.29,14.86,14.86,0,0,0,3.71,3.71,15,15,0,0,0,2.26,1.32,14.5,14.5,0,0,0,2.49.9,13.93,13.93,0,0,0,2.58.45,14.77,14.77,0,0,0,2.66,0,13.93,13.93,0,0,0,2.58-.45,14.1,14.1,0,0,0,2.48-.9,13.85,13.85,0,0,0,2.27-1.32,14.87,14.87,0,0,0,2-1.7,15.34,15.34,0,0,0,1.68-2,15,15,0,0,0,1.33-2.3,13.87,13.87,0,0,0,.89-2.46,14.83,14.83,0,0,0,.46-2.61c0-.43.06-.86.06-1.3s0-.88-.06-1.31a14.83,14.83,0,0,0-.46-2.61,13.87,13.87,0,0,0-.89-2.46A15,15,0,0,0,98.14,95a15.34,15.34,0,0,0-1.68-2,14.87,14.87,0,0,0-2-1.7A13.85,13.85,0,0,0,92.16,90a14.1,14.1,0,0,0-2.48-.9,13.93,13.93,0,0,0-2.58-.45,14.77,14.77,0,0,0-2.66,0,13.93,13.93,0,0,0-2.58.45,14.5,14.5,0,0,0-2.49.9,15.64,15.64,0,0,0-4.29,3,14.79,14.79,0,0,0-1.68,2,14.4,14.4,0,0,0-1.33,2.29,13.87,13.87,0,0,0-.89,2.46,15,15,0,0,0-.46,2.61C70.68,102.82,70.66,103.25,70.66,103.7Z"/><path class="cls-11" d="M78.14,103.7,70.72,105a15,15,0,0,0,.46,2.61l7.42-1.31-6.53,3.77a14.4,14.4,0,0,0,1.33,2.29l6.52-3.76-4.84,5.77a14.87,14.87,0,0,0,2,1.7L82,110.3l-2.58,7.09a14.5,14.5,0,0,0,2.49.9l2.58-7.08v7.53a14.77,14.77,0,0,0,2.66,0v-7.53l2.58,7.08a14.1,14.1,0,0,0,2.48-.9l-2.57-7.09,4.84,5.77a14.87,14.87,0,0,0,2-1.7l-4.85-5.77,6.53,3.77a15,15,0,0,0,1.33-2.3l-6.53-3.77,7.42,1.31a14.83,14.83,0,0,0,.46-2.61l-7.42-1.3,7.42-1.31a14.83,14.83,0,0,0-.46-2.61l-7.42,1.31,6.53-3.77A15,15,0,0,0,98.14,95l-6.53,3.77L96.46,93a14.87,14.87,0,0,0-2-1.7l-4.84,5.77L92.16,90a14.1,14.1,0,0,0-2.48-.9L87.1,96.18V88.65a14.77,14.77,0,0,0-2.66,0v7.53L81.86,89.1a14.5,14.5,0,0,0-2.49.9L82,97.09l-4.84-5.77a14.87,14.87,0,0,0-2,1.7l4.84,5.77L73.4,95a14.4,14.4,0,0,0-1.33,2.29l6.53,3.77-7.42-1.31a15,15,0,0,0-.46,2.61Z"/><circle class="cls-10" cx="85.77" cy="103.7" r="12.03"/><circle class="cls-8" cx="85.77" cy="103.7" r="10.68"/><path class="cls-10" d="M59.33,86.26a12.63,12.63,0,0,1-.06,1.38,15.66,15.66,0,0,1-.48,2.75A14.84,14.84,0,0,1,57.85,93a15.45,15.45,0,0,1-1.39,2.4,16,16,0,0,1-6.29,5.29,17.09,17.09,0,0,1-2.62,1,16.28,16.28,0,0,1-2.72.47c-.46,0-.92.06-1.39.06s-.94,0-1.4-.06a16.16,16.16,0,0,1-2.71-.47,15.92,15.92,0,0,1-5-2.34,15.27,15.27,0,0,1-2.14-1.79,16.22,16.22,0,0,1-1.77-2.11A17,17,0,0,1,29,93a16.67,16.67,0,0,1-.94-2.59,14.77,14.77,0,0,1-.47-2.75,13.54,13.54,0,0,1,0-2.75,14.77,14.77,0,0,1,.47-2.75A16.67,16.67,0,0,1,29,79.55a16.46,16.46,0,0,1,1.4-2.41A16.22,16.22,0,0,1,32.19,75a15.27,15.27,0,0,1,2.14-1.79,15.92,15.92,0,0,1,5-2.34A16.16,16.16,0,0,1,42,70.43c.46,0,.93-.06,1.4-.06s.93,0,1.39.06a16.28,16.28,0,0,1,2.72.47,17.09,17.09,0,0,1,2.62,1A16,16,0,0,1,54.68,75a16.29,16.29,0,0,1,1.78,2.11,15.55,15.55,0,0,1,1.39,2.41,14.84,14.84,0,0,1,.94,2.59,15.66,15.66,0,0,1,.48,2.75A12.56,12.56,0,0,1,59.33,86.26Z"/><path class="cls-11" d="M51.47,86.26l7.8,1.38a15.66,15.66,0,0,1-.48,2.75L51,89l6.87,4a15.45,15.45,0,0,1-1.39,2.4l-6.87-4,5.09,6.08a15.78,15.78,0,0,1-2.13,1.79l-5.1-6.07,2.72,7.45a17.09,17.09,0,0,1-2.62,1l-2.72-7.46v7.93c-.46,0-.92.06-1.39.06s-.94,0-1.4-.06V94.17l-2.71,7.46a15.77,15.77,0,0,1-2.62-1l2.71-7.45-5.09,6.07a15.27,15.27,0,0,1-2.14-1.79l5.1-6.08-6.87,4A17,17,0,0,1,29,93l6.88-4-7.82,1.38a14.77,14.77,0,0,1-.47-2.75l7.8-1.38-7.8-1.37a14.77,14.77,0,0,1,.47-2.75l7.82,1.38-6.88-4a16.46,16.46,0,0,1,1.4-2.41l6.87,4L32.19,75a15.27,15.27,0,0,1,2.14-1.79l5.09,6.07-2.71-7.45a15.77,15.77,0,0,1,2.62-1L42,78.36V70.43c.46,0,.93-.06,1.4-.06s.93,0,1.39.06v7.93l2.72-7.46a17.09,17.09,0,0,1,2.62,1l-2.72,7.45,5.1-6.07A15.78,15.78,0,0,1,54.68,75l-5.09,6.08,6.87-4a15.55,15.55,0,0,1,1.39,2.41l-6.87,4,7.81-1.38a15.66,15.66,0,0,1,.48,2.75Z"/><circle class="cls-10" cx="43.44" cy="86.27" r="12.66" transform="translate(-48.28 55.98) rotate(-45)"/><circle class="cls-8" cx="43.44" cy="86.27" r="11.23"/><path class="cls-12" d="M48.3,88.17a3.43,3.43,0,0,0-.33-.76,2.81,2.81,0,0,0-.52-.63,3,3,0,0,0-.68-.48A2.73,2.73,0,0,0,46,86l0-.08a3.5,3.5,0,0,0,1-.64,3.12,3.12,0,0,0,.7-1,2.57,2.57,0,0,0,.27-1.16,3,3,0,0,0-1-2.33,2.94,2.94,0,0,0-1.14-.6V79a.23.23,0,0,0-.23-.23h-1.5a.23.23,0,0,0-.23.23v1H42.49V79a.23.23,0,0,0-.23-.23H40.75a.23.23,0,0,0-.23.23v1H40a.64.64,0,0,0-.72.72V91.94a.64.64,0,0,0,.72.73h.49v.88a.23.23,0,0,0,.23.23h1.51a.23.23,0,0,0,.23-.23v-.88h1.33v.88a.23.23,0,0,0,.23.23h1.5a.23.23,0,0,0,.23-.23v-1.1a3.68,3.68,0,0,0,1.52-.75A3.4,3.4,0,0,0,48.42,89,2.74,2.74,0,0,0,48.3,88.17Zm-3.19,1.74a1.83,1.83,0,0,1-1.23.38H42.1V87.4h1.49a2.48,2.48,0,0,1,1.45.36,1.2,1.2,0,0,1,.51,1.06A1.39,1.39,0,0,1,45.11,89.91Zm-.48-7.25a1.23,1.23,0,0,1,.41,1,1.26,1.26,0,0,1-.43,1,1.85,1.85,0,0,1-1.26.4H42.1V82.32h1.29A1.93,1.93,0,0,1,44.63,82.66Z"/><path class="cls-13" d="M60.36,95h44.59a4.9,4.9,0,0,1,4.9,4.9v27.29a4.9,4.9,0,0,1-4.9,4.9H60.36a11.47,11.47,0,0,1-11.47-11.47V106.47A11.47,11.47,0,0,1,60.36,95Z" transform="translate(158.72 227.09) rotate(180)"/><path class="cls-12" d="M52.72,98.58H51.4a.44.44,0,1,1,0-.87h1.32a.44.44,0,1,1,0,.87Z"/><path class="cls-12" d="M103.46,129.38h-.19a.44.44,0,1,1,0-.88h.19a2.54,2.54,0,0,0,1.88-.8.44.44,0,1,1,.65.59A3.42,3.42,0,0,1,103.46,129.38Zm-2.85,0H98a.44.44,0,1,1,0-.88h2.66a.44.44,0,1,1,0,.88Zm-5.32,0H92.63a.44.44,0,0,1,0-.88h2.66a.44.44,0,1,1,0,.88Zm-5.32,0H87.31a.44.44,0,0,1,0-.88H90a.44.44,0,0,1,0,.88Zm-5.32,0H82a.44.44,0,0,1,0-.88h2.66a.44.44,0,0,1,0,.88Zm-5.32,0H76.67a.44.44,0,0,1,0-.88h2.66a.44.44,0,0,1,0,.88Zm-5.32,0H71.35a.44.44,0,0,1,0-.88H74a.44.44,0,0,1,0,.88Zm-5.32,0H66a.44.44,0,0,1,0-.88h2.66a.44.44,0,0,1,0,.88Zm-5.32,0H60.71a.44.44,0,0,1,0-.88h2.66a.44.44,0,0,1,0,.88Zm-5.32,0H55.39a.44.44,0,0,1,0-.88h2.66a.44.44,0,0,1,0,.88Zm48.28-3.44a.44.44,0,0,1-.44-.44v-2.66a.44.44,0,0,1,.88,0v2.66A.44.44,0,0,1,106.33,125.94Zm0-5.32a.44.44,0,0,1-.44-.44v-2.65a.44.44,0,0,1,.88,0v2.65A.44.44,0,0,1,106.33,120.62Zm0-5.32a.44.44,0,0,1-.44-.43v-2.66a.44.44,0,0,1,.88,0v2.66A.44.44,0,0,1,106.33,115.3Zm0-5.32a.44.44,0,0,1-.44-.43v-2.66a.44.44,0,0,1,.88,0v2.66A.44.44,0,0,1,106.33,110Zm0-5.32a.44.44,0,0,1-.44-.43v-2.66a.44.44,0,0,1,.88,0v2.66A.44.44,0,0,1,106.33,104.66Zm-.68-5.14a.45.45,0,0,1-.32-.14,2.52,2.52,0,0,0-1.87-.8h-.21a.44.44,0,1,1,0-.87h.21A3.43,3.43,0,0,1,106,98.78a.44.44,0,0,1,0,.62A.42.42,0,0,1,105.65,99.52Zm-5.06-.94H97.93a.44.44,0,0,1,0-.87h2.66a.44.44,0,1,1,0,.87Zm-5.32,0H92.61a.44.44,0,0,1,0-.87h2.66a.44.44,0,1,1,0,.87Zm-5.32,0H87.3a.44.44,0,1,1,0-.87H90a.44.44,0,1,1,0,.87Zm-5.31,0H82a.44.44,0,1,1,0-.87h2.66a.44.44,0,0,1,0,.87Zm-5.32,0H76.66a.44.44,0,1,1,0-.87h2.66a.44.44,0,0,1,0,.87Zm-5.32,0H71.34a.44.44,0,1,1,0-.87H74a.44.44,0,1,1,0,.87Zm-5.32,0H66a.44.44,0,1,1,0-.87h2.66a.44.44,0,1,1,0,.87Zm-5.32,0H60.7a.44.44,0,1,1,0-.87h2.66a.44.44,0,1,1,0,.87Zm-5.32,0H55.38a.44.44,0,1,1,0-.87H58a.44.44,0,1,1,0,.87Z"/><path class="cls-12" d="M52.72,129.38H51.4a.44.44,0,0,1,0-.88h1.32a.44.44,0,0,1,0,.88Z"/><rect class="cls-3" x="46.59" y="108.62" width="19.2" height="9.85" rx="3.44" transform="translate(112.37 227.09) rotate(180)"/><circle class="cls-14" cx="60.56" cy="113.54" r="2.55"/><circle class="cls-3" cx="60.56" cy="113.54" r="1.81"/><path class="cls-8" d="M59.28,113.54a1.28,1.28,0,1,1,1.28,1.28A1.27,1.27,0,0,1,59.28,113.54Z"/><path class="cls-10" d="M127.11,60.68c0,.52,0,1-.07,1.55a17.63,17.63,0,0,1-.54,3.1,17.37,17.37,0,0,1-1.07,2.93A17,17,0,0,1,123.86,71a17.78,17.78,0,0,1-2,2.39,17.2,17.2,0,0,1-2.41,2A18,18,0,0,1,116.75,77a18.27,18.27,0,0,1-3,1.07,17.13,17.13,0,0,1-3.07.54c-.51.05-1,.07-1.57.07s-1.06,0-1.58-.07A17.45,17.45,0,0,1,104.5,78a17.9,17.9,0,0,1-3-1.07,18.76,18.76,0,0,1-5.11-3.59,18.26,18.26,0,0,1-2-2.38,18.47,18.47,0,0,1-1.58-2.73,16.51,16.51,0,0,1-1.06-2.93,17.47,17.47,0,0,1-.54-3.1c-.05-.51-.07-1-.07-1.55s0-1,.07-1.56A17.79,17.79,0,0,1,91.8,56a16.8,16.8,0,0,1,1.06-2.93,18.89,18.89,0,0,1,1.58-2.72,18.26,18.26,0,0,1,2-2.38,17.35,17.35,0,0,1,2.42-2,17.13,17.13,0,0,1,2.69-1.56,17.94,17.94,0,0,1,3-1.08,18.41,18.41,0,0,1,3.07-.53c.52,0,1.05-.07,1.58-.07s1.06,0,1.57.07a18.06,18.06,0,0,1,3.07.53,18.3,18.3,0,0,1,3,1.08A18,18,0,0,1,119.44,46a17.27,17.27,0,0,1,2.41,2,18.34,18.34,0,0,1,2,2.38,18,18,0,0,1,1.57,2.72,17.63,17.63,0,0,1,1.61,6C127.09,59.64,127.11,60.15,127.11,60.68Z"/><path class="cls-11" d="M118.22,60.68,127,62.23a17.63,17.63,0,0,1-.54,3.1l-8.83-1.55,7.76,4.48A17,17,0,0,1,123.86,71l-7.76-4.47,5.75,6.86a17.2,17.2,0,0,1-2.41,2l-5.76-6.86L116.75,77a18.27,18.27,0,0,1-3,1.07l-3.07-8.42v9c-.51.05-1,.07-1.57.07s-1.06,0-1.58-.07v-9L104.5,78a17.9,17.9,0,0,1-3-1.07l3.06-8.43-5.75,6.86a17.28,17.28,0,0,1-2.42-2l5.76-6.86L94.44,71a18.47,18.47,0,0,1-1.58-2.73l7.77-4.48L91.8,65.33a17.47,17.47,0,0,1-.54-3.1l8.82-1.55-8.82-1.56A17.79,17.79,0,0,1,91.8,56l8.83,1.56-7.77-4.49a18.89,18.89,0,0,1,1.58-2.72l7.76,4.48L96.44,48a17.35,17.35,0,0,1,2.42-2l5.75,6.86-3.06-8.42a17.94,17.94,0,0,1,3-1.08l3.07,8.42v-9c.52,0,1.05-.07,1.58-.07s1.06,0,1.57.07v9l3.07-8.42a18.3,18.3,0,0,1,3,1.08l-3.07,8.42L119.44,46a17.27,17.27,0,0,1,2.41,2l-5.75,6.86,7.76-4.48a18,18,0,0,1,1.57,2.72l-7.76,4.49L126.5,56a17.74,17.74,0,0,1,.54,3.11Z"/><circle class="cls-10" cx="109.15" cy="60.68" r="14.3"/><circle class="cls-8" cx="109.15" cy="60.68" r="12.69"/><polygon class="cls-12" points="109.15 63.5 115.62 59.53 109.15 50.11 102.67 59.53 109.15 63.5"/><polygon class="cls-12" points="109.15 65.41 103.34 61.85 109.15 70.29 114.95 61.85 109.15 65.41"/><polygon class="cls-15" points="109.15 50.11 109.15 63.5 102.67 59.53 109.15 50.11"/><polygon class="cls-15" points="109.15 65.41 109.15 70.29 103.34 61.85 109.15 65.41"/><path class="cls-10" d="M56.69,48.86A11.51,11.51,0,0,1,56.63,50a12.5,12.5,0,0,1-.41,2.37,12.65,12.65,0,0,1-.81,2.23,13.28,13.28,0,0,1-1.2,2.07,14,14,0,0,1-1.52,1.82,14.17,14.17,0,0,1-1.84,1.54,13.51,13.51,0,0,1-2.05,1.19,13.73,13.73,0,0,1-4.59,1.23c-.4,0-.8,0-1.2,0s-.81,0-1.21,0a12.76,12.76,0,0,1-2.33-.41,12.6,12.6,0,0,1-2.25-.82,12.81,12.81,0,0,1-2.06-1.19,14.17,14.17,0,0,1-1.84-1.54,15.49,15.49,0,0,1-1.52-1.81,13.86,13.86,0,0,1-1.2-2.08,12.65,12.65,0,0,1-.81-2.23,12.4,12.4,0,0,1-.41-2.36,11.83,11.83,0,0,1,0-2.38,12.4,12.4,0,0,1,.41-2.36,12.65,12.65,0,0,1,.81-2.23A13.86,13.86,0,0,1,31.8,41a14.71,14.71,0,0,1,1.52-1.81,13.41,13.41,0,0,1,1.84-1.54,12.81,12.81,0,0,1,2.06-1.19,12.6,12.6,0,0,1,2.25-.82,12.76,12.76,0,0,1,2.33-.41c.4,0,.8,0,1.21,0s.8,0,1.2,0a13.73,13.73,0,0,1,4.59,1.23,14,14,0,0,1,3.89,2.73,14,14,0,0,1,2.72,3.89,12.65,12.65,0,0,1,.81,2.23,12.5,12.5,0,0,1,.41,2.37A11.51,11.51,0,0,1,56.69,48.86Z"/><path class="cls-11" d="M49.92,48.86,56.63,50a12.5,12.5,0,0,1-.41,2.37L49.5,51.22l5.91,3.42a13.28,13.28,0,0,1-1.2,2.07L48.3,53.3l4.39,5.23a14.17,14.17,0,0,1-1.84,1.54l-4.39-5.22,2.34,6.41a12.7,12.7,0,0,1-2.26.82l-2.33-6.41v6.82c-.4,0-.8,0-1.2,0s-.81,0-1.21,0V55.67l-2.33,6.41a12.6,12.6,0,0,1-2.25-.82l2.33-6.41-4.39,5.22a14.17,14.17,0,0,1-1.84-1.54l4.39-5.23L31.8,56.72a13.86,13.86,0,0,1-1.2-2.08l5.91-3.42-6.72,1.19a12.4,12.4,0,0,1-.41-2.36l6.72-1.19-6.72-1.19a12.4,12.4,0,0,1,.41-2.36l6.72,1.19L30.6,43.08A13.86,13.86,0,0,1,31.8,41l5.91,3.42-4.39-5.23a13.41,13.41,0,0,1,1.84-1.54l4.39,5.22-2.33-6.41a12.6,12.6,0,0,1,2.25-.82l2.33,6.41V35.23c.4,0,.8,0,1.21,0s.8,0,1.2,0v6.82l2.33-6.41a12.7,12.7,0,0,1,2.26.82l-2.34,6.41,4.39-5.22a13.41,13.41,0,0,1,1.84,1.54L48.3,44.42,54.21,41a13.28,13.28,0,0,1,1.2,2.07L49.5,46.5l6.72-1.19a12.5,12.5,0,0,1,.41,2.37Z"/><circle class="cls-10" cx="43.01" cy="48.86" r="10.89" transform="translate(-14.43 79.49) rotate(-76.72)"/><circle class="cls-8" cx="43.01" cy="48.86" r="9.67"/><polygon class="cls-12" points="43.01 51.01 47.94 47.99 43.01 40.81 38.07 47.99 43.01 51.01"/><polygon class="cls-12" points="43.01 52.46 38.58 49.75 43.01 56.18 47.43 49.75 43.01 52.46"/><polygon class="cls-15" points="43.01 40.81 43.01 51.01 38.07 47.99 43.01 40.81"/><polygon class="cls-15" points="43.01 52.46 43.01 56.18 38.58 49.75 43.01 52.46"/><path class="cls-10" d="M88.93,32.67a7.94,7.94,0,0,1,0,.85,9,9,0,0,1-.29,1.72A10.35,10.35,0,0,1,88,36.85a10.11,10.11,0,0,1-.87,1.5A10.69,10.69,0,0,1,86,39.67a9.52,9.52,0,0,1-1.34,1.11,9.94,9.94,0,0,1-3.11,1.46,9.48,9.48,0,0,1-1.69.29,9.48,9.48,0,0,1-1.74,0,9.48,9.48,0,0,1-1.69-.29,9.07,9.07,0,0,1-1.63-.6,9.6,9.6,0,0,1-1.49-.86A10,10,0,0,1,72,39.67a10.69,10.69,0,0,1-1.1-1.32,10.11,10.11,0,0,1-.87-1.5,10.35,10.35,0,0,1-.59-1.61,9,9,0,0,1-.29-1.71,8.27,8.27,0,0,1,0-.86,8.11,8.11,0,0,1,0-.86,8.73,8.73,0,0,1,.29-1.71,9.65,9.65,0,0,1,.59-1.61A10.22,10.22,0,0,1,70.92,27,9.91,9.91,0,0,1,72,25.67a10.11,10.11,0,0,1,1.33-1.12,9.6,9.6,0,0,1,1.49-.86,9.87,9.87,0,0,1,1.63-.59,9.49,9.49,0,0,1,1.69-.3,9.48,9.48,0,0,1,1.74,0,9.49,9.49,0,0,1,1.69.3,9.63,9.63,0,0,1,3.11,1.45A9.59,9.59,0,0,1,86,25.67,9.39,9.39,0,0,1,87.14,27,9.9,9.9,0,0,1,88.6,30.1a8.86,8.86,0,0,1,.29,1.71A8.25,8.25,0,0,1,88.93,32.67Z"/><path class="cls-11" d="M84,32.67l4.86.85a9,9,0,0,1-.29,1.72l-4.87-.86L88,36.85a10.11,10.11,0,0,1-.87,1.5l-4.28-2.47L86,39.67a9.52,9.52,0,0,1-1.34,1.11L81.53,37l1.69,4.64a9.07,9.07,0,0,1-1.63.6L79.9,37.59v4.94a9.48,9.48,0,0,1-1.74,0V37.59l-1.69,4.65a9.07,9.07,0,0,1-1.63-.6L76.53,37l-3.18,3.78A10,10,0,0,1,72,39.67l3.18-3.79-4.28,2.47a10.11,10.11,0,0,1-.87-1.5l4.28-2.47-4.87.86a9,9,0,0,1-.29-1.71L74,32.67l-4.86-.86a8.73,8.73,0,0,1,.29-1.71l4.87.86-4.28-2.47A10.22,10.22,0,0,1,70.92,27l4.28,2.47L72,25.67a10.11,10.11,0,0,1,1.33-1.12l3.18,3.79-1.69-4.65a9.87,9.87,0,0,1,1.63-.59l1.69,4.64V22.8a9.48,9.48,0,0,1,1.74,0v4.94l1.69-4.64a9.87,9.87,0,0,1,1.63.59l-1.69,4.65,3.17-3.79A9.59,9.59,0,0,1,86,25.67l-3.18,3.78L87.14,27a9.63,9.63,0,0,1,.87,1.5L83.73,31l4.87-.86a8.86,8.86,0,0,1,.29,1.71Z"/><circle class="cls-10" cx="79.03" cy="32.67" r="7.88" transform="translate(34.12 105.45) rotate(-80.78)"/><circle class="cls-8" cx="79.03" cy="32.67" r="7" transform="translate(34.12 105.45) rotate(-80.78)"/><path class="cls-12" d="M82.06,33.85a2.18,2.18,0,0,0-.21-.47,1.48,1.48,0,0,0-.32-.39,2,2,0,0,0-.42-.3,2.05,2.05,0,0,0-.51-.18v0a2.27,2.27,0,0,0,.62-.4,2.12,2.12,0,0,0,.44-.59,1.66,1.66,0,0,0,.16-.73,1.85,1.85,0,0,0-.61-1.44,1.78,1.78,0,0,0-.71-.38v-.79a.14.14,0,0,0-.14-.14h-.94a.14.14,0,0,0-.14.14v.62h-.83v-.61a.15.15,0,0,0-.15-.14h-.93a.15.15,0,0,0-.15.14v.61h-.3a.4.4,0,0,0-.45.46v7a.4.4,0,0,0,.45.46h.3v.55a.15.15,0,0,0,.15.14h.93a.15.15,0,0,0,.15-.14v-.55h.83v.55a.14.14,0,0,0,.14.14h.94a.14.14,0,0,0,.14-.14v-.69a2.41,2.41,0,0,0,1-.46,2.14,2.14,0,0,0,.69-1.7A1.79,1.79,0,0,0,82.06,33.85Zm-2,1.09a1.11,1.11,0,0,1-.77.24H78.2v-1.8h.92a1.55,1.55,0,0,1,.91.22.76.76,0,0,1,.31.66A.87.87,0,0,1,80.07,34.94Zm-.3-4.52a.77.77,0,0,1,.26.63.8.8,0,0,1-.27.6,1.14,1.14,0,0,1-.78.25H78.2V30.21H79A1.18,1.18,0,0,1,79.77,30.42Z"/><path class="cls-10" d="M123.26,21a10.93,10.93,0,0,1-.06,1.15,12.68,12.68,0,0,1-.4,2.31,12.9,12.9,0,0,1-.79,2.18,12.65,12.65,0,0,1-1.17,2,13.42,13.42,0,0,1-1.49,1.77,12.17,12.17,0,0,1-1.79,1.5,12.91,12.91,0,0,1-2,1.17,14.77,14.77,0,0,1-2.2.8,13.25,13.25,0,0,1-2.28.39,11.17,11.17,0,0,1-1.17.06,11.31,11.31,0,0,1-1.17-.06,13.25,13.25,0,0,1-2.28-.39,13.62,13.62,0,0,1-2.19-.8,12.55,12.55,0,0,1-2-1.17,12.17,12.17,0,0,1-1.79-1.5,13.32,13.32,0,0,1-2.66-3.79A12.9,12.9,0,0,1,97,24.44a12.57,12.57,0,0,1-.4-2.3A11.12,11.12,0,0,1,96.56,21a11.27,11.27,0,0,1,.06-1.16,13.14,13.14,0,0,1,1.19-4.47,13.55,13.55,0,0,1,1.17-2,14.09,14.09,0,0,1,1.49-1.77,12.82,12.82,0,0,1,1.79-1.5,11.79,11.79,0,0,1,2-1.16,12.73,12.73,0,0,1,2.19-.8,12.36,12.36,0,0,1,2.28-.4,11.33,11.33,0,0,1,1.17-.05,11.21,11.21,0,0,1,1.17.05,12.36,12.36,0,0,1,2.28.4,13.41,13.41,0,0,1,6,3.46,13.51,13.51,0,0,1,1.49,1.78,12.22,12.22,0,0,1,1.17,2,12.49,12.49,0,0,1,.79,2.17,12.68,12.68,0,0,1,.4,2.31A10.93,10.93,0,0,1,123.26,21Z"/><path class="cls-11" d="M116.65,21l6.55,1.15a12.68,12.68,0,0,1-.4,2.31l-6.56-1.16L122,26.62a12.65,12.65,0,0,1-1.17,2l-5.76-3.33,4.27,5.1a12.17,12.17,0,0,1-1.79,1.5l-4.28-5.09,2.28,6.26a14.77,14.77,0,0,1-2.2.8l-2.28-6.26v6.65a11.17,11.17,0,0,1-1.17.06,11.31,11.31,0,0,1-1.17-.06V27.62l-2.28,6.26a13.62,13.62,0,0,1-2.19-.8l2.27-6.26-4.28,5.09a12.17,12.17,0,0,1-1.79-1.5l4.28-5.1L99,28.64a13.45,13.45,0,0,1-1.17-2l5.77-3.34L97,24.44a12.57,12.57,0,0,1-.4-2.3L103.17,21l-6.55-1.16a12.57,12.57,0,0,1,.4-2.3l6.56,1.16-5.77-3.33a13.55,13.55,0,0,1,1.17-2l5.77,3.33-4.28-5.1a12.82,12.82,0,0,1,1.79-1.5l4.28,5.09-2.27-6.25a12.73,12.73,0,0,1,2.19-.8l2.28,6.25V7.69a11.33,11.33,0,0,1,1.17-.05,11.21,11.21,0,0,1,1.17.05v6.65l2.28-6.25a12.83,12.83,0,0,1,2.2.8l-2.28,6.25,4.28-5.09a12.82,12.82,0,0,1,1.79,1.5l-4.27,5.1,5.76-3.32a12.22,12.22,0,0,1,1.17,2l-5.77,3.33,6.56-1.16a12.68,12.68,0,0,1,.4,2.31Z"/><circle class="cls-10" cx="109.91" cy="20.98" r="10.62"/><circle class="cls-8" cx="109.91" cy="20.98" r="9.43" transform="translate(17.36 83.86) rotate(-45)"/><path class="cls-12" d="M114,22.58a3,3,0,0,0-.27-.63,2.54,2.54,0,0,0-.44-.54,2.91,2.91,0,0,0-.57-.4,2.49,2.49,0,0,0-.68-.24V20.7a3,3,0,0,0,.83-.54,2.48,2.48,0,0,0,.59-.8,2.15,2.15,0,0,0,.22-1,2.48,2.48,0,0,0-.83-1.95,2.46,2.46,0,0,0-1-.51V14.87a.2.2,0,0,0-.19-.2h-1.27a.2.2,0,0,0-.19.2v.83h-1.12v-.82a.19.19,0,0,0-.19-.2h-1.27a.2.2,0,0,0-.19.2v.82h-.41a.54.54,0,0,0-.61.61v9.45a.54.54,0,0,0,.61.61h.41v.74a.2.2,0,0,0,.19.19h1.27a.19.19,0,0,0,.19-.19v-.74h1.12v.74a.2.2,0,0,0,.19.19h1.27a.2.2,0,0,0,.19-.19v-.93a3.08,3.08,0,0,0,1.27-.62,2.84,2.84,0,0,0,.94-2.29A2.24,2.24,0,0,0,114,22.58ZM111.32,24a1.56,1.56,0,0,1-1,.32h-1.49V21.94H110a2.11,2.11,0,0,1,1.22.3,1,1,0,0,1,.42.89A1.15,1.15,0,0,1,111.32,24ZM110.91,18a1,1,0,0,1,.35.84,1.08,1.08,0,0,1-.37.81,1.5,1.5,0,0,1-1,.33h-1V17.67h1.08A1.59,1.59,0,0,1,110.91,18Z"/></g></g></svg>