<svg id="Layer_1" data-name="Layer 1" xmlns="http://www.w3.org/2000/svg" viewBox="0 0 519.66 104.26"><defs><style>.cls-1{fill:#fff;}</style></defs><path class="cls-1" d="M472,54.69c-.15,1.6,0,3.21,0,4.82s0,3.18,0,4.78V88.68c-1,.41-7.23.48-8.81.12v-50c.4,0,.79-.11,1.18-.11,2.14,0,4.28,0,6.42,0a2.15,2.15,0,0,1,2,1.06c5.5,7.59,11.05,15.15,16.54,22.75,2.28,3.17,4.45,6.43,6.67,9.65.15.22.33.41.65.79a4.55,4.55,0,0,0,.26-1c0-1.46-.1-2.91-.1-4.37q0-13.51,0-27V38.73c3-.13,5.83,0,8.62,0,.31,1.17.38,48.42.1,50.21-.44,0-.92.12-1.4.12-1.91,0-3.82-.05-5.73,0a2.4,2.4,0,0,1-2.27-1.13c-3.84-5.37-7.74-10.7-11.62-16-2.91-4-5.84-8-8.73-12.05-.95-1.33-1.78-2.74-2.67-4.11-.24-.38-.48-.75-.73-1.12Z" transform="translate(-49.12 -11.44)"/><path class="cls-1" d="M296.8,38.73c.47,0,.95-.06,1.44-.06h24.87a23.67,23.67,0,0,1,6.48.78c5.74,1.64,8.93,5.49,9.84,11.32a19.36,19.36,0,0,1-.42,8.12,13.08,13.08,0,0,1-7.16,8.66l-1.17.6,10.63,20.68a8,8,0,0,1-1,.19c-2.64,0-5.28,0-7.92,0a1.6,1.6,0,0,1-1.65-1.1c-2.77-5.73-5.61-11.43-8.36-17.17a1.91,1.91,0,0,0-2.05-1.3c-4.28.06-8.57,0-12.85,0h-1.55c-.12,3.3,0,6.51-.05,9.72s0,6.36,0,9.5a40.38,40.38,0,0,1-9,.17C296.58,87.87,296.52,40.37,296.8,38.73Zm9.15,23h9.78c2.45,0,4.91,0,7.37,0a6.9,6.9,0,0,0,7.08-6.1,12.36,12.36,0,0,0,.07-2.72,6.3,6.3,0,0,0-5.19-6,11,11,0,0,0-2.43-.26c-5.14,0-10.29,0-15.43,0-.39,0-.79.07-1.25.11Z" transform="translate(-49.12 -11.44)"/><path class="cls-1" d="M352.75,88.93V38.82a7,7,0,0,1,.94-.15c7.28,0,14.57-.07,21.85.09a23.23,23.23,0,0,1,12.39,3.72A18.71,18.71,0,0,1,395.72,53a36.34,36.34,0,0,1,.1,21.24c-2.18,7.34-7.16,11.84-14.53,13.78a34.06,34.06,0,0,1-8.65,1H354.33C353.85,89,353.36,89,352.75,88.93Zm9.32-8a2.68,2.68,0,0,0,.44.15c4.23,0,8.48.19,12.69-.11,5.63-.4,9.72-3.31,11.6-9.18a23,23,0,0,0,1-6.17,28.76,28.76,0,0,0-.94-9.73c-1.33-4.34-4.06-7.38-8.5-8.63a19.58,19.58,0,0,0-4.69-.72c-3.45-.11-6.91,0-10.37,0-.39,0-.78.07-1.21.11Z" transform="translate(-49.12 -11.44)"/><path class="cls-1" d="M568.77,63.44a35.35,35.35,0,0,1-1.36,10.82C565,82.07,559.89,87,552,88.9a35,35,0,0,1-18.34-.31,19.61,19.61,0,0,1-14-13.59,36.63,36.63,0,0,1-.08-22c2.37-7.76,7.71-12.47,15.59-14.28a35.83,35.83,0,0,1,16.76.07c8.68,2.13,13.87,7.75,15.93,16.35A32.69,32.69,0,0,1,568.77,63.44Zm-9.27.35c-.26-2.25-.36-4.54-.82-6.75-1.21-5.69-4.52-9.54-10.32-10.95a21.32,21.32,0,0,0-8-.36c-5.61.79-9.61,3.63-11.56,9.09A23,23,0,0,0,527.61,61a32.41,32.41,0,0,0,.68,10.3c1.34,5.35,4.56,8.93,10,10.28a21.39,21.39,0,0,0,8.94.28c5.81-1,9.58-4.33,11.2-10A34.63,34.63,0,0,0,559.5,63.79Z" transform="translate(-49.12 -11.44)"/><path class="cls-1" d="M287,88.94H277c-.19-.44-.41-.88-.58-1.33q-1.6-4.22-3.19-8.42c-.45-1.17-.45-1.18-1.65-1.18q-10.38,0-20.76,0c-1.24,0-1.24,0-1.67,1.15q-1.63,4.41-3.25,8.83c-.22.59-.45,1-1.22,1-2.68,0-5.37,0-8.06,0a2.47,2.47,0,0,1-.57-.18q9.72-25.05,19.48-50.07H267.4ZM252.6,70.12h17.1a6.29,6.29,0,0,0-.18-.89q-3.93-11-7.88-22.05a3.94,3.94,0,0,0-.51-.7C258.26,54.43,255.46,62.21,252.6,70.12Z" transform="translate(-49.12 -11.44)"/><path class="cls-1" d="M412.06,88.93h-9.49c6.52-16.82,13-33.47,19.53-50.19h11.82c6.5,16.69,13,33.36,19.53,50.18h-9.91c-.19-.44-.4-.88-.58-1.34-1-2.8-2.1-5.62-3.16-8.42-.43-1.14-.44-1.15-1.67-1.15q-10.38,0-20.75,0c-1.25,0-1.25,0-1.67,1.15q-1.54,4.16-3.07,8.31C412.47,87.94,412.27,88.4,412.06,88.93Zm15.77-42.29h-.24c-2.81,7.79-5.61,15.59-8.46,23.49h17.18Z" transform="translate(-49.12 -11.44)"/><path class="cls-1" d="M220.93,70.76h8.89a15.6,15.6,0,0,1-.66,5.84c-1.76,6.24-6,10-12,11.94a29.13,29.13,0,0,1-11.73,1.25,42.13,42.13,0,0,1-6.72-1c-7.36-2-11.94-6.86-14-14.12A40,40,0,0,1,183.4,61a35.5,35.5,0,0,1,1.51-8.57c2.39-7.35,7.32-12,14.87-13.77a31.11,31.11,0,0,1,18.53,1c7.28,2.81,11,8.28,11.57,16,0,.45,0,.9,0,1.44H220.6a7.88,7.88,0,0,1-.17-.87c-.48-5.73-3.9-9.46-9.61-10.4a19.4,19.4,0,0,0-8,.35,12,12,0,0,0-8.72,8.07,23.89,23.89,0,0,0-1.27,7,37.35,37.35,0,0,0,.69,10.44,17.71,17.71,0,0,0,.78,2.47,11.63,11.63,0,0,0,9,7.56,20,20,0,0,0,9.07,0c4.77-1.16,8-4.57,8.4-9.66C220.77,71.57,220.86,71.21,220.93,70.76Z" transform="translate(-49.12 -11.44)"/><path class="cls-1" d="M87.54,71.15a7.5,7.5,0,1,1,7.57-7.48A7.43,7.43,0,0,1,87.54,71.15Z" transform="translate(-49.12 -11.44)"/><path class="cls-1" d="M96.48,55.58a7.49,7.49,0,1,1,7.61-7.44A7.46,7.46,0,0,1,96.48,55.58Z" transform="translate(-49.12 -11.44)"/><path class="cls-1" d="M131,63.62a7.5,7.5,0,1,1-7.46-7.56A7.41,7.41,0,0,1,131,63.62Z" transform="translate(-49.12 -11.44)"/><path class="cls-1" d="M114.65,40.57a7.5,7.5,0,1,1-.39,15,7.5,7.5,0,0,1,.39-15Z" transform="translate(-49.12 -11.44)"/><path class="cls-1" d="M89.12,79.18a7.41,7.41,0,0,1,7.51-7.52,7.52,7.52,0,1,1-7.51,7.52Z" transform="translate(-49.12 -11.44)"/><path class="cls-1" d="M114.59,71.6A7.54,7.54,0,1,1,107,79.13,7.54,7.54,0,0,1,114.59,71.6Z" transform="translate(-49.12 -11.44)"/><path class="cls-1" d="M78.89,52.66a4.34,4.34,0,0,1-4.38-4.31,4.4,4.4,0,1,1,4.38,4.31Z" transform="translate(-49.12 -11.44)"/><path class="cls-1" d="M105.45,37.25a4.36,4.36,0,1,1,.07-8.72,4.31,4.31,0,0,1,4.35,4.32A4.37,4.37,0,0,1,105.45,37.25Z" transform="translate(-49.12 -11.44)"/><path class="cls-1" d="M79,74.69A4.31,4.31,0,0,1,83.36,79a4.4,4.4,0,0,1-4.42,4.42,4.45,4.45,0,0,1-4.37-4.35A4.35,4.35,0,0,1,79,74.69Z" transform="translate(-49.12 -11.44)"/><path class="cls-1" d="M132.07,83.27a4.35,4.35,0,0,1-4.26-4.56,4.4,4.4,0,0,1,8.79.26A4.36,4.36,0,0,1,132.07,83.27Z" transform="translate(-49.12 -11.44)"/><path class="cls-1" d="M109.64,94.33a4.36,4.36,0,1,1-8.71,0,4.36,4.36,0,0,1,8.71,0Z" transform="translate(-49.12 -11.44)"/><path class="cls-1" d="M136.49,48.13a4.3,4.3,0,0,1-4.36,4.42,4.35,4.35,0,0,1-4.36-4.31,4.36,4.36,0,0,1,8.72-.11Z" transform="translate(-49.12 -11.44)"/><path class="cls-1" d="M141.73,63.54a3.79,3.79,0,0,1,3.72-3.76,3.74,3.74,0,0,1,0,7.48A3.77,3.77,0,0,1,141.73,63.54Z" transform="translate(-49.12 -11.44)"/><path class="cls-1" d="M125.54,94.41a3.69,3.69,0,1,1-3.69,3.76A3.73,3.73,0,0,1,125.54,94.41Z" transform="translate(-49.12 -11.44)"/><path class="cls-1" d="M82,98.17a3.7,3.7,0,0,1,3.73-3.71,3.73,3.73,0,0,1,0,7.46A3.71,3.71,0,0,1,82,98.17Z" transform="translate(-49.12 -11.44)"/><path class="cls-1" d="M65.7,67.37a3.69,3.69,0,1,1,0-7.37,3.73,3.73,0,0,1,3.68,3.64A3.68,3.68,0,0,1,65.7,67.37Z" transform="translate(-49.12 -11.44)"/><path class="cls-1" d="M89.2,29.28a3.67,3.67,0,0,1-3.72,3.56,3.73,3.73,0,1,1,.18-7.46A3.69,3.69,0,0,1,89.2,29.28Z" transform="translate(-49.12 -11.44)"/><path class="cls-1" d="M129.09,29.08a3.69,3.69,0,0,1-7.37,0,3.69,3.69,0,1,1,7.37,0Z" transform="translate(-49.12 -11.44)"/><path class="cls-1" d="M63.14,91.31a3.06,3.06,0,1,1,3-3.11A3.12,3.12,0,0,1,63.14,91.31Z" transform="translate(-49.12 -11.44)"/><path class="cls-1" d="M148.08,42a3,3,0,1,1-.11-6,3,3,0,1,1,.11,6Z" transform="translate(-49.12 -11.44)"/><path class="cls-1" d="M105.43,17.57a3.12,3.12,0,0,1-3-3.07,3.06,3.06,0,1,1,6.11,0A3.11,3.11,0,0,1,105.43,17.57Z" transform="translate(-49.12 -11.44)"/><path class="cls-1" d="M151.16,88.21A3,3,0,0,1,148,91.08a3,3,0,0,1-2.91-3.15,3,3,0,0,1,3.19-2.86A3,3,0,0,1,151.16,88.21Z" transform="translate(-49.12 -11.44)"/><path class="cls-1" d="M66,39.15a3,3,0,1,1-3-3A3,3,0,0,1,66,39.15Z" transform="translate(-49.12 -11.44)"/><path class="cls-1" d="M108.35,112.7a3,3,0,1,1-3-3A2.93,2.93,0,0,1,108.35,112.7Z" transform="translate(-49.12 -11.44)"/><path class="cls-1" d="M162,63.62a2.47,2.47,0,0,1-2.47,2.26,2.38,2.38,0,0,1-2.25-2.58,2.33,2.33,0,0,1,2.5-2.17A2.43,2.43,0,0,1,162,63.62Z" transform="translate(-49.12 -11.44)"/><path class="cls-1" d="M53.85,63.73a2.39,2.39,0,0,1-2.32,2.38,2.42,2.42,0,0,1-2.41-2.43,2.38,2.38,0,0,1,2.4-2.29A2.34,2.34,0,0,1,53.85,63.73Z" transform="translate(-49.12 -11.44)"/><path class="cls-1" d="M134.82,16.72a2.33,2.33,0,1,1-2.3-2.34A2.26,2.26,0,0,1,134.82,16.72Z" transform="translate(-49.12 -11.44)"/><path class="cls-1" d="M76.29,110.39a2.34,2.34,0,1,1,4.67.27,2.34,2.34,0,1,1-4.67-.27Z" transform="translate(-49.12 -11.44)"/><path class="cls-1" d="M132.7,112.7a2.33,2.33,0,1,1,2.35-2.31A2.29,2.29,0,0,1,132.7,112.7Z" transform="translate(-49.12 -11.44)"/><path class="cls-1" d="M80.73,16.9a2.33,2.33,0,1,1-4.66,0,2.33,2.33,0,1,1,4.66,0Z" transform="translate(-49.12 -11.44)"/></svg>