<svg id="Layer_1" data-name="Layer 1" xmlns="http://www.w3.org/2000/svg" viewBox="0 0 97 88.5"><defs><style>.cls-1{fill:#ea8b2d;}.cls-2{fill:#ecf0f1;}</style></defs><circle class="cls-1" cx="46.85" cy="44.66" r="37.34"/><path class="cls-2" d="M61.73,20.58h-3a2.15,2.15,0,0,1,.43,1,2.23,2.23,0,0,1-.06.88h2.78V66.05H31.82V22.48h2.77a2.16,2.16,0,0,1-.06-.34,2.54,2.54,0,0,1,0-.26v-.14l0-.13a2.05,2.05,0,0,1,.43-1H32a2.66,2.66,0,0,0-2.66,2.65V66A2.66,2.66,0,0,0,32,68.67H61.73A2.66,2.66,0,0,0,64.39,66V23.23A2.66,2.66,0,0,0,61.73,20.58Z"/><path class="cls-2" d="M56.9,19.75H49.28a2.43,2.43,0,0,0-4.85,0H36.81a2,2,0,0,0,0,4.08H56.9a2,2,0,0,0,0-4.08Zm-10,.83a.83.83,0,1,1,0-1.66.83.83,0,0,1,0,1.66Z"/><path class="cls-2" d="M38.36,30.3H34.44V26.39h3.92Zm-3.25-.66H37.7V27.05H35.11Z"/><rect class="cls-2" x="41.18" y="26.39" width="17.33" height="2.17"/><rect class="cls-2" x="41.18" y="29.64" width="17.33" height="1.09"/><rect class="cls-2" x="41.18" y="31.37" width="17.33" height="1.09"/><rect class="cls-2" x="41.18" y="33.11" width="17.33" height="1.09"/><path class="cls-2" d="M38.36,40H34.44V36.1h3.92Zm-3.25-.66H37.7V36.77H35.11Z"/><rect class="cls-2" x="41.18" y="36.1" width="17.33" height="2.17"/><rect class="cls-2" x="41.18" y="39.36" width="17.33" height="1.09"/><rect class="cls-2" x="41.18" y="41.09" width="17.33" height="1.09"/><rect class="cls-2" x="41.18" y="42.82" width="17.33" height="1.09"/><path class="cls-2" d="M38.36,49.74H34.44V45.82h3.92Zm-3.25-.67H37.7V46.48H35.11Z"/><rect class="cls-2" x="41.18" y="45.82" width="17.33" height="2.17"/><rect class="cls-2" x="41.18" y="49.07" width="17.33" height="1.09"/><rect class="cls-2" x="41.18" y="50.81" width="17.33" height="1.09"/><rect class="cls-2" x="41.18" y="52.54" width="17.33" height="1.09"/><path class="cls-2" d="M38.36,59.45H34.44V55.54h3.92Zm-3.25-.66H37.7V56.2H35.11Z"/><rect class="cls-2" x="41.18" y="55.54" width="17.33" height="2.17"/><rect class="cls-2" x="41.18" y="58.79" width="17.33" height="1.09"/><rect class="cls-2" x="41.18" y="60.52" width="17.33" height="1.09"/><rect class="cls-2" x="41.18" y="62.26" width="17.33" height="1.09"/><polygon class="cls-2" points="36.35 38.89 34.48 35.44 35.06 35.12 36.45 37.66 39.6 33.45 40.13 33.85 36.35 38.89"/></svg>