<svg xmlns="http://www.w3.org/2000/svg" viewBox="0 0 158.48 140.32"><defs><style>.cls-1{fill:#fff;}.cls-2{fill:#d85a2e;}.cls-3{fill:#b6ba65;}.cls-4{fill:#f7a848;}.cls-5{fill:#ffc466;}.cls-6{opacity:0.24;}.cls-7{fill:#ffe97d;}.cls-8{fill:#ffd79c;}.cls-9{fill:#4f2830;}.cls-10{fill:#281419;}.cls-11{fill:#82505c;}.cls-12{fill:#c7d9ff;}.cls-13{fill:#f9ac7c;}.cls-14{fill:#7f9dd3;}</style></defs><g id="BACKGROUND"><rect class="cls-1" width="158.48" height="140.32"/></g><g id="OBJECTS"><polygon class="cls-2" points="68.43 44.11 67.47 44.11 67.47 35.59 62.25 32.59 62.25 13.35 63.21 13.35 63.21 32.04 68.43 35.04 68.43 44.11"/><circle class="cls-2" cx="62.73" cy="11.68" r="2.69"/><polygon class="cls-2" points="123 109.23 113.93 109.23 113.93 108.28 122.44 108.28 125.45 103.06 137.38 103.06 137.38 104.01 126 104.01 123 109.23"/><circle class="cls-2" cx="139.05" cy="103.54" r="2.69"/><polygon class="cls-2" points="127.58 123.81 115.64 123.81 112.64 118.59 104.12 118.59 104.12 117.63 113.19 117.63 116.19 122.85 127.58 122.85 127.58 123.81"/><circle class="cls-2" cx="129.24" cy="123.33" r="2.69"/><polygon class="cls-2" points="42.58 55.43 41.63 55.43 41.63 41.19 36.4 38.19 36.4 9.73 37.36 9.73 37.36 37.64 42.58 40.64 42.58 55.43"/><circle class="cls-2" cx="36.88" cy="8.07" r="2.69"/><polygon class="cls-2" points="86.27 44.11 85.32 44.11 85.32 35.04 90.54 32.04 90.54 13.35 91.49 13.35 91.49 32.59 86.27 35.59 86.27 44.11"/><circle class="cls-2" cx="91.02" cy="11.68" r="2.69"/><path class="cls-3" d="M24.5,86.78a3.39,3.39,0,0,1-.84-2.19c.09-.8,1-1.51,1.7-1.07A11.84,11.84,0,0,1,21,79.27a2.91,2.91,0,0,1-.51-2.33c.25-.78,1.39-1.25,1.93-.63A13.13,13.13,0,0,1,18,68.24c-.2-1.41.08-3.22,1.44-3.64,1.08-.34,2.17.43,3,1.17a44.66,44.66,0,0,1,3.84,3.82c.13-.94-.17-2,.47-2.73A1.78,1.78,0,0,1,29,66.77a5.09,5.09,0,0,1,1.49,1.88l3.43,6.09c.3-.9-.17-2.19.66-2.64s1.6.54,2,1.36a123.53,123.53,0,0,1,5.78,15,14.66,14.66,0,0,1,.89,5.06,5.39,5.39,0,0,1-2.29,4.36,5.06,5.06,0,0,1-4.19.2A15,15,0,0,1,33.65,96a40.18,40.18,0,0,1-4.69-4A38,38,0,0,1,24.5,86.78Z" transform="translate(-11.74 0.67)"/><path class="cls-3" d="M132.71,63.08a3.37,3.37,0,0,1,1.86-1.42c.79-.15,1.74.54,1.52,1.31a11.67,11.67,0,0,1,2.83-5.35A2.94,2.94,0,0,1,141,56.46c.82,0,1.6,1,1.15,1.67a13.18,13.18,0,0,1,6.46-6.58c1.3-.6,3.11-.84,3.91.34.63.94.2,2.2-.27,3.23a46.41,46.41,0,0,1-2.56,4.76c.93-.15,1.9-.74,2.75-.33a1.8,1.8,0,0,1,.72,2.11,5.23,5.23,0,0,1-1.38,2l-4.85,5c.94,0,2-.78,2.71-.12s-.05,1.69-.73,2.29a124.3,124.3,0,0,1-12.71,9.81,14.56,14.56,0,0,1-4.59,2.3,5.41,5.41,0,0,1-4.84-.94,5.11,5.11,0,0,1-1.39-4,15.36,15.36,0,0,1,1.1-3.53,40,40,0,0,1,2.45-5.62A38.48,38.48,0,0,1,132.71,63.08Z" transform="translate(-11.74 0.67)"/><path class="cls-3" d="M134.62,77.53a3.4,3.4,0,0,1,2.34-.19c.74.31,1.16,1.41.55,1.93a11.82,11.82,0,0,1,5.29-3,3,3,0,0,1,2.39.17c.68.46.8,1.69.05,2a13.18,13.18,0,0,1,9-2c1.42.21,3.07,1,3.09,2.42,0,1.13-1,2-2,2.56a49.46,49.46,0,0,1-4.74,2.6c.86.38,2,.41,2.48,1.22a1.77,1.77,0,0,1-.54,2.16,5.27,5.27,0,0,1-2.23.89l-6.8,1.57c.77.54,2.14.46,2.34,1.38s-1,1.38-1.86,1.51a124.32,124.32,0,0,1-16,1.31,14.8,14.8,0,0,1-5.1-.57,5.41,5.41,0,0,1-3.54-3.43,5.12,5.12,0,0,1,1-4.09,15.37,15.37,0,0,1,2.85-2.35,39.46,39.46,0,0,1,5.12-3.39A38.52,38.52,0,0,1,134.62,77.53Z" transform="translate(-11.74 0.67)"/><path class="cls-3" d="M30.72,70.79a3.33,3.33,0,0,1,0-2.35c.37-.71,1.5-1,2-.37a11.71,11.71,0,0,1-2.44-5.54,3,3,0,0,1,.39-2.36c.53-.64,1.76-.65,2,.13a13.11,13.11,0,0,1-1.14-9.14c.33-1.39,1.27-3,2.69-2.85,1.13.09,1.85,1.2,2.36,2.21a44.55,44.55,0,0,1,2.14,5c.47-.83.6-2,1.46-2.36a1.77,1.77,0,0,1,2.09.74,5.09,5.09,0,0,1,.68,2.3l.92,6.92c.62-.72.66-2.08,1.6-2.2s1.28,1.1,1.33,2A123,123,0,0,1,46.63,79a14.53,14.53,0,0,1-1.05,5,5.39,5.39,0,0,1-3.75,3.2,5.13,5.13,0,0,1-4-1.37,14.57,14.57,0,0,1-2.07-3.06,37.93,37.93,0,0,1-2.89-5.41A38.61,38.61,0,0,1,30.72,70.79Z" transform="translate(-11.74 0.67)"/><path class="cls-2" d="M126.2,84.59c0,24.19-14.36,43.92-38.4,44.53l-6.1,0a44.5,44.5,0,0,1,0-89c.52,0,6.4-.05,6.91,0C112.48,40.87,126.2,60.53,126.2,84.59Z" transform="translate(-11.74 0.67)"/><circle class="cls-4" cx="76.87" cy="85.26" r="44.53"/><path class="cls-5" d="M88.61,124.34a39.75,39.75,0,1,1,39.75-39.75A39.79,39.79,0,0,1,88.61,124.34Zm0-78.35a38.6,38.6,0,1,0,38.6,38.6A38.64,38.64,0,0,0,88.61,46Z" transform="translate(-11.74 0.67)"/><path class="cls-5" d="M107.68,87.57a16.11,16.11,0,0,0-7.49-2.63v-.58a15.15,15.15,0,0,0,4.24-1.61,11.24,11.24,0,0,0,3.83-3.57,10,10,0,0,0,1.64-5.82,9.92,9.92,0,0,0-4.09-8.53q-4.09-3-11.41-3H92.26V57.09h-3v4.75H86.86V57.09h-5v4.75H67.57v9.59h2.92V97.74H67.57v9.59H81.86v4.76h5v-4.76h2.45v4.76h3v-4.76H94.4q7.38,0,12-2.83t4.62-9Q111,89.79,107.68,87.57ZM90,71.43a3.32,3.32,0,0,1,2.54.91,4,4,0,0,1,.85,2.84v2.1a4,4,0,0,1-.85,2.84A3.32,3.32,0,0,1,90,81H86.86V71.43ZM93.82,94A4,4,0,0,1,93,96.84a3.32,3.32,0,0,1-2.54.9H86.86v-10h3.57a3.32,3.32,0,0,1,2.54.9,4,4,0,0,1,.85,2.84Z" transform="translate(-11.74 0.67)"/><g class="cls-6"><path class="cls-7" d="M124.23,57.87,46.68,99.59A44.64,44.64,0,0,0,67.6,123.85L133,88.52q.18-2,.18-3.93A44.26,44.26,0,0,0,124.23,57.87Z" transform="translate(-11.74 0.67)"/></g><g class="cls-6"><path class="cls-7" d="M104,42.8,46.3,70.68a44.72,44.72,0,0,0-2.21,13.91c0,1,0,1.93.09,2.89l72.32-37.6A44.51,44.51,0,0,0,104,42.8Z" transform="translate(-11.74 0.67)"/></g><path class="cls-2" d="M34,103.27V105H32.82v6h5.24v.84c4.86,2.5,19.41,10,23.22,12.3a40.58,40.58,0,0,0,9.79,3.58v-4.65H68.12v-6h4.42v-6H67.31v-6h1.17v-6H65.17v-6H30.69v6H34Z" transform="translate(-11.74 0.67)"/><rect class="cls-5" x="18.01" y="123.75" width="34.48" height="6.04"/><rect class="cls-4" x="18.01" y="128.1" width="34.48" height="1.69"/><rect class="cls-4" x="40.75" y="123.75" width="4.45" height="5.47"/><rect class="cls-4" x="36.67" y="123.75" width="1.73" height="5.47"/><rect class="cls-8" x="20.74" y="123.75" width="7.97" height="4.35"/><rect class="cls-8" x="29.57" y="123.75" width="2.73" height="4.35"/><rect class="cls-5" x="15.06" y="117.72" width="34.48" height="6.04"/><rect class="cls-4" x="15.06" y="122.07" width="34.48" height="1.69"/><rect class="cls-4" x="37.8" y="117.72" width="4.45" height="5.47"/><rect class="cls-4" x="33.72" y="117.72" width="1.73" height="5.47"/><rect class="cls-8" x="17.79" y="117.72" width="7.97" height="4.35"/><rect class="cls-8" x="26.62" y="117.72" width="2.73" height="4.35"/><rect class="cls-5" x="19.48" y="111.68" width="34.48" height="6.04"/><rect class="cls-4" x="19.48" y="116.03" width="34.48" height="1.69"/><rect class="cls-4" x="42.22" y="111.68" width="4.45" height="5.47"/><rect class="cls-4" x="38.14" y="111.68" width="1.73" height="5.47"/><rect class="cls-8" x="22.22" y="111.68" width="7.97" height="4.35"/><rect class="cls-8" x="31.04" y="111.68" width="2.73" height="4.35"/><rect class="cls-5" x="14.24" y="105.64" width="34.48" height="6.04"/><rect class="cls-4" x="14.24" y="109.99" width="34.48" height="1.69"/><rect class="cls-4" x="36.98" y="105.64" width="4.45" height="5.47"/><rect class="cls-4" x="32.91" y="105.64" width="1.73" height="5.47"/><rect class="cls-8" x="16.98" y="105.64" width="7.97" height="4.35"/><rect class="cls-8" x="25.8" y="105.64" width="2.73" height="4.35"/><rect class="cls-5" x="15.41" y="99.61" width="34.48" height="6.04"/><rect class="cls-4" x="15.41" y="103.96" width="34.48" height="1.69"/><rect class="cls-4" x="38.15" y="99.61" width="4.45" height="5.47"/><rect class="cls-4" x="34.08" y="99.61" width="1.73" height="5.47"/><rect class="cls-8" x="18.15" y="99.61" width="7.97" height="4.35"/><rect class="cls-8" x="26.97" y="99.61" width="2.73" height="4.35"/><rect class="cls-5" x="12.11" y="93.6" width="34.48" height="6.04"/><rect class="cls-4" x="12.11" y="97.95" width="34.48" height="1.69"/><rect class="cls-4" x="34.85" y="93.6" width="4.45" height="5.47"/><rect class="cls-4" x="30.78" y="93.6" width="1.73" height="5.47"/><rect class="cls-8" x="14.85" y="93.6" width="7.97" height="4.35"/><rect class="cls-8" x="23.67" y="93.6" width="2.73" height="4.35"/><path class="cls-9" d="M128,22.05c.24.75-.33,1.54-.23,2.32,0,.35.21.67.28,1a2.89,2.89,0,0,1-.84,2.26,3.42,3.42,0,0,0,1.94-1.72c.28-.56.39-1.19.66-1.76a15.8,15.8,0,0,1,1.49-2.08,2.64,2.64,0,0,0,.49-2.41c-.22-.54-.71-.92-1-1.44a8.57,8.57,0,0,1-.3-.85,3.29,3.29,0,0,0-4.07-1.82A4,4,0,0,0,125,10.71a4.69,4.69,0,0,0-5.17.09,5.9,5.9,0,0,0-2.44,4.7,15.65,15.65,0,0,1,0,3.49,1.43,1.43,0,0,1-.48.83,1.1,1.1,0,0,1-1.24,0,1.89,1.89,0,0,1-.76-1.05A5.2,5.2,0,0,0,114,22a4.08,4.08,0,0,0,1.74,2.81,5.8,5.8,0,0,0,3.12.75,5.89,5.89,0,0,0,2.36-.34c.75-.29.93-.82,1.2-1.57s.21-1.81.92-2.26c.22-.14.42.35.67.25a5.4,5.4,0,0,0,1.64-1.41c.33-.49.52-1.15,1.08-1.35s1.22.29,1.49.86A2.58,2.58,0,0,1,128,22.05Z" transform="translate(-11.74 0.67)"/><path class="cls-10" d="M117.67,78.91s-2.31,2.28-2.53,2.66,5.79,5.77,5.79,5.77,1.15-1.58-1-5.19S117.67,78.91,117.67,78.91Z" transform="translate(-11.74 0.67)"/><path class="cls-10" d="M133.24,80.11s-2.31,2.29-2.53,2.66,5.8,5.78,5.8,5.78,1.14-1.59-1-5.2S133.24,80.11,133.24,80.11Z" transform="translate(-11.74 0.67)"/><path class="cls-9" d="M110.77,39.56c-1.14,1.81-2.33,3.84-2,6,.34,2.36,2.4,4,4.31,5.46l4.42,3.32a5.23,5.23,0,0,1,1.6,1.61,1.8,1.8,0,0,1-.21,2.11c-.38.92,1.87.35,2.18,1.23A5,5,0,0,1,121,62a90.8,90.8,0,0,1-5.79,17.44,9,9,0,0,0,4.56,2A97.42,97.42,0,0,0,127.59,62a14,14,0,0,0,.59-5.55c-.64-4.11-4.44-6.85-6.72-10.33-1.26-1.91-2.09-4.11-3.65-5.78s-4.26-2.63-6.14-1.33c-.22.16-.5.35-.75.24S110.57,39.36,110.77,39.56Z" transform="translate(-11.74 0.67)"/><path class="cls-9" d="M126.18,46.13l3.93,4.69a19.78,19.78,0,0,1,3.09,4.48,19.83,19.83,0,0,1,1.22,7.43l.66,19.43a14,14,0,0,1-4.18-.33c-.16,0-.36-.22-.23-.32-.39-3.75-.68-7.52-1.07-11.27a22.11,22.11,0,0,0-1-5.42A23.87,23.87,0,0,0,125.85,60c-3.13-4.7-6.13-9.84-6.28-15.49a5.39,5.39,0,0,1,.8-3.4,2.34,2.34,0,0,1,3.13-.68,3.62,3.62,0,0,1,1,1.71A13.82,13.82,0,0,0,126.18,46.13Z" transform="translate(-11.74 0.67)"/><path class="cls-11" d="M127.65,62.75a12.9,12.9,0,0,0,.6-7.42,16.08,16.08,0,0,0-3.6-5.87c-.91-1.07-2-2.44-1.53-3.94a.12.12,0,0,0-.24-.06c-.68,2.27,1.7,4.19,2.91,5.79a10.72,10.72,0,0,1,2.53,6.93,17.3,17.3,0,0,1-.91,4.5c0,.16.19.22.24.07Z" transform="translate(-11.74 0.67)"/><path class="cls-11" d="M124.05,47.08a.83.83,0,0,0,.31-.92.12.12,0,1,0-.24.06.36.36,0,0,1,0,.1s0,0,0,0v.16s0,0,0,0a.36.36,0,0,1,0,.1l0,.05s0,0,0,0h0a.41.41,0,0,1,0,.09v0h0l0,0,0,0v0s0,0,0,0a.14.14,0,0,0-.05.18.13.13,0,0,0,.17,0Z" transform="translate(-11.74 0.67)"/><path class="cls-11" d="M121.56,58a1,1,0,0,1,.92,0c.14.08.27-.13.13-.21a1.22,1.22,0,0,0-1.17,0,.13.13,0,0,0,.12.22Z" transform="translate(-11.74 0.67)"/><path class="cls-11" d="M121.27,57.47a3.31,3.31,0,0,0,1.21-.54.14.14,0,0,0,0-.18.13.13,0,0,0-.17,0,3.1,3.1,0,0,1-1.16.51.14.14,0,0,0-.08.16.12.12,0,0,0,.15.09Z" transform="translate(-11.74 0.67)"/><path class="cls-11" d="M129.06,61.62l.08-.07,0,0s0,0,0,0l0,0,.18-.1.05,0h0l.1,0,.11,0h.07s0,0,0,0a.12.12,0,0,0,.13-.12c0-.06-.06-.14-.13-.13a1.61,1.61,0,0,0-.88.42.13.13,0,1,0,.18.18Z" transform="translate(-11.74 0.67)"/><path class="cls-11" d="M129.44,60.48l1.33-.77c.13-.08,0-.3-.13-.22l-1.32.77c-.14.08,0,.3.12.22Z" transform="translate(-11.74 0.67)"/><path class="cls-12" d="M115.53,26.25a19.22,19.22,0,0,0-4.67,6.5c-1.17,2.35-2.12,5.33-.57,7.45A6.55,6.55,0,0,0,112.67,42a22.71,22.71,0,0,0,8.52,2.49,6,6,0,0,0,2.82-.25,2.52,2.52,0,0,0,1.65-2.14,4.51,4.51,0,0,1,0-1.1c.16-.58.77-.92,1-1.45s.17-1.09.4-1.59.84-.91,1.22-1.4c.78-1,.59-2.44.33-3.68A18.77,18.77,0,0,0,127,27.76a8.9,8.9,0,0,0-1.55-2.11,4.87,4.87,0,0,0-2.16-1.42c-.33-.07-.7-.05-1-.1a7,7,0,0,0-1.37-.07,8.41,8.41,0,0,0-2.66.59A9.92,9.92,0,0,0,115.53,26.25Z" transform="translate(-11.74 0.67)"/><path class="cls-13" d="M130.11,20.53c-.56,2-2.52,4.11-4.08,3.44-1.3-.55-2-1.89-1.54-3.89.68-3.1,2.62-3.5,4-3.12S130.66,18.56,130.11,20.53Z" transform="translate(-11.74 0.67)"/><path class="cls-13" d="M125.1,20c-.18.65-.53,1.31-1,1.18a1.48,1.48,0,0,1-.68-1.65c.18-.65.71-1.07,1.17-.94A1.08,1.08,0,0,1,125.1,20Z" transform="translate(-11.74 0.67)"/><path class="cls-9" d="M128.79,19.93a3.58,3.58,0,0,0-.37.66c-.09.23-.15.46-.22.7a.78.78,0,0,1-.25.48c-.23.16-.49,0-.66-.17s-.22,0-.13.12a.85.85,0,0,0,.74.27.65.65,0,0,0,.4-.44c.1-.23.13-.48.22-.72a3.46,3.46,0,0,1,.42-.81c.07-.09-.08-.18-.15-.09Z" transform="translate(-11.74 0.67)"/><path class="cls-1" d="M126.76,20.91h-.09a1.2,1.2,0,1,1,.19-2.39,1.24,1.24,0,0,1,.82.42,1.27,1.27,0,0,1,.28.88h0a1.24,1.24,0,0,1-.42.81A1.18,1.18,0,0,1,126.76,20.91Zm0-2.22a1,1,0,1,0,1,1.1h0a1,1,0,0,0-.94-1.1Z" transform="translate(-11.74 0.67)"/><path class="cls-1" d="M130,22.28h-.1a1.2,1.2,0,0,1-.82-.42,1.15,1.15,0,0,1-.28-.87,1.19,1.19,0,0,1,1.29-1.1,1.2,1.2,0,0,1,1.1,1.29,1.24,1.24,0,0,1-.42.82A1.16,1.16,0,0,1,130,22.28Zm0-2.21a1,1,0,0,0-1,.93,1,1,0,0,0,.93,1.1,1,1,0,0,0,.75-.24,1,1,0,0,0-.58-1.79Z" transform="translate(-11.74 0.67)"/><path class="cls-1" d="M128.84,20.77c-.11-.49-1.08-.47-1.09-.47v-.18s1.13,0,1.26.61Z" transform="translate(-11.74 0.67)"/><path class="cls-1" d="M125.75,19.35a.08.08,0,0,1-.07,0l-1-1.3a.68.68,0,0,0-.64-.25l-.45.07a.08.08,0,0,1-.1-.07.08.08,0,0,1,.07-.1l.46-.07a.85.85,0,0,1,.8.31l1,1.3a.09.09,0,0,1,0,.13Z" transform="translate(-11.74 0.67)"/><path class="cls-13" d="M124.26,21l-1.89,4.09s.68,2.17,2.68,2.05l1.13-4.05Z" transform="translate(-11.74 0.67)"/><path class="cls-9" d="M126.18,24.05a2.82,2.82,0,0,1-1.72-2.23c0-.12-.19-.07-.17,0a3,3,0,0,0,1.84,2.36c.11,0,.16-.13.05-.17Z" transform="translate(-11.74 0.67)"/><path class="cls-13" d="M120.92,46.85c0-.36-.36-.62-.71-.66a3.78,3.78,0,0,0-1,.17,2.64,2.64,0,0,1-1.5-.07,1.78,1.78,0,0,1-1-1,9.69,9.69,0,0,0-1.3,1.42c.79,1.08,1.7,2.34,3,2.4A2.54,2.54,0,0,0,120.92,46.85Z" transform="translate(-11.74 0.67)"/><path class="cls-12" d="M118.64,24.49a32.4,32.4,0,0,0-9.1,5.63A6.92,6.92,0,0,0,107.17,33a6.76,6.76,0,0,0,.1,3.78,22.09,22.09,0,0,0,7,11.23,23.9,23.9,0,0,0,3-2.4c-1.49-1.76-2.6-4.36-2.16-6.62.34-1.78,1.56-3.25,2.66-4.68s2.18-3.08,2.14-4.89a8.77,8.77,0,0,0-.87-3.15C118.74,25.65,118.92,25.15,118.64,24.49Z" transform="translate(-11.74 0.67)"/><path class="cls-14" d="M120.22,25.21a10.86,10.86,0,0,1-3.18,5.4,26.78,26.78,0,0,1-2.32,2.07,5.54,5.54,0,0,1-3.2,1.42.11.11,0,0,0,0,.22,5.34,5.34,0,0,0,3-1.26,23,23,0,0,0,2.52-2.21,11.1,11.1,0,0,0,3.34-5.58c0-.14-.18-.2-.21-.06Z" transform="translate(-11.74 0.67)"/><path class="cls-14" d="M112.36,34.1a1.34,1.34,0,0,1-.71,1.54c-.13.06,0,.24.11.19a1.54,1.54,0,0,0,.81-1.78c0-.14-.25-.08-.21.05Z" transform="translate(-11.74 0.67)"/><path class="cls-14" d="M112.18,35.24a84.45,84.45,0,0,0,3.47,8.27c.06.13.25,0,.19-.11a86.84,86.84,0,0,1-3.45-8.21c0-.14-.25-.08-.21.05Z" transform="translate(-11.74 0.67)"/><polygon class="cls-10" points="122.12 51.15 106.64 49.09 113.25 39.35 128.72 41.41 122.12 51.15"/><path class="cls-10" d="M116.44,49.23h17.42a0,0,0,0,1,0,0v1.39a0,0,0,0,1,0,0H115.05a0,0,0,0,1,0,0v0A1.39,1.39,0,0,1,116.44,49.23Z" transform="translate(-4.06 -15.31) rotate(7.58)"/><path class="cls-1" d="M109.48,113.13c-1.47-4-.52-3-4.5-4.5,4-1.48,3-.52,4.5-4.5,1.48,4,.52,3,4.51,4.5C110,110.1,111,109.15,109.48,113.13Z" transform="translate(-11.74 0.67)"/><path class="cls-1" d="M112,105.08c-1-2.77-.37-2.1-3.14-3.13,2.77-1,2.11-.36,3.14-3.13,1,2.77.36,2.1,3.13,3.13C112.36,103,113,102.31,112,105.08Z" transform="translate(-11.74 0.67)"/><path class="cls-1" d="M51.29,112.37c-.64-1.7-.23-1.29-1.94-1.93,1.71-.63,1.3-.22,1.94-1.93.63,1.71.22,1.3,1.93,1.93C51.51,111.08,51.92,110.67,51.29,112.37Z" transform="translate(-11.74 0.67)"/><path class="cls-1" d="M42.91,104.06c-1-2.57-.34-2-2.91-2.91,2.57-1,2-.34,2.91-2.91,1,2.57.33,2,2.91,2.91C43.24,102.1,43.86,101.49,42.91,104.06Z" transform="translate(-11.74 0.67)"/><path class="cls-1" d="M72.54,57.06c-1-2.58-.33-2-2.91-2.92,2.58-1,2-.33,2.91-2.91,1,2.58.34,2,2.91,2.91C72.88,55.1,73.5,54.48,72.54,57.06Z" transform="translate(-11.74 0.67)"/><path class="cls-1" d="M67.57,59.57c-.6-1.63-.22-1.24-1.84-1.84,1.62-.6,1.24-.21,1.84-1.84.6,1.63.21,1.24,1.84,1.84C67.78,58.33,68.17,57.94,67.57,59.57Z" transform="translate(-11.74 0.67)"/></g></svg>