<svg xmlns="http://www.w3.org/2000/svg" viewBox="0 0 411.32 283.4"><defs><style>.cls-1{fill:#98d3e5;}.cls-2{fill:#19283b;}.cls-3{fill:#294459;}.cls-4{fill:#f3f7ff;}.cls-5{fill:#c0e6ed;}.cls-14,.cls-20,.cls-23,.cls-6{fill:none;stroke-miterlimit:10;}.cls-6{stroke:#e71c2e;}.cls-7{fill:#fff;}.cls-8{fill:#0e5ea0;}.cls-9{fill:#ff8b0d;}.cls-10{fill:#ecb220;}.cls-11{fill:#edcb3a;}.cls-12{fill:#ffeea4;}.cls-13{fill:#1c77b5;}.cls-14{stroke:#0e5ea0;}.cls-15{fill:#ad1e58;}.cls-16{fill:#e71c2e;}.cls-17{font-size:11.97px;fill:#fcfcfc;font-family:MyriadPro-Regular, Myriad Pro;}.cls-18{fill:#709632;}.cls-19{fill:#9dc11e;}.cls-20{stroke:#ffb692;stroke-width:10px;}.cls-21{fill:#ffb692;}.cls-22{fill:#d88d87;}.cls-23{stroke:#284159;stroke-width:15px;}.cls-24{fill:#284159;}.cls-25{fill:#54321a;}.cls-26{fill:#aa635f;}.cls-27{fill:#252538;}.cls-28{fill:#ff9292;}.cls-29{fill:#ffabab;}.cls-30{fill:#a1bdc6;}.cls-31{fill:#f79c97;}.cls-32{fill:#875330;}</style></defs><g id="OBJECTS"><path class="cls-1" d="M72.63,103H40.32a7.39,7.39,0,1,0,0,2H71.81l17.86,17.86h165v-2H90.49ZM33,109.34A5.39,5.39,0,1,1,38.4,104,5.4,5.4,0,0,1,33,109.34Z"/><path class="cls-1" d="M100.28,71H33.93a7.38,7.38,0,1,0,0,2H99.46L133,106.54H254.71v-2H133.81ZM26.62,77.4A5.39,5.39,0,1,1,32,72,5.4,5.4,0,0,1,26.62,77.4Z"/><path class="cls-1" d="M154.23,81.48,115,42.24a7.36,7.36,0,1,0-1.4,1.42L153.4,83.48H254.71v-2ZM105.29,41.62a5.39,5.39,0,1,1,7.62,0A5.41,5.41,0,0,1,105.29,41.62Z"/><path class="cls-1" d="M39.4,129.94a7.39,7.39,0,1,0,7.31,8.38h208v-2h-208A7.4,7.4,0,0,0,39.4,129.94Zm0,12.78a5.39,5.39,0,1,1,5.39-5.39A5.4,5.4,0,0,1,39.4,142.72Z"/><path class="cls-1" d="M71.81,170H40.32a7.39,7.39,0,1,0,0,2H72.63l17.86-17.86H254.71v-2h-165ZM33,176.34A5.39,5.39,0,1,1,38.4,171,5.4,5.4,0,0,1,33,176.34Z"/><path class="cls-1" d="M99.46,201.9H33.93a7.39,7.39,0,1,0,0,2h66.35l33.53-33.53h120.9v-2H133Zm-72.84,6.38A5.39,5.39,0,1,1,32,202.89,5.39,5.39,0,0,1,26.62,208.28Z"/><path class="cls-1" d="M113.59,231.24a7.37,7.37,0,0,0-9.71.63,7.39,7.39,0,0,0,10.44,10.45h0a7.39,7.39,0,0,0,.67-9.66l39.24-39.24H254.71v-2H153.4Zm-.68,9.67a5.39,5.39,0,1,1,0-7.62A5.4,5.4,0,0,1,112.91,240.91Z"/><path class="cls-2" d="M358.43,251.24H367a16.6,16.6,0,0,0,16.6-16.6V38.43A16.61,16.61,0,0,0,367,21.82h-8.55A16.61,16.61,0,0,1,375,38.43V234.64A16.6,16.6,0,0,1,358.43,251.24Zm19.15-147.36a1.76,1.76,0,1,1,3.52,0v18.56a1.76,1.76,0,0,1-3.52,0Zm0-28.58a1.76,1.76,0,1,1,3.52,0V93.86a1.76,1.76,0,0,1-3.52,0Z"/><path class="cls-3" d="M251.84,38.43V234.64a16.6,16.6,0,0,0,16.6,16.6h90A16.6,16.6,0,0,0,375,234.64V38.43a16.61,16.61,0,0,0-16.61-16.61h-90A16.61,16.61,0,0,0,251.84,38.43Zm5.32,0a11.3,11.3,0,0,1,11.28-11.29h14.47V31.2a5,5,0,0,0,5,5H339a5,5,0,0,0,5-5V27.14h14.46a11.3,11.3,0,0,1,11.29,11.29V234.64a11.29,11.29,0,0,1-11.29,11.28h-90a11.29,11.29,0,0,1-11.28-11.28Z"/><path class="cls-3" d="M379.34,73.54a1.76,1.76,0,0,1,1.76,1.76V93.86a1.76,1.76,0,0,1-3.52,0V75.3A1.76,1.76,0,0,1,379.34,73.54Z"/><path class="cls-3" d="M379.34,102.12a1.76,1.76,0,0,1,1.76,1.76v18.56a1.76,1.76,0,0,1-3.52,0V103.88A1.76,1.76,0,0,1,379.34,102.12Z"/><path class="cls-4" d="M257.16,38.43V234.64a11.29,11.29,0,0,0,11.28,11.28h90a11.29,11.29,0,0,0,11.29-11.28V38.43a11.3,11.3,0,0,0-11.29-11.29H344V31.2a5,5,0,0,1-5,5H287.88a5,5,0,0,1-5-5V27.14H268.44A11.3,11.3,0,0,0,257.16,38.43Z"/><rect class="cls-5" x="275.01" y="48.17" width="12.14" height="78.13"/><rect class="cls-5" x="291.19" y="48.17" width="12.14" height="78.13"/><rect class="cls-5" x="307.37" y="48.17" width="12.14" height="78.13"/><rect class="cls-5" x="323.55" y="48.17" width="12.14" height="78.13"/><rect class="cls-5" x="339.73" y="48.17" width="12.14" height="78.13"/><rect class="cls-1" x="275.01" y="80.92" width="12.14" height="45.38"/><rect class="cls-1" x="291.19" y="92.24" width="12.14" height="34.07"/><rect class="cls-1" x="307.37" y="77.53" width="12.14" height="48.77"/><rect class="cls-1" x="323.55" y="64.94" width="12.14" height="61.36"/><rect class="cls-1" x="339.73" y="48.17" width="12.14" height="78.13"/><polyline class="cls-6" points="280.8 80.92 297.26 92.24 313.44 77.66 329.62 64.94 345.8 48.17"/><path class="cls-7" d="M281.84,80.92a1,1,0,1,1-1-1A1,1,0,0,1,281.84,80.92Z"/><path class="cls-7" d="M298.3,92.24a1,1,0,1,1-1-1A1,1,0,0,1,298.3,92.24Z"/><path class="cls-7" d="M314.62,77.53a1,1,0,1,1-1-1A1,1,0,0,1,314.62,77.53Z"/><circle class="cls-7" cx="329.62" cy="64.94" r="1.04"/><path class="cls-7" d="M346.84,48.17a1,1,0,1,1-1-1A1,1,0,0,1,346.84,48.17Z"/><rect class="cls-8" x="271.14" y="143.75" width="80.41" height="54.26" rx="8.01"/><path class="cls-9" d="M340.3,128.45c-2.13-12.88-16.61-21.61-29-22.74l-.14-.89-3.11.51a28.08,28.08,0,1,0,9.17,55.41l3.11-.51-.15-.89C331.54,154.26,342.44,141.34,340.3,128.45Z"/><circle class="cls-10" cx="316.2" cy="132.44" r="28.08" transform="translate(104.65 402.2) rotate(-74.62)"/><circle class="cls-11" cx="316.2" cy="132.44" r="24.43" transform="translate(23.51 310.92) rotate(-54.1)"/><path class="cls-9" d="M312.21,108.34q-.46.07-.93.18a24.42,24.42,0,0,1,8,48.15l.94-.13a24.43,24.43,0,0,0-8-48.2Z"/><path class="cls-9" d="M324.23,137.75a7,7,0,0,0-2.74-3.16,8.29,8.29,0,0,0,2.19-.22,6,6,0,0,0,1.69-.69,4.52,4.52,0,0,0,1.24-1.1,5.38,5.38,0,0,0,.82-1.44,7.23,7.23,0,0,0,.52-2.82,5.14,5.14,0,0,0-.8-2.61,8.5,8.5,0,0,0-2.3-2.36,16.76,16.76,0,0,0-3.05-1.68l1.49-3.85-2.68-1-1.48,3.84-3-1.15,1.48-3.84-2.68-1-1.48,3.84-1.26-.49-4.1-1.58-1,2.67,4.1,1.58-7,18.2-4.1-1.58-1,2.67,4.1,1.59,1.26.48L303,145.59l2.67,1,1.4-3.6,3,1.15-1.4,3.61,2.68,1,1.39-3.61a13.08,13.08,0,0,0,3.79.84,8.79,8.79,0,0,0,3.35-.43,6.9,6.9,0,0,0,2.57-1.6,7.28,7.28,0,0,0,1.67-2.57A5.1,5.1,0,0,0,324.23,137.75Zm-8.14-13.6,3.2,1.23a8.18,8.18,0,0,1,1.54.76,3,3,0,0,1,.92.92,2.18,2.18,0,0,1,.3,1.14,4.59,4.59,0,0,1-.33,1.48,3.51,3.51,0,0,1-.82,1.32,2.14,2.14,0,0,1-1.12.59,3.55,3.55,0,0,1-1.41,0,9.19,9.19,0,0,1-1.68-.5L313.85,130Zm2.07,16.15a2.58,2.58,0,0,1-.92.78,3.06,3.06,0,0,1-1.35.3A5.24,5.24,0,0,1,314,141l-3.85-1.49,2.27-5.86,3.81,1.47a6.88,6.88,0,0,1,1.64.86,3,3,0,0,1,.88,1A2.07,2.07,0,0,1,319,138a3.88,3.88,0,0,1-.28,1.23A4.71,4.71,0,0,1,318.16,140.3Z"/><path class="cls-12" d="M326.79,138.73a7,7,0,0,0-2.74-3.15,8.25,8.25,0,0,0,2.19-.22,5.87,5.87,0,0,0,1.69-.69,4.71,4.71,0,0,0,1.25-1.1,5.35,5.35,0,0,0,.81-1.44,7.25,7.25,0,0,0,.53-2.82,5.22,5.22,0,0,0-.81-2.61,8.36,8.36,0,0,0-2.3-2.36,16.18,16.18,0,0,0-3.05-1.68l1.49-3.85-2.68-1-1.48,3.84-3-1.15,1.48-3.84-2.67-1L316,119.43l-1.26-.49-4.1-1.58-1,2.67,4.1,1.58-7,18.2-4.1-1.58-1,2.67,4.1,1.59,1.26.48-1.39,3.61,2.67,1,1.4-3.6,3,1.15-1.39,3.6,2.67,1,1.4-3.62a12.67,12.67,0,0,0,3.78.85,8.76,8.76,0,0,0,3.35-.43A6.94,6.94,0,0,0,325,145a7.26,7.26,0,0,0,1.66-2.57A5.12,5.12,0,0,0,326.79,138.73Zm-8.14-13.59,3.2,1.23a8.18,8.18,0,0,1,1.54.76,3,3,0,0,1,.92.91,2.24,2.24,0,0,1,.3,1.15,4.12,4.12,0,0,1-.33,1.48,3.51,3.51,0,0,1-.82,1.32,2.22,2.22,0,0,1-1.12.59,3.55,3.55,0,0,1-1.41,0,9.43,9.43,0,0,1-1.68-.5l-2.84-1.1Zm2.07,16.15a2.58,2.58,0,0,1-.92.78,3.06,3.06,0,0,1-1.35.3,5.24,5.24,0,0,1-1.87-.41l-3.85-1.49,2.27-5.86,3.81,1.47a6.69,6.69,0,0,1,1.64.86,3,3,0,0,1,.88,1,2.05,2.05,0,0,1,.24,1.09,3.88,3.88,0,0,1-.28,1.23A4.71,4.71,0,0,1,320.72,141.29Z"/><rect class="cls-13" x="274.61" y="148.77" width="80.41" height="54.26" rx="8.01"/><rect class="cls-14" x="291.01" y="139.01" width="47.61" height="73.76" rx="3.01" transform="translate(490.71 -138.92) rotate(90)"/><rect class="cls-8" x="323.76" y="169.04" width="33.31" height="13.71"/><circle class="cls-10" cx="330.19" cy="175.89" r="3.87"/><circle class="cls-11" cx="331.57" cy="175.89" r="3.87"/><path class="cls-15" d="M327.64,234.1h-30A10.7,10.7,0,0,1,287,223.41h0a10.7,10.7,0,0,1,10.69-10.69h30a10.7,10.7,0,0,1,10.69,10.69h0A10.7,10.7,0,0,1,327.64,234.1Z"/><rect class="cls-16" x="289.97" y="209.7" width="51.37" height="21.38" rx="10.69"/><text class="cls-17" transform="translate(303.88 223.77)">SELL</text><rect class="cls-15" x="55.59" y="42.32" width="62.38" height="50.83" rx="10.82"/><rect class="cls-16" x="59.23" y="42.32" width="62.38" height="50.83" rx="10.82"/><rect class="cls-7" x="79.85" y="63.31" width="21.14" height="18.48" rx="4.12"/><path class="cls-7" d="M97,68.55H83.8V59.26A5.28,5.28,0,0,1,89.07,54h2.69A5.27,5.27,0,0,1,97,59.26Zm-11.23-2H95V59.26A3.28,3.28,0,0,0,91.76,56H89.07a3.28,3.28,0,0,0-3.27,3.28Z"/><path class="cls-16" d="M91.75,69.57a2.67,2.67,0,1,0-2.66,4.62,2.59,2.59,0,0,0,.6.24l-.38,2.68h2.22l-.38-2.67a2.67,2.67,0,0,0,.6-4.87Z"/><rect class="cls-18" x="55.59" y="111.42" width="62.38" height="50.83" rx="10.82"/><rect class="cls-19" x="59.23" y="111.42" width="62.38" height="50.83" rx="10.82"/><path class="cls-7" d="M90.42,121.59,75.23,129c.2,21.4,15.19,25.57,15.19,25.57s15-4.17,15.19-25.57Z"/><path class="cls-19" d="M90.42,151.78l-.27-.11c-2.63-1.14-11.3-6-12.19-20.56l0-.44,12.49-6.11,12.48,6.11,0,.44c-.89,14.57-9.55,19.42-12.19,20.56Zm-11.1-20.3c1,13,8.4,17.61,11.1,18.85,2.69-1.24,10.14-5.84,11.1-18.86L90.42,126Z"/><rect class="cls-8" x="55.59" y="180.53" width="62.38" height="50.83" rx="10.82"/><rect class="cls-13" x="59.23" y="180.53" width="62.38" height="50.83" rx="10.82"/><circle class="cls-7" cx="85.27" cy="201.12" r="11.92"/><rect class="cls-7" x="92.6" y="205.14" width="3.1" height="9.72" transform="translate(-120.92 128.08) rotate(-45)"/><rect class="cls-7" x="98.09" y="209.98" width="5.53" height="13.44" transform="translate(-123.69 134.79) rotate(-45)"/><path class="cls-13" d="M85.27,210.39a9.27,9.27,0,1,1,6.55-2.72A9.22,9.22,0,0,1,85.27,210.39Zm0-17.2a7.92,7.92,0,1,0,5.61,2.32A7.91,7.91,0,0,0,85.27,193.19Z"/><path class="cls-20" d="M234,83.3c-16.24,28.79-45,22.28-54.71,8.78"/><path class="cls-21" d="M230.44,86.07c-5.6-2.06-1.19-9.52-1.19-9.52l-.81-6s5.38-.49,4.92,4.9c0,0,5-5.77,8.31-5.87,1.56,0,6.09,3.93,7.27,7a1.22,1.22,0,0,1-.73,1.59,11.29,11.29,0,0,0-6.15,5C239.81,87.34,234.54,91.68,230.44,86.07Z"/><path class="cls-22" d="M233.36,75.45a6.2,6.2,0,0,1,1.53,7.45s1-4.5-1.76-7.19Z"/><path class="cls-22" d="M239.63,81.69a15,15,0,0,0-4.2-5.54S239.3,76.42,239.63,81.69Z"/><path class="cls-22" d="M239.08,80.44l-.08-.28s4.58-4,9.64-4.28l.13.27A19.68,19.68,0,0,0,239.08,80.44Z"/><path class="cls-22" d="M236.92,77l-.4-.25s3.18-5.2,7.74-5.87a19.33,19.33,0,0,1,2.71,2.6,14.71,14.71,0,0,0-8.68,5.11l-.26-.25s3.19-5.24,8.4-5.3l-1.8-1.85A12.31,12.31,0,0,0,236.92,77Z"/><path class="cls-15" d="M191,94l-9.9-9.49a7,7,0,0,0-9.84.69h0a7,7,0,0,0,.69,9.84l9.9,9.49Z"/><line class="cls-23" x1="171.52" y1="148.51" x2="171.52" y2="266.41"/><path class="cls-9" d="M178.75,248.11l-.07,7.63s9.53.13,11.89,10.81l-26.18,0,.42-18.54Z"/><path class="cls-2" d="M171.81,256.15c0,1.66-1,3-2.27,3s-2.34-1.29-2.37-2.95,1-3,2.26-3S171.78,254.5,171.81,256.15Z"/><rect class="cls-24" x="144.9" y="128.61" width="36.41" height="26.52" rx="13.26"/><path class="cls-16" d="M179.92,134.43a3.74,3.74,0,0,1-2.12,3.42,34,34,0,0,1-29.17.16,3.77,3.77,0,0,1-2.18-3.41c-.07-13.21-.14-25.32-.21-38.45a13.72,13.72,0,0,1,13.65-13.8l6.92,0A12.82,12.82,0,0,1,179.7,95.07Z"/><path class="cls-21" d="M154.38,83.4c-.49,2.89,3,5.91,7.87,6.73s9.16-.85,9.65-3.74-3-5.91-7.86-6.74S154.87,80.5,154.38,83.4Z"/><path class="cls-21" d="M162.86,40.1h-.64c-4.15,0-7.48,5.29-7.44,11.77L155,84l15.65-.08-.17-32.1C170.4,45.31,167,40.08,162.86,40.1Z"/><path class="cls-22" d="M162.86,40.1h-.64c-4.15,0-7.48,4.91-7.45,10.91l.12,21.93a7.83,7.83,0,0,0,7.87,7.79h0a7.83,7.83,0,0,0,7.78-7.87l-.11-21.93C170.4,44.93,167,40.08,162.86,40.1Z"/><path class="cls-22" d="M166.25,69.19c-.12.73-1.64,1.09-3.4.8s-3.07-1.13-2.95-1.86,1.64-1.09,3.4-.8S166.37,68.46,166.25,69.19Z"/><line class="cls-23" x1="155.33" y1="148.51" x2="155.33" y2="266.41"/><path class="cls-10" d="M162.56,248.11l-.07,7.63s9.53.13,11.89,10.81l-26.18,0,.41-18.54Z"/><path class="cls-2" d="M155.62,256.15c0,1.66-1,3-2.27,3S151,257.9,151,256.24s1-3,2.26-3S155.59,254.5,155.62,256.15Z"/><circle class="cls-25" cx="163.94" cy="50.15" r="16.87" transform="matrix(0.99, -0.16, 0.16, 0.99, -5.95, 27.13)"/><rect class="cls-22" x="145.81" y="55.52" width="36.27" height="4.96" rx="2.48" transform="translate(327.88 116) rotate(180)"/><rect class="cls-26" x="162.76" y="41.17" width="2.36" height="33.67" rx="1.18" transform="translate(221.94 -105.94) rotate(90)"/><path class="cls-25" d="M163.94,81.36h0a13.84,13.84,0,0,0,13.84-13.84V52.15a13.27,13.27,0,0,0-13.27-13.27h-1.14A13.27,13.27,0,0,0,150.1,52.15V67.52A13.84,13.84,0,0,0,163.94,81.36Z"/><path class="cls-27" d="M167,64.21a27.75,27.75,0,0,1-5.17-1.85c-1.19-.59-2.42.88-1.89,2.29a4.89,4.89,0,0,0,3.8,3.35,4.52,4.52,0,0,0,3.7-.63C168.51,66.54,168.23,64.53,167,64.21Z"/><path class="cls-28" d="M163.71,68a4.89,4.89,0,0,1-3.8-3.35,2.06,2.06,0,0,1-.12-.63,5,5,0,0,1,3.17.1,4.86,4.86,0,0,1,3.32,3.81h0A5.54,5.54,0,0,1,163.71,68Z"/><path class="cls-29" d="M164.9,66.34c-.24.34-1.05.21-1.8-.3s-1.17-1.21-.92-1.55,1-.21,1.81.3S165.15,66,164.9,66.34Z"/><path class="cls-7" d="M167,64.21a27.75,27.75,0,0,1-5.17-1.85,1.35,1.35,0,0,0-1.82.75,9.89,9.89,0,0,0,4.56,2.58,11,11,0,0,0,3.54.42A1.7,1.7,0,0,0,167,64.21Z"/><circle class="cls-27" cx="170.08" cy="56.31" r="1.62"/><path class="cls-27" d="M157.8,54.69a1.62,1.62,0,1,1-1.62,1.62A1.61,1.61,0,0,1,157.8,54.69Z"/><rect class="cls-22" x="161.64" y="54.69" width="4.61" height="8.35" rx="2.31" transform="translate(327.88 117.72) rotate(-180)"/><path class="cls-30" d="M155.1,51.71l2.8-.89a1.17,1.17,0,0,1,.71,2.23l-2.81.89a1.17,1.17,0,1,1-.7-2.23Z"/><path class="cls-30" d="M170,50.82l2.81.89a1.17,1.17,0,0,1-.71,2.23l-2.8-.89a1.17,1.17,0,1,1,.7-2.23Z"/><path class="cls-22" d="M160.76,71.73c0,.73,1.43,1.33,3.18,1.33s3.18-.6,3.18-1.33-1.43-1.33-3.18-1.33S160.76,71,160.76,71.73Z"/><path class="cls-21" d="M163.94,77.46h0a13.84,13.84,0,0,0,13.84-13.84V48.25A13.28,13.28,0,0,0,164.51,35h-1.14A13.28,13.28,0,0,0,150.1,48.25V63.62A13.84,13.84,0,0,0,163.94,77.46Z"/><path class="cls-27" d="M167,64.21a27.75,27.75,0,0,1-5.17-1.85c-1.19-.59-2.42.88-1.89,2.29a4.89,4.89,0,0,0,3.8,3.35,4.52,4.52,0,0,0,3.7-.63C168.51,66.54,168.23,64.53,167,64.21Z"/><path class="cls-28" d="M163.71,68a4.89,4.89,0,0,1-3.8-3.35,2.06,2.06,0,0,1-.12-.63,5,5,0,0,1,3.17.1,4.86,4.86,0,0,1,3.32,3.81h0A5.54,5.54,0,0,1,163.71,68Z"/><path class="cls-29" d="M164.9,66.34c-.24.34-1.05.21-1.8-.3s-1.17-1.21-.92-1.55,1-.21,1.81.3S165.15,66,164.9,66.34Z"/><path class="cls-7" d="M167,64.21a27.75,27.75,0,0,1-5.17-1.85,1.35,1.35,0,0,0-1.82.75,9.89,9.89,0,0,0,4.56,2.58,11,11,0,0,0,3.54.42A1.7,1.7,0,0,0,167,64.21Z"/><circle class="cls-27" cx="171.59" cy="56.31" r="1.62"/><path class="cls-27" d="M159.31,54.69a1.62,1.62,0,1,1-1.62,1.62A1.61,1.61,0,0,1,159.31,54.69Z"/><rect class="cls-22" x="163.14" y="54.69" width="4.61" height="8.35" rx="2.31" transform="translate(330.9 117.72) rotate(180)"/><path class="cls-25" d="M156.6,51.71l2.81-.89a1.17,1.17,0,1,1,.7,2.23l-2.81.89a1.17,1.17,0,0,1-.7-2.23Z"/><path class="cls-25" d="M171.49,50.82l2.8.89a1.17,1.17,0,1,1-.7,2.23l-2.81-.89a1.17,1.17,0,0,1,.71-2.23Z"/><path class="cls-22" d="M160.76,71.73c0,.73,1.43,1.33,3.18,1.33s3.18-.6,3.18-1.33-1.43-1.33-3.18-1.33S160.76,71,160.76,71.73Z"/><path class="cls-31" d="M164.22,61.73h0a.61.61,0,0,0,.61-.61V56.79a.61.61,0,0,0-.61-.61h0a.61.61,0,0,0-.61.61v4.33A.62.62,0,0,0,164.22,61.73Z"/><path class="cls-25" d="M153.42,37a8.13,8.13,0,0,1-6.27,14.89c-.05-.56-.08-1.13-.08-1.71A16.83,16.83,0,0,1,153.42,37Z"/><path class="cls-25" d="M174.39,37a8.13,8.13,0,0,0,6.27,14.89c.05-.56.08-1.13.08-1.71A16.83,16.83,0,0,0,174.39,37Z"/><path class="cls-25" d="M164.37,48.38h-9.23a13.53,13.53,0,0,1,13.53-13.53h9.23A13.53,13.53,0,0,1,164.37,48.38Z"/><path class="cls-25" d="M162.89,44.91,155.74,47h0a10.92,10.92,0,0,1,7.44-13.53l7.15-2.08h0A10.92,10.92,0,0,1,162.89,44.91Z"/><path class="cls-25" d="M161.43,44.4l-6.29,4h0a10.91,10.91,0,0,1,3.4-15.06l6.29-4h0A10.92,10.92,0,0,1,161.43,44.4Z"/><path class="cls-32" d="M155.19,36.63c4.5,3.61,12.25,7.76,21.39,4a13.48,13.48,0,0,1-4.83,5.51c-6,1-13.15-1.09-18.19-5.13A10.86,10.86,0,0,1,155.19,36.63Z"/><path class="cls-9" d="M252.91,116.71c-3.62-21.85-28.18-36.65-49.25-38.56l-.25-1.52-5.26.87a47.62,47.62,0,0,0,15.55,94l5.26-.87-.25-1.52C238,160.48,256.52,138.56,252.91,116.71Z"/><circle class="cls-10" cx="212.03" cy="123.47" r="47.62" transform="translate(39.61 298.05) rotate(-75.57)"/><circle class="cls-11" cx="212.03" cy="123.47" r="41.43" transform="translate(32.71 290.94) rotate(-73.26)"/><path class="cls-9" d="M205.27,82.6c-.53.09-1.06.2-1.58.31a41.42,41.42,0,0,1,13.51,81.66c.53-.07,1.06-.13,1.6-.22A41.43,41.43,0,0,0,205.27,82.6Z"/><path class="cls-9" d="M228,124.27a11.92,11.92,0,0,0-6.72-2.25,14.17,14.17,0,0,0,3-2.19,10.05,10.05,0,0,0,1.88-2.47,8.18,8.18,0,0,0,.87-2.68,9.4,9.4,0,0,0-.05-2.8,12.21,12.21,0,0,0-1.67-4.58,8.71,8.71,0,0,0-3.42-3.13,14.3,14.3,0,0,0-5.39-1.46,27.34,27.34,0,0,0-5.9.18L209.42,96l-4.79.8,1.14,6.88-5.35.88-1.14-6.88-4.8.8,1.14,6.88-2.27.37L186,106.92l.79,4.8,7.36-1.22,5.4,32.64-7.36,1.21.8,4.8,7.35-1.22,2.27-.37,1.07,6.47,4.8-.8-1.07-6.47,5.34-.88,1.07,6.47,4.8-.8-1.07-6.48a21.55,21.55,0,0,0,6.25-2,14.57,14.57,0,0,0,4.53-3.52,11.64,11.64,0,0,0,2.39-4.54,12.21,12.21,0,0,0,.21-5.19A8.67,8.67,0,0,0,228,124.27Zm-23.6-12.85,5.74-1a13.46,13.46,0,0,1,2.9-.22,5.06,5.06,0,0,1,2.13.55,3.56,3.56,0,0,1,1.42,1.41,7.19,7.19,0,0,1,.8,2.45,6,6,0,0,1-.06,2.63,3.76,3.76,0,0,1-1.13,1.82,6.13,6.13,0,0,1-2.08,1.18,16.94,16.94,0,0,1-2.89.72l-5.1.84Zm16.92,21.82a4.24,4.24,0,0,1-.66,1.93,5,5,0,0,1-1.72,1.59,8.48,8.48,0,0,1-3.09,1l-6.9,1.14-1.74-10.52,6.84-1.13a11.25,11.25,0,0,1,3.13-.16,5.1,5.1,0,0,1,2.12.66,3.5,3.5,0,0,1,1.31,1.39,6.78,6.78,0,0,1,.64,2A7.34,7.34,0,0,1,221.28,133.24Z"/><path class="cls-12" d="M232.55,123.51a11.91,11.91,0,0,0-6.71-2.25,13.85,13.85,0,0,0,3-2.19,10.05,10.05,0,0,0,1.88-2.47,7.73,7.73,0,0,0,.87-2.68,9.08,9.08,0,0,0-.05-2.8,12.2,12.2,0,0,0-1.66-4.58,8.84,8.84,0,0,0-3.42-3.13,14.4,14.4,0,0,0-5.4-1.46,27.34,27.34,0,0,0-5.9.18L214,95.21l-4.8.8,1.14,6.88-5.35.88-1.14-6.88-4.8.8,1.14,6.88-2.26.37-7.36,1.22.8,4.8,7.35-1.22,5.4,32.64-7.35,1.21.79,4.8,7.35-1.22,2.27-.37,1.07,6.47,4.8-.8L212,146l5.35-.88,1.07,6.47,4.79-.8-1.07-6.48a21.52,21.52,0,0,0,6.26-2,14.52,14.52,0,0,0,4.52-3.52,11.64,11.64,0,0,0,2.39-4.54,12.21,12.21,0,0,0,.21-5.19A8.58,8.58,0,0,0,232.55,123.51ZM209,110.66l5.73-1a13.5,13.5,0,0,1,2.9-.22,5.22,5.22,0,0,1,2.13.54,3.68,3.68,0,0,1,1.43,1.42,7.42,7.42,0,0,1,.79,2.45,6,6,0,0,1-.06,2.63,3.74,3.74,0,0,1-1.12,1.82,6.18,6.18,0,0,1-2.09,1.18,16.7,16.7,0,0,1-2.89.72l-5.1.84Zm16.92,21.82a4.38,4.38,0,0,1-.67,1.93A5,5,0,0,1,223.5,136a8.61,8.61,0,0,1-3.09,1l-6.9,1.14-1.74-10.52,6.84-1.13a11.24,11.24,0,0,1,3.13-.16,5.14,5.14,0,0,1,2.12.66,3.55,3.55,0,0,1,1.3,1.39,7.08,7.08,0,0,1,.65,2A8.19,8.19,0,0,1,225.88,132.48Z"/><path class="cls-20" d="M144.9,100.33c-15.48,28.92-2,47.14,14,47.82"/><path class="cls-15" d="M148.09,111.31l7.43-14a8,8,0,0,0-3.86-10.72h0a8,8,0,0,0-10.72,3.86l-7.44,14Z"/><path class="cls-21" d="M156.44,147.35c-1.14-5.22,6.62-5.48,6.62-5.48l4.14-3.5s3,3.82-1.34,6.07c0,0,4.64,1.34,8,.09,4.13-1.52,1.64,8.57-1.91,11.29-1.93,1.48-4.7-.84-7.77-.6C159.94,155.55,154.17,153.14,156.44,147.35Z"/><path class="cls-22" d="M165.77,150l-.11.38s4.8,2,9.11,1.41c.1-.22.19-.44.28-.66C173.34,151.56,170.16,151.82,165.77,150Z"/><path class="cls-22" d="M165.18,152.88a25.09,25.09,0,0,0,7.81,1.94,7,7,0,0,0,.44-.59,21.4,21.4,0,0,1-8.15-1.76Z"/><path class="cls-22" d="M166.29,147.38s4.84,2.21,9.65.49c0-.33.07-.64.09-1a14.64,14.64,0,0,1-9.65.2Z"/></g></svg>