<svg xmlns="http://www.w3.org/2000/svg" viewBox="0 0 52.6 45.96"><defs><style>.cls-1{fill:#81c436;}.cls-2{fill:#36802b;}.cls-3{fill:#327527;}.cls-4{fill:#4a9a36;}.cls-5{fill:#438d31;}.cls-6{fill:#2fc3b0;}.cls-7{fill:#fff;}.cls-11,.cls-12,.cls-21,.cls-8{fill:none;stroke-linecap:round;}.cls-21,.cls-8{stroke:#e38907;stroke-linejoin:round;stroke-width:2px;}.cls-8{stroke-dasharray:6;}.cls-9{fill:#ee2f24;}.cls-10{fill:#e12b22;}.cls-11,.cls-12{stroke:#fff;stroke-miterlimit:10;stroke-width:0.92px;}.cls-12{stroke-dasharray:6.13 6.13;}.cls-13{fill:#2c2585;}.cls-14{fill:#fba92d;}.cls-15{fill:#e38907;}.cls-16{fill:#151241;}.cls-17{fill:#201c61;}.cls-18{fill:#131039;}.cls-19{fill:#e5b76e;}.cls-20{fill:#fefefe;}.cls-22{font-size:9.33px;}.cls-22,.cls-23,.cls-24{fill:#d87100;font-family:MyriadPro-Regular, Myriad Pro;}.cls-23{font-size:6.17px;}.cls-24{font-size:3.64px;}</style></defs><g id="OBJECTS"><path class="cls-1" d="M16.51,27.86l-4.75-.68c.47-3.32,1-6.65,1.42-10l4.75.67c-.47,3.33-.95,6.65-1.42,10"/><path class="cls-2" d="M16,19.43a.59.59,0,0,0-1.16-.17.59.59,0,0,0,1.16.17"/><path class="cls-2" d="M15.12,25.83A.59.59,0,0,0,14,25.67a.56.56,0,0,0,.5.62.57.57,0,0,0,.66-.46"/><path class="cls-2" d="M17.32,28.72h0l.44-3.11.45-3.11,0-.26,0-.25.16-1.1,0-.14L18.71,19,19,17.24a.29.29,0,0,0-.24-.31l-2.87-.4L13,16.12a.27.27,0,0,0-.31.22L12,21.18,11.29,26l-.13.9-.13.9a.28.28,0,0,0,.24.3l2.86.41,2.87.41a.28.28,0,0,0,.32-.22m-.26-8-.38,2.67-.48,3.32a.8.8,0,0,0-.65.66.86.86,0,0,0,0,.16L14,27.26l-.22,0-.36,0-.23,0a.64.64,0,0,0,0-.07.82.82,0,0,0-.52-.86l0-.31q.54-3.72,1.06-7.44h0a.83.83,0,0,0,.91-.69.61.61,0,0,0,0-.14l2,.29a.63.63,0,0,0-.11.28.83.83,0,0,0,.72.92Z"/><path class="cls-2" d="M16.48,22.75A1.51,1.51,0,1,0,14.77,24a1.51,1.51,0,0,0,1.71-1.28"/><path class="cls-3" d="M17.32,28.72h0l0-.22-.16-.09-.28-.17a2.49,2.49,0,0,1-.24-.17,4.42,4.42,0,0,1-.47-.35,8.27,8.27,0,0,1-.61-.56.28.28,0,0,0,0,.16.91.91,0,0,0,0,.17c-.52-.09-1-.16-1.57-.24l-.22,0-.36,0-.23,0s0,0,0-.07a.81.81,0,0,0-.52-.86l0-.31c.17-1.14.33-2.27.49-3.41,0-.08,0-.17,0-.28A11,11,0,0,1,13,20.59,12.7,12.7,0,0,1,13.05,19c0-.14,0-.28,0-.42.06-.41.14-.81.23-1.2s.14-.53.22-.78l.12-.35-.69-.1a.28.28,0,0,0-.32.23L12,21.18,11.28,26l-.12.9-.13.9a.29.29,0,0,0,.24.31l2.85.4,2.88.41a.27.27,0,0,0,.32-.22"/><path class="cls-1" d="M15.21,27.24,9.76,29.85Q7,24.14,4.28,18.41L9.73,15.8q2.75,5.72,5.48,11.44"/><path class="cls-2" d="M8.78,18.77a.73.73,0,0,0-1-.31.72.72,0,0,0-.36.95.74.74,0,0,0,1.33-.64"/><path class="cls-2" d="M12.34,26.09a.74.74,0,0,0-1.33.64.74.74,0,0,0,1.33-.64"/><path class="cls-4" d="M16.66,27.58h0L15,24l-1.7-3.57-.14-.29L13,19.86l-.61-1.27-.07-.15-1-2-1-2a.35.35,0,0,0-.47-.14L6.6,15.83,3.31,17.41a.34.34,0,0,0-.17.45L5.8,23.41,8.46,29,9,30l.5,1a.35.35,0,0,0,.46.15l3.27-1.57L16.49,28a.34.34,0,0,0,.17-.45m-5.89-8.25,1.46,3.06,1.82,3.81a1,1,0,0,0-.22,1.15,1.74,1.74,0,0,0,.11.18l-1.8.86-.27.12-.41.2-.26.12a.16.16,0,0,0,0-.08A1,1,0,0,0,10,28.21Q7.9,23.77,5.77,19.32v0h0a1,1,0,0,0,.49-1.36,1.3,1.3,0,0,0-.1-.15l2.28-1.09a.85.85,0,0,0,.09.38,1.07,1.07,0,0,0,1.4.46Z"/><path class="cls-4" d="M8.18,23.55a1.9,1.9,0,1,0,3.43-1.64,1.9,1.9,0,0,0-3.43,1.64"/><path class="cls-5" d="M16.67,27.58h0l-.12-.25-.23,0h-.78c-.26,0-.51,0-.74-.05a8.51,8.51,0,0,1-1-.15.56.56,0,0,0,.06.2.87.87,0,0,0,.11.18l-1.81.85-.26.13-.41.19-.26.13a.16.16,0,0,0,0-.08A1,1,0,0,0,10,28.21l-.17-.36L8,23.94a3.19,3.19,0,0,1-.26-.26,14.29,14.29,0,0,1-1.3-1.59,15.67,15.67,0,0,1-1.06-1.75q-.13-.24-.24-.48c-.22-.46-.42-.94-.6-1.42-.11-.32-.22-.65-.31-1L4.1,17l-.79.37a.36.36,0,0,0-.17.46l2.65,5.55L8.45,29,9,30l.49,1a.36.36,0,0,0,.47.15l3.27-1.57L16.49,28a.36.36,0,0,0,.18-.45"/><path class="cls-6" d="M50.14,34.15l-.64-.42a.22.22,0,0,1,0-.08,1.93,1.93,0,0,1,0-.24h0v0c0-.06,0-.12,0-.18l.19-.13.51-.35a.08.08,0,0,0,0,0l-.14-.5L50,31.68v0l0,0-.8-.06,0-.06,0-.05a2.75,2.75,0,0,0-.17-.29L49,31l.28-.56a0,0,0,0,0,0,0L48.9,30l-.36-.37h0s0,0-.05,0l-.76.35h0l-.28-.18h0l-.07,0,0-.31,0-.62s0,0,0,0l-.49-.14-.5-.15h0s0,0,0,0l-.52.72,0,0h-.42L45.09,29l-.34-.53s0,0,0,0l-.5.11-.51.12h0l0,0-.09.89v.06l-.29.16L43,29.72l-.56-.29s0,0-.05,0l-.37.35-.38.36h0a0,0,0,0,0,0,0L42,31c-.07.11-.14.22-.2.33l-.29,0-.62,0a0,0,0,0,0,0,0l-.14.5-.14.5h0s0,0,0,0l.69.49a.66.66,0,0,0,0,.14c0,.11,0,.22,0,.33l-.21.13-.53.34,0,0,.12.51.11.5h0a0,0,0,0,0,0,0l.87.1.11.21a1.59,1.59,0,0,0,.13.22l-.1.18-.29.55a0,0,0,0,0,0,0l.36.38.35.38h.05l.79-.34.38.23v.19l0,.62s0,0,0,0L44,38l.5.15h0l0,0,.49-.66.46,0h0l.12.19.34.52a0,0,0,0,0,0,0l.5-.12L47,38h0s0,0,0,0l.08-.81c.15-.07.29-.15.43-.23l.21.11.55.29h0l.38-.35.38-.35h0a.06.06,0,0,0,0,0l-.35-.83h0c.08-.12.16-.25.23-.38h.21l.62-.06s0,0,0,0l.13-.5.13-.5h0A.08.08,0,0,0,50.14,34.15Zm-4.85-2.81a2.43,2.43,0,0,1,.27,0l.27.05a2.6,2.6,0,0,1,.42.15h0l0,0,.13.07h.07l.16.12h0l.06.05a1.85,1.85,0,0,1,.14.14H47l.06.1h0a1.75,1.75,0,0,1,.21.46h0l0,.08a2.88,2.88,0,0,1,.05.33h0a.22.22,0,0,1,0,.08h0v0a2.07,2.07,0,0,1-.06.5,2.22,2.22,0,0,1-.18.49h0a1.83,1.83,0,0,1-.31.42,1.8,1.8,0,0,1-.4.33,1.85,1.85,0,0,1-.45.21,2.35,2.35,0,0,1-.53.09h-.27l-.27,0a2.1,2.1,0,0,1-.49-.2h0a1.73,1.73,0,0,1-.41-.3,2,2,0,0,1-.32-.39,1.74,1.74,0,0,1-.22-.48h0a2.28,2.28,0,0,1-.09-.51,2.42,2.42,0,0,1,.06-.54,1.72,1.72,0,0,1,.19-.49,2,2,0,0,1,.3-.42,2.08,2.08,0,0,1,.4-.32,1.82,1.82,0,0,1,.47-.22,2.33,2.33,0,0,1,.46-.08Z"/><path class="cls-7" d="M45.82,30.47a3.06,3.06,0,0,1,.84.27h0l.09.05a3.45,3.45,0,0,1,.5.35h.05v0h0a2.27,2.27,0,0,1,.3.32l.1.12h0v0h0v0h0v0h0v0h0l0,0a3.33,3.33,0,0,1,.31.79,3,3,0,0,1,.06.85,2.88,2.88,0,0,1-.6,1.59,3,3,0,0,1-1.38,1l-.44.11a3,3,0,0,1-.43,0,2.7,2.7,0,0,1-.89-.12,2.83,2.83,0,0,1-1.42-1,2.91,2.91,0,0,1-.58-2.47,2,2,0,0,1,.13-.42,3,3,0,0,1,.19-.41,2.91,2.91,0,0,1,2.81-1.43l.17,0m-.56.15a2.7,2.7,0,0,0-.69.12,2.67,2.67,0,0,0-1.19.73,3.07,3.07,0,0,0-.42.58h0a3.09,3.09,0,0,0-.25.66,2.62,2.62,0,0,0-.07.74,2.78,2.78,0,0,0,.12.7,2.56,2.56,0,0,0,.29.63,2.87,2.87,0,0,0,.44.55,3,3,0,0,0,.57.41,2.86,2.86,0,0,0,1.4.33,2.85,2.85,0,0,0,.71-.12h0a2.93,2.93,0,0,0,.65-.29,3.18,3.18,0,0,0,.53-.44A2.67,2.67,0,0,0,48,34a2.52,2.52,0,0,0,.07-.72,3.29,3.29,0,0,0-.11-.7,3.93,3.93,0,0,0-.3-.66,2.43,2.43,0,0,1-.14-.2h0c-.07-.08-.13-.16-.2-.23h0l0,0h-.11a2.83,2.83,0,0,0-.45-.32A2.71,2.71,0,0,0,46,30.7a2.63,2.63,0,0,0-.74-.08m-1.88.85h0m4.7,1.78v0M48,34h0m-3.29,2h0m0,0h0M43,32.05h0"/><path class="cls-6" d="M26.47,18.65,26,18.34s0,0,0-.06a1.09,1.09,0,0,1,0-.18h0S26,18,26,18l.14-.1.38-.26s0,0,0,0l-.1-.37-.1-.37h0l0,0-.6,0,0-.05,0,0-.12-.21.07-.15.21-.41s0,0,0,0l-.26-.28-.27-.27h0a0,0,0,0,0,0,0l-.56.25h0l-.21-.13h0l-.05,0v-.23l0-.46a0,0,0,0,0,0,0L24,14.56l-.37-.11h0l-.38.54,0,0h-.31l-.12-.18-.25-.39,0,0-.38.09-.37.09h0l0,0-.07.66v0l-.22.12-.19-.09-.41-.22h0l-.27.26-.28.27h0a0,0,0,0,0,0,0l.27.6a2.13,2.13,0,0,0-.16.25h-.2l-.47,0s0,0,0,0l-.11.37-.1.36h0s0,0,0,0l.52.36a.41.41,0,0,0,0,.11,1.93,1.93,0,0,0,0,.24l-.15.1-.4.25a.1.1,0,0,0,0,0l.09.37.08.38h0a0,0,0,0,0,0,0l.65.07a1.19,1.19,0,0,0,.08.16l.09.16-.07.14-.22.41a0,0,0,0,0,0,0l.26.28.26.28h0a0,0,0,0,0,0,0l.58-.25c.09.07.19.12.28.18v.14l0,.46s0,0,0,0l.36.11.37.11h0l.36-.49a2,2,0,0,0,.35,0h0l.09.14.25.38a.05.05,0,0,0,0,0l.37-.1.37-.09h0l0,0,.06-.6a2,2,0,0,0,.32-.18l.15.09.41.22h0l.28-.26.28-.25h0s0,0,0,0l-.26-.61h0a1.61,1.61,0,0,0,.17-.28h.16l.46,0,0,0,.1-.37.09-.37h0S26.48,18.66,26.47,18.65Zm-3.59-2.08a1.33,1.33,0,0,1,.2,0l.2,0a1.28,1.28,0,0,1,.31.11h0l.09.06h.06l.12.1h0a.08.08,0,0,1,0,0l.1.1h.09a.35.35,0,0,1,.05.08h0a1.84,1.84,0,0,1,.15.35h0a.14.14,0,0,1,0,.06,1,1,0,0,1,0,.25h0v0a.07.07,0,0,1,0,0h0v0a1.5,1.5,0,0,1,0,.37,1.42,1.42,0,0,1-.14.36h0a1.39,1.39,0,0,1-.23.31,1.13,1.13,0,0,1-.29.24,1.5,1.5,0,0,1-.34.16,1.78,1.78,0,0,1-.39.07h-.2l-.2,0a1.28,1.28,0,0,1-.37-.14h0a1.54,1.54,0,0,1-.3-.22,1.68,1.68,0,0,1-.24-.29,1.46,1.46,0,0,1-.16-.36h0a1.59,1.59,0,0,1-.06-.38,1.36,1.36,0,0,1,0-.4,1.42,1.42,0,0,1,.14-.36,1.34,1.34,0,0,1,.22-.31,1.76,1.76,0,0,1,.3-.24,1.58,1.58,0,0,1,.35-.16,1.86,1.86,0,0,1,.34-.06Z"/><path class="cls-7" d="M23.27,15.93a2,2,0,0,1,.62.2h0l.07,0a2.45,2.45,0,0,1,.37.26h.06a1.7,1.7,0,0,1,.22.24l.07.09h.1l0,0a2.67,2.67,0,0,1,.23.59,2.24,2.24,0,0,1,0,.63,2.2,2.2,0,0,1-.45,1.18,2.17,2.17,0,0,1-1,.72,1.87,1.87,0,0,1-.32.08,1.84,1.84,0,0,1-.33,0,2.15,2.15,0,0,1-.66-.09,2.17,2.17,0,0,1-1.05-.71,2.12,2.12,0,0,1-.47-1.18,2.05,2.05,0,0,1,0-.65c0-.1.06-.21.1-.31s.09-.2.14-.3a2.27,2.27,0,0,1,.93-.86,2.18,2.18,0,0,1,1.15-.2l.13,0m-.42.11a1.81,1.81,0,0,0-.51.08,2.09,2.09,0,0,0-.48.22,2.44,2.44,0,0,0-.4.32,2.32,2.32,0,0,0-.31.44v0h0a2.53,2.53,0,0,0-.19.48,2,2,0,0,0-.05.55,2.27,2.27,0,0,0,.09.52,2,2,0,0,0,.21.47,2.6,2.6,0,0,0,.33.4,2.53,2.53,0,0,0,.42.31,2.26,2.26,0,0,0,.49.19,2.05,2.05,0,0,0,.55.05,2.35,2.35,0,0,0,.53-.09h0a2.62,2.62,0,0,0,.48-.22,2.08,2.08,0,0,0,.4-.32A2.24,2.24,0,0,0,24.7,19a2.34,2.34,0,0,0,.19-.5,2,2,0,0,0,.05-.54,1.81,1.81,0,0,0-.08-.51,2.71,2.71,0,0,0-.22-.49l-.11-.15h0l-.15-.17h0l0,0h-.08a1.72,1.72,0,0,0-.34-.24,2.08,2.08,0,0,0-.49-.19,2,2,0,0,0-.55-.05m-1.39.63h0M24.94,18v0m-.05.55h0M22.45,20h0m0,0h0M21.15,17.1h0"/><polyline class="cls-8" points="26.58 41.5 9.64 41.5 9.64 35.3"/><circle class="cls-9" cx="26.58" cy="41.5" r="0.92"/><path class="cls-9" d="M23.93,23.73H6.41a1.51,1.51,0,0,0-1.58,1.39V35.85a1.51,1.51,0,0,0,1.58,1.38H23.93a1.52,1.52,0,0,0,1.59-1.38V25.12a1.52,1.52,0,0,0-1.59-1.39"/><path class="cls-10" d="M4.83,25.12V35.85a1.51,1.51,0,0,0,1.58,1.39H23.93a1.52,1.52,0,0,0,1.59-1.39v-2c-.92,0-1.84,0-2.76,0-.52,0-1-.05-1.56-.1s-1-.11-1.54-.18-1-.17-1.54-.27-1-.22-1.47-.35l-.79-.22c-.22-.07-.44-.13-.66-.21-.4-.13-.79-.28-1.19-.43s-.79-.34-1.18-.53-.76-.38-1.13-.59-.77-.45-1.14-.69-.73-.5-1.08-.78-.69-.55-1-.85-.62-.59-.9-.9-.57-.66-.83-1l-.39-.55-.3-.49c-.11-.2-.22-.39-.32-.59s-.18-.38-.26-.57-.11-.27-.16-.4a1.28,1.28,0,0,0-.48,1"/><line class="cls-11" x1="23.99" y1="24.47" x2="20.99" y2="24.47"/><path class="cls-12" d="M14.85,24.47H7.11a1.41,1.41,0,0,0-1.53,1.21V35.1a1.42,1.42,0,0,0,1.53,1.22H24a1.42,1.42,0,0,0,1.52-1.22V29.6"/><path class="cls-11" d="M25.51,26.53v-.85A1.41,1.41,0,0,0,24,24.47"/><path class="cls-13" d="M8,32.39H4.53A.58.58,0,0,1,4,31.81V29a.58.58,0,0,1,.58-.58H8a2,2,0,0,1,2,2h0A2,2,0,0,1,8,32.39Z"/><circle class="cls-14" cx="7.97" cy="30.4" r="1.02"/><path class="cls-14" d="M21.09,12.06a4.23,4.23,0,1,0-5.21-3,4.23,4.23,0,0,0,5.21,3"/><path class="cls-15" d="M17.87,4.81a3.87,3.87,0,0,0-.45.35c-.09.08-.17.17-.25.25l-.11.13,0,.06a3.69,3.69,0,0,0-.51.85,3.79,3.79,0,0,0-.28,1,1.5,1.5,0,0,0,0,.22v0A3.79,3.79,0,0,0,16.81,10a4,4,0,0,0,.37.47,3.24,3.24,0,0,0,.43.4,4,4,0,0,0,1,.58,3.78,3.78,0,0,0,2.23.16,3.66,3.66,0,0,0,1.12-.45,4,4,0,0,0,.91-.77,5,5,0,0,0,.34-.46,4.74,4.74,0,0,0,.26-.5,3.83,3.83,0,0,0,.29-1.09,3.77,3.77,0,0,0-.48-2.3,3.57,3.57,0,0,0-.75-.93A4.1,4.1,0,0,0,22,4.77a3.78,3.78,0,0,0-1.64-.58,4.09,4.09,0,0,0-1.16,0,3.74,3.74,0,0,0-.76.24l-.1,0-.08,0a4.23,4.23,0,0,0-.42.25m1-.26a3.41,3.41,0,0,1,1-.19h0a4,4,0,0,1,.91.07,3.57,3.57,0,0,1,1.67.82l0,0A3.62,3.62,0,0,1,23,6v0a3.81,3.81,0,0,1,.44.88,3.72,3.72,0,0,1,.18.94v0a4.26,4.26,0,0,1-.07.94v0a4.44,4.44,0,0,1-.3.89,4.08,4.08,0,0,1-.52.78l0,0a3.37,3.37,0,0,1-.72.64,4.07,4.07,0,0,1-.86.43h0a3.65,3.65,0,0,1-.93.18h0a3.56,3.56,0,0,1-.92-.06,4.06,4.06,0,0,1-.89-.3h0a4,4,0,0,1-.78-.51h0A3.92,3.92,0,0,1,17,10a3.81,3.81,0,0,1-.42-.86,3.72,3.72,0,0,1-.18-.95,3,3,0,0,1,0-.67h0v0h0v0h0v0h0s0-.08,0-.12a3.28,3.28,0,0,1,.24-.75h0l.06-.13.06-.11h0a3.34,3.34,0,0,1,.43-.63h0l.27-.28A4.94,4.94,0,0,1,18,5l.15-.09a3.34,3.34,0,0,1,.72-.33m-1.57,1h0m2.49-1.23h0M17,10h0m4.13,1.4h0m-3.49-.68h0"/><path class="cls-14" d="M13.46,15a2.55,2.55,0,1,0-2.71-2.38A2.55,2.55,0,0,0,13.46,15"/><path class="cls-15" d="M12.46,10.35a1.77,1.77,0,0,0-.31.15l-.18.12-.08.06,0,0a2.14,2.14,0,0,0-.41.44,2.28,2.28,0,0,0-.3.58.93.93,0,0,1,0,.13v0a2.19,2.19,0,0,0,.08,1.41,1.44,1.44,0,0,0,.16.33,1.87,1.87,0,0,0,.2.29,2.24,2.24,0,0,0,.51.46,2.35,2.35,0,0,0,1.29.38,2.54,2.54,0,0,0,.72-.13,2.16,2.16,0,0,0,.63-.35,1.31,1.31,0,0,0,.25-.22,1.78,1.78,0,0,0,.22-.26,2.2,2.2,0,0,0,.31-.61,2.3,2.3,0,0,0,0-1.42,2,2,0,0,0-.33-.64,3.11,3.11,0,0,0-.23-.28,2.61,2.61,0,0,0-.27-.22A2.08,2.08,0,0,0,14,10.3a2.27,2.27,0,0,0-.69-.12,2.42,2.42,0,0,0-.47.05h-.07l0,0a1.52,1.52,0,0,0-.28.09m.6,0a2.25,2.25,0,0,1,.58,0h0a2.46,2.46,0,0,1,.53.15,2.43,2.43,0,0,1,.47.28,2.33,2.33,0,0,1,.41.42v0a2.76,2.76,0,0,1,.28.5h0a2.82,2.82,0,0,1,.15.57,2.8,2.8,0,0,1,0,.58h0a2,2,0,0,1-.16.54h0a2.18,2.18,0,0,1-.29.49,2.11,2.11,0,0,1-.4.39h0a1.92,1.92,0,0,1-.5.29,2.73,2.73,0,0,1-.56.15h0a2.18,2.18,0,0,1-.57,0h0a2.46,2.46,0,0,1-.53-.15,2.64,2.64,0,0,1-.49-.29h0a3,3,0,0,1-.39-.4h0a2.82,2.82,0,0,1-.29-.5,2.19,2.19,0,0,1-.14-.56,2.25,2.25,0,0,1,0-.58,2.6,2.6,0,0,1,.1-.4h0v0h0v0h0l0-.07a2.1,2.1,0,0,1,.24-.41h0l0-.07.05-.06h0a2.58,2.58,0,0,1,.34-.32h0l.19-.13a1.77,1.77,0,0,1,.31-.15l.09,0a2.66,2.66,0,0,1,.47-.11M12,10.74h0m1.62-.42h0M11.3,13.27h0m2.26,1.35h0m-2-.84h0"/><path class="cls-13" d="M46.92,10.75h0l0,0-.42,2.47-.41,2.45-.41,2.47-.42,2.46L45,22.1l-.36,2.11v0l0,0h0s0,0,0,0h0L45,22.65l.19-1.13.35-2.05.39-2.32.35-2,.1-.6c.2-1.23.41-2.46.62-3.69a.06.06,0,0,0,0,0,0,0,0,0,0,0,0h0"/><path class="cls-16" d="M27.29,5.39a1,1,0,0,0-.3,0h-.08a1.55,1.55,0,0,0-.95.81,1.39,1.39,0,0,0-.14.45L23.37,21,20.9,35.31l-.33,1.89a1.57,1.57,0,0,0,0,.53,1.59,1.59,0,0,0,.31.73l0,0a1.39,1.39,0,0,0,.43.37l0,0a1.37,1.37,0,0,0,.44.16l13.45,2.32,6.42,1.1.22,0a1,1,0,0,0,.3,0h.08a1.55,1.55,0,0,0,.95-.81,1.39,1.39,0,0,0,.14-.45l2.63-15.29,2.56-14.89.06-.31a1.57,1.57,0,0,0,0-.53,1.63,1.63,0,0,0-.33-.75h0A1.39,1.39,0,0,0,47.79,9l0,0a1.37,1.37,0,0,0-.44-.16l-11.79-2-1.82-.31L31.16,6l-3.65-.63-.22,0"/><path class="cls-17" d="M26,6.27a1.57,1.57,0,0,1,1.12-.86A1.57,1.57,0,0,0,26,6.27"/><path class="cls-17" d="M47.06,9.91a2.45,2.45,0,0,0,0-.27A1.77,1.77,0,0,0,47,9.33a1.62,1.62,0,0,0-.1-.18A.57.57,0,0,0,46.74,9l-.05-.07,0,0-.12-.1-.16-.11L35.59,6.8l-1.82-.31L31.16,6l-3.65-.63-.22,0a1.56,1.56,0,0,0-1.47,1.32L23.37,21,20.9,35.31l-.33,1.89a.22.22,0,0,1,0,.08l2.37.4L30.6,39,38,40.26l2,.34h0a5,5,0,0,0,.56.1h.31l.17,0,.16-.05h0l.15-.07.15-.1h0l.12-.11a.69.69,0,0,0,.11-.13h0a.42.42,0,0,0,.09-.14s0-.09.08-.14h0l.06-.15,0-.22c0-.1,0-.2,0-.3h0l1.62-9.44q.89-5.2,1.78-10.43c.51-3,1-6,1.55-9.07l0-.24s0-.09,0-.14Z"/><path class="cls-13" d="M26.77,5.5a1.48,1.48,0,0,0-.75.67,1.54,1.54,0,0,0-.2.54L23.37,21,20.9,35.31l-.33,1.89a.17.17,0,0,1,0,.07l1.91.33c.3-1.67.59-3.35.88-5q1.29-7.32,2.57-14.65Q27,11.72,28.1,5.51l-.59-.1-.22,0a1.39,1.39,0,0,0-.52.11"/><path class="cls-13" d="M43.87,28.92h0l0,0-.62,3.7-.34,2-.29,1.72-.14.82-.27,1.64v0h0V39a0,0,0,0,0,0,0l0,0h0l0,0c.13-.81.27-1.62.4-2.43l.14-.81.32-1.88L43.4,32l.24-1.39L43.91,29a0,0,0,0,0,0,0,0,0,0,0,0,0,0h0"/><path class="cls-13" d="M44.42,25.61h0l0,0-.09.49-.07.43,0,.13v0l0,0h0l0,0L44.4,26l.07-.37a0,0,0,0,0,0,0s0,0,0,0h0"/><path class="cls-18" d="M30.91,38.56a.73.73,0,0,0,.73-.72.73.73,0,1,0-1.46,0,.73.73,0,0,0,.73.72"/><path class="cls-13" d="M30.91,37a.83.83,0,0,0-.22,0,.79.79,0,0,0-.28.13l0,0a.57.57,0,0,0-.11.11l0,0,0,.06a.89.89,0,0,0-.11.3v0h0a1.1,1.1,0,0,0,0,.25,1.17,1.17,0,0,0,.09.24.82.82,0,0,0,.36.33,1,1,0,0,0,.37.08H31a.8.8,0,0,0,.24-.07.67.67,0,0,0,.2-.13.91.91,0,0,0,.25-.4.88.88,0,0,0,0-.24.75.75,0,0,0-.05-.26.88.88,0,0,0-.4-.47.86.86,0,0,0-.39-.09m0,1.45h-.08l-.16-.05-.13-.07-.12-.12a.64.64,0,0,1-.08-.14.83.83,0,0,1,0-.15v0h0a.48.48,0,0,1,0-.12l0-.12v0l0,0,.06-.11.11-.11.14-.08a.53.53,0,0,1,.16,0H31a.53.53,0,0,1,.16,0,.57.57,0,0,1,.13.08l.12.11s.05.09.08.14a.83.83,0,0,1,0,.15v.17a.83.83,0,0,1,0,.15s-.05.1-.08.14l-.12.11a.57.57,0,0,1-.13.08l-.16.05h-.08"/><path class="cls-13" d="M40.63,8.35a.48.48,0,0,0-.48.47.49.49,0,0,0,.48.48.48.48,0,0,0,.47-.48.47.47,0,0,0-.47-.47"/><path class="cls-13" d="M33.89,7.32a.44.44,0,0,0-.2.25.43.43,0,0,0,.05.33.41.41,0,0,0,.25.19L39.32,9a.41.41,0,0,0,.52-.29.44.44,0,0,0,0-.32.41.41,0,0,0-.25-.2l-5.34-.93h-.12a.35.35,0,0,0-.2.05"/><path class="cls-19" d="M27.8,7.73a1.07,1.07,0,0,0-.25,0h-.06a1.26,1.26,0,0,0-.78.67,1.18,1.18,0,0,0-.12.36l-2,11.69-2,11.77-.27,1.55a1,1,0,0,0,0,.43,1.37,1.37,0,0,0,.25.61h0a1,1,0,0,0,.36.3h0a1.14,1.14,0,0,0,.35.13l11,1.9,5.26.9.18,0a1.07,1.07,0,0,0,.25,0H40a1.29,1.29,0,0,0,.77-.66,1.23,1.23,0,0,0,.12-.37l2.16-12.54,2.1-12.22,0-.25a1,1,0,0,0,0-.43A1.27,1.27,0,0,0,45,11h0a1.16,1.16,0,0,0-.36-.3l0,0a1,1,0,0,0-.35-.14L34.61,8.89l-1.49-.26L31,8.26l-3-.51-.18,0"/><polygon class="cls-20" points="40.73 9.94 40.74 9.94 38.42 9.54 40.73 9.94"/><polyline class="cls-21" points="29.06 10.93 32.4 11.52 31.45 16.89"/><polyline class="cls-21" points="42.37 13.29 39.03 12.7 38.08 18.06"/><line class="cls-21" x1="35.65" y1="12.1" x2="34.69" y2="17.46"/><path class="cls-9" d="M29.49,11a.44.44,0,0,1-.51.35.44.44,0,1,1,.16-.86A.44.44,0,0,1,29.49,11Z"/><polyline class="cls-21" points="26.18 27.13 29.52 27.72 30.48 22.36"/><path class="cls-9" d="M36.08,12.18a.44.44,0,0,1-.51.35.44.44,0,1,1,.51-.35Z"/><polyline class="cls-21" points="39.49 29.49 36.15 28.9 37.1 23.54"/><line class="cls-21" x1="32.77" y1="28.3" x2="33.72" y2="22.94"/><path class="cls-9" d="M41.94,13.22a.45.45,0,0,0,.35.51.44.44,0,0,0,.51-.36.43.43,0,0,0-.35-.51A.44.44,0,0,0,41.94,13.22Z"/><path class="cls-9" d="M26.61,27.2a.42.42,0,0,0-.35-.5.43.43,0,0,0-.51.35.44.44,0,0,0,.35.51A.44.44,0,0,0,26.61,27.2Z"/><path class="cls-9" d="M33.2,28.37a.44.44,0,0,0-.35-.5.44.44,0,0,0-.16.86A.44.44,0,0,0,33.2,28.37Z"/><path class="cls-9" d="M39.06,29.42a.44.44,0,1,1,.87.15.45.45,0,0,1-.51.36A.45.45,0,0,1,39.06,29.42Z"/><path class="cls-14" d="M33.54,27.07a6.72,6.72,0,1,0-5.71-7.59,6.72,6.72,0,0,0,5.71,7.59"/><path class="cls-15" d="M33.44,14.49a5.71,5.71,0,0,0-.88.23l-.51.2L31.8,15l-.11.06a5.67,5.67,0,0,0-1.27.91,6,6,0,0,0-1.07,1.34,3.07,3.07,0,0,0-.17.31l0,.07a6.05,6.05,0,0,0-.54,3.68,5.93,5.93,0,0,0,.24.92,5.87,5.87,0,0,0,.37.86,6,6,0,0,0,1.07,1.45,6,6,0,0,0,3.13,1.65,5.89,5.89,0,0,0,1.92.05,5.75,5.75,0,0,0,1.81-.55,6.06,6.06,0,0,0,.78-.45,6.13,6.13,0,0,0,.7-.56,6,6,0,0,0,1.11-1.4,6.1,6.1,0,0,0,.76-3.64A5.86,5.86,0,0,0,40,17.9a5.55,5.55,0,0,0-1-1.57,6.13,6.13,0,0,0-1.44-1.15,5.89,5.89,0,0,0-1.72-.66,6,6,0,0,0-1.26-.13h-.31a5.2,5.2,0,0,0-.77.09m1.57.22A6.3,6.3,0,0,1,36.5,15h0a6.25,6.25,0,0,1,1.28.67,5.91,5.91,0,0,1,1.08,1A6.27,6.27,0,0,1,39.68,18l0,0a5.72,5.72,0,0,1,.47,1.45v0a5.75,5.75,0,0,1,.07,1.55,5.45,5.45,0,0,1-.33,1.49v0a5.54,5.54,0,0,1-.69,1.32l0,0a5.82,5.82,0,0,1-1,1.1,6.09,6.09,0,0,1-1.25.81h0a5.72,5.72,0,0,1-1.45.47,6,6,0,0,1-1.52.08h0a6.25,6.25,0,0,1-1.47-.33h0a6,6,0,0,1-1.3-.68,5.79,5.79,0,0,1-1.1-1l0,0a5.47,5.47,0,0,1-.8-1.22h0v0h0a5.65,5.65,0,0,1-.47-1.44,5.81,5.81,0,0,1,.26-3,6.68,6.68,0,0,1,.47-1h0l0,0v0l0,0h0l0,0h0l.11-.17a5.58,5.58,0,0,1,.82-.93h0l.16-.15.17-.13h0l0,0a5.73,5.73,0,0,1,1-.64h0q.28-.13.57-.24a5.06,5.06,0,0,1,.87-.23l.27,0a6.64,6.64,0,0,1,1.26,0m-2.94.53h0m4.4-.21h0m-7.56,6.38h0M34,26.08h0m-4.65-3.21h0v0h0"/><path class="cls-9" d="M28.42,34.23,25,33.64a1.18,1.18,0,0,1-1-1.38h0a1.19,1.19,0,0,1,1.38-1l3.41.59a1.2,1.2,0,0,1,1,1.38h0A1.2,1.2,0,0,1,28.42,34.23Z"/><path class="cls-15" d="M38.44,36.09,35,35.51a1.2,1.2,0,0,1-1-1.39h0a1.19,1.19,0,0,1,1.38-1l3.41.59a1.2,1.2,0,0,1,1,1.38h0A1.2,1.2,0,0,1,38.44,36.09Z"/><text/><polyline class="cls-20" points="28.08 36.12 30.43 36.53 28.08 36.12 28.08 36.12"/><text class="cls-22" transform="translate(31.45 22.44) rotate(16.78)">B</text><text class="cls-23" transform="matrix(1.08, 0.33, -0.29, 0.96, 17.65, 9.33)">B</text><text class="cls-24" transform="matrix(0.97, -0.63, 0.54, 0.84, 13.07, 14)">B</text></g></svg>