<svg id="Layer_1" data-name="Layer 1" xmlns="http://www.w3.org/2000/svg" viewBox="0 0 79.86 77.78"><defs><style>.cls-1{fill:#f47b20;}.cls-2{fill:#ec7223;}.cls-3{fill:#f4bc42;}.cls-4{fill:#d98843;}.cls-5{fill:#f8974a;}.cls-6{fill:#ffdc98;}</style></defs><path class="cls-1" d="M35.46,4.7A25.3,25.3,0,0,0,11,23.6H5.29l9,12,9-12H18.71A17.92,17.92,0,0,1,44,14.22c1.1-2.19,2.3-4.3,3.56-6.39V7.76A25.14,25.14,0,0,0,35.46,4.7Z"/><path class="cls-2" d="M45.89,72.66A25.32,25.32,0,0,0,70.37,53.75h5.69l-9-12-9,12h4.55a17.91,17.91,0,0,1-25.25,9.39c-1.09,2.18-2.29,4.3-3.56,6.38v.08A25.14,25.14,0,0,0,45.89,72.66Z"/><circle class="cls-3" cx="60.04" cy="24.41" r="14.26" transform="translate(-4.77 24.84) rotate(-22.5)"/><circle class="cls-4" cx="60.04" cy="24.41" r="11.18" transform="translate(26.33 79.77) rotate(-80.78)"/><circle class="cls-5" cx="60.04" cy="24.41" r="9.69" transform="translate(26.33 79.77) rotate(-80.78)"/><path class="cls-6" d="M59.16,16.83v-1h1.76v1c1.53.32,2.32,1.49,2.32,3.36v.43h-2v-.57c0-1-.39-1.35-1.08-1.35S59,19.07,59,20.05c0,2.82,4.22,3,4.22,6.88,0,1.86-.81,3.06-2.34,3.37v1H59.16v-1c-1.55-.31-2.33-1.51-2.33-3.37V26h2v1.08c0,1,.44,1.33,1.12,1.33s1.12-.35,1.12-1.33c0-2.82-4.22-3-4.22-6.88C56.88,18.34,57.65,17.17,59.16,16.83Z"/><circle class="cls-3" cx="17.79" cy="52.92" r="14.26"/><circle class="cls-4" cx="17.79" cy="52.92" r="11.18"/><circle class="cls-5" cx="17.79" cy="52.92" r="9.69"/><path class="cls-6" d="M17.87,48.17c0-1-.57-1.3-1.65-1.3h-1.8V45.21h6.75v1.66H19.52a3.29,3.29,0,0,1,.49,1.3h1.16v1.66H20a3.1,3.1,0,0,1-3.2,3h-.1l4.57,6.13H19L14.42,52.8V51.13h1.8c1.08,0,1.65-.31,1.65-1.3H14.42V48.17Z"/></svg>