<svg id="Layer_1" data-name="Layer 1" xmlns="http://www.w3.org/2000/svg" viewBox="0 0 143.73 88.34"><defs><style>.cls-1{font-size:18px;fill:#231f20;font-family:BritannicBold, Britannic Bold;letter-spacing:0.06em;}</style></defs><path d="M83,61.47c-6.77,4.31-8,4-10.49-3.7a26.92,26.92,0,0,1,4.23-25.68C71.28,29.57,64.35,30.23,61,34.73c-3.51,4.65-7.63,4-12.65,3.56A17.82,17.82,0,0,1,58,26.82c4-1.9,6.84-3.88,5.06-9.37l5.18-.25C70.36,19,67,24.52,73.05,22.66l.33-5.16h5.71c-2.39,9.28,7.2,8.36,10.71,12.78l-.2-.35C99,41.23,99.68,53.07,91.73,65.39A14.15,14.15,0,0,0,112,53.25H98.54V47h22.62C124.51,63.32,108,77.88,90.87,73.77c-8-1.92-8-1.92-11.62,0l-.33,6.38-5.41.26L73,74.92c-3.64-.25-3.64-.25-4,5.1H63.43c1.2-5.24-2-7.18-6-9.53-3.84-2.25-6.61-6.32-9.37-10.11,5.08-1.16,9.06-2,12.82,2.58,5.17,6.33,16.55,5.3,22.47-1.12,6.65-6.6,7-18.63-.1-25.7-1.18,3.36-3.18,6.37-3,9.27C80.5,50.8,82,56.12,83,61.47Z" transform="translate(-15.44 -17.2)"/><path d="M84.36,28.68l.25.32-3.73-4.23c11.26-7.88,27.71-4.45,34.53,7.55-4.44,1-8.17,2.73-12.67-1.05-2.61-2.19-7.29-2.11-11.09-2.66C89.28,28.26,86.79,28.63,84.36,28.68Z" transform="translate(-15.44 -17.2)"/><text class="cls-1" transform="translate(0 80.36)">CRYPTO GRIND</text></svg>