<svg xmlns="http://www.w3.org/2000/svg" viewBox="0 0 197.13 141.63"><defs><style>.cls-1{isolation:isolate;}.cls-2{fill:#e74645;}.cls-3{fill:#eda94f;}.cls-4{fill:#95c11f;}.cls-5{fill:#0d3953;}.cls-6{fill:#ec642b;}.cls-7{fill:#d4dd64;}.cls-14,.cls-8{fill:#fff;}.cls-9{fill:#3b333c;}.cls-10{fill:#4d434f;}.cls-11{fill:#4fb0bc;}.cls-12{fill:#43939d;}.cls-13{fill:#2a2329;}.cls-14{opacity:0.4;mix-blend-mode:soft-light;}</style></defs><g class="cls-1"><g id="Capa_1" data-name="Capa 1"><path class="cls-2" d="M105,62.69A12.73,12.73,0,1,1,92,50.2,12.74,12.74,0,0,1,105,62.69Z"/><path class="cls-3" d="M71.36,73.94a12.73,12.73,0,1,1-13-12.49A12.72,12.72,0,0,1,71.36,73.94Z"/><path class="cls-4" d="M139,72.67a12.73,12.73,0,1,1-13-12.48A12.73,12.73,0,0,1,139,72.67Z"/><path class="cls-5" d="M104.25,24a12.73,12.73,0,1,1-13-12.49A12.72,12.72,0,0,1,104.25,24Z"/><path class="cls-6" d="M82.87,44.77a12.73,12.73,0,1,1-13-12.49A12.74,12.74,0,0,1,82.87,44.77Z"/><path class="cls-7" d="M126.4,44a12.73,12.73,0,1,1-13-12.49A12.72,12.72,0,0,1,126.4,44Z"/><path class="cls-8" d="M50.38,70.13c-.22.21-.43.42-.64.64l1.46,1.41c.18-.19.37-.38.56-.55A10.26,10.26,0,0,1,66,71.91l1.41-1.47A12.32,12.32,0,0,0,50.38,70.13Z"/><path class="cls-8" d="M52.8,72.83c-.15.14-.31.29-.45.45l1.28,1.23c.12-.13.25-.25.38-.38a6.93,6.93,0,0,1,9.61.23l1.23-1.27A8.69,8.69,0,0,0,52.8,72.83Z"/><path class="cls-8" d="M55.15,75.37c-.11.1-.21.2-.31.31l1,1a2.44,2.44,0,0,1,.27-.29,3.82,3.82,0,0,1,5.35.19l1-1A5.22,5.22,0,0,0,55.15,75.37Z"/><path class="cls-8" d="M60.58,78.42a1.87,1.87,0,1,1-1.9-1.83A1.87,1.87,0,0,1,60.58,78.42Z"/><path class="cls-8" d="M113.52,36.22a7.44,7.44,0,1,0,7.58,7.3A7.44,7.44,0,0,0,113.52,36.22Zm.25,13.16a5.72,5.72,0,1,1,5.61-5.83A5.73,5.73,0,0,1,113.77,49.38Z"/><polygon class="cls-8" points="116.57 43.6 114.22 45.58 111.88 47.55 111.8 43.69 111.73 39.83 114.15 41.72 116.57 43.6"/><path class="cls-8" d="M70.65,36a8.49,8.49,0,1,0,8.64,8.32A8.48,8.48,0,0,0,70.65,36Zm.28,15a6.52,6.52,0,1,1,6.4-6.64A6.52,6.52,0,0,1,70.93,51Z"/><path class="cls-8" d="M71.7,44.44a.9.9,0,0,1-1.79,0,.9.9,0,0,1,1.79,0Z"/><polygon class="cls-8" points="70.22 44.47 71.4 44.45 70.7 38.5 70.22 44.47"/><polygon class="cls-8" points="70.8 44.03 70.82 44.89 75.15 44.38 70.8 44.03"/><path class="cls-8" d="M93.73,59.94a2.7,2.7,0,1,0,2.75,2.65A2.7,2.7,0,0,0,93.73,59.94Z"/><rect class="cls-8" x="84.8" y="55.54" width="5.47" height="1.65" transform="translate(-1.04 1.65) rotate(-1.07)"/><path class="cls-8" d="M84.59,57.6,84.79,68l14.64-.27-.19-10.41Zm4.7,1.8-3.47.07v-.62l3.47-.06Zm4.56,6.75a3.51,3.51,0,1,1,3.44-3.58A3.52,3.52,0,0,1,93.85,66.15Z"/><circle class="cls-8" cx="91.53" cy="24.25" r="3.81" transform="translate(-3.15 23.35) rotate(-14.3)"/><path class="cls-8" d="M99.87,24.65a7.3,7.3,0,0,0,0-1.08c-2.14-.68-2.39-1.53-.93-3.21a9.77,9.77,0,0,0-.53-.88c-2.16.53-2.78-.07-2.33-2.25-.29-.18-.59-.35-.89-.5-1.64,1.51-2.49,1.29-3.24-.82a4.87,4.87,0,0,0-.54,0,4.93,4.93,0,0,0-.55,0c-.67,2.13-1.52,2.39-3.2.93a7.9,7.9,0,0,0-.88.53c.53,2.16-.07,2.78-2.25,2.33a7,7,0,0,0-.5.89c1.51,1.63,1.29,2.49-.83,3.24,0,.18,0,.36,0,.54l0,.54c2.14.68,2.39,1.53.93,3.21a8,8,0,0,0,.54.88c2.16-.53,2.78.07,2.33,2.25a8.51,8.51,0,0,0,.89.5c1.63-1.51,2.49-1.29,3.23.82a5,5,0,0,0,.55,0l.54,0c.67-2.14,1.53-2.39,3.21-.94a7.77,7.77,0,0,0,.87-.53c-.52-2.16.08-2.78,2.26-2.33a8.51,8.51,0,0,0,.5-.89C97.53,26.26,97.76,25.4,99.87,24.65Zm-8.25,4.56a5,5,0,1,1,4.87-5.05A5,5,0,0,1,91.62,29.21Z"/><path class="cls-8" d="M131.71,69.26a5.51,5.51,0,1,0-5.91,5.6l0,2-.84,0,.09,5,2.69,0-.1-5-.83,0,0-2A5.51,5.51,0,0,0,131.71,69.26Zm-9.61.18a4.1,4.1,0,1,1,4.18,4A4.1,4.1,0,0,1,122.1,69.44Z"/><path class="cls-9" d="M73,129.74a39.52,39.52,0,0,1-12.65.58L15.23,119.17c-3.51-.52-8.9-6.66-5.46-7.49L124.92,87.42a39.51,39.51,0,0,1,12.65-.58l45.31,7.76c3.5.52,1.39,7-2.06,7.88Z"/><path class="cls-10" d="M70.6,123.06a40.58,40.58,0,0,1-13,.6l-45.94-10c-3.6-.54-3.65-1.67-.12-2.53L124.37,87.4a40.65,40.65,0,0,1,13-.6L180,94.18c3.6.53,3.65,1.67.12,2.52Z"/><path class="cls-9" d="M87.49,117.08a40.32,40.32,0,0,1-13,.62L37.73,109c-3.6-.54-3.65-1.68-.12-2.55l77-15.09a40.29,40.29,0,0,1,13-.61l33.55,6c3.59.53,3.65,1.68.12,2.55Z"/><path class="cls-11" d="M87.45,116.15a40.31,40.31,0,0,1-13,.61l-32-8c-3.6-.53-3.65-1.68-.12-2.54l72.26-13.94a40.29,40.29,0,0,1,13-.61L156.34,97c3.6.53,3.65,1.67.12,2.54Z"/><path class="cls-12" d="M40.33,108.23a8.55,8.55,0,0,1,2-.69L114.58,93.6a40.29,40.29,0,0,1,13-.61l28.76,5.32a7.79,7.79,0,0,1,2.11.54c1.29-.72.58-1.46-2.11-1.85l-28.76-5.32a40.29,40.29,0,0,0-13,.61L42.32,106.23C39.72,106.86,39.07,107.65,40.33,108.23Z"/><polygon class="cls-9" points="154.45 93.47 141.3 91.33 146.25 90.17 159.07 92.25 154.45 93.47"/><path class="cls-9" d="M51.72,114a42.61,42.61,0,0,0-13-.23l-1.45.24c-3.59.6-3.6,1.67,0,2.39l3.81.78a41.86,41.86,0,0,0,13,.16l1.06-.19c3.58-.63,3.6-1.74,0-2.46Zm-1.37,2.41a24.82,24.82,0,0,1-7.69-.23c-2.29-.46-2.55-1.11-.56-1.44a25.3,25.3,0,0,1,7.68.23C52,115.45,52.27,116.1,50.35,116.44Z"/><path class="cls-13" d="M172.05,102.35a2,2,0,0,1-2,2l-11.85,2.87a2,2,0,0,1-2-2h0a2,2,0,0,1,2-2L170,100.33a2,2,0,0,1,2,2Z"/><path class="cls-14" d="M171.27,102.49c0,1-.82-.19-1.83-.19l-10.69,2.6c-1,0-1.83,1.2-1.83.19h0a1.83,1.83,0,0,1,1.83-1.83l10.69-2.59a1.82,1.82,0,0,1,1.83,1.82Z"/><path class="cls-13" d="M149.25,107.87a2,2,0,0,1-2,2l-11.85,2.88a2,2,0,0,1-2-2h0a2,2,0,0,1,2-2l11.85-2.87a2,2,0,0,1,2,2Z"/><path class="cls-14" d="M148.47,108c0,1-.82-.19-1.83-.19L136,110.41c-1,0-1.83,1.21-1.83.2h0a1.83,1.83,0,0,1,1.83-1.83l10.69-2.6a1.83,1.83,0,0,1,1.83,1.83Z"/></g></g></svg>