<svg xmlns="http://www.w3.org/2000/svg" xmlns:xlink="http://www.w3.org/1999/xlink" viewBox="0 0 170.22 140.32"><defs><style>.cls-1,.cls-103,.cls-21,.cls-36,.cls-37,.cls-50,.cls-60,.cls-61,.cls-62,.cls-63,.cls-64,.cls-65,.cls-81,.cls-96{fill:none;}.cls-2{isolation:isolate;}.cls-17,.cls-19,.cls-3,.cls-31{fill:#fff;}.cls-4{fill:#edba85;}.cls-4,.cls-5{opacity:0.15;}.cls-5{fill:#eec685;}.cls-6{fill:url(#linear-gradient);}.cls-10,.cls-20,.cls-24,.cls-40,.cls-53,.cls-69,.cls-7,.cls-88,.cls-89,.cls-94,.cls-95{opacity:0.3;}.cls-10,.cls-100,.cls-101,.cls-106,.cls-111,.cls-112,.cls-113,.cls-13,.cls-18,.cls-24,.cls-28,.cls-32,.cls-33,.cls-34,.cls-40,.cls-43,.cls-46,.cls-47,.cls-48,.cls-53,.cls-56,.cls-57,.cls-58,.cls-69,.cls-7,.cls-77,.cls-78,.cls-79,.cls-84,.cls-88,.cls-89,.cls-9,.cls-94,.cls-95,.cls-99{mix-blend-mode:multiply;}.cls-7{fill:url(#linear-gradient-2);}.cls-8{fill:url(#linear-gradient-3);}.cls-100,.cls-106,.cls-111,.cls-112,.cls-13,.cls-28,.cls-32,.cls-33,.cls-43,.cls-46,.cls-47,.cls-56,.cls-57,.cls-77,.cls-78,.cls-84,.cls-9,.cls-99{opacity:0.5;}.cls-9{fill:url(#linear-gradient-4);}.cls-10{fill:url(#linear-gradient-5);}.cls-11{fill:url(#linear-gradient-6);}.cls-12{fill:url(#linear-gradient-7);}.cls-13{fill:url(#linear-gradient-8);}.cls-14{fill:url(#linear-gradient-9);}.cls-15{fill:url(#linear-gradient-10);}.cls-16{clip-path:url(#clip-path);}.cls-17{opacity:0.1;}.cls-18,.cls-19{font-size:8.36px;}.cls-18{fill:#82cdf2;}.cls-101,.cls-102,.cls-113,.cls-114,.cls-18,.cls-34,.cls-35,.cls-48,.cls-49,.cls-58,.cls-59,.cls-79,.cls-80{font-family:Roboto-Bold, Roboto Bold;}.cls-101,.cls-102,.cls-113,.cls-114,.cls-18,.cls-19,.cls-34,.cls-35,.cls-48,.cls-49,.cls-58,.cls-59,.cls-79,.cls-80{font-weight:700;}.cls-19{font-family:Rockwell-Bold, Rockwell;}.cls-103,.cls-21,.cls-36,.cls-37,.cls-50,.cls-81{stroke:#b489be;}.cls-103,.cls-21,.cls-37,.cls-50,.cls-81{stroke-linecap:round;stroke-linejoin:round;}.cls-21{stroke-width:2.76px;}.cls-22{fill:url(#linear-gradient-11);}.cls-23{fill:url(#linear-gradient-12);}.cls-24{fill:url(#linear-gradient-13);}.cls-25{fill:url(#linear-gradient-14);}.cls-26{fill:url(#linear-gradient-15);}.cls-27,.cls-28{fill:url(#linear-gradient-16);}.cls-29{fill:url(#linear-gradient-18);}.cls-30{clip-path:url(#clip-path-2);}.cls-31{opacity:0.2;}.cls-32{fill:url(#linear-gradient-19);}.cls-33{fill:url(#linear-gradient-20);}.cls-34,.cls-35{font-size:3.24px;}.cls-101,.cls-102,.cls-113,.cls-114,.cls-34,.cls-35,.cls-48,.cls-49,.cls-58,.cls-59,.cls-79,.cls-80{fill:#f9e665;}.cls-36,.cls-60,.cls-61,.cls-62,.cls-63,.cls-64,.cls-65,.cls-96{stroke-miterlimit:10;}.cls-37{stroke-width:2.63px;}.cls-38{fill:url(#linear-gradient-21);}.cls-39{fill:url(#linear-gradient-22);}.cls-40{fill:url(#linear-gradient-23);}.cls-41{fill:url(#linear-gradient-24);}.cls-42,.cls-43{fill:url(#linear-gradient-25);}.cls-44{fill:url(#linear-gradient-27);}.cls-45{clip-path:url(#clip-path-3);}.cls-46{fill:url(#linear-gradient-28);}.cls-47{fill:url(#linear-gradient-29);}.cls-48,.cls-49{font-size:2.93px;}.cls-50{stroke-width:3.38px;}.cls-51{fill:url(#linear-gradient-30);}.cls-52{fill:url(#linear-gradient-31);}.cls-53{fill:url(#linear-gradient-32);}.cls-54{fill:url(#linear-gradient-33);}.cls-55{clip-path:url(#clip-path-4);}.cls-56{fill:url(#linear-gradient-34);}.cls-57{fill:url(#linear-gradient-35);}.cls-58,.cls-59{font-size:3.88px;}.cls-60,.cls-61,.cls-62,.cls-63,.cls-64,.cls-65{stroke-width:0.65px;}.cls-60{stroke:url(#linear-gradient-36);}.cls-61{stroke:url(#linear-gradient-37);}.cls-62{stroke:url(#linear-gradient-38);}.cls-63{stroke:url(#linear-gradient-39);}.cls-64{stroke:url(#linear-gradient-40);}.cls-65{stroke:url(#linear-gradient-41);}.cls-66{fill:url(#linear-gradient-42);}.cls-67{fill:url(#linear-gradient-43);}.cls-68{fill:url(#linear-gradient-44);}.cls-69{fill:url(#linear-gradient-45);}.cls-70{fill:url(#linear-gradient-46);}.cls-71{fill:url(#linear-gradient-47);}.cls-72{fill:url(#linear-gradient-48);}.cls-73{fill:url(#linear-gradient-49);}.cls-74{fill:url(#linear-gradient-50);}.cls-75{fill:url(#linear-gradient-51);}.cls-76{clip-path:url(#clip-path-5);}.cls-77{fill:url(#linear-gradient-52);}.cls-78{fill:url(#linear-gradient-53);}.cls-79,.cls-80{font-size:4.04px;}.cls-81{stroke-width:2.89px;}.cls-82{fill:url(#linear-gradient-54);}.cls-83{fill:url(#linear-gradient-55);}.cls-84{fill:url(#linear-gradient-56);}.cls-85{fill:url(#linear-gradient-57);}.cls-86{fill:url(#linear-gradient-58);}.cls-87{fill:url(#linear-gradient-59);}.cls-88{fill:url(#linear-gradient-60);}.cls-90{fill:url(#linear-gradient-61);}.cls-91{fill:url(#linear-gradient-62);}.cls-92{fill:url(#linear-gradient-63);}.cls-93{fill:url(#linear-gradient-64);}.cls-94{fill:url(#linear-gradient-65);}.cls-95{fill:url(#linear-gradient-66);}.cls-96{stroke-width:0.88px;stroke:url(#linear-gradient-67);}.cls-97{fill:url(#linear-gradient-68);}.cls-98{clip-path:url(#clip-path-6);}.cls-99{fill:url(#linear-gradient-69);}.cls-100{fill:url(#linear-gradient-70);}.cls-101,.cls-102{font-size:3.06px;}.cls-103{stroke-width:3.08px;}.cls-104{fill:url(#linear-gradient-71);}.cls-105{fill:url(#linear-gradient-72);}.cls-106{fill:url(#linear-gradient-73);}.cls-107{fill:url(#linear-gradient-74);}.cls-108{fill:url(#linear-gradient-75);}.cls-109{fill:url(#linear-gradient-76);}.cls-110{clip-path:url(#clip-path-7);}.cls-111{fill:url(#linear-gradient-77);}.cls-112{fill:url(#linear-gradient-78);}.cls-113,.cls-114{font-size:3.53px;}</style><linearGradient id="linear-gradient" x1="85.5" y1="57.7" x2="98.29" y2="57.7" gradientUnits="userSpaceOnUse"><stop offset="0" stop-color="#f4c450"/><stop offset="1" stop-color="#f9e665"/></linearGradient><linearGradient id="linear-gradient-2" x1="89.03" y1="47.88" x2="92.2" y2="72.28" xlink:href="#linear-gradient"/><linearGradient id="linear-gradient-3" x1="82.28" y1="41.88" x2="78.75" y2="73.04" xlink:href="#linear-gradient"/><linearGradient id="linear-gradient-4" x1="89.29" y1="54.55" x2="92.51" y2="73.63" xlink:href="#linear-gradient"/><linearGradient id="linear-gradient-5" x1="82.22" y1="53.33" x2="78.33" y2="74.03" xlink:href="#linear-gradient"/><linearGradient id="linear-gradient-6" x1="80.61" y1="96.03" x2="79.23" y2="74.32" xlink:href="#linear-gradient"/><linearGradient id="linear-gradient-7" x1="85.5" y1="80.37" x2="98.29" y2="80.37" xlink:href="#linear-gradient"/><linearGradient id="linear-gradient-8" x1="88.5" y1="92.31" x2="92.57" y2="68.21" xlink:href="#linear-gradient"/><linearGradient id="linear-gradient-9" x1="72.43" y1="49.23" x2="107.79" y2="61.98" gradientUnits="userSpaceOnUse"><stop offset="0" stop-color="#5099d3"/><stop offset="1" stop-color="#124da1"/></linearGradient><linearGradient id="linear-gradient-10" x1="85.41" y1="60.02" x2="86.77" y2="46.67" gradientUnits="userSpaceOnUse"><stop offset="0" stop-color="#82cdf2"/><stop offset="1" stop-color="#5099d3"/></linearGradient><clipPath id="clip-path"><rect class="cls-1" x="72.1" y="48.91" width="27.91" height="9.51" rx="4.76"/></clipPath><linearGradient id="linear-gradient-11" x1="37.59" y1="105.15" x2="59.94" y2="105.15" xlink:href="#linear-gradient-9"/><linearGradient id="linear-gradient-12" x1="36.38" y1="105.09" x2="58.73" y2="105.09" xlink:href="#linear-gradient-10"/><linearGradient id="linear-gradient-13" x1="38.31" y1="104.21" x2="57.71" y2="104.21" xlink:href="#linear-gradient-10"/><linearGradient id="linear-gradient-14" x1="47.88" y1="117.34" x2="47.24" y2="102.34" gradientUnits="userSpaceOnUse"><stop offset="0" stop-color="#271a55"/><stop offset="1" stop-color="#7c3c97"/></linearGradient><linearGradient id="linear-gradient-15" x1="48.91" y1="99.79" x2="52.26" y2="99.79" xlink:href="#linear-gradient"/><linearGradient id="linear-gradient-16" x1="60.93" y1="119.6" x2="52.76" y2="110.8" xlink:href="#linear-gradient"/><linearGradient id="linear-gradient-18" x1="60.51" y1="119.63" x2="52.35" y2="110.84" xlink:href="#linear-gradient"/><clipPath id="clip-path-2"><path class="cls-1" d="M61.31,115.57A4.58,4.58,0,1,1,56.73,111,4.58,4.58,0,0,1,61.31,115.57Z"/></clipPath><linearGradient id="linear-gradient-19" x1="59.69" y1="118.75" x2="53.3" y2="111.86" xlink:href="#linear-gradient"/><linearGradient id="linear-gradient-20" x1="59.48" y1="118.54" x2="55.57" y2="114.33" xlink:href="#linear-gradient"/><linearGradient id="linear-gradient-21" x1="166.71" y1="74.25" x2="138.63" y2="58.93" gradientUnits="userSpaceOnUse"><stop offset="0" stop-color="#e03e5b"/><stop offset="1" stop-color="#f16383"/></linearGradient><linearGradient id="linear-gradient-22" x1="140.94" y1="66.25" x2="161.16" y2="66.25" xlink:href="#linear-gradient-21"/><linearGradient id="linear-gradient-23" x1="142.75" y1="65.53" x2="160.3" y2="65.53" xlink:href="#linear-gradient-21"/><linearGradient id="linear-gradient-24" x1="144.85" y1="65.83" x2="158" y2="65.83" xlink:href="#linear-gradient-21"/><linearGradient id="linear-gradient-25" x1="164.1" y1="80.49" x2="156.71" y2="72.52" xlink:href="#linear-gradient"/><linearGradient id="linear-gradient-27" x1="163.73" y1="80.52" x2="156.34" y2="72.56" xlink:href="#linear-gradient"/><clipPath id="clip-path-3"><path class="cls-1" d="M164.45,76.84a4.14,4.14,0,1,1-4.14-4.14A4.14,4.14,0,0,1,164.45,76.84Z"/></clipPath><linearGradient id="linear-gradient-28" x1="162.98" y1="79.72" x2="157.2" y2="73.49" xlink:href="#linear-gradient"/><linearGradient id="linear-gradient-29" x1="162.79" y1="79.53" x2="159.26" y2="75.72" xlink:href="#linear-gradient"/><linearGradient id="linear-gradient-30" x1="138.1" y1="46.49" x2="130.7" y2="30.95" xlink:href="#linear-gradient-9"/><linearGradient id="linear-gradient-31" x1="129.51" y1="36.7" x2="130.11" y2="17.43" xlink:href="#linear-gradient-10"/><linearGradient id="linear-gradient-32" x1="119.37" y1="31.3" x2="141.04" y2="31.3" xlink:href="#linear-gradient-10"/><linearGradient id="linear-gradient-33" x1="146.79" y1="49.31" x2="137" y2="38.75" xlink:href="#linear-gradient"/><clipPath id="clip-path-4"><path class="cls-1" d="M147.75,44.43a5.49,5.49,0,1,1-5.49-5.49A5.49,5.49,0,0,1,147.75,44.43Z"/></clipPath><linearGradient id="linear-gradient-34" x1="145.81" y1="48.25" x2="138.14" y2="39.99" xlink:href="#linear-gradient"/><linearGradient id="linear-gradient-35" x1="145.56" y1="47.99" x2="140.87" y2="42.95" xlink:href="#linear-gradient"/><linearGradient id="linear-gradient-36" x1="133.4" y1="31.74" x2="138.13" y2="31.74" gradientUnits="userSpaceOnUse"><stop offset="0" stop-color="#7c3c97"/><stop offset="1" stop-color="#2c1239"/></linearGradient><linearGradient id="linear-gradient-37" x1="-99.76" y1="-39.83" x2="-95.03" y2="-39.83" gradientTransform="matrix(0.95, 0.3, -0.3, 0.95, 216.57, 100.43)" xlink:href="#linear-gradient-36"/><linearGradient id="linear-gradient-38" x1="-327.44" y1="-37.85" x2="-322.71" y2="-37.85" gradientTransform="translate(383.95 247.45) rotate(34.08)" xlink:href="#linear-gradient-36"/><linearGradient id="linear-gradient-39" x1="-747.96" y1="31.74" x2="-743.23" y2="31.74" gradientTransform="matrix(-1, 0, 0, 1, -622.05, 0)" xlink:href="#linear-gradient-36"/><linearGradient id="linear-gradient-40" x1="-939.46" y1="227.82" x2="-934.73" y2="227.82" gradientTransform="matrix(-0.95, 0.3, 0.3, 0.95, -838.62, 100.43)" xlink:href="#linear-gradient-36"/><linearGradient id="linear-gradient-41" x1="-1057.4" y1="456.08" x2="-1052.67" y2="456.08" gradientTransform="matrix(-0.83, 0.56, 0.56, 0.83, -1006, 247.45)" xlink:href="#linear-gradient-36"/><linearGradient id="linear-gradient-42" x1="128.81" y1="19.61" x2="130" y2="40.18" xlink:href="#linear-gradient-36"/><linearGradient id="linear-gradient-43" x1="33.43" y1="72.78" x2="40.69" y2="75.59" xlink:href="#linear-gradient-21"/><linearGradient id="linear-gradient-44" x1="22.01" y1="74.15" x2="22.63" y2="54.05" xlink:href="#linear-gradient-21"/><linearGradient id="linear-gradient-45" x1="11.46" y1="68.46" x2="34.2" y2="68.46" xlink:href="#linear-gradient-21"/><linearGradient id="linear-gradient-46" x1="11.32" y1="59.71" x2="33.86" y2="81.83" xlink:href="#linear-gradient-36"/><linearGradient id="linear-gradient-47" x1="15.89" y1="55.05" x2="38.44" y2="77.18" xlink:href="#linear-gradient-36"/><linearGradient id="linear-gradient-48" x1="7.54" y1="63.56" x2="30.09" y2="85.68" xlink:href="#linear-gradient-36"/><linearGradient id="linear-gradient-49" x1="12.12" y1="58.9" x2="34.66" y2="81.02" xlink:href="#linear-gradient-36"/><linearGradient id="linear-gradient-50" x1="15.69" y1="55.25" x2="38.24" y2="77.38" xlink:href="#linear-gradient-36"/><linearGradient id="linear-gradient-51" x1="39.01" y1="86.58" x2="28.82" y2="75.6" gradientTransform="translate(105.86 29.55) rotate(76.85)" xlink:href="#linear-gradient"/><clipPath id="clip-path-5"><circle class="cls-1" cx="34.3" cy="81.5" r="5.71" transform="translate(-52.87 96.36) rotate(-76.85)"/></clipPath><linearGradient id="linear-gradient-52" x1="37.99" y1="85.48" x2="30.01" y2="76.88" xlink:href="#linear-gradient"/><linearGradient id="linear-gradient-53" x1="37.73" y1="85.22" x2="32.85" y2="79.96" xlink:href="#linear-gradient"/><linearGradient id="linear-gradient-54" x1="48.78" y1="34.37" x2="26.44" y2="17.98" xlink:href="#linear-gradient"/><linearGradient id="linear-gradient-55" x1="43.68" y1="47.92" x2="43.83" y2="20.74" xlink:href="#linear-gradient"/><linearGradient id="linear-gradient-56" x1="35.76" y1="31.15" x2="52.98" y2="31.15" xlink:href="#linear-gradient"/><linearGradient id="linear-gradient-57" x1="48.3" y1="25.99" x2="48.25" y2="38.45" xlink:href="#linear-gradient-36"/><linearGradient id="linear-gradient-58" x1="39.72" y1="25.95" x2="39.67" y2="38.41" xlink:href="#linear-gradient-36"/><linearGradient id="linear-gradient-59" x1="44.03" y1="25.97" x2="43.97" y2="38.43" xlink:href="#linear-gradient-36"/><linearGradient id="linear-gradient-60" x1="48.44" y1="30.67" x2="48.42" y2="33.46" xlink:href="#linear-gradient-36"/><linearGradient id="linear-gradient-61" x1="442.75" y1="578.35" x2="442.74" y2="579.37" gradientTransform="translate(-538.41 474.76) rotate(-90)" xlink:href="#linear-gradient-36"/><linearGradient id="linear-gradient-62" x1="442.75" y1="576.45" x2="442.74" y2="577.47" gradientTransform="translate(-538.41 474.76) rotate(-90)" xlink:href="#linear-gradient-36"/><linearGradient id="linear-gradient-63" x1="-108.98" y1="976.5" x2="-108.99" y2="977.53" gradientTransform="translate(-69.48 1008.08) rotate(180)" xlink:href="#linear-gradient-36"/><linearGradient id="linear-gradient-64" x1="-108.98" y1="974.6" x2="-108.99" y2="975.63" gradientTransform="translate(-69.48 1008.08) rotate(180)" xlink:href="#linear-gradient-36"/><linearGradient id="linear-gradient-65" x1="42.7" y1="32.76" x2="42.69" y2="34.1" xlink:href="#linear-gradient-36"/><linearGradient id="linear-gradient-66" x1="45.26" y1="32.74" x2="45.25" y2="34.07" xlink:href="#linear-gradient-36"/><linearGradient id="linear-gradient-67" x1="39.38" y1="25.47" x2="45.54" y2="25.47" xlink:href="#linear-gradient-36"/><linearGradient id="linear-gradient-68" x1="57.69" y1="44.54" x2="49.97" y2="36.22" xlink:href="#linear-gradient"/><clipPath id="clip-path-6"><path class="cls-1" d="M58.44,40.69a4.32,4.32,0,1,1-4.32-4.32A4.31,4.31,0,0,1,58.44,40.69Z"/></clipPath><linearGradient id="linear-gradient-69" x1="56.92" y1="43.7" x2="50.87" y2="37.19" xlink:href="#linear-gradient"/><linearGradient id="linear-gradient-70" x1="56.72" y1="43.5" x2="53.02" y2="39.52" xlink:href="#linear-gradient"/><linearGradient id="linear-gradient-71" x1="132.43" y1="108.2" x2="135.77" y2="128.89" gradientUnits="userSpaceOnUse"><stop offset="0.35" stop-color="#f4c450"/><stop offset="1" stop-color="#f9e665"/></linearGradient><linearGradient id="linear-gradient-72" x1="129.71" y1="125.7" x2="130.66" y2="94.9" xlink:href="#linear-gradient"/><linearGradient id="linear-gradient-73" x1="121.65" y1="102.96" x2="140.08" y2="102.96" xlink:href="#linear-gradient"/><linearGradient id="linear-gradient-74" x1="129.91" y1="95.61" x2="130.46" y2="114.4" xlink:href="#linear-gradient-36"/><linearGradient id="linear-gradient-75" x1="129.59" y1="95.62" x2="130.13" y2="114.41" xlink:href="#linear-gradient-36"/><linearGradient id="linear-gradient-76" x1="145.19" y1="117.92" x2="136.27" y2="108.31" xlink:href="#linear-gradient"/><clipPath id="clip-path-7"><circle class="cls-1" cx="141.06" cy="113.47" r="4.99"/></clipPath><linearGradient id="linear-gradient-77" x1="144.29" y1="116.95" x2="137.31" y2="109.43" xlink:href="#linear-gradient"/><linearGradient id="linear-gradient-78" x1="144.06" y1="116.72" x2="139.8" y2="112.12" xlink:href="#linear-gradient"/></defs><g class="cls-2"><g id="BACKGROUND"><rect class="cls-3" x="11.74" y="-0.67" width="158.48" height="140.32"/></g><g id="OBJECTS"><circle class="cls-4" cx="86.21" cy="66.63" r="31.2"/><circle class="cls-5" cx="86.21" cy="66.63" r="26.2"/><polygon class="cls-6" points="98.29 66.02 85.5 73.9 85.5 41.49 98.29 66.02"/><polygon class="cls-7" points="98.29 66.02 85.5 73.9 85.5 41.49 98.29 66.02"/><polygon class="cls-8" points="72.7 66.02 85.5 73.9 85.5 41.49 72.7 66.02"/><polygon class="cls-9" points="98.29 66.02 85.5 73.9 85.5 58.71 98.29 66.02"/><polygon class="cls-10" points="85.5 58.71 85.5 73.9 72.7 66.02 85.5 58.71"/><polygon class="cls-11" points="72.7 68.11 85.49 76.31 85.5 92.63 72.7 68.11"/><polygon class="cls-12" points="85.5 92.63 85.5 76.31 98.29 68.11 85.5 92.63"/><polygon class="cls-13" points="85.5 92.63 85.5 76.31 98.29 68.11 85.5 92.63"/><path class="cls-14" d="M98.31,59.16H73.48a1.52,1.52,0,0,1-1.54-1.5V50.83a1.52,1.52,0,0,1,1.54-1.5H99.22a1.52,1.52,0,0,1,1.54,1.5v6A2.42,2.42,0,0,1,98.31,59.16Z"/><rect class="cls-15" x="72.1" y="48.91" width="27.91" height="9.51" rx="4.76"/><g class="cls-16"><rect class="cls-17" x="80.05" y="43.28" width="2.02" height="21.61" transform="matrix(0.87, -0.5, 0.5, 0.87, -16.18, 47.78)"/><rect class="cls-17" x="86.06" y="43.5" width="2.02" height="21.61" transform="translate(-15.49 50.81) rotate(-30)"/><rect class="cls-17" x="90.58" y="42.74" width="1.31" height="21.61" transform="translate(-14.55 52.8) rotate(-30.01)"/></g><text class="cls-18" transform="translate(77.85 56.55)">NFT</text><text class="cls-19" transform="translate(77.56 56.41)">NFT</text><g class="cls-20"><path class="cls-21" d="M48,123.05l-14.2-8.9V97.42L48,106.33Z"/><path class="cls-21" d="M48,123.07l14.2-8.9V97.44L48,106.34Z"/><polygon class="cls-21" points="62.22 97.45 48.02 106.35 33.81 97.45 48.02 88.54 62.22 97.45"/></g><rect class="cls-22" x="37.59" y="93.39" width="22.35" height="23.53" rx="6.92"/><rect class="cls-23" x="36.38" y="93.32" width="22.35" height="23.53" rx="6.92"/><rect class="cls-24" x="38.31" y="95.73" width="19.4" height="16.95"/><rect class="cls-3" x="37.86" y="95.37" width="19.4" height="16.95"/><path class="cls-25" d="M37.86,112.32v-3.47l6-7.33a1.27,1.27,0,0,1,1.95,0l4.16,4.88,2.58-2.94a1.26,1.26,0,0,1,2,.08l2.78,3.81v5Z"/><path class="cls-26" d="M52.26,99.79a1.68,1.68,0,1,1-1.68-1.67A1.68,1.68,0,0,1,52.26,99.79Z"/><path class="cls-27" d="M61.72,115.53A4.57,4.57,0,1,1,57.15,111,4.57,4.57,0,0,1,61.72,115.53Z"/><path class="cls-28" d="M61.72,115.53A4.57,4.57,0,1,1,57.15,111,4.57,4.57,0,0,1,61.72,115.53Z"/><path class="cls-29" d="M61.31,115.57A4.58,4.58,0,1,1,56.73,111,4.58,4.58,0,0,1,61.31,115.57Z"/><g class="cls-30"><path class="cls-31" d="M52.57,111.8l1.17,1.8a3.71,3.71,0,0,0-.51,1.21l-1.58-2.41Z"/><path class="cls-31" d="M58.92,121.52l-.91.59-2-3a3.35,3.35,0,0,0,.71.07,2.92,2.92,0,0,0,.6,0Z"/><path class="cls-31" d="M54.47,110.94l.87,1.33a3.51,3.51,0,0,0-1.09.72l-.88-1.34Z"/><path class="cls-31" d="M60.82,120.65l-1.09.72-1.63-2.5a3.46,3.46,0,0,0,1.1-.71Z"/><path class="cls-31" d="M55.46,110.3,56.57,112a2.89,2.89,0,0,0-.6.08l-1-1.47Z"/><path class="cls-31" d="M61.82,120l-.46.3-1.73-2.64a4,4,0,0,0,.31-.52Z"/></g><path class="cls-32" d="M60.31,115.57A3.58,3.58,0,1,1,56.73,112,3.58,3.58,0,0,1,60.31,115.57Z"/><path class="cls-33" d="M60.31,115.57a3.58,3.58,0,0,1-6.67,1.79,3.58,3.58,0,0,0,6-3.93A3.61,3.61,0,0,1,60.31,115.57Z"/><text class="cls-34" transform="translate(53.78 116.6)">NFT</text><text class="cls-35" transform="translate(53.66 116.61)">NFT</text><g class="cls-20"><path class="cls-3" d="M53.86,114.31v2.3H54v-2.3Z"/><path class="cls-3" d="M56.15,114.31v2.3h.13v-2.3Z"/><path class="cls-3" d="M58.5,114.69v1.92h.14v-1.92Z"/></g><path class="cls-31" d="M60.75,113.37a4.58,4.58,0,0,0-8.41,2.5,4.47,4.47,0,0,0,.56,2.18,4.52,4.52,0,0,1-.74-2.48,4.58,4.58,0,0,1,8.59-2.2Z"/><polyline class="cls-36" points="62.13 106.21 80.87 106.21 80.83 92.07"/><line class="cls-36" x1="112.25" y1="69.92" x2="138.21" y2="69.96"/><g class="cls-20"><path class="cls-37" d="M151.58,83.62l-13.52-8.47V59.23l13.52,8.47Z"/><path class="cls-37" d="M151.56,83.64l13.51-8.47V59.25l-13.51,8.47Z"/><polygon class="cls-37" points="165.08 59.26 151.56 67.73 138.05 59.26 151.56 50.79 165.08 59.26"/></g><rect class="cls-38" x="142.03" y="55.21" width="20.23" height="22.19" rx="6.92"/><rect class="cls-39" x="140.94" y="55.15" width="20.23" height="22.19" rx="6.92"/><rect class="cls-40" x="142.75" y="57.86" width="17.55" height="15.34"/><rect class="cls-3" x="142.27" y="57.52" width="17.55" height="15.34"/><rect class="cls-41" x="144.85" y="60.91" width="13.15" height="9.85" rx="4.92"/><polygon class="cls-3" points="149.79 63.28 149.79 68.61 154.34 65.93 149.79 63.28"/><path class="cls-42" d="M164.82,76.8a4.14,4.14,0,1,1-4.13-4.13A4.13,4.13,0,0,1,164.82,76.8Z"/><path class="cls-43" d="M164.82,76.8a4.14,4.14,0,1,1-4.13-4.13A4.13,4.13,0,0,1,164.82,76.8Z"/><path class="cls-44" d="M164.45,76.84a4.14,4.14,0,1,1-4.14-4.14A4.14,4.14,0,0,1,164.45,76.84Z"/><g class="cls-45"><path class="cls-31" d="M156.54,73.43l1.06,1.63a3.25,3.25,0,0,0-.46,1.1L155.71,74Z"/><path class="cls-31" d="M162.29,82.22l-.83.54L159.66,80a3.5,3.5,0,0,0,.65.07,3.19,3.19,0,0,0,.54,0Z"/><path class="cls-31" d="M158.26,72.65l.79,1.2a3.18,3.18,0,0,0-1,.66l-.79-1.21Z"/><path class="cls-31" d="M164,81.44l-1,.65-1.48-2.26a3.29,3.29,0,0,0,1-.64Z"/><path class="cls-31" d="M159.16,72.07l1,1.53a3.06,3.06,0,0,0-.54.07l-.88-1.33Z"/><path class="cls-31" d="M164.91,80.86l-.42.27-1.56-2.39a2.78,2.78,0,0,0,.28-.47Z"/></g><path class="cls-46" d="M163.55,76.84a3.24,3.24,0,1,1-3.24-3.24A3.24,3.24,0,0,1,163.55,76.84Z"/><path class="cls-47" d="M163.55,76.84a3.24,3.24,0,0,1-6.05,1.62,3.24,3.24,0,0,0,5.84-1.94,3.29,3.29,0,0,0-.43-1.62A3.25,3.25,0,0,1,163.55,76.84Z"/><text class="cls-48" transform="translate(157.64 77.78)">NFT</text><text class="cls-49" transform="translate(157.52 77.78)">NFT</text><g class="cls-20"><path class="cls-3" d="M157.71,75.7v2.08h.12V75.7Z"/><path class="cls-3" d="M159.78,75.7v2.08h.12V75.7Z"/><path class="cls-3" d="M161.91,76v1.74H162V76Z"/></g><path class="cls-31" d="M163.94,74.85a4.13,4.13,0,0,0-7.6,2.26,4.2,4.2,0,0,0,.49,2,4.09,4.09,0,0,1-.66-2.24,4.14,4.14,0,0,1,7.77-2Z"/><g class="cls-20"><path class="cls-50" d="M130.05,54.51,112.66,43.62V23.14L130.05,34Z"/><path class="cls-50" d="M130,54.53l17.39-10.9V23.16L130,34.05Z"/><polygon class="cls-50" points="147.42 23.16 130.03 34.06 112.65 23.16 130.03 12.27 147.42 23.16"/></g><rect class="cls-51" x="117.67" y="18.13" width="26.8" height="27.23" rx="6.92"/><rect class="cls-52" x="116.27" y="18.13" width="26.8" height="27.23" rx="6.92"/><rect class="cls-53" x="119.37" y="21.14" width="21.66" height="20.33"/><rect class="cls-3" x="118.83" y="20.59" width="21.66" height="20.33"/><path class="cls-54" d="M147.75,44.43a5.49,5.49,0,1,1-5.49-5.49A5.49,5.49,0,0,1,147.75,44.43Z"/><g class="cls-55"><path class="cls-31" d="M137.27,39.92l1.41,2.15a4.19,4.19,0,0,0-.61,1.46l-1.9-2.9Z"/><path class="cls-31" d="M144.88,51.56l-1.09.72-2.38-3.65a4,4,0,0,0,.85.09,4.2,4.2,0,0,0,.72-.06Z"/><path class="cls-31" d="M139.55,38.88l1,1.59a4.28,4.28,0,0,0-1.31.87l-1-1.6Z"/><path class="cls-31" d="M147.17,50.52l-1.32.86-1.95-3a4.27,4.27,0,0,0,1.32-.85Z"/><path class="cls-31" d="M140.74,38.11l1.33,2a4.17,4.17,0,0,0-.72.09l-1.16-1.76Z"/><path class="cls-31" d="M148.36,49.76l-.55.36L145.74,47a4.41,4.41,0,0,0,.37-.62Z"/></g><path class="cls-31" d="M147.08,41.8a5.48,5.48,0,0,0-9.42,5.6,5.42,5.42,0,0,1-.88-3,5.48,5.48,0,0,1,10.3-2.63Z"/><path class="cls-56" d="M146.56,44.43a4.3,4.3,0,1,1-4.3-4.3A4.29,4.29,0,0,1,146.56,44.43Z"/><path class="cls-57" d="M146.56,44.43a4.29,4.29,0,0,1-8,2.14,4.29,4.29,0,0,0,7.16-4.7A4.28,4.28,0,0,1,146.56,44.43Z"/><text class="cls-58" transform="translate(138.73 45.67)">NFT</text><text class="cls-59" transform="translate(138.57 45.68)">NFT</text><g class="cls-20"><path class="cls-3" d="M138.82,42.92v2.75H139V42.92Z"/><path class="cls-3" d="M141.56,42.92v2.75h.16V42.92Z"/><path class="cls-3" d="M144.39,43.38v2.29h.16V43.38Z"/></g><line class="cls-60" x1="133.52" y1="32.66" x2="138" y2="30.82"/><line class="cls-61" x1="133.46" y1="33.1" x2="138.29" y2="32.7"/><line class="cls-62" x1="133.56" y1="33.44" x2="138.31" y2="34.42"/><line class="cls-63" x1="125.79" y1="32.66" x2="121.31" y2="30.82"/><line class="cls-64" x1="125.85" y1="33.1" x2="121.02" y2="32.7"/><line class="cls-65" x1="125.75" y1="33.44" x2="121" y2="34.42"/><path class="cls-66" d="M135.91,35.58c-.22,1.09-2.91,1.76-5.33,1.89-.35,0-1.54,0-1.89,0-2.15-.09-5.1-.8-5.33-1.89-.34-1.65.42-6.28,1-8.28.27-.95,1-3.09,1-3.09l2.87,2.86a9.15,9.15,0,0,1,2.91,0l2.83-2.76s.75,2.13,1.05,3.07A20.76,20.76,0,0,1,135.91,35.58Z"/><path class="cls-3" d="M132.73,31.2c0,.55-.31,1-.7,1s-.71-.44-.71-1,.32-1,.71-1S132.73,30.65,132.73,31.2Z"/><path class="cls-3" d="M128.32,31.2c0,.55-.31,1-.7,1s-.71-.44-.71-1,.32-1,.71-1S128.32,30.65,128.32,31.2Z"/><path class="cls-3" d="M129.24,33.36h1.47a.26.26,0,0,1,.22.39c-.22.37-.59.85-1,.82s-.71-.48-.9-.83A.26.26,0,0,1,129.24,33.36Z"/><polyline class="cls-36" points="112.33 30.89 93.03 30.89 93.03 41.36"/><line class="cls-36" x1="40.04" y1="67.89" x2="60.3" y2="67.89"/><g class="cls-20"><path class="cls-50" d="M22.71,89.8,5.33,78.9V58.43L22.71,69.32Z"/><path class="cls-50" d="M22.69,89.82l17.38-10.9V58.44L22.69,69.34Z"/><polygon class="cls-50" points="40.08 58.45 22.7 69.35 5.31 58.45 22.7 47.56 40.08 58.45"/></g><rect class="cls-67" x="9.69" y="54.79" width="27.89" height="28.39" rx="6.92"/><rect class="cls-68" x="8.23" y="54.79" width="27.89" height="28.39" rx="6.92"/><rect class="cls-69" x="11.46" y="57.88" width="22.73" height="21.16"/><rect class="cls-3" x="10.81" y="57.34" width="22.73" height="21.16"/><rect class="cls-70" x="18.31" y="61.54" width="0.38" height="10.45"/><rect class="cls-71" x="27.63" y="61.54" width="0.38" height="10.45"/><path class="cls-72" d="M19,72.45c0,1-1.07,1.79-2.39,1.79s-2.39-.8-2.39-1.79,1.07-1.78,2.39-1.78S19,71.47,19,72.45Z"/><path class="cls-73" d="M28.32,72.45c0,1-1.07,1.79-2.39,1.79s-2.39-.8-2.39-1.79,1.07-1.78,2.39-1.78S28.32,71.47,28.32,72.45Z"/><rect class="cls-74" x="18.37" y="61.51" width="9.62" height="2.17"/><circle class="cls-75" cx="34.3" cy="81.5" r="5.71" transform="translate(-52.87 96.36) rotate(-76.85)"/><g class="cls-76"><path class="cls-31" d="M29.1,76.81l1.47,2.24a4.55,4.55,0,0,0-.64,1.52l-2-3Z"/><path class="cls-31" d="M37,88.93l-1.14.74-2.48-3.79a4.41,4.41,0,0,0,.89.09,4.56,4.56,0,0,0,.75-.06Z"/><path class="cls-31" d="M31.48,75.73l1.08,1.66a4.3,4.3,0,0,0-1.36.9l-1.09-1.67Z"/><path class="cls-31" d="M39.41,87.85,38,88.74l-2-3.11a4.32,4.32,0,0,0,1.37-.89Z"/><path class="cls-31" d="M32.71,74.93,34.09,77a3.66,3.66,0,0,0-.74.1L32.14,75.3Z"/><path class="cls-31" d="M40.64,87.05l-.57.37-2.16-3.29a4.37,4.37,0,0,0,.4-.65Z"/></g><path class="cls-31" d="M39.31,78.77a5.71,5.71,0,0,0-9.8,5.83,5.71,5.71,0,0,1,4.79-8.8A5.71,5.71,0,0,1,39.31,78.77Z"/><path class="cls-77" d="M38.77,81.5A4.47,4.47,0,1,1,34.3,77,4.47,4.47,0,0,1,38.77,81.5Z"/><path class="cls-78" d="M38.77,81.5a4.47,4.47,0,0,1-8.34,2.24,4.47,4.47,0,0,0,8-2.67,4.42,4.42,0,0,0-.59-2.23A4.47,4.47,0,0,1,38.77,81.5Z"/><text class="cls-79" transform="translate(30.62 82.8)">NFT</text><text class="cls-80" transform="translate(30.46 82.8)">NFT</text><g class="cls-20"><path class="cls-3" d="M30.71,79.93V82.8h.17V79.93Z"/><path class="cls-3" d="M33.57,79.93V82.8h.16V79.93Z"/><path class="cls-3" d="M36.51,80.41V82.8h.16V80.41Z"/></g><g class="cls-20"><path class="cls-81" d="M43.92,49.05,29.06,39.74V22.24l14.86,9.31Z"/><path class="cls-81" d="M43.9,49.07l14.86-9.32V22.25L43.9,31.57Z"/><polygon class="cls-81" points="58.77 22.26 43.91 31.57 29.05 22.26 43.91 12.95 58.77 22.26"/></g><rect class="cls-82" x="34.31" y="20.68" width="21.13" height="21.65" rx="6.92"/><rect class="cls-83" x="33.2" y="20.68" width="21.13" height="21.65" rx="6.92"/><rect class="cls-84" x="35.76" y="23.14" width="17.22" height="16.03"/><rect class="cls-3" x="35.16" y="22.62" width="17.22" height="16.03"/><path class="cls-85" d="M49.64,29.86H46.93v-.43a1.35,1.35,0,0,1,1.36-1.35h0a1.34,1.34,0,0,1,1.35,1.35Z"/><path class="cls-86" d="M41.06,29.86H38.35v-.43a1.35,1.35,0,0,1,1.36-1.35h0a1.35,1.35,0,0,1,1.35,1.35Z"/><path class="cls-87" d="M51.67,32.46a3.56,3.56,0,0,1-6.61,1.68H42.94a3.56,3.56,0,1,1-1.08-4.78,7.26,7.26,0,0,0,4.28,0,3.5,3.5,0,0,1,2-.6A3.57,3.57,0,0,1,51.67,32.46Z"/><path class="cls-88" d="M49.82,32.07h0a.3.3,0,0,1-.3.3H49a.29.29,0,0,0-.3.3v.49a.31.31,0,0,1-.3.3h0a.3.3,0,0,1-.3-.3v-.49a.3.3,0,0,0-.3-.3h-.49a.3.3,0,0,1-.3-.3h0a.29.29,0,0,1,.3-.3h.49a.31.31,0,0,0,.3-.3V31a.3.3,0,0,1,.3-.3h0a.31.31,0,0,1,.3.3v.5a.3.3,0,0,0,.3.3h.49A.29.29,0,0,1,49.82,32.07Z"/><path class="cls-3" d="M49.7,32h0a.29.29,0,0,1-.3.3h-.49a.3.3,0,0,0-.3.3v.5a.3.3,0,0,1-.3.3h0a.3.3,0,0,1-.3-.3v-.5a.3.3,0,0,0-.3-.3h-.49a.29.29,0,0,1-.3-.3h0a.3.3,0,0,1,.3-.3h.49a.29.29,0,0,0,.3-.3v-.49c0-.17.13-.23.3-.23h0c.17,0,.3.06.3.23v.49a.29.29,0,0,0,.3.3h.49A.3.3,0,0,1,49.7,32Z"/><g class="cls-89"><path class="cls-90" d="M40.45,31.5a.52.52,0,1,1-.51.52A.52.52,0,0,1,40.45,31.5Z"/><path class="cls-91" d="M38.55,31.5A.52.52,0,1,1,38,32,.52.52,0,0,1,38.55,31.5Z"/><path class="cls-92" d="M39,31.07a.52.52,0,1,1,.51.51A.51.51,0,0,1,39,31.07Z"/><path class="cls-93" d="M39,33a.52.52,0,1,1,.51.51A.51.51,0,0,1,39,33Z"/></g><path class="cls-3" d="M40.32,31.5a.52.52,0,1,1-.51.52A.52.52,0,0,1,40.32,31.5Z"/><path class="cls-3" d="M38.42,31.5a.52.52,0,1,1-.51.52A.51.51,0,0,1,38.42,31.5Z"/><path class="cls-3" d="M38.86,31.07a.52.52,0,1,1,.51.51A.51.51,0,0,1,38.86,31.07Z"/><path class="cls-3" d="M38.86,33a.52.52,0,1,1,.51.51A.51.51,0,0,1,38.86,33Z"/><path class="cls-94" d="M43.36,33.43a.67.67,0,1,1-.66-.67A.67.67,0,0,1,43.36,33.43Z"/><path class="cls-95" d="M45.92,33.41a.67.67,0,1,1-.66-.67A.67.67,0,0,1,45.92,33.41Z"/><path class="cls-3" d="M43.25,33.39a.67.67,0,0,1-1.34,0,.67.67,0,0,1,1.34,0Z"/><path class="cls-3" d="M45.81,33.37a.67.67,0,1,1-.67-.67A.67.67,0,0,1,45.81,33.37Z"/><path class="cls-96" d="M39.82,28.29a2.21,2.21,0,0,1,.37-1.5,2,2,0,0,1,1.41-.57,11.56,11.56,0,0,0,1.56-.09,2.32,2.32,0,0,0,1.51-1,5.15,5.15,0,0,0,.42-2.47"/><polyline class="cls-36" points="58.78 30.85 78.08 30.85 78.08 41.81"/><path class="cls-31" d="M57.91,38.62A4.32,4.32,0,0,0,50.49,43a4.26,4.26,0,0,1-.69-2.34,4.32,4.32,0,0,1,8.11-2.07Z"/><path class="cls-97" d="M58.44,40.69a4.32,4.32,0,1,1-4.32-4.32A4.31,4.31,0,0,1,58.44,40.69Z"/><g class="cls-98"><path class="cls-31" d="M50.18,37.13l1.11,1.7A3.34,3.34,0,0,0,50.81,40l-1.49-2.29Z"/><path class="cls-31" d="M56.19,46.32l-.87.56L53.45,44a3.91,3.91,0,0,0,1.24,0Z"/><path class="cls-31" d="M52,36.31l.82,1.26a3.55,3.55,0,0,0-1,.68L50.94,37Z"/><path class="cls-31" d="M58,45.5l-1,.67-1.54-2.35a3.29,3.29,0,0,0,1-.68Z"/><path class="cls-31" d="M52.92,35.71l1,1.6a3.43,3.43,0,0,0-.56.07L52.49,36Z"/><path class="cls-31" d="M58.92,44.89l-.43.29-1.63-2.5a3.5,3.5,0,0,0,.29-.49Z"/></g><path class="cls-99" d="M57.5,40.69a3.39,3.39,0,1,1-3.38-3.39A3.38,3.38,0,0,1,57.5,40.69Z"/><path class="cls-100" d="M57.5,40.69a3.38,3.38,0,0,1-6.31,1.69,3.39,3.39,0,0,0,6.1-2,3.44,3.44,0,0,0-.45-1.69A3.35,3.35,0,0,1,57.5,40.69Z"/><text class="cls-101" transform="translate(51.33 41.67)">NFT</text><text class="cls-102" transform="translate(51.21 41.67)">NFT</text><g class="cls-20"><path class="cls-3" d="M51.4,39.5v2.17h.13V39.5Z"/><path class="cls-3" d="M53.56,39.5v2.17h.13V39.5Z"/><path class="cls-3" d="M55.79,39.86v1.81h.13V39.86Z"/></g><g class="cls-20"><path class="cls-103" d="M131.28,123.79l-15.83-9.92V95.23l15.83,9.92Z"/><path class="cls-103" d="M131.26,123.81l15.83-9.92V95.24l-15.83,9.93Z"/><polygon class="cls-103" points="147.1 95.25 131.27 105.17 115.44 95.25 131.27 85.33 147.1 95.25"/></g><rect class="cls-104" x="119.47" y="90.96" width="24.4" height="25.12" rx="6.92"/><rect class="cls-105" x="118.19" y="90.96" width="24.4" height="25.12" rx="6.92"/><rect class="cls-106" x="121.65" y="93.71" width="18.43" height="18.51"/><rect class="cls-3" x="121.14" y="93.2" width="18.43" height="18.51"/><path class="cls-107" d="M133.65,99.82A3.62,3.62,0,1,1,130,96.2,3.62,3.62,0,0,1,133.65,99.82Z"/><path class="cls-108" d="M135.9,111q0,.35,0,.69H124.2q0-.34,0-.69c0-3.34,1.83-6.15,4.32-7l1.49,1.61,1.59-1.61C134.06,104.86,135.9,107.67,135.9,111Z"/><polyline class="cls-36" points="91.17 92.4 91.08 105.89 115.4 105.89"/><circle class="cls-109" cx="141.06" cy="113.47" r="4.99"/><g class="cls-110"><path class="cls-31" d="M136.51,109.36l1.29,2a3.61,3.61,0,0,0-.56,1.32L135.52,110Z"/><path class="cls-31" d="M143.45,120l-1,.65-2.17-3.32a4.13,4.13,0,0,0,.78.08,3.52,3.52,0,0,0,.66-.06Z"/><path class="cls-31" d="M138.59,108.42l.95,1.45a4,4,0,0,0-1.19.79l-1-1.46Z"/><path class="cls-31" d="M145.53,119l-1.2.79-1.78-2.72a3.88,3.88,0,0,0,1.2-.78Z"/><path class="cls-31" d="M139.68,107.72l1.2,1.85a4.62,4.62,0,0,0-.65.08l-1-1.6Z"/><path class="cls-31" d="M146.61,118.33l-.5.32-1.89-2.88a3.36,3.36,0,0,0,.35-.57Z"/></g><path class="cls-31" d="M145.44,111.08a5,5,0,0,0-9.17,2.72,5,5,0,0,0,.6,2.38,4.93,4.93,0,0,1-.8-2.71,5,5,0,0,1,9.37-2.39Z"/><path class="cls-111" d="M145,113.47a3.91,3.91,0,1,1-3.91-3.91A3.91,3.91,0,0,1,145,113.47Z"/><path class="cls-112" d="M145,113.47a3.91,3.91,0,0,1-7.29,2,3.91,3.91,0,0,0,6.52-4.29A3.92,3.92,0,0,1,145,113.47Z"/><text class="cls-113" transform="translate(137.84 114.6)">NFT</text><text class="cls-114" transform="translate(137.7 114.61)">NFT</text><g class="cls-20"><path class="cls-3" d="M137.93,112.1v2.51h.14V112.1Z"/><path class="cls-3" d="M140.42,112.1v2.51h.15V112.1Z"/><path class="cls-3" d="M143,112.52v2.09h.14v-2.09Z"/></g></g></g></svg>