<svg xmlns="http://www.w3.org/2000/svg" viewBox="0 0 170.22 140.32"><defs><style>.cls-1{fill:#f1a540;}.cls-2{fill:#eaa224;}.cls-3{fill:#eeb364;}.cls-4{fill:#e9a745;}</style></defs><g id="OBJECTS"><path class="cls-1" d="M86.14,58.79c-5.79,0-10.76-5-13.36-10.72-3.51-7.74-3.56-16.83-3.56-17,0-12.54,4.76-17.67,16.92-17.67s17,5.51,17,18a47.76,47.76,0,0,1-3,14.93C97.53,52.82,92.6,58.79,86.14,58.79Z"/><path class="cls-2" d="M49.62,85.08a4.11,4.11,0,0,1,4.19-4h30.5l1.54-5.5c.12-.42.23-.76.34-1.06H83.46a2.66,2.66,0,0,1-2.72-2.6V66.49a2.66,2.66,0,0,1,2.72-2.6h5.45a2.66,2.66,0,0,1,2.73,2.6v5.42a2.66,2.66,0,0,1-2.73,2.6H86.19c.11.3.22.64.33,1.06l1.55,5.5h29a4.11,4.11,0,0,1,4.19,4l-2.8,39.68h12.06l-2.26-47.4A9.62,9.62,0,0,0,122.39,70h0s-20-10.13-36.72-9.88C70.8,60.37,53.45,68.25,49.8,70a9.62,9.62,0,0,0-6,7.37l-2.12,47.4h10.7Z"/><path class="cls-3" d="M119.82,86.28,117,124.76H53.81L51,86.28a4.12,4.12,0,0,1,4.19-4h60.42A4.12,4.12,0,0,1,119.82,86.28Z"/><path class="cls-4" d="M119.82,128.53c0,.4-.5.73-1.12.73H52.14c-.62,0-1.12-.33-1.12-.73v-1.62c0-.4.5-.72,1.12-.72H118.7c.62,0,1.12.32,1.12.72Z"/></g></svg>