<svg xmlns="http://www.w3.org/2000/svg" viewBox="0 0 113.87 140.43"><defs><style>.cls-1{isolation:isolate;}.cls-2{fill:#fab303;}.cls-3{fill:#fec900;}.cls-4{fill:#ffde00;}.cls-5{fill:#f59d0f;}.cls-6,.cls-7,.cls-8{fill:none;stroke-linecap:round;stroke-linejoin:round;stroke-width:3.35px;}.cls-6{stroke:#ed6e19;}.cls-7{stroke:#ed6d15;}.cls-8{stroke:#1f1a3e;}.cls-9{fill:#1f1a3e;}.cls-10,.cls-12{fill:#dadada;}.cls-11{fill:#b4b4b4;}.cls-12{mix-blend-mode:multiply;}.cls-13{fill:#f39441;}.cls-14{fill:#f28a1b;}</style></defs><g class="cls-1"><g id="Capa_1" data-name="Capa 1"><path class="cls-2" d="M92.92,78.11a30.13,30.13,0,0,1-42.61-1c-2-2.12-7.62-8-7.62-8L86.27,27.39,94,35.5A30.13,30.13,0,0,1,92.92,78.11Z"/><path class="cls-3" d="M86.18,71a30.15,30.15,0,1,1,1-42.62A30.14,30.14,0,0,1,86.18,71Z"/><path class="cls-4" d="M81.42,66a23.25,23.25,0,1,1,.82-32.87A23.24,23.24,0,0,1,81.42,66Z"/><path class="cls-2" d="M49.93,61.35,53.43,58a13.91,13.91,0,0,1-3.52-6.77L53,49.86a12.67,12.67,0,0,0,3.26,6.42c2.35,2.47,5.36,2.78,7.34.9s1.8-4.3.4-7.86c-2-4.86-2.47-8.57.55-11.45s7-2.77,10.58-.07l3.51-3.34,2,2.15-3.37,3.21a12.83,12.83,0,0,1,3.08,5.67L77.31,46.8a11.71,11.71,0,0,0-3-5.5c-2.55-2.67-5.1-2.16-6.49-.84-1.81,1.72-1.49,3.87.14,8.08,1.94,5,1.86,8.49-1.24,11.43-2.74,2.61-7.13,3.14-11.12.13L52,63.54Z"/><path class="cls-5" d="M93.38,76a4.86,4.86,0,0,1-.95-.49,9.51,9.51,0,0,1-1.71-1.42,9,9,0,0,1-1.34-1.78,5.18,5.18,0,0,1-.44-1,5,5,0,0,1,.94.49,9.17,9.17,0,0,1,1.71,1.42,8.77,8.77,0,0,1,1.34,1.79A4.7,4.7,0,0,1,93.38,76Z"/><path class="cls-5" d="M97,71.9a6,6,0,0,1-1-.55,10.76,10.76,0,0,1-1.84-1.56,10.57,10.57,0,0,1-1.46-1.91,5.49,5.49,0,0,1-.5-1,5.19,5.19,0,0,1,1,.55A10.67,10.67,0,0,1,95,69a10.93,10.93,0,0,1,1.46,1.91A6.25,6.25,0,0,1,97,71.9Z"/><path class="cls-5" d="M99.8,66.13a4.66,4.66,0,0,1-.94-.49,9.09,9.09,0,0,1-1.71-1.41,8.93,8.93,0,0,1-1.33-1.78,5,5,0,0,1-.44-1,5.26,5.26,0,0,1,.94.48A9.17,9.17,0,0,1,98,63.39a9.78,9.78,0,0,1,1.33,1.78A5,5,0,0,1,99.8,66.13Z"/><path class="cls-5" d="M101.52,60.07a5.13,5.13,0,0,1-1-.48,9.47,9.47,0,0,1-1.7-1.42,8.93,8.93,0,0,1-1.33-1.78,5,5,0,0,1-.44-1,5,5,0,0,1,.94.49,9.05,9.05,0,0,1,1.7,1.41,9.42,9.42,0,0,1,1.34,1.78A5,5,0,0,1,101.52,60.07Z"/><path class="cls-5" d="M101.58,53a3.55,3.55,0,0,1-.8-.33,6.13,6.13,0,0,1-1.38-1.08,5.65,5.65,0,0,1-1-1.43,3.45,3.45,0,0,1-.29-.81,3.59,3.59,0,0,1,.79.33,5.72,5.72,0,0,1,1.38,1.08,5.4,5.4,0,0,1,1,1.43A3.25,3.25,0,0,1,101.58,53Z"/><path class="cls-5" d="M84.18,83.12a5.45,5.45,0,0,1-1-.54A10.5,10.5,0,0,1,81.36,81a10,10,0,0,1-1.45-1.9,5.8,5.8,0,0,1-.49-1,5.59,5.59,0,0,1,1,.54,10.67,10.67,0,0,1,1.82,1.55,10.28,10.28,0,0,1,1.45,1.89A5.49,5.49,0,0,1,84.18,83.12Z"/><path class="cls-5" d="M88.84,80a6.46,6.46,0,0,1-1-.55A10.5,10.5,0,0,1,86,77.86,10.75,10.75,0,0,1,84.57,76a5.8,5.8,0,0,1-.49-1,5.59,5.59,0,0,1,1,.54A10.18,10.18,0,0,1,86.9,77a10.91,10.91,0,0,1,1.45,1.9A5.8,5.8,0,0,1,88.84,80Z"/><path class="cls-5" d="M79.07,84.83a5.25,5.25,0,0,1-1-.52,10.1,10.1,0,0,1-1.79-1.5A10.37,10.37,0,0,1,74.9,81a5.13,5.13,0,0,1-.47-1,6.14,6.14,0,0,1,1,.52A10.19,10.19,0,0,1,77.19,82a10.33,10.33,0,0,1,1.41,1.85A5.45,5.45,0,0,1,79.07,84.83Z"/><path class="cls-5" d="M56.63,79.71a3.6,3.6,0,0,1,.82.36,6.51,6.51,0,0,1,2.49,2.61,3.88,3.88,0,0,1,.31.84,3.82,3.82,0,0,1-.82-.36A6.15,6.15,0,0,1,58,82a6.33,6.33,0,0,1-1-1.48A3.64,3.64,0,0,1,56.63,79.71Z"/><path class="cls-5" d="M63.41,81.29a4.08,4.08,0,0,1,.87.41,7.22,7.22,0,0,1,1.54,1.24A7.44,7.44,0,0,1,67,84.54a4.38,4.38,0,0,1,.36.89,4.35,4.35,0,0,1-.87-.41,7.22,7.22,0,0,1-1.54-1.24,7.73,7.73,0,0,1-1.16-1.6A4.13,4.13,0,0,1,63.41,81.29Z"/><path class="cls-5" d="M69.11,81.31a5.1,5.1,0,0,1,.9.45,8.48,8.48,0,0,1,1.62,1.33,8.37,8.37,0,0,1,1.25,1.68,5,5,0,0,1,.4.93,5,5,0,0,1-.91-.45,8.11,8.11,0,0,1-1.62-1.33,8.29,8.29,0,0,1-1.24-1.68A4.3,4.3,0,0,1,69.11,81.31Z"/><path class="cls-2" d="M79.64,16a30.15,30.15,0,0,1,6.3,42.16L79.33,67,30.82,31.25l6.66-9A30.15,30.15,0,0,1,79.64,16Z"/><path class="cls-3" d="M73.82,23.83a30.14,30.14,0,1,1-42.17,6.3A30.15,30.15,0,0,1,73.82,23.83Z"/><path class="cls-4" d="M69.72,29.37a23.25,23.25,0,1,1-32.53,4.86A23.26,23.26,0,0,1,69.72,29.37Z"/><path class="cls-2" d="M70.53,61.2l-3.89-2.88A13.88,13.88,0,0,1,60.58,63l-1.9-2.83a12.85,12.85,0,0,0,5.77-4.32c2-2.74,1.81-5.76-.39-7.38s-4.54-1-7.81,1c-4.44,2.79-8,3.9-11.37,1.42-3.2-2.36-3.94-6.43-1.9-10.41l-3.89-2.88,1.77-2.39L44.6,37.9a12.73,12.73,0,0,1,5-4l1.83,2.84a11.63,11.63,0,0,0-4.9,3.89c-2.19,3-1.25,5.4.29,6.54,2,1.48,4.06.79,7.93-1.53,4.56-2.77,8-3.29,11.47-.76,3,2.26,4.33,6.49,2,10.94l4,3Z"/><path class="cls-5" d="M77.5,15.87a5.32,5.32,0,0,1-.32,1,9.28,9.28,0,0,1-1.11,1.93,9,9,0,0,1-1.52,1.63,5.1,5.1,0,0,1-.88.6A5.37,5.37,0,0,1,74,20,9.59,9.59,0,0,1,75.1,18.1a9.24,9.24,0,0,1,1.52-1.62A5.61,5.61,0,0,1,77.5,15.87Z"/><path class="cls-5" d="M72.82,13.05a6.11,6.11,0,0,1-.37,1.08,10.91,10.91,0,0,1-1.21,2.07A10.57,10.57,0,0,1,69.61,18a6,6,0,0,1-.93.67,6.11,6.11,0,0,1,.37-1.08,10.4,10.4,0,0,1,1.21-2.07,10.57,10.57,0,0,1,1.63-1.77A6,6,0,0,1,72.82,13.05Z"/><path class="cls-5" d="M66.65,11.25a4.42,4.42,0,0,1-.32,1,8.78,8.78,0,0,1-1.1,1.93,8.88,8.88,0,0,1-1.52,1.62,4.85,4.85,0,0,1-.87.6,4.57,4.57,0,0,1,.32-1,9,9,0,0,1,1.1-1.92,9.22,9.22,0,0,1,1.52-1.62A4.85,4.85,0,0,1,66.65,11.25Z"/><path class="cls-5" d="M60.39,10.61a5.37,5.37,0,0,1-.32,1A9.41,9.41,0,0,1,59,13.54a9.24,9.24,0,0,1-1.52,1.62,4.7,4.7,0,0,1-.88.6,5.37,5.37,0,0,1,.32-1A8.78,8.78,0,0,1,58,12.82a10,10,0,0,1,1.52-1.62A5.37,5.37,0,0,1,60.39,10.61Z"/><path class="cls-5" d="M53.42,11.76a3.47,3.47,0,0,1-.18.84,5.94,5.94,0,0,1-.82,1.54,5.81,5.81,0,0,1-1.24,1.24,3.33,3.33,0,0,1-.74.42,3.47,3.47,0,0,1,.18-.84,6.1,6.1,0,0,1,.82-1.54,6.24,6.24,0,0,1,1.24-1.23A3.4,3.4,0,0,1,53.42,11.76Z"/><path class="cls-5" d="M86.08,23.71a5.54,5.54,0,0,1-.36,1.08,10.86,10.86,0,0,1-1.21,2.06,10.73,10.73,0,0,1-1.62,1.75,5.24,5.24,0,0,1-.92.66,6.19,6.19,0,0,1,.37-1.07,10.27,10.27,0,0,1,1.2-2.06,10.42,10.42,0,0,1,1.62-1.76A6,6,0,0,1,86.08,23.71Z"/><path class="cls-5" d="M82.15,19.67a6.19,6.19,0,0,1-.37,1.07,10.27,10.27,0,0,1-1.2,2.06A10.42,10.42,0,0,1,79,24.56a6,6,0,0,1-.92.66,5.54,5.54,0,0,1,.36-1.08,10.86,10.86,0,0,1,1.21-2.06,10.73,10.73,0,0,1,1.62-1.75A5.24,5.24,0,0,1,82.15,19.67Z"/><path class="cls-5" d="M88.64,28.45a5.24,5.24,0,0,1-.34,1.05,10.47,10.47,0,0,1-1.17,2,9.88,9.88,0,0,1-1.59,1.71,5,5,0,0,1-.9.64,5,5,0,0,1,.34-1,10.83,10.83,0,0,1,1.17-2,10.16,10.16,0,0,1,1.59-1.7A5,5,0,0,1,88.64,28.45Z"/><path class="cls-5" d="M87.47,51.43a3.5,3.5,0,0,1,.21-.86A6.35,6.35,0,0,1,88.54,49a6.26,6.26,0,0,1,1.28-1.29,3.94,3.94,0,0,1,.77-.46,3.52,3.52,0,0,1-.21.87A6.54,6.54,0,0,1,88.23,51,3.66,3.66,0,0,1,87.47,51.43Z"/><path class="cls-5" d="M87.85,44.48a3.94,3.94,0,0,1,.26-.92,7,7,0,0,1,1-1.73,7.25,7.25,0,0,1,1.37-1.43,4.28,4.28,0,0,1,.81-.51,4.19,4.19,0,0,1-.25.92,7.19,7.19,0,0,1-1,1.73A7.28,7.28,0,0,1,88.66,44,4.28,4.28,0,0,1,87.85,44.48Z"/><path class="cls-5" d="M86.89,38.87a5.21,5.21,0,0,1,.29-1,8.36,8.36,0,0,1,1-1.82,7.84,7.84,0,0,1,1.44-1.52,4.35,4.35,0,0,1,.84-.55,4.52,4.52,0,0,1-.28,1,8.18,8.18,0,0,1-1,1.83,8.51,8.51,0,0,1-1.45,1.52A4.35,4.35,0,0,1,86.89,38.87Z"/><polygon class="cls-6" points="94.97 85.1 34.75 85.1 23.86 47.57 105.04 55.47 94.97 85.1"/><path class="cls-6" d="M6.49,43.6s4.2-.77,9.93-2.19c5.16-1.27,6.22,3.08,7.44,6.16,2.48,6.28,12.62,49.32,17,61.52,1.49,4.18,6.48,7,10.75,7.59s41.35.06,41.35.06"/><line class="cls-7" x1="100.62" y1="66.34" x2="28.24" y2="59.36"/><line class="cls-7" x1="34.14" y1="75.79" x2="97.43" y2="76.92"/><line class="cls-6" x1="71.68" y1="85.1" x2="71.68" y2="52.78"/><line class="cls-6" x1="83.26" y1="85.1" x2="85.25" y2="54.13"/><line class="cls-6" x1="59.56" y1="85.1" x2="55.76" y2="50.98"/><line class="cls-6" x1="46.88" y1="85.1" x2="40.81" y2="50.03"/><line class="cls-8" x1="13.84" y1="42.02" x2="5.03" y2="43.91"/><path class="cls-9" d="M57.92,126a6.76,6.76,0,1,1-6.75-6.75A6.76,6.76,0,0,1,57.92,126Z"/><path class="cls-10" d="M55.53,126a4.37,4.37,0,1,1-4.36-4.36A4.37,4.37,0,0,1,55.53,126Z"/><path class="cls-11" d="M52.21,126a1,1,0,1,1-1-1A1,1,0,0,1,52.21,126Z"/><path class="cls-12" d="M51.92,129.34A4.37,4.37,0,0,1,47.55,125a4.46,4.46,0,0,1,.53-2A4.36,4.36,0,1,0,55,128.06,4.35,4.35,0,0,1,51.92,129.34Z"/><line class="cls-7" x1="35.85" y1="87.02" x2="81.74" y2="87.02"/><path class="cls-13" d="M52.87,124.94c-.7,1.69-2.82,1.69-2.82,0v-8.55H55.7S53.57,123.25,52.87,124.94Z"/><path class="cls-9" d="M92.93,126a6.76,6.76,0,1,1-6.75-6.75A6.76,6.76,0,0,1,92.93,126Z"/><path class="cls-10" d="M90.54,126a4.37,4.37,0,1,1-4.36-4.36A4.37,4.37,0,0,1,90.54,126Z"/><path class="cls-11" d="M87.21,126a1,1,0,1,1-1-1A1,1,0,0,1,87.21,126Z"/><path class="cls-12" d="M86.92,129.34a4.34,4.34,0,0,1-3.83-6.42A4.36,4.36,0,1,0,90,128.06,4.35,4.35,0,0,1,86.92,129.34Z"/><path class="cls-14" d="M87.88,124.94c-.7,1.69-2.83,1.69-2.83,0v-8.55h5.66S88.58,123.25,87.88,124.94Z"/></g></g></svg>