<svg xmlns="http://www.w3.org/2000/svg" viewBox="0 0 160.55 179.08"><defs><style>.cls-1{fill:#dadadb;}.cls-2{fill:#f7a269;}.cls-3{fill:#ef8614;}.cls-4{fill:#fff;}</style></defs><g id="objects"><path class="cls-1" d="M110.6,193.23l16.56-9A116.28,116.28,0,0,0,187.55,82V38.9a6.2,6.2,0,0,0-6-6.24c-39.13-1.07-63.41-12.49-71.4-16.91a6.06,6.06,0,0,0-5.84,0c-8,4.42-32.27,15.84-71.41,16.91a6.2,6.2,0,0,0-6,6.24V82A116.3,116.3,0,0,0,87.39,184.22l16.56,9A7,7,0,0,0,110.6,193.23Z" transform="translate(-27 -15)"/><path class="cls-2" d="M179.61,44V80.56a110.51,110.51,0,0,1-57.44,97.29l-11.75,6.39a6.51,6.51,0,0,1-6.29,0l-11.74-6.39A110.5,110.5,0,0,1,34.94,80.56V44A3.31,3.31,0,0,1,38,40.7c33.34-2.26,56.23-11.1,67.81-16.76a3.2,3.2,0,0,1,2.87,0c11.58,5.66,34.48,14.5,67.81,16.76A3.31,3.31,0,0,1,179.61,44Z" transform="translate(-27 -15)"/><path class="cls-3" d="M179.61,44V80.56a110.51,110.51,0,0,1-57.44,97.29l-11.75,6.39a6.61,6.61,0,0,1-3.14.81V23.6a3.33,3.33,0,0,1,1.43.34c11.58,5.66,34.48,14.5,67.81,16.76A3.31,3.31,0,0,1,179.61,44Z" transform="translate(-27 -15)"/><path class="cls-4" d="M134.78,89.85h-55a5.94,5.94,0,0,0-5.94,5.93v43.87a5.94,5.94,0,0,0,5.94,5.94h55a5.94,5.94,0,0,0,5.94-5.94V95.78A5.94,5.94,0,0,0,134.78,89.85Zm-22.2,30.65v4.38a5.31,5.31,0,1,1-10.61,0V120.5a9,9,0,1,1,10.61,0Z" transform="translate(-27 -15)"/><path class="cls-4" d="M126.92,73.41v6.88a4.25,4.25,0,0,1-4.25,4.25h0a4.25,4.25,0,0,1-4.25-4.25v-6.6a11.33,11.33,0,0,0-10.71-11.42A11.16,11.16,0,0,0,96.13,73.41V85.6h-8.5V73.73a19.85,19.85,0,0,1,19.14-20,19.66,19.66,0,0,1,20.15,19.63Z" transform="translate(-27 -15)"/></g></svg>