<svg xmlns="http://www.w3.org/2000/svg" viewBox="0 0 973 999.73"><defs><style>.cls-1{fill:#ed9a2e;}</style></defs><g id="objects"><path class="cls-1" d="M750.4,424.56a10.8,10.8,0,0,1-16.23,9.65L574.22,340.75a10.8,10.8,0,0,1,0-18.64l44.26-25.91-34.67-60.06a90.62,90.62,0,0,0-156.95,0l-102,176.67-72.51-41.3L354.59,194.41c67-116,234.5-116,301.5,0L690.51,254l38.28-22.4a10.78,10.78,0,0,1,16.24,9Z"/><path class="cls-1" d="M766.15,907.27H688.37v45.3a10.8,10.8,0,0,1-16,9.47L511,873.74a10.79,10.79,0,0,1-.11-18.87l161.45-90.81a10.78,10.78,0,0,1,16.08,9.4v50.35h77.78a90.62,90.62,0,0,0,78.49-135.92L740.76,508l72.52-41.3L916.9,646.17C983.91,762.21,900.16,907.27,766.15,907.27Z"/><path class="cls-1" d="M451.28,823.81v83.46H244.52c-134,0-217.75-145.06-150.75-261.1l36.66-63.51L91.91,561a10.79,10.79,0,0,1-.43-18.56L247.59,445a10.79,10.79,0,0,1,16.51,9.15V639.41a10.79,10.79,0,0,1-16.09,9.4l-44.84-25.22L166,687.89a90.62,90.62,0,0,0,78.49,135.92Z"/></g></svg>