<svg xmlns="http://www.w3.org/2000/svg" viewBox="0 0 1201.97 1058"><defs><style>.cls-1{fill:#e2942d;}.cls-2{fill:#2fd1a2;}.cls-3{fill:#2b38e0;}</style></defs><g id="objects"><polygon class="cls-1" points="235.74 383.56 235.74 708.76 198.17 746.65 198.17 383.56 235.74 383.56"/><path class="cls-1" d="M294.76,294.13V604.54a76,76,0,0,0-13.41,43.21,77.13,77.13,0,0,0,1.24,13.76L257.2,687.12v-393Z"/><path class="cls-1" d="M353.79,229.73V571.39a75.83,75.83,0,0,0-37.56,12.22V229.73Z"/><path class="cls-1" d="M412.82,317.38V594.69a76.32,76.32,0,0,0-37.56-21.4V317.38Z"/><polygon class="cls-1" points="471.85 283.39 471.85 701.73 434.28 664.17 434.28 283.39 471.85 283.39"/><path class="cls-1" d="M530.87,376.41V745.25a75.33,75.33,0,0,0-12.93,2.58L493.31,723.2V376.41Z"/><path class="cls-1" d="M589.9,312.91V710.15l-32.51,36.77c-1.67-.4-3.35-.75-5-1v-433Z"/><polygon class="cls-1" points="648.93 229.73 648.93 643.37 611.37 685.87 611.37 229.73 648.93 229.73"/><path class="cls-1" d="M708,307.54V526.27a76.54,76.54,0,0,0-10,61.58l-27.61,31.24V307.54Z"/><path class="cls-1" d="M767,247.62V491.84a76,76,0,0,0-37.56,12.76v-257Z"/><path class="cls-1" d="M826,336.16v178a76.3,76.3,0,0,0-37.56-20.68V336.16Z"/><path class="cls-1" d="M885,426.49v174.9a76,76,0,0,0-14.55,3.24l-23-22.33V426.49Z"/><path class="cls-1" d="M944.07,248.51V562.25l-33.76,40.2c-1.26-.27-2.53-.5-3.81-.71V248.51Z"/><path class="cls-1" d="M1003.09,436.85a76.46,76.46,0,0,0,0,51.52v3.56l-37.56,44.75V224.37h37.56Z"/><path class="cls-2" d="M848.37,568.15a75.44,75.44,0,0,1-.89,11.66V556.46A76.41,76.41,0,0,1,848.37,568.15Z"/><path class="cls-3" d="M1075.09,404a58.58,58.58,0,0,0-49.86,89.33L916.44,623a58.61,58.61,0,0,0-49.9,2.77l-39.35-38.21a58.59,58.59,0,1,0-108.85,4.33L563,767.63a58.56,58.56,0,0,0-49.45,1.06L412.8,668a58.58,58.58,0,1,0-110.35-1.09L158.56,812a58.58,58.58,0,1,0,32.1,31.14l141.52-142.7a58.62,58.62,0,0,0,50.29.46L483.93,802.35A58.58,58.58,0,1,0,594,800.06l156.73-177.3a58.62,58.62,0,0,0,46.67-1.85l40.89,39.7a58.57,58.57,0,1,0,110.13-6.16l113.19-134.83A58.58,58.58,0,1,0,1075.09,404Z"/></g></svg>