<svg id="l1" xmlns="http://www.w3.org/2000/svg" viewBox="0 0 87.32 81.19"><defs><style>.cls-1{fill:#c15f0e;}.cls-2{fill:#173449;}.cls-3{fill:#f4b664;}.cls-4{fill:#131414;}.cls-5{fill:#0f0e0e;}.cls-6{fill:#af0804;}.cls-7{fill:#ea7913;}.cls-8{fill:#ef7b07;}.cls-9{fill:#5b2003;}.cls-10{fill:#ea8642;}.cls-11{fill:#e58217;}.cls-12{fill:#f48521;}</style></defs><path class="cls-1" d="M66.58,51.47a3.26,3.26,0,0,1-.62,0H65.9V65c0,5.37-3.92,9.73-8.73,9.73H40.83c-4.82,0-8.74-4.36-8.74-9.73V49.74a3,3,0,0,1-1.58-.26V65c0,6.24,4.63,11.31,10.32,11.31H57.17c5.69,0,10.31-5.07,10.31-11.31V51.35A2.16,2.16,0,0,1,66.58,51.47Z"/><rect class="cls-2" x="53.11" y="6.69" width="26.14" height="44.93"/><rect class="cls-3" x="55.63" y="11.7" width="21.11" height="32.93"/><path class="cls-4" d="M72.39,9.61a.57.57,0,0,1-.57.58H60.88a.58.58,0,0,1-.58-.58h0A.58.58,0,0,1,60.88,9H71.82a.57.57,0,0,1,.57.58Z"/><path class="cls-5" d="M71.57,48.1c0,1-2.34,1.84-5.22,1.84s-5.22-.82-5.22-1.84,2.34-1.85,5.22-1.85S71.57,47.08,71.57,48.1Z"/><path class="cls-6" d="M66.26,38.52a9.65,9.65,0,0,1-9.87-9.38,9.88,9.88,0,0,1,19.74,0A9.65,9.65,0,0,1,66.26,38.52Zm0-18.23a9.12,9.12,0,0,0-9.34,8.85,9.35,9.35,0,0,0,18.68,0A9.12,9.12,0,0,0,66.26,20.29Z"/><path class="cls-6" d="M66.26,38.25c-3,0-5.48-4.15-5.48-9.25s2.46-9.24,5.48-9.24,5.48,4.15,5.48,9.24S69.28,38.25,66.26,38.25Zm0-18c-2.73,0-5,3.91-5,8.71s2.22,8.72,5,8.72,4.95-3.91,4.95-8.72S69,20.29,66.26,20.29Z"/><rect class="cls-6" x="65.83" y="20.02" width="0.87" height="18.2"/><rect class="cls-6" x="56.92" y="29.14" width="19.21" height="0.37"/><rect class="cls-6" x="59.07" y="22.82" width="14.26" height="0.37"/><rect class="cls-6" x="59.56" y="35.41" width="13.5" height="0.38"/><path class="cls-7" d="M12.48,29c0-8.9,6.63-16.11,14.8-16.11S42.07,20.11,42.07,29a17.32,17.32,0,0,1-.49,4,19.09,19.09,0,0,0,1.85-8.25C43.43,15,36.2,7,27.28,7S11.13,15,11.13,24.8A19.06,19.06,0,0,0,13,33.05,17.26,17.26,0,0,1,12.48,29Z"/><path class="cls-8" d="M33.67,49.86c0,1.11-.64,2-1.41,2H28.31c-.78,0-1.41-.9-1.41-2h0c0-1.11.63-2,1.41-2h3.95c.77,0,1.41.9,1.41,2Z"/><path class="cls-9" d="M35.55,52.81a1,1,0,0,1-1.41.47h0a1,1,0,0,1-.47-1.41l8.5-17.17a1,1,0,0,1,1.41-.47h0a1,1,0,0,1,.47,1.41Z"/><rect class="cls-9" x="26.39" y="51.85" width="8.95" height="1.54"/><path class="cls-10" d="M10.18,22.79c-3.66.81-6.21,4.74-5.8,9.26s3.62,8,7.38,8.27Z"/><path class="cls-9" d="M14,41a1,1,0,0,1-1,1h0a1,1,0,0,1-1.15-.84L10.09,21.81a1,1,0,0,1,1-1h0a1,1,0,0,1,1.15.83Z"/><path class="cls-11" d="M5.87,25.89c-1.22.75-2.25,3.67-2,6.1s2,5.11,3.11,5.75Z"/><path class="cls-12" d="M45.14,23c3.59,1,5.82,5.13,5.06,9.61s-4.23,7.76-8,7.77Z"/><path class="cls-9" d="M39.94,40.91a1,1,0,0,0,.9,1.06h0a1,1,0,0,0,1.21-.76L45.31,22A1,1,0,0,0,44.4,21h0a1,1,0,0,0-1.21.76Z"/><path class="cls-11" d="M49.19,26.39c1.17.82,2,3.79,1.56,6.21s-2.39,5-3.55,5.53Z"/><rect class="cls-6" x="63.37" y="51.61" width="6.19" height="1.78"/></svg>