<svg xmlns="http://www.w3.org/2000/svg" viewBox="0 0 267.7 222.36"><defs><style>.cls-1,.cls-7{fill:#629a9c;}.cls-2{fill:#88b6b8;}.cls-3{fill:#7899b7;}.cls-4{fill:#8cb5d3;}.cls-11,.cls-13,.cls-14,.cls-15,.cls-16,.cls-17,.cls-19,.cls-20,.cls-21,.cls-22,.cls-23,.cls-24,.cls-25,.cls-26,.cls-27,.cls-28,.cls-29,.cls-30,.cls-31,.cls-32,.cls-33,.cls-34,.cls-35,.cls-4,.cls-5,.cls-6,.cls-7,.cls-8,.cls-9{fill-rule:evenodd;}.cls-5{fill:#98bbd7;}.cls-6{fill:#528081;}.cls-8{fill:#a2c3dc;}.cls-9{fill:#d6801a;}.cls-10{fill:#d49019;}.cls-11,.cls-12{fill:#ebbd1d;}.cls-13,.cls-18{fill:#ae7b19;}.cls-14{fill:#de9b17;}.cls-15{fill:#c08418;}.cls-16{fill:#9c7125;}.cls-17{fill:#faeaad;}.cls-19{fill:#492c11;}.cls-20{fill:#411b19;}.cls-21{fill:#7a502b;}.cls-22{fill:#dfa08d;}.cls-23{fill:#575756;}.cls-24{fill:#d28672;}.cls-25{fill:#c77868;}.cls-26{fill:#1e2534;}.cls-27{fill:#885833;}.cls-28{fill:#552500;}.cls-29{fill:#532927;}.cls-30{fill:#ebebeb;}.cls-31{fill:#afb0b0;}.cls-32{fill:#999a9a;}.cls-33{fill:#fff;}.cls-34{fill:#7da1c6;}.cls-35{fill:#6e6e6d;}</style></defs><g id="OBJECTS"><rect class="cls-1" x="12.37" y="118.99" width="6.51" height="27.12"/><rect class="cls-2" x="21.51" y="101.31" width="6.51" height="44.8"/><rect class="cls-1" x="30.66" y="107.54" width="6.51" height="38.56"/><rect class="cls-1" x="39.81" y="97.81" width="6.51" height="48.3"/><rect class="cls-2" x="48.83" y="106.25" width="6.51" height="39.86"/><rect class="cls-1" x="57.97" y="94" width="6.51" height="52.11"/><rect class="cls-2" x="67.12" y="78.74" width="6.51" height="67.37"/><rect class="cls-1" x="76.27" y="108.84" width="6.51" height="37.27"/><rect class="cls-1" x="181.14" y="106.25" width="6.51" height="39.86"/><rect class="cls-1" x="190.29" y="80.38" width="6.51" height="65.72"/><rect class="cls-1" x="199.44" y="107.54" width="6.51" height="38.56"/><rect class="cls-2" x="208.58" y="97.81" width="6.51" height="48.3"/><rect class="cls-1" x="217.6" y="106.25" width="6.51" height="39.86"/><rect class="cls-2" x="226.75" y="94" width="6.51" height="52.11"/><rect class="cls-1" x="235.9" y="111.79" width="6.51" height="34.32"/><rect class="cls-2" x="245.05" y="119.35" width="6.51" height="26.76"/><rect class="cls-1" x="6.38" y="142.94" width="252.49" height="3.17"/><circle class="cls-3" cx="131.96" cy="95.95" r="75.3" transform="translate(16.04 210.77) rotate(-80.75)"/><path class="cls-4" d="M132,20.65A75.33,75.33,0,0,1,206.64,86.2c-10,77.31-139.35,77.31-149.35,0A75.31,75.31,0,0,1,132,20.65Z"/><path class="cls-5" d="M92,38.85c19.64-12.93,42.93-11.49,47-5.25s-12.52,14.92-32.16,27.85-34.52,25-38.62,18.76S72.35,51.78,92,38.85Z"/><path class="cls-6" d="M132,20.65a75.84,75.84,0,0,1,13,1.12c-.25,1.63-1.13,3.37-3.7,3.37-4.85,0-3.18-.4-8.11,1.83s-5,2.07-7.8,1.91.87-2.63-3.66-5.1c-1.17-.63-2.45-1.25-3.61-1.84A75.05,75.05,0,0,1,132,20.65Zm29.29,144.59c-1.7.75-3.43,1.45-5.19,2.07a75,75,0,0,1-24.1,3.94,76.18,76.18,0,0,1-14.26-1.35c.73-2.15,2.47-4.27,6.57-4,8.12.48,8.28-.47,12.89-.32s6.85-3.66,13.05-2.7c5,.77,5.15,3,11,2.39Zm8.5-43.81c-.24-.08-1.55-.08-3.3,2s-2.83,1.35-2.91,3.82-1.27,3.58.28,4.69,6-4.77,5.93-10.5ZM137,29s-4.69-1-6,1.59,8.27.95,6-1.59Zm27.75-.81c.7,2.28,1.22,5.18-.82,5-3.35-.31.55,2.23-2.47,2.71s-8.68-1.19-10.19.56-3.58,2-4.53,1.43S149.85,36,148.9,35s-7.57-1.19-12.58-.31-5,.16-9,4.29-.4,2,3,3,2.71,1.91,4.86-1.67,3.5-2.55,2.38.16,2.63-1.2,3.59.79-1,3.9-5.26,4.14-4-1-7.95-.64-2.87,1.44-5.5,3-3.9,1.75-4-1.28-2.07-5.33-3-2.06,1,2.94-.87,4.53-2.71,2-1.68,3,2.35,1.67.32,2.5-5,2.39-5,4-1.71,5.89,2.94,4.14,6.41-4.66,9.31-6.37,4.74-2.5,6.65-.12,2.55,2,3.94,2.71.28,2.15,1.27,2.9,2.91-1.11,2.15-2.74-5.09-4.34-3.26-4.82,4.18.52,6.05,3.82,3.18,5.85,4.61,3.35,1.47-3.78,3.54-2.15,1.71,4.33,4.66,4.26,8.35.23,4.93,4.29-6,1.67-10.66.48S140.1,70,136.84,69.7s-5.17-.4-6.85-2.78.16-4.46-6.76-3.51-16.15.92-17.67,4.74-4,4-7,7S94.82,86.21,95.46,89s2.54,1.11,3.42,4.54,3.34,5.73,10.82,5.73,5.65-3.51,9.55-.56,6,1.27,5.33,6.36,6.29,6.85,6.61,11.46-3.27,4.14-2.47,7.64,2.94,4.94,3.34,8,2.23,9.15,6.21,9.47,8.36-.4,10.5-3.1,3.9-9.15,6.77-11.54,6.05-2.79,6.05-6.61-1.28-9.7,3.1-13.76,4.54-6,6.92-8.76,3-4.14-1-5.41-4.14-1.59-7.56-6.76S152.67,71.25,157,73.24s7.4,7.8,8.91,10.83S168,90,172.81,87.89s5.49-1.68,7.32-4.46,2.31-4.7,1.11-5.65-3.66,0-5.65-2.39-.71-3.74,3.82-1.43,4.22.87,7.24.87,4.22,2.79,6.21,5.65,2,7.33,3.1,11.46,4.86,6,4,3-1.91-4-.39-8.76,2.54-5.33,4-.31a9,9,0,0,0,3.47,4.71,75.33,75.33,0,0,0-42.31-62.38Zm1.48,25.14c7.5,5.27,6.81,10.68,6.09,10.66s-.44-2-2.13-3.66-3.72-2.19-4.67-4.2a1.94,1.94,0,0,1,.71-2.8Zm-81.89,101A75.15,75.15,0,0,1,56.66,96a77.11,77.11,0,0,1,.57-9.29c1.83,3.27,5.49,6.82,6.85,9,1.75,2.78,1.11,3.1,1.43,5.33s6.69,6.2,9.07,7.48,5.18,8.75,3.27,11.62.24,8.43.4,10.34-1,1.67-1.68,3.66,1.68,3.66,4.06,10.51c1,2.86,2.42,6.47,3.72,9.7ZM93.48,31.22c.36,5.13-5.31,13.1-1.86,10.83,4-2.63,10.9-5,13.13-6.29s2.82.84,2.66,2.59,1.36,1.27,3.5-.56-4-1.83,1.83-5.33,9.55-5.65,3.51-6.13a10.34,10.34,0,0,1-6.2-2.44A74.87,74.87,0,0,0,93.48,31.22Z"/><path class="cls-7" d="M92,38.85a60.81,60.81,0,0,1,25.7-9.49c-1.19.87-2.94,1.91-5,3.1-5.88,3.5.32,3.5-1.83,5.33s-3.66,2.31-3.5.56-.44-3.86-2.66-2.59-9.16,3.66-13.13,6.29c-1.78,1.17-1.13-.38-.14-2.86l.51-.34Zm39.64-9.14A19.43,19.43,0,0,1,136,31.16c-2.12,1-5.9,1.1-5-.61a2.77,2.77,0,0,1,.66-.84Zm7.75,4.54c.68,1.61.09,3.38-1.5,5.34.51-2-.77-2.46-2.67.71-2.15,3.58-1.44,2.7-4.86,1.67s-7,1.11-3-3,4-3.42,9-4.29c1-.17,2-.31,3.06-.4ZM131.86,45a9.73,9.73,0,0,0-3.89-.26c-4,.4-2.87,1.44-5.5,3s-3.9,1.75-4-1.28-2.07-5.33-3-2.06,1,2.94-.87,4.53-2.71,2-1.68,3,2.35,1.67.32,2.5-5,2.39-5,4c0,.59-.25,1.54-.31,2.42C117.31,54.61,126,49.42,131.86,45Z"/><path class="cls-8" d="M132,20.18c15.4,0,29.33,8.5,39.41,22.25S187.63,75.06,187.63,96s-6.21,39.82-16.26,53.53-24,22.24-39.41,22.24-29.33-8.5-39.41-22.24S76.3,116.85,76.3,96s6.21-39.82,16.25-53.52,24-22.25,39.41-22.25ZM170.61,43c-9.9-13.51-23.56-21.86-38.65-21.86S103.21,29.47,93.31,43,77.24,75.26,77.24,96s6.14,39.42,16.07,53,23.57,21.86,38.65,21.86,28.75-8.35,38.65-21.86,16.08-32.28,16.08-53S180.55,56.53,170.61,43Z"/><path class="cls-8" d="M207.73,96c0,15.4-8.5,29.33-22.24,39.41S152.86,151.62,132,151.62s-39.82-6.21-53.52-16.26S56.19,111.35,56.19,96s8.5-29.33,22.25-39.41S111.07,40.29,132,40.29s39.82,6.21,53.53,16.25,22.24,24,22.24,39.41Zm-22.8,38.65C198.44,124.7,206.79,111,206.79,96S198.44,67.2,184.93,57.3s-32.27-16.07-53-16.07S92.54,47.37,79,57.3,57.13,80.87,57.13,96,65.49,124.7,79,134.6s32.28,16.08,53,16.08S171.38,144.54,184.93,134.6Z"/><path class="cls-8" d="M132,20.18c7.34,0,13.93,8.55,18.66,22.37s7.56,32.56,7.56,53.4-2.89,39.73-7.56,53.4c-4.73,13.82-11.32,22.37-18.66,22.37s-13.92-8.55-18.65-22.37c-4.68-13.67-7.57-32.55-7.57-53.4s2.89-39.72,7.57-53.4S124.63,20.18,132,20.18Zm17.77,22.68C145.14,29.43,138.85,21.12,132,21.12s-13.17,8.31-17.76,21.74S106.68,75.21,106.68,96s2.87,39.52,7.52,53.1c4.59,13.43,10.87,21.73,17.76,21.73s13.18-8.3,17.77-21.73c4.64-13.58,7.51-32.35,7.51-53.1S154.37,56.44,149.73,42.86Z"/><path class="cls-8" d="M207.73,96c0,5.15-8.56,9.75-22.41,13-13.67,3.22-32.53,5.21-53.36,5.21s-39.69-2-53.35-5.21c-13.85-3.27-22.42-7.87-22.42-13s8.57-9.75,22.42-13c13.66-3.23,32.52-5.22,53.35-5.22s39.69,2,53.36,5.22c13.85,3.26,22.41,7.86,22.41,13Zm-22.63,12.1c13.4-3.16,21.69-7.44,21.69-12.1S198.5,87,185.1,83.85c-13.59-3.21-32.38-5.19-53.14-5.19s-39.54,2-53.14,5.19C65.42,87,57.13,91.3,57.13,96s8.29,8.94,21.69,12.1c13.6,3.21,32.38,5.19,53.14,5.19S171.51,111.26,185.1,108.05Z"/><path class="cls-8" d="M207.73,96c0,11.25-8.52,21.4-22.3,28.73s-32.6,11.78-53.47,11.78S92.19,132,78.5,124.68,56.19,107.2,56.19,96s8.52-21.4,22.31-28.73S111.09,55.44,132,55.44s39.78,4.5,53.47,11.78,22.3,17.49,22.3,28.73ZM185,123.85c13.47-7.16,21.8-17,21.8-27.9s-8.33-20.73-21.8-27.9-32.31-11.67-53-11.67-39.46,4.46-53,11.67S57.13,85.08,57.13,96s8.33,20.74,21.81,27.9,32.31,11.67,53,11.67S171.43,131.06,185,123.85Z"/><path class="cls-8" d="M207.73,96c0,18.56-8.49,35.36-22.21,47.52S152.87,163.12,132,163.12s-39.84-7.51-53.55-19.65S56.19,114.51,56.19,96s8.49-35.36,22.22-47.51S111.05,28.78,132,28.78s39.85,7.51,53.56,19.66,22.21,29,22.21,47.51ZM184.9,142.77c13.53-12,21.89-28.54,21.89-46.82s-8.36-34.83-21.89-46.81S152.64,29.72,132,29.72,92.57,37.14,79,49.14,57.13,77.67,57.13,96,65.5,130.78,79,142.77s32.26,19.41,52.93,19.41S171.36,154.76,184.9,142.77Z"/><path class="cls-8" d="M132,20.18c11.26,0,21.42,8.52,28.75,22.31s11.8,32.59,11.8,53.46-4.51,39.78-11.8,53.47-17.49,22.3-28.75,22.3-21.41-8.52-28.75-22.3S91.42,116.82,91.42,96s4.5-39.77,11.79-53.46S120.71,20.18,132,20.18Zm27.93,22.75c-7.17-13.48-17-21.81-27.93-21.81S111.21,29.45,104,42.93,92.36,75.23,92.36,96s4.46,39.47,11.68,53,17,21.8,27.92,21.8,20.76-8.33,27.93-21.8,11.68-32.31,11.68-53S167.1,56.49,159.89,42.93Z"/><path class="cls-8" d="M132,20.18c18.57,0,35.38,8.49,47.54,22.22S199.17,75,199.17,96s-7.52,39.85-19.67,53.56-29,22.21-47.54,22.21-35.37-8.49-47.54-22.21S64.76,116.86,64.76,96,72.27,56.11,84.42,42.4s29-22.22,47.54-22.22ZM178.8,43c-12-13.53-28.55-21.9-46.84-21.9S97.11,29.49,85.12,43,65.7,75.28,65.7,96s7.42,39.39,19.42,52.94,28.55,21.89,46.84,21.89,34.85-8.36,46.84-21.89S198.23,116.63,198.23,96,190.8,56.56,178.8,43Z"/><path class="cls-8" d="M132,20.18c3.1,0,5.82,8.58,7.7,22.46,1.86,13.66,3,32.5,3,53.31s-1.15,39.66-3,53.31c-1.88,13.88-4.6,22.46-7.7,22.46s-5.81-8.58-7.7-22.46c-1.85-13.65-3-32.5-3-53.31s1.15-39.65,3-53.31c1.89-13.88,4.6-22.46,7.7-22.46Zm6.77,22.59c-1.81-13.38-4.21-21.65-6.77-21.65s-5,8.27-6.77,21.65c-1.85,13.6-3,32.4-3,53.18s1.14,39.58,3,53.19c1.82,13.37,4.22,21.64,6.77,21.64s5-8.27,6.77-21.64c1.85-13.61,3-32.41,3-53.19S140.58,56.37,138.73,42.77Z"/><path class="cls-9" d="M69.5,94.79a3.68,3.68,0,1,0-3.67-3.67A3.68,3.68,0,0,0,69.5,94.79Z"/><path class="cls-9" d="M102.87,63.69A3.68,3.68,0,1,0,99.2,60,3.69,3.69,0,0,0,102.87,63.69Z"/><path class="cls-9" d="M135.11,102.15a3.68,3.68,0,1,0-3.67-3.68A3.68,3.68,0,0,0,135.11,102.15Z"/><path class="cls-9" d="M162,54.35a3.68,3.68,0,1,0-3.68-3.67A3.69,3.69,0,0,0,162,54.35Z"/><path class="cls-9" d="M71.08,91.47a1.06,1.06,0,0,1-1.5,0,1.07,1.07,0,0,1,0-1.51l32.67-31a1.08,1.08,0,0,1,1.51,0l0,.06h0l31.37,37.81,25.55-46.69a.94.94,0,0,1,.27-.32h0l34.78-28a1.07,1.07,0,0,1,1.34,1.66L162.53,51.38,136.37,99.2a1.33,1.33,0,0,1-.29.38,1.08,1.08,0,0,1-1.51-.15L102.92,61.29Z"/><polygon class="cls-9" points="190.62 27.24 187.39 23.04 198.1 21.48 193.84 31.43 190.62 27.24"/><rect class="cls-10" x="105.56" y="177.86" width="58.18" height="5.62" rx="0.2"/><path class="cls-11" d="M105.73,178.29a.27.27,0,0,1,0-.53h57.83a.27.27,0,0,1,0,.53Z"/><rect class="cls-12" x="122.8" y="177.86" width="5.04" height="5.62"/><rect class="cls-12" x="116.62" y="177.86" width="3.05" height="5.62"/><rect class="cls-12" x="130.19" y="177.86" width="2.1" height="5.62"/><path class="cls-13" d="M129.9,178a.27.27,0,1,1,.53,0v5.34a.27.27,0,0,1-.53,0Z"/><path class="cls-13" d="M125.42,178a.27.27,0,1,1,.53,0v5.34a.27.27,0,0,1-.53,0Z"/><path class="cls-13" d="M120.94,178a.27.27,0,1,1,.53,0v5.34a.27.27,0,0,1-.53,0Z"/><path class="cls-13" d="M107.49,178a.27.27,0,0,1,.54,0v5.34a.27.27,0,0,1-.54,0Z"/><path class="cls-13" d="M147.82,178a.27.27,0,1,1,.53,0v5.34a.27.27,0,0,1-.53,0Z"/><path class="cls-13" d="M156.78,178a.27.27,0,0,1,.27-.27.28.28,0,0,1,.27.27v5.34a.27.27,0,0,1-.27.26.27.27,0,0,1-.27-.26Z"/><path class="cls-13" d="M161.26,178a.27.27,0,0,1,.54,0v5.34a.27.27,0,0,1-.54,0Z"/><path class="cls-13" d="M134.38,178a.27.27,0,1,1,.53,0v5.34a.27.27,0,0,1-.53,0Z"/><rect class="cls-12" x="150.41" y="177.86" width="2.1" height="5.62"/><rect class="cls-12" x="137.41" y="177.86" width="6.95" height="5.62"/><path class="cls-13" d="M138.86,178a.27.27,0,1,1,.53,0v5.34a.27.27,0,0,1-.53,0Z"/><path class="cls-13" d="M143.34,178a.27.27,0,1,1,.53,0v5.34a.27.27,0,0,1-.53,0Z"/><rect class="cls-12" x="109.2" y="177.86" width="6.95" height="5.62"/><path class="cls-13" d="M116.46,178a.27.27,0,1,1,.53,0v5.34a.27.27,0,0,1-.53,0Z"/><path class="cls-13" d="M112,178a.27.27,0,1,1,.54,0v5.34a.27.27,0,0,1-.54,0Z"/><path class="cls-13" d="M152.3,178a.27.27,0,1,1,.53,0v5.34a.27.27,0,0,1-.53,0Z"/><path class="cls-13" d="M105.73,183.59a.27.27,0,0,1,0-.54h57.83a.27.27,0,0,1,0,.54Z"/><rect class="cls-10" x="106.8" y="166.11" width="58.18" height="5.62" rx="0.2"/><path class="cls-11" d="M107,166.55a.27.27,0,0,1,0-.54H164.8a.27.27,0,1,1,0,.54Z"/><rect class="cls-12" x="124.05" y="166.11" width="5.04" height="5.62"/><rect class="cls-12" x="117.86" y="166.11" width="3.05" height="5.62"/><rect class="cls-12" x="131.43" y="166.11" width="2.1" height="5.62"/><path class="cls-13" d="M131.14,166.25a.27.27,0,0,1,.54,0v5.34a.27.27,0,0,1-.54,0Z"/><path class="cls-13" d="M126.66,166.25a.27.27,0,0,1,.54,0v5.34a.27.27,0,1,1-.54,0Z"/><path class="cls-13" d="M122.18,166.25a.27.27,0,0,1,.54,0v5.34a.27.27,0,1,1-.54,0Z"/><path class="cls-13" d="M108.74,166.25a.27.27,0,0,1,.54,0v5.34a.27.27,0,1,1-.54,0Z"/><path class="cls-13" d="M149.07,166.25a.27.27,0,0,1,.53,0v5.34a.27.27,0,1,1-.53,0Z"/><path class="cls-13" d="M158,166.25a.27.27,0,0,1,.53,0v5.34a.27.27,0,1,1-.53,0Z"/><path class="cls-13" d="M162.51,166.25a.27.27,0,0,1,.53,0v5.34a.27.27,0,1,1-.53,0Z"/><path class="cls-13" d="M135.62,166.25a.27.27,0,0,1,.54,0v5.34a.27.27,0,1,1-.54,0Z"/><rect class="cls-12" x="151.65" y="166.11" width="2.1" height="5.62"/><rect class="cls-12" x="138.66" y="166.11" width="6.95" height="5.62"/><path class="cls-13" d="M140.1,166.25a.27.27,0,0,1,.54,0v5.34a.27.27,0,0,1-.54,0Z"/><path class="cls-13" d="M144.59,166.25a.27.27,0,0,1,.53,0v5.34a.27.27,0,1,1-.53,0Z"/><rect class="cls-12" x="110.45" y="166.11" width="6.95" height="5.62"/><path class="cls-13" d="M117.7,166.25a.27.27,0,0,1,.54,0v5.34a.27.27,0,1,1-.54,0Z"/><path class="cls-13" d="M113.22,166.25a.27.27,0,0,1,.54,0v5.34a.27.27,0,1,1-.54,0Z"/><path class="cls-13" d="M153.55,166.25a.27.27,0,0,1,.53,0v5.34a.27.27,0,1,1-.53,0Z"/><path class="cls-13" d="M107,171.84a.27.27,0,1,1,0-.53H164.8a.27.27,0,1,1,0,.53Z"/><rect class="cls-10" x="108.67" y="171.98" width="58.18" height="5.62" rx="0.2"/><path class="cls-11" d="M108.84,172.42a.27.27,0,0,1,0-.54h57.83a.27.27,0,0,1,0,.54Z"/><rect class="cls-12" x="125.91" y="171.98" width="5.04" height="5.62"/><rect class="cls-12" x="119.73" y="171.98" width="3.05" height="5.62"/><rect class="cls-12" x="133.3" y="171.98" width="2.1" height="5.62"/><path class="cls-13" d="M133,172.13a.27.27,0,1,1,.53,0v5.33a.27.27,0,1,1-.53,0Z"/><path class="cls-13" d="M128.53,172.13a.27.27,0,1,1,.53,0v5.33a.27.27,0,1,1-.53,0Z"/><path class="cls-13" d="M124.05,172.13a.27.27,0,1,1,.53,0v5.33a.27.27,0,1,1-.53,0Z"/><path class="cls-13" d="M110.61,172.13a.26.26,0,0,1,.26-.27.27.27,0,0,1,.27.27v5.33a.27.27,0,0,1-.27.27.26.26,0,0,1-.26-.27Z"/><path class="cls-13" d="M150.93,172.13a.27.27,0,0,1,.27-.27.26.26,0,0,1,.26.27v5.33a.26.26,0,0,1-.26.27.27.27,0,0,1-.27-.27Z"/><path class="cls-13" d="M159.89,172.13a.27.27,0,1,1,.54,0v5.33a.27.27,0,0,1-.54,0Z"/><path class="cls-13" d="M164.37,172.13a.27.27,0,1,1,.54,0v5.33a.27.27,0,0,1-.54,0Z"/><path class="cls-13" d="M137.49,172.13a.27.27,0,1,1,.53,0v5.33a.27.27,0,1,1-.53,0Z"/><rect class="cls-12" x="153.52" y="171.98" width="2.1" height="5.62"/><rect class="cls-12" x="140.52" y="171.98" width="6.95" height="5.62"/><path class="cls-13" d="M142,172.13a.27.27,0,1,1,.53,0v5.33a.27.27,0,1,1-.53,0Z"/><path class="cls-13" d="M146.45,172.13a.27.27,0,1,1,.53,0v5.33a.27.27,0,1,1-.53,0Z"/><rect class="cls-12" x="112.31" y="171.98" width="6.95" height="5.62"/><path class="cls-13" d="M119.57,172.13a.27.27,0,1,1,.53,0v5.33a.27.27,0,1,1-.53,0Z"/><path class="cls-13" d="M115.09,172.13a.27.27,0,1,1,.53,0v5.33a.27.27,0,1,1-.53,0Z"/><path class="cls-13" d="M155.41,172.13a.27.27,0,0,1,.54,0v5.33a.27.27,0,0,1-.54,0Z"/><path class="cls-13" d="M108.84,177.71a.27.27,0,0,1,0-.53h57.83a.27.27,0,0,1,0,.53Z"/><rect class="cls-10" x="101.15" y="160.24" width="58.18" height="5.62" rx="0.2"/><path class="cls-11" d="M101.32,160.67a.27.27,0,0,1,0-.53h57.83a.27.27,0,0,1,0,.53Z"/><rect class="cls-12" x="118.39" y="160.24" width="5.04" height="5.62"/><rect class="cls-12" x="112.21" y="160.24" width="3.05" height="5.62"/><rect class="cls-12" x="125.78" y="160.24" width="2.1" height="5.62"/><path class="cls-13" d="M125.49,160.38a.27.27,0,0,1,.53,0v5.34a.27.27,0,1,1-.53,0Z"/><path class="cls-13" d="M121,160.38a.27.27,0,0,1,.53,0v5.34a.27.27,0,1,1-.53,0Z"/><path class="cls-13" d="M116.53,160.38a.27.27,0,0,1,.53,0v5.34a.27.27,0,1,1-.53,0Z"/><path class="cls-13" d="M103.08,160.38a.27.27,0,0,1,.54,0v5.34a.27.27,0,1,1-.54,0Z"/><path class="cls-13" d="M143.41,160.38a.27.27,0,0,1,.53,0v5.34a.27.27,0,1,1-.53,0Z"/><path class="cls-13" d="M152.37,160.38a.27.27,0,0,1,.54,0v5.34a.27.27,0,1,1-.54,0Z"/><path class="cls-13" d="M156.85,160.38a.27.27,0,0,1,.54,0v5.34a.27.27,0,1,1-.54,0Z"/><path class="cls-13" d="M130,160.38a.27.27,0,0,1,.53,0v5.34a.27.27,0,1,1-.53,0Z"/><rect class="cls-12" x="146" y="160.24" width="2.1" height="5.62"/><rect class="cls-12" x="133" y="160.24" width="6.95" height="5.62"/><path class="cls-13" d="M134.45,160.38a.27.27,0,0,1,.53,0v5.34a.27.27,0,1,1-.53,0Z"/><path class="cls-13" d="M138.93,160.38a.27.27,0,0,1,.53,0v5.34a.27.27,0,1,1-.53,0Z"/><rect class="cls-12" x="104.79" y="160.24" width="6.95" height="5.62"/><path class="cls-13" d="M112.05,160.38a.27.27,0,0,1,.53,0v5.34a.27.27,0,1,1-.53,0Z"/><path class="cls-13" d="M107.57,160.38a.25.25,0,0,1,.26-.26.26.26,0,0,1,.27.26v5.34a.27.27,0,0,1-.27.27.26.26,0,0,1-.26-.27Z"/><path class="cls-13" d="M147.89,160.38a.26.26,0,0,1,.27-.26.25.25,0,0,1,.26.26v5.34a.26.26,0,0,1-.26.27.27.27,0,0,1-.27-.27Z"/><path class="cls-13" d="M101.32,166a.27.27,0,0,1,0-.53h57.83a.27.27,0,0,1,0,.53Z"/><rect class="cls-10" x="106.8" y="148.49" width="58.18" height="5.62" rx="0.2"/><path class="cls-11" d="M107,148.93a.27.27,0,1,1,0-.53H164.8a.27.27,0,1,1,0,.53Z"/><rect class="cls-12" x="124.05" y="148.49" width="5.04" height="5.62"/><rect class="cls-12" x="117.86" y="148.49" width="3.05" height="5.62"/><rect class="cls-12" x="131.43" y="148.49" width="2.1" height="5.62"/><path class="cls-13" d="M131.14,148.64a.27.27,0,1,1,.54,0V154a.27.27,0,0,1-.54,0Z"/><path class="cls-13" d="M126.66,148.64a.27.27,0,1,1,.54,0V154a.27.27,0,0,1-.54,0Z"/><path class="cls-13" d="M122.18,148.64a.27.27,0,1,1,.54,0V154a.27.27,0,0,1-.54,0Z"/><path class="cls-13" d="M108.74,148.64a.27.27,0,1,1,.54,0V154a.27.27,0,0,1-.54,0Z"/><path class="cls-13" d="M149.07,148.64a.27.27,0,1,1,.53,0V154a.27.27,0,0,1-.53,0Z"/><path class="cls-13" d="M158,148.64a.27.27,0,1,1,.53,0V154a.27.27,0,0,1-.53,0Z"/><path class="cls-13" d="M162.51,148.64a.27.27,0,1,1,.53,0V154a.27.27,0,0,1-.53,0Z"/><path class="cls-13" d="M135.62,148.64a.27.27,0,1,1,.54,0V154a.27.27,0,0,1-.54,0Z"/><rect class="cls-12" x="151.65" y="148.49" width="2.1" height="5.62"/><rect class="cls-12" x="138.66" y="148.49" width="6.95" height="5.62"/><path class="cls-13" d="M140.1,148.64a.27.27,0,0,1,.54,0V154a.27.27,0,0,1-.54,0Z"/><path class="cls-13" d="M144.59,148.64a.27.27,0,1,1,.53,0V154a.27.27,0,0,1-.53,0Z"/><rect class="cls-12" x="110.45" y="148.49" width="6.95" height="5.62"/><path class="cls-13" d="M117.7,148.64a.27.27,0,1,1,.54,0V154a.27.27,0,0,1-.54,0Z"/><path class="cls-13" d="M113.22,148.64a.27.27,0,1,1,.54,0V154a.27.27,0,0,1-.54,0Z"/><path class="cls-13" d="M153.55,148.64a.27.27,0,1,1,.53,0V154a.27.27,0,0,1-.53,0Z"/><path class="cls-13" d="M107,154.23a.27.27,0,1,1,0-.54H164.8a.27.27,0,1,1,0,.54Z"/><rect class="cls-10" x="108.67" y="154.37" width="58.18" height="5.62" rx="0.2"/><path class="cls-11" d="M108.84,154.8a.27.27,0,0,1,0-.53h57.83a.27.27,0,0,1,0,.53Z"/><rect class="cls-12" x="125.91" y="154.37" width="5.04" height="5.62"/><rect class="cls-12" x="119.73" y="154.37" width="3.05" height="5.62"/><rect class="cls-12" x="133.3" y="154.37" width="2.1" height="5.62"/><path class="cls-13" d="M133,154.51a.27.27,0,1,1,.53,0v5.34a.27.27,0,1,1-.53,0Z"/><path class="cls-13" d="M128.53,154.51a.27.27,0,1,1,.53,0v5.34a.27.27,0,1,1-.53,0Z"/><path class="cls-13" d="M124.05,154.51a.27.27,0,1,1,.53,0v5.34a.27.27,0,1,1-.53,0Z"/><path class="cls-13" d="M110.61,154.51a.26.26,0,0,1,.26-.27.27.27,0,0,1,.27.27v5.34a.27.27,0,0,1-.27.27.26.26,0,0,1-.26-.27Z"/><path class="cls-13" d="M150.93,154.51a.27.27,0,0,1,.27-.27.26.26,0,0,1,.26.27v5.34a.26.26,0,0,1-.26.27.27.27,0,0,1-.27-.27Z"/><path class="cls-13" d="M159.89,154.51a.27.27,0,1,1,.54,0v5.34a.27.27,0,0,1-.54,0Z"/><path class="cls-13" d="M164.37,154.51a.27.27,0,1,1,.54,0v5.34a.27.27,0,1,1-.54,0Z"/><path class="cls-13" d="M137.49,154.51a.27.27,0,1,1,.53,0v5.34a.27.27,0,1,1-.53,0Z"/><rect class="cls-12" x="153.52" y="154.37" width="2.1" height="5.62"/><rect class="cls-12" x="140.52" y="154.37" width="6.95" height="5.62"/><path class="cls-13" d="M142,154.51a.27.27,0,1,1,.53,0v5.34a.27.27,0,1,1-.53,0Z"/><path class="cls-13" d="M146.45,154.51a.27.27,0,1,1,.53,0v5.34a.27.27,0,1,1-.53,0Z"/><rect class="cls-12" x="112.31" y="154.37" width="6.95" height="5.62"/><path class="cls-13" d="M119.57,154.51a.27.27,0,1,1,.53,0v5.34a.27.27,0,1,1-.53,0Z"/><path class="cls-13" d="M115.09,154.51a.27.27,0,1,1,.53,0v5.34a.27.27,0,1,1-.53,0Z"/><path class="cls-13" d="M155.41,154.51a.27.27,0,0,1,.54,0v5.34a.27.27,0,1,1-.54,0Z"/><path class="cls-13" d="M108.84,160.1a.27.27,0,0,1,0-.54h57.83a.27.27,0,0,1,0,.54Z"/><rect class="cls-10" x="105.5" y="142.62" width="58.18" height="5.62" rx="0.2"/><path class="cls-11" d="M105.68,143.06a.27.27,0,1,1,0-.54H163.5a.27.27,0,0,1,0,.54Z"/><rect class="cls-12" x="122.74" y="142.62" width="5.04" height="5.62"/><rect class="cls-12" x="116.56" y="142.62" width="3.05" height="5.62"/><rect class="cls-12" x="130.13" y="142.62" width="2.1" height="5.62"/><path class="cls-13" d="M129.84,142.77a.27.27,0,1,1,.53,0v5.33a.27.27,0,1,1-.53,0Z"/><path class="cls-13" d="M125.36,142.77a.27.27,0,1,1,.53,0v5.33a.27.27,0,1,1-.53,0Z"/><path class="cls-13" d="M120.88,142.77a.27.27,0,1,1,.53,0v5.33a.27.27,0,1,1-.53,0Z"/><path class="cls-13" d="M107.44,142.77a.27.27,0,1,1,.53,0v5.33a.27.27,0,1,1-.53,0Z"/><path class="cls-13" d="M147.76,142.77a.27.27,0,0,1,.54,0v5.33a.27.27,0,0,1-.54,0Z"/><path class="cls-13" d="M156.72,142.77a.27.27,0,0,1,.54,0v5.33a.27.27,0,1,1-.54,0Z"/><path class="cls-13" d="M161.2,142.77a.27.27,0,0,1,.54,0v5.33a.27.27,0,0,1-.54,0Z"/><path class="cls-13" d="M134.32,142.77a.27.27,0,1,1,.53,0v5.33a.27.27,0,1,1-.53,0Z"/><rect class="cls-12" x="150.35" y="142.62" width="2.1" height="5.62"/><rect class="cls-12" x="137.35" y="142.62" width="6.95" height="5.62"/><path class="cls-13" d="M138.8,142.77a.27.27,0,1,1,.53,0v5.33a.27.27,0,1,1-.53,0Z"/><path class="cls-13" d="M143.28,142.77a.27.27,0,0,1,.27-.27.28.28,0,0,1,.27.27v5.33a.28.28,0,0,1-.27.27.27.27,0,0,1-.27-.27Z"/><rect class="cls-12" x="109.14" y="142.62" width="6.95" height="5.62"/><path class="cls-13" d="M116.4,142.77a.27.27,0,1,1,.53,0v5.33a.27.27,0,1,1-.53,0Z"/><path class="cls-13" d="M111.92,142.77a.27.27,0,1,1,.53,0v5.33a.27.27,0,1,1-.53,0Z"/><path class="cls-13" d="M152.24,142.77a.27.27,0,0,1,.54,0v5.33a.27.27,0,1,1-.54,0Z"/><path class="cls-13" d="M105.68,148.35a.27.27,0,1,1,0-.53H163.5a.27.27,0,0,1,0,.53Z"/><rect class="cls-10" x="42.19" y="177.86" width="58.18" height="5.62" rx="0.2"/><path class="cls-11" d="M42.37,178.29a.27.27,0,0,1,0-.53h57.82a.27.27,0,1,1,0,.53Z"/><rect class="cls-12" x="59.44" y="177.86" width="5.04" height="5.62"/><rect class="cls-12" x="53.26" y="177.86" width="3.05" height="5.62"/><rect class="cls-12" x="66.83" y="177.86" width="2.1" height="5.62"/><path class="cls-13" d="M66.54,178a.27.27,0,1,1,.53,0v5.34a.27.27,0,0,1-.53,0Z"/><path class="cls-13" d="M62.06,178a.27.27,0,1,1,.53,0v5.34a.27.27,0,0,1-.53,0Z"/><path class="cls-13" d="M57.57,178a.27.27,0,0,1,.54,0v5.34a.27.27,0,0,1-.54,0Z"/><path class="cls-13" d="M44.13,178a.27.27,0,1,1,.54,0v5.34a.27.27,0,0,1-.54,0Z"/><path class="cls-13" d="M84.46,178a.27.27,0,1,1,.53,0v5.34a.27.27,0,0,1-.53,0Z"/><path class="cls-13" d="M93.42,178a.27.27,0,1,1,.53,0v5.34a.27.27,0,0,1-.53,0Z"/><path class="cls-13" d="M97.9,178a.27.27,0,0,1,.27-.27.26.26,0,0,1,.26.27v5.34a.26.26,0,0,1-.26.26.27.27,0,0,1-.27-.26Z"/><path class="cls-13" d="M71,178a.27.27,0,1,1,.53,0v5.34a.27.27,0,0,1-.53,0Z"/><rect class="cls-12" x="87.05" y="177.86" width="2.1" height="5.62"/><rect class="cls-12" x="74.05" y="177.86" width="6.95" height="5.62"/><path class="cls-13" d="M75.5,178a.27.27,0,1,1,.53,0v5.34a.27.27,0,0,1-.53,0Z"/><path class="cls-13" d="M80,178a.27.27,0,1,1,.53,0v5.34a.27.27,0,0,1-.53,0Z"/><rect class="cls-12" x="45.84" y="177.86" width="6.95" height="5.62"/><path class="cls-13" d="M53.09,178a.27.27,0,1,1,.54,0v5.34a.27.27,0,0,1-.54,0Z"/><path class="cls-13" d="M48.61,178a.27.27,0,0,1,.54,0v5.34a.27.27,0,0,1-.54,0Z"/><path class="cls-13" d="M88.94,178a.27.27,0,1,1,.53,0v5.34a.27.27,0,0,1-.53,0Z"/><path class="cls-13" d="M42.37,183.59a.27.27,0,0,1,0-.54h57.82a.27.27,0,0,1,0,.54Z"/><rect class="cls-10" x="44.8" y="172.04" width="58.18" height="5.62" rx="0.2"/><path class="cls-11" d="M45,172.48a.27.27,0,0,1,0-.54H102.8a.27.27,0,0,1,0,.54Z"/><rect class="cls-12" x="62.04" y="172.04" width="5.04" height="5.62"/><rect class="cls-12" x="55.86" y="172.04" width="3.05" height="5.62"/><rect class="cls-12" x="69.43" y="172.04" width="2.1" height="5.62"/><path class="cls-13" d="M69.14,172.19a.27.27,0,1,1,.53,0v5.33a.27.27,0,1,1-.53,0Z"/><path class="cls-13" d="M64.66,172.19a.27.27,0,1,1,.53,0v5.33a.27.27,0,1,1-.53,0Z"/><path class="cls-13" d="M60.18,172.19a.27.27,0,1,1,.53,0v5.33a.27.27,0,1,1-.53,0Z"/><path class="cls-13" d="M46.73,172.19a.27.27,0,0,1,.54,0v5.33a.27.27,0,0,1-.54,0Z"/><path class="cls-13" d="M87.06,172.19a.27.27,0,1,1,.53,0v5.33a.27.27,0,1,1-.53,0Z"/><path class="cls-13" d="M96,172.19a.27.27,0,0,1,.54,0v5.33a.27.27,0,0,1-.54,0Z"/><path class="cls-13" d="M100.5,172.19a.27.27,0,1,1,.54,0v5.33a.27.27,0,0,1-.54,0Z"/><path class="cls-13" d="M73.62,172.19a.27.27,0,1,1,.53,0v5.33a.27.27,0,1,1-.53,0Z"/><rect class="cls-12" x="89.65" y="172.04" width="2.1" height="5.62"/><rect class="cls-12" x="76.65" y="172.04" width="6.95" height="5.62"/><path class="cls-13" d="M78.1,172.19a.27.27,0,1,1,.53,0v5.33a.27.27,0,1,1-.53,0Z"/><path class="cls-13" d="M82.58,172.19a.27.27,0,1,1,.53,0v5.33a.27.27,0,1,1-.53,0Z"/><rect class="cls-12" x="48.44" y="172.04" width="6.95" height="5.62"/><path class="cls-13" d="M55.7,172.19a.27.27,0,1,1,.53,0v5.33a.27.27,0,1,1-.53,0Z"/><path class="cls-13" d="M51.22,172.19a.26.26,0,0,1,.26-.27.27.27,0,0,1,.27.27v5.33a.27.27,0,0,1-.27.27.26.26,0,0,1-.26-.27Z"/><path class="cls-13" d="M91.54,172.19a.27.27,0,1,1,.54,0v5.33a.27.27,0,0,1-.54,0Z"/><path class="cls-13" d="M45,177.78a.27.27,0,0,1,0-.54H102.8a.27.27,0,0,1,0,.54Z"/><rect class="cls-10" x="39.82" y="166.23" width="58.18" height="5.62" rx="0.2"/><path class="cls-11" d="M40,166.67a.27.27,0,1,1,0-.54H97.82a.27.27,0,1,1,0,.54Z"/><rect class="cls-12" x="57.06" y="166.23" width="5.04" height="5.62"/><rect class="cls-12" x="50.88" y="166.23" width="3.05" height="5.62"/><rect class="cls-12" x="64.45" y="166.23" width="2.1" height="5.62"/><path class="cls-13" d="M64.16,166.38a.27.27,0,0,1,.27-.27.26.26,0,0,1,.26.27v5.33a.26.26,0,0,1-.26.27.27.27,0,0,1-.27-.27Z"/><path class="cls-13" d="M59.68,166.38a.27.27,0,1,1,.53,0v5.33a.27.27,0,1,1-.53,0Z"/><path class="cls-13" d="M55.2,166.38a.27.27,0,1,1,.53,0v5.33a.27.27,0,1,1-.53,0Z"/><path class="cls-13" d="M41.76,166.38a.27.27,0,1,1,.53,0v5.33a.27.27,0,1,1-.53,0Z"/><path class="cls-13" d="M82.08,166.38a.27.27,0,1,1,.54,0v5.33a.27.27,0,0,1-.54,0Z"/><path class="cls-13" d="M91,166.38a.27.27,0,0,1,.54,0v5.33a.27.27,0,0,1-.54,0Z"/><path class="cls-13" d="M95.52,166.38a.27.27,0,1,1,.54,0v5.33a.27.27,0,0,1-.54,0Z"/><path class="cls-13" d="M68.64,166.38a.27.27,0,1,1,.54,0v5.33a.27.27,0,0,1-.54,0Z"/><rect class="cls-12" x="84.67" y="166.23" width="2.1" height="5.62"/><rect class="cls-12" x="71.67" y="166.23" width="6.95" height="5.62"/><path class="cls-13" d="M73.12,166.38a.27.27,0,0,1,.54,0v5.33a.27.27,0,0,1-.54,0Z"/><path class="cls-13" d="M77.6,166.38a.27.27,0,1,1,.54,0v5.33a.27.27,0,0,1-.54,0Z"/><rect class="cls-12" x="43.46" y="166.23" width="6.95" height="5.62"/><path class="cls-13" d="M50.72,166.38a.27.27,0,1,1,.53,0v5.33a.27.27,0,1,1-.53,0Z"/><path class="cls-13" d="M46.24,166.38a.27.27,0,1,1,.53,0v5.33a.27.27,0,1,1-.53,0Z"/><path class="cls-13" d="M86.56,166.38a.27.27,0,0,1,.54,0v5.33a.27.27,0,0,1-.54,0Z"/><path class="cls-13" d="M40,172a.27.27,0,1,1,0-.53H97.82a.27.27,0,1,1,0,.53Z"/><path class="cls-14" d="M159.53,151.58a30.51,30.51,0,0,0,29.1,31.83c17.21.77,34.75-14.12,35.53-31.7a30.48,30.48,0,0,0-29.09-31.83C177.86,119.11,160.32,134,159.53,151.58Z"/><path class="cls-11" d="M195.07,119.88a30.5,30.5,0,1,0,29.09,31.83A30.48,30.48,0,0,0,195.07,119.88Z"/><path class="cls-15" d="M184.72,126.11A25.86,25.86,0,1,0,218,141.38,25.85,25.85,0,0,0,184.72,126.11Z"/><path class="cls-16" d="M188.22,125c-12.29,2.71-20.54,14-20.25,26.64.46-26.22,38.38-34.58,49.82-11C212.76,129.15,200.5,122.33,188.22,125Z"/><path class="cls-17" d="M212.67,126.47a.3.3,0,0,1,.05.43.32.32,0,0,1-.44,0,30.68,30.68,0,0,0-15.33-6,31.2,31.2,0,0,0-16.37,2.61.33.33,0,0,1-.42-.15.31.31,0,0,1,.15-.4,31.92,31.92,0,0,1,16.7-2.66A31.45,31.45,0,0,1,212.67,126.47Z"/><path class="cls-18" d="M193.74,181.13a30.81,30.81,0,0,1-18.23-55.62.29.29,0,1,1,.34.46,30.21,30.21,0,0,0,34.73,49.43.29.29,0,0,1,.4.07.3.3,0,0,1-.08.41A30.64,30.64,0,0,1,193.74,181.13Z"/><path class="cls-13" d="M163.6,156a.3.3,0,1,1,.34.49L160.35,159a.3.3,0,0,1-.42-.07.31.31,0,0,1,.08-.42Z"/><path class="cls-13" d="M164.35,159.14a.31.31,0,0,1,.42.07.3.3,0,0,1-.08.42l-3.59,2.53a.3.3,0,1,1-.34-.5Z"/><path class="cls-13" d="M169.09,168.41a.31.31,0,0,1,.35.5l-3.59,2.52a.3.3,0,0,1-.42-.08.28.28,0,0,1,.07-.41Z"/><path class="cls-13" d="M163.17,153.61a.3.3,0,0,1,.42.07.31.31,0,0,1-.07.42L160,156.57a.3.3,0,1,1-.35-.49Z"/><path class="cls-13" d="M173,172.74a.31.31,0,0,1,.42.07.3.3,0,0,1-.07.42l-3.59,2.53a.31.31,0,0,1-.35-.5Z"/><path class="cls-13" d="M179.48,177.26a.3.3,0,0,1,.42.07.31.31,0,0,1-.07.42l-3.6,2.52a.28.28,0,0,1-.41-.07.29.29,0,0,1,.07-.42Z"/><path class="cls-13" d="M166.33,164a.31.31,0,0,1,.42.08.29.29,0,0,1-.08.41L163.08,167a.31.31,0,0,1-.42-.08.29.29,0,0,1,.08-.41Z"/><path class="cls-13" d="M163,150.28a.3.3,0,0,1,.41.07.29.29,0,0,1-.07.42l-3.59,2.53a.3.3,0,0,1-.34-.5Z"/><path class="cls-13" d="M163.13,147.68a.3.3,0,1,1,.34.49l-3.59,2.52a.3.3,0,0,1-.42-.07.3.3,0,0,1,.08-.42Z"/><path class="cls-13" d="M163.62,144.26a.3.3,0,0,1,.34.5l-3.59,2.52a.31.31,0,0,1-.42-.07.3.3,0,0,1,.08-.42Z"/><path class="cls-13" d="M164.56,140.69a.3.3,0,0,1,.35.49l-3.59,2.52a.3.3,0,0,1-.42-.07.31.31,0,0,1,.07-.42Z"/><path class="cls-13" d="M165.36,138.53a.31.31,0,0,1,.42.07.29.29,0,0,1-.07.42l-3.59,2.53a.31.31,0,0,1-.35-.5Z"/><path class="cls-13" d="M166.56,135.9a.29.29,0,0,1,.42.07.3.3,0,0,1-.07.42l-3.28,2.29a.31.31,0,0,1-.42-.07.3.3,0,0,1,.08-.42Z"/><path class="cls-13" d="M168.33,133a.3.3,0,0,1,.34.49l-3.28,2.29a.3.3,0,1,1-.34-.49Z"/><path class="cls-13" d="M192.5,180.64a.3.3,0,0,1,.42.08.31.31,0,0,1-.07.42l-3.46,2.41a.31.31,0,0,1-.42-.07.3.3,0,0,1,.08-.42Z"/><path class="cls-13" d="M196.26,180.51a.29.29,0,0,1,.41.07.29.29,0,0,1-.07.42l-3.28,2.29a.3.3,0,1,1-.34-.49Z"/><path class="cls-13" d="M188.46,180.16a.29.29,0,0,1,.42.07.3.3,0,0,1-.07.42l-3.59,2.5a.29.29,0,0,1-.41-.07.3.3,0,0,1,.07-.42Z"/><path class="cls-13" d="M183.8,179.1a.3.3,0,0,1,.35.49l-3.59,2.5a.28.28,0,0,1-.41-.07.3.3,0,0,1,.07-.42Z"/><path class="cls-16" d="M190.09,150.22l3.47-3.47a.21.21,0,0,1,.29,0l3.46,3.47a.21.21,0,0,1,0,.29L193.85,154a.21.21,0,0,1-.29,0l-3.47-3.47a.21.21,0,0,1,0-.29Zm3.61-3-3.18,3.18,3.18,3.17,3.18-3.17Z"/><path class="cls-16" d="M187.92,150.22l5.64-5.64a.21.21,0,0,1,.29,0l5.63,5.64a.21.21,0,0,1,0,.29l-5.63,5.64a.21.21,0,0,1-.29,0l-5.64-5.64a.21.21,0,0,1,0-.29Zm5.78-5.2-5.35,5.35,5.35,5.34,5.35-5.34Z"/><path class="cls-16" d="M185.75,150.22l7.81-7.81a.21.21,0,0,1,.29,0l7.8,7.81a.21.21,0,0,1,0,.29l-7.8,7.81a.21.21,0,0,1-.29,0l-7.81-7.81a.21.21,0,0,1,0-.29Zm7.95-7.37-7.52,7.52,7.52,7.51,7.52-7.51Z"/><path class="cls-16" d="M183.58,150.22l10-10a.21.21,0,0,1,.29,0l10,10a.21.21,0,0,1,0,.29l-10,10a.21.21,0,0,1-.29,0l-10-10a.21.21,0,0,1,0-.29Zm10.12-9.54L184,150.37l9.68,9.68,9.68-9.68Z"/><path class="cls-16" d="M181.41,150.22l12.15-12.14a.21.21,0,0,1,.29,0L206,150.22a.21.21,0,0,1,0,.29l-12.14,12.14a.21.21,0,0,1-.29,0l-12.15-12.14a.21.21,0,0,1,0-.29Zm12.29-11.71-11.85,11.86,11.85,11.85,11.85-11.85Z"/><path class="cls-16" d="M179.24,150.22l14.32-14.31a.21.21,0,0,1,.29,0l14.31,14.31a.21.21,0,0,1,0,.29l-14.31,14.31a.21.21,0,0,1-.29,0l-14.32-14.31a.21.21,0,0,1,0-.29Zm14.46-13.88-14,14,14,14,14-14Z"/><path class="cls-16" d="M177.08,150.22l16.48-16.48a.21.21,0,0,1,.29,0l16.47,16.48a.21.21,0,0,1,0,.29L193.85,167a.21.21,0,0,1-.29,0l-16.48-16.48a.21.21,0,0,1,0-.29Zm16.62-16-16.19,16.19,16.19,16.18,16.19-16.18Z"/><path class="cls-16" d="M174.91,150.22l18.65-18.65a.21.21,0,0,1,.29,0l18.64,18.65a.21.21,0,0,1,0,.29l-18.64,18.65a.21.21,0,0,1-.29,0l-18.65-18.65a.21.21,0,0,1,0-.29ZM193.7,132l-18.36,18.36,18.36,18.35,18.36-18.35Z"/><path class="cls-16" d="M172.74,150.22l20.82-20.82a.21.21,0,0,1,.29,0l20.81,20.82a.21.21,0,0,1,0,.29l-20.81,20.82a.21.21,0,0,1-.29,0l-20.82-20.82a.21.21,0,0,1,0-.29Zm21-20.38-20.53,20.53,20.53,20.52,20.53-20.52Z"/><path class="cls-16" d="M170.57,150.22l23-23a.21.21,0,0,1,.29,0l23,23a.21.21,0,0,1,0,.29l-23,23a.21.21,0,0,1-.29,0l-23-23a.21.21,0,0,1,0-.29Zm23.13-22.55L171,150.37l22.69,22.69,22.69-22.69Z"/><path class="cls-16" d="M168.4,150.22l25.16-25.15a.21.21,0,0,1,.29,0L219,150.22a.21.21,0,0,1,0,.29l-25.15,25.15a.21.21,0,0,1-.29,0L168.4,150.51a.21.21,0,0,1,0-.29Zm25.3-24.72-24.86,24.87,24.86,24.86,24.86-24.86Z"/><path class="cls-16" d="M167.89,148.56l24-24,.61,0-24.65,24.66,0-.62Zm27.61-24,24,24,0,.62-24.65-24.66.61,0Zm24,27.61-24,24-.61,0,24.65-24.66c0,.21,0,.41,0,.62Zm-27.61,24-24-24,0-.62,24.65,24.66Z"/><path class="cls-16" d="M168.18,146.1l21.26-21.25.68-.1-22,22c0-.23.07-.46.1-.69ZM198,124.85l21.25,21.25c0,.23.08.46.11.69l-22-22,.68.11Zm21.26,29.78L198,175.88l-.69.1,22-22c0,.23-.07.46-.1.69Zm-29.78,21.25-21.25-21.25c0-.23-.08-.46-.11-.69l22,22.05Z"/><path class="cls-16" d="M168.82,143.3l17.82-17.82.79-.21-18.82,18.82c.06-.26.13-.53.21-.79Zm32-17.82,17.81,17.82c.08.26.15.53.21.79L200,125.27l.8.21Zm17.81,32-17.82,17.82-.79.21,18.82-18.82c-.06.26-.13.53-.21.79Zm-32,17.82-17.81-17.82c-.08-.26-.15-.53-.21-.79l18.82,18.82Z"/><path class="cls-16" d="M170.05,139.9l13.19-13.19,1-.41-14.6,14.6c.13-.34.27-.67.42-1Zm34.11-13.19,13.19,13.19c.15.33.29.66.42,1l-14.6-14.6,1,.41Zm13.19,34.12L204.16,174l-1,.41,14.6-14.6c-.13.34-.27.67-.42,1ZM183.24,174l-13.19-13.19c-.15-.33-.29-.66-.42-1l14.6,14.6Z"/><path class="cls-16" d="M173.23,134.55l4.69-4.68a21.89,21.89,0,0,1,1.92-1.34l-8,8c.43-.67.88-1.31,1.36-1.94Zm36.28-4.66,4.69,4.69c.47.62.92,1.26,1.34,1.92l-8-8c.66.42,1.31.87,1.93,1.35Zm4.66,36.29-4.68,4.68c-.62.48-1.26.92-1.93,1.34l8-8c-.42.67-.88,1.31-1.36,1.94Zm-36.28,4.65-4.69-4.68c-.47-.62-.92-1.26-1.34-1.92l8,8A23.17,23.17,0,0,1,177.89,170.83Z"/><path class="cls-11" d="M187,140.89a1.56,1.56,0,1,0,2.18.38A1.56,1.56,0,0,0,187,140.89Z"/><path class="cls-11" d="M182.16,151.39a1.57,1.57,0,1,0,1.42-1.7A1.57,1.57,0,0,0,182.16,151.39Z"/><path class="cls-11" d="M184,136.53a1.06,1.06,0,1,0,1.47.26A1.06,1.06,0,0,0,184,136.53Z"/><path class="cls-11" d="M176.86,151.86a1.07,1.07,0,0,0,1.15,1,1.05,1.05,0,1,0-1.15-1Z"/><path class="cls-11" d="M187,145.92a2.43,2.43,0,1,0,3.39.59A2.43,2.43,0,0,0,187,145.92Z"/><path class="cls-11" d="M186.51,153.92a2.43,2.43,0,1,0,2.2-2.63A2.43,2.43,0,0,0,186.51,153.92Z"/><path class="cls-11" d="M188,159.53a1.57,1.57,0,1,0,1.42-1.7A1.57,1.57,0,0,0,188,159.53Z"/><path class="cls-11" d="M185.93,164.81a1,1,0,1,0,.95-1.14A1.05,1.05,0,0,0,185.93,164.81Z"/><path class="cls-11" d="M181.3,143.92a1.22,1.22,0,1,0,1.69.3A1.22,1.22,0,0,0,181.3,143.92Z"/><path class="cls-11" d="M181.92,157.88a1.21,1.21,0,0,0,2.42-.22,1.23,1.23,0,0,0-1.32-1.1A1.21,1.21,0,0,0,181.92,157.88Z"/><path class="cls-11" d="M177.42,142.32a.75.75,0,1,0,1.05.18A.75.75,0,0,0,177.42,142.32Z"/><path class="cls-11" d="M178.59,160.44a.76.76,0,0,0,.81.68.75.75,0,0,0,.68-.82.74.74,0,0,0-.81-.67A.75.75,0,0,0,178.59,160.44Z"/><path class="cls-11" d="M200.36,159.84a1.56,1.56,0,1,1,.38-2.18A1.56,1.56,0,0,1,200.36,159.84Z"/><path class="cls-11" d="M205.24,149.34a1.57,1.57,0,1,1-3.12.27,1.57,1.57,0,0,1,3.12-.27Z"/><path class="cls-11" d="M203.42,164.2a1.06,1.06,0,1,1,.25-1.47A1.06,1.06,0,0,1,203.42,164.2Z"/><path class="cls-11" d="M210.54,148.87a1.07,1.07,0,0,1-1,1.14,1.05,1.05,0,1,1,1-1.14Z"/><path class="cls-11" d="M195.62,158.15a2.43,2.43,0,1,1,.59-3.38A2.42,2.42,0,0,1,195.62,158.15Z"/><path class="cls-11" d="M201.41,152.6a2.43,2.43,0,1,1-2.64-2.21A2.44,2.44,0,0,1,201.41,152.6Z"/><path class="cls-11" d="M195.56,164.21a1.21,1.21,0,1,1,.29-1.69A1.21,1.21,0,0,1,195.56,164.21Z"/><path class="cls-11" d="M206.62,155.68a1.21,1.21,0,1,1-1.31-1.1A1.2,1.2,0,0,1,206.62,155.68Z"/><path class="cls-11" d="M195.75,168.41a.75.75,0,0,1-1-.19.75.75,0,0,1,1.22-.86A.75.75,0,0,1,195.75,168.41Z"/><path class="cls-11" d="M210.35,157.61a.75.75,0,1,1-.81-.68A.75.75,0,0,1,210.35,157.61Z"/><path class="cls-11" d="M191.78,142.58a2.43,2.43,0,1,1-.59,3.38A2.41,2.41,0,0,1,191.78,142.58Z"/><path class="cls-11" d="M197,140.06a1.58,1.58,0,0,1,2.18.38,1.56,1.56,0,1,1-2.18-.38Z"/><path class="cls-11" d="M199.72,135.1a1.06,1.06,0,1,1-.25,1.47A1.06,1.06,0,0,1,199.72,135.1Z"/><path class="cls-11" d="M191.84,136.52a1.21,1.21,0,1,1-.29,1.69A1.21,1.21,0,0,1,191.84,136.52Z"/><path class="cls-11" d="M191.65,132.32a.75.75,0,0,1,1,.19.75.75,0,0,1-1.22.86A.75.75,0,0,1,191.65,132.32Z"/><path class="cls-11" d="M200.89,146.81a2.43,2.43,0,1,0-2.2,2.63A2.43,2.43,0,0,0,200.89,146.81Z"/><path class="cls-11" d="M205.48,142.85a1.21,1.21,0,0,0-1.32-1.1,1.23,1.23,0,0,0-1.1,1.32,1.21,1.21,0,0,0,1.32,1.09A1.2,1.2,0,0,0,205.48,142.85Z"/><path class="cls-11" d="M208.81,140.29a.76.76,0,0,0-.81-.68.75.75,0,0,0-.68.82.74.74,0,0,0,.81.67A.75.75,0,0,0,208.81,140.29Z"/><path class="cls-13" d="M180.4,172.9a.31.31,0,0,1-.11-.42.29.29,0,0,1,.41-.1,25.49,25.49,0,0,0,21.88,2,25.56,25.56,0,0,0,15.09-32.85,23.71,23.71,0,0,0-1-2.3A24.09,24.09,0,0,0,215.5,137a.3.3,0,0,1,.1-.41.3.3,0,0,1,.42.1c.44.71.84,1.46,1.22,2.23s.7,1.54,1,2.35A26.17,26.17,0,0,1,180.4,172.9Zm32.47-40.36a26.17,26.17,0,0,0-43.71,26.91.3.3,0,1,0,.57-.21A25.57,25.57,0,0,1,212.43,133a.3.3,0,0,0,.42,0A.31.31,0,0,0,212.87,132.54Z"/><path class="cls-13" d="M167.12,132.54a.3.3,0,1,1,.45.39A32.31,32.31,0,0,0,160.72,146a30.56,30.56,0,0,0,.35,16.31,28.57,28.57,0,0,0,8.71,13.48,29.09,29.09,0,0,0,11.88,6.08.3.3,0,0,1,.22.36.31.31,0,0,1-.37.22,29.63,29.63,0,0,1-12.12-6.2,29.13,29.13,0,0,1-8.9-13.76,31.24,31.24,0,0,1-.35-16.63A32.73,32.73,0,0,1,167.12,132.54Z"/><path class="cls-19" d="M138,187.52c-.71,0-2.3-.11-2.86,1.11-1.19,2.55-1,8.67-.16,12,3.92,16,14.39,15.87,10.46-1.7-.39-1.73-1.85-6.83-2.37-8.19C141.37,186.38,140.06,187.52,138,187.52Z"/><path class="cls-19" d="M125.79,187.52c.71,0,2.3-.11,2.87,1.11,1.19,2.55,1,8.67.16,12-3.93,16-14.39,15.87-10.47-1.7.39-1.73,1.85-6.83,2.38-8.19C122.43,186.38,123.73,187.52,125.79,187.52Z"/><path class="cls-20" d="M139.12,26.43a.26.26,0,0,1-.37,0,.27.27,0,0,1,0-.38,2.69,2.69,0,0,1,1.09-.64,5.37,5.37,0,0,1,5.08,1.17,4.87,4.87,0,0,1,1.27,2.05,10.92,10.92,0,0,1-.36,7.26.25.25,0,0,1-.35.13.26.26,0,0,1-.14-.35,10.28,10.28,0,0,0,.35-6.88A4.3,4.3,0,0,0,144.54,27a4.66,4.66,0,0,0-2.29-1.15,4.53,4.53,0,0,0-2.25.1A2.19,2.19,0,0,0,139.12,26.43Z"/><path class="cls-21" d="M138,185.26c-.71,0-2.3-.11-2.86,1.11-1.19,2.55-1,8.66-.16,12,3.92,16,14.39,15.86,10.46-1.7-.39-1.74-1.85-6.83-2.37-8.19C141.37,184.12,140.06,185.26,138,185.26Z"/><path class="cls-22" d="M138.44,186.83c-2,0-3.39,1.5-2.87,4.19,1.22,6.43,8.56,6.44,7.34,0C142.39,188.33,140.46,186.83,138.44,186.83Z"/><path class="cls-21" d="M125.79,185.26c.71,0,2.3-.11,2.87,1.11,1.19,2.55,1,8.66.16,12-3.93,16-14.39,15.86-10.47-1.7.39-1.74,1.85-6.83,2.38-8.19C122.43,184.12,123.73,185.26,125.79,185.26Z"/><path class="cls-22" d="M125.36,186.83c2,0,3.38,1.5,2.87,4.19-1.23,6.43-8.57,6.44-7.34,0C121.4,188.33,123.33,186.83,125.36,186.83Z"/><path class="cls-23" d="M151.14,114.81c5.91,23.33-7.45,23.08-19.23,23.08s-25.13.25-19.23-23.08C112.68,114.81,133.4,111.07,151.14,114.81Z"/><path class="cls-22" d="M125.47,51.76c.26,2.06.34,7.63.46,10.28.19,4,12.15,3,12.09.13-.05-2.44-.06-8.31-.06-9.68C138,49.93,125.47,51.76,125.47,51.76Z"/><path class="cls-24" d="M125.62,53.62c0,.74.11,2.46.15,3.34,1.15,3.49,10.9,3.95,12.2.27,0-1.56,0-3.83,0-4.55Z"/><path class="cls-22" d="M130.67,24.49c-17.87,1-11.81,34.26,2.24,32.94S149.48,23.45,130.67,24.49Z"/><path class="cls-25" d="M130.67,24.49c-8.52.47-11.6,8.28-11,16.18.63.09,1.76,2.95,2.33,2,1.66-2.62,1.2-5.45,1.58-5.76,3-2.42,9.63-1.7,13.22-3.38.74,1.18,1.91,2.07,3.68,3.66,1.44,1.9,1.21,5.23,2.89,8.6C145.77,36.09,142.3,23.84,130.67,24.49Z"/><path class="cls-20" d="M121.38,48.25c1.08-4.88,1.48-9.15,1.2-11.61-.93-8-5.92-4.23-5,2A34.79,34.79,0,0,0,121.38,48.25Z"/><path class="cls-22" d="M118.16,44.11c-2.93,2,.28,6.73,2.54,6.15C124.07,49.41,121.35,42,118.16,44.11Z"/><path class="cls-25" d="M118.24,46.84a.17.17,0,0,1-.15.19.17.17,0,0,1-.18-.15,2,2,0,0,1,.39-1.63.9.9,0,0,1,.61-.27,1.36,1.36,0,0,1,.71.18,3.67,3.67,0,0,1,1.57,2.43.16.16,0,0,1-.12.2.14.14,0,0,1-.11,0,1.56,1.56,0,0,0-.86-.15.37.37,0,0,0-.18.08.4.4,0,0,0-.12.16,1.28,1.28,0,0,0,0,.76.17.17,0,1,1-.33.07,1.59,1.59,0,0,1,0-1,.7.7,0,0,1,.21-.29.67.67,0,0,1,.33-.15,1.43,1.43,0,0,1,.75.06,3.14,3.14,0,0,0-1.32-1.9,1,1,0,0,0-.53-.14.6.6,0,0,0-.4.17A1.65,1.65,0,0,0,118.24,46.84Z"/><path class="cls-26" d="M116.61,66.39c-1.49,5.58.85,33.36.85,47.33l28.76.35c1.4-13.86,2.4-39.2,1.43-45.9-.54-3.78-.22-6.87-4.68-8-.61-.15-4.91-1.55-5.55-1.66-1.75-.29-3.67,4.19-5.51,4.21-2.06,0-3.9-4.88-5.8-4.5-.58.12-2.91,2.23-3.46,2.37C118.75,61.66,117.24,64,116.61,66.39Z"/><path class="cls-27" d="M119.65,101.18c1,2-2.1,12.52-7.76,11.67-2-1.41-19.84-9.55-18-17.21,3.28-13.52,9-24.42,16.37-30.25,5.08-4,8-5,11.69-5.39A84.56,84.56,0,0,1,110,93.72C115.8,98.61,116.87,99.07,119.65,101.18Z"/><path class="cls-28" d="M127,42a1.36,1.36,0,0,1,1.38,1.34,1.31,1.31,0,1,1-2.61.14A1.36,1.36,0,0,1,127,42Z"/><path class="cls-28" d="M125.28,40.18a.44.44,0,0,1-.63,0,.46.46,0,0,1,0-.64s2.13-2,4.31-.34a.47.47,0,0,1,.09.63.45.45,0,0,1-.63.09A2.58,2.58,0,0,0,125.28,40.18Z"/><path class="cls-25" d="M133.86,49c0-.65-.68-.2-1.65-.21s-1.82-.4-1.83.26.76,1.2,1.72,1.21S133.85,49.65,133.86,49Z"/><path class="cls-28" d="M137,42a1.42,1.42,0,1,0,1.38,1.34A1.36,1.36,0,0,0,137,42Z"/><path class="cls-28" d="M138.61,39.5a.48.48,0,1,0,.56-.77s-2.47-1.84-4.6.12a.47.47,0,0,0,0,.67.47.47,0,0,0,.67,0C136.76,38.13,138.61,39.5,138.61,39.5Z"/><path class="cls-28" d="M128.36,51.56a.27.27,0,0,1,0-.37.28.28,0,0,1,.38,0,1.06,1.06,0,0,0,.15.15,4.76,4.76,0,0,0,3.13,1h0a4.75,4.75,0,0,0,3.13-1,1.06,1.06,0,0,0,.15-.15.27.27,0,0,1,.37,0,.26.26,0,0,1,0,.37l-.18.19A5.32,5.32,0,0,1,132,52.88h0a5.32,5.32,0,0,1-3.49-1.13Z"/><path class="cls-20" d="M139.42,25.86c1.3,11.92-13.8,4.05-18.23,12.41-3,5.64-11.13-9.77,7.42-17.36C133.91,18.74,138.7,19.25,139.42,25.86Z"/><path class="cls-22" d="M146.14,44.11c2.93,2-.28,6.73-2.54,6.15C140.23,49.41,143,42,146.14,44.11Z"/><path class="cls-25" d="M146.05,46.84a.18.18,0,0,0,.15.19.17.17,0,0,0,.19-.15,2,2,0,0,0-.39-1.63.9.9,0,0,0-.61-.27,1.36,1.36,0,0,0-.71.18,3.63,3.63,0,0,0-1.57,2.43.16.16,0,0,0,.12.2.11.11,0,0,0,.1,0,1.59,1.59,0,0,1,.87-.15.37.37,0,0,1,.18.08.4.4,0,0,1,.12.16,1.28,1.28,0,0,1,0,.76.17.17,0,1,0,.33.07,1.59,1.59,0,0,0,0-1,.64.64,0,0,0-.22-.29.63.63,0,0,0-.32-.15,1.42,1.42,0,0,0-.75.06,3.14,3.14,0,0,1,1.32-1.9,1,1,0,0,1,.53-.14.6.6,0,0,1,.4.17A1.65,1.65,0,0,1,146.05,46.84Z"/><path class="cls-27" d="M124.79,59c-3.64.49-10.47,2.31-11.73,6.18S109.44,74.3,110.21,84l2.58,32.27,19.12.15,19.13-.15L153.62,84c.77-9.66-1.57-14.86-2.85-18.81-.94-2.88-5.63-5.37-11.77-6.19C139,68.31,124.79,68.09,124.79,59Z"/><path class="cls-29" d="M122.71,59.46a.27.27,0,0,1,.25-.28.26.26,0,0,1,.28.25,9.19,9.19,0,0,0,2.6,6A8.58,8.58,0,0,0,132,67.55,8.49,8.49,0,0,0,138,65.48a9,9,0,0,0,2.57-6,.28.28,0,0,1,.28-.26.28.28,0,0,1,.26.28,9.65,9.65,0,0,1-2.74,6.34,10.44,10.44,0,0,1-12.9,0A9.67,9.67,0,0,1,122.71,59.46Z"/><path class="cls-29" d="M136.24,66.68a.27.27,0,0,1,.38,0,.27.27,0,0,1,0,.37,24.83,24.83,0,0,1-1.93,2.16,19.4,19.4,0,0,1-2.7,2.22.26.26,0,0,1-.29,0A17.79,17.79,0,0,1,129,69.17,23.67,23.67,0,0,1,127.08,67a.27.27,0,0,1,.42-.33,25.5,25.5,0,0,0,1.89,2.11,18,18,0,0,0,2.49,2,18,18,0,0,0,2.48-2A25.23,25.23,0,0,0,136.24,66.68Z"/><path class="cls-27" d="M144.28,101.18c-1,2,2.1,12.52,7.76,11.67,2-1.41,19.83-9.55,18-17.21-3.27-13.52-9-24.42-16.37-30.25-5.07-4-8-5-11.68-5.39a84.56,84.56,0,0,0,11.92,33.72C148.13,98.61,147.05,99.07,144.28,101.18Z"/><path class="cls-29" d="M110.17,93.38a.27.27,0,0,1-.23.48,9.78,9.78,0,0,0-8,.07.27.27,0,0,1-.35-.13.26.26,0,0,1,.14-.35A10.31,10.31,0,0,1,110.17,93.38Z"/><path class="cls-29" d="M150.17,116.25a.28.28,0,0,1-.29.25.27.27,0,0,1-.25-.29c.21-2.55.53-5.66.89-9,1.23-11.7,2.81-26.78,1-34.92a.27.27,0,0,1,.2-.32.27.27,0,0,1,.32.2c1.83,8.23.24,23.36-1,35.09C150.7,110.59,150.37,113.67,150.17,116.25Z"/><path class="cls-29" d="M111.72,72a.26.26,0,0,1,.32-.2.26.26,0,0,1,.2.32c-1.87,8.18-.27,23.38,1,35.13.36,3.38.68,6.47.89,9a.27.27,0,0,1-.25.29.28.28,0,0,1-.29-.25c-.2-2.57-.52-5.64-.88-9C111.44,95.46,109.83,80.21,111.72,72Z"/><path class="cls-29" d="M109.5,76a.27.27,0,0,1,.25-.28A.26.26,0,0,1,110,76a12.55,12.55,0,0,0,.48,2.29,11.64,11.64,0,0,0,.84,2.14.26.26,0,0,1-.1.36.28.28,0,0,1-.37-.1,12.58,12.58,0,0,1-.88-2.25A13,13,0,0,1,109.5,76Z"/><path class="cls-29" d="M153.78,93.86a.27.27,0,1,1-.24-.48,10.33,10.33,0,0,1,8.43.07.26.26,0,0,1,.14.35.27.27,0,0,1-.35.13A9.78,9.78,0,0,0,153.78,93.86Z"/><path class="cls-29" d="M153.68,76a.27.27,0,0,1,.29-.25.27.27,0,0,1,.25.28,13,13,0,0,1-.5,2.41,11.83,11.83,0,0,1-.89,2.25.26.26,0,1,1-.46-.26A13.53,13.53,0,0,0,153.68,76Z"/><path class="cls-30" d="M108.83,88.66H155c1.65,0,3.19,1.29,3,2.84l-3.75,30.38H109.58L105.83,91.5C105.64,90,107.18,88.66,108.83,88.66Z"/><path class="cls-31" d="M153.21,121.88h-42.6l-3.45-29.06A2.72,2.72,0,0,1,110,90h43.82a2.73,2.73,0,0,1,2.85,2.8Z"/><path class="cls-32" d="M153.21,121.88h-42.6l-1.14-9.66c24,3.15,38.28-3.93,46.36-12.31Z"/><polygon class="cls-33" points="131.91 102.93 135.48 105.95 131.91 108.97 128.35 105.95 131.91 102.93"/><path class="cls-20" d="M143.14,46c-1.2-3.62-.45-6.91-1.6-9-3-3.61-4.07-4.19-3.41-9.39.37-2.88,3.67-2.37,5.63-.38C146.71,30.17,148.06,37.17,143.14,46Z"/><path class="cls-27" d="M122.55,28.6c5.37.95,11.64-.56,15.51-2.32.48-.22.93-.44,1.33-.66a9.62,9.62,0,0,0-.62-2.5c-5.42,2.94-12,2.83-15.37.55a17.41,17.41,0,0,0-4.19,3.94,14.82,14.82,0,0,0,3.34,1Z"/><polygon class="cls-34" points="125.82 56.7 131.91 62.75 128.72 66.89 124.9 58.84 125.82 56.7"/><polygon class="cls-34" points="138.01 56.98 131.91 62.75 135.11 66.89 138.57 59.4 138.01 56.98"/><path class="cls-35" d="M130,127.15v63.93a12,12,0,0,1-10.16,0l-8.34-64.14C111.46,111.88,130,112.3,130,127.15Z"/><path class="cls-35" d="M133.16,127.15v63.93a13.3,13.3,0,0,0,10.74,0l8.82-64.14C152.72,111.88,133.16,112.3,133.16,127.15Z"/><path class="cls-20" d="M138.54,28.31a.28.28,0,0,1,.35-.15.26.26,0,0,1,.14.35c-.12.3-.24.64-.35,1-.78,2.28-1.7,5-8.85,5.41-7.89.48-8.68,2.65-8.68,2.66a.28.28,0,0,1-.35.15.28.28,0,0,1-.15-.35s.91-2.49,9.14-3c6.8-.42,7.65-2.93,8.38-5C138.29,29,138.4,28.64,138.54,28.31Z"/><path class="cls-23" d="M126.78,121.88a18.93,18.93,0,0,1,.24,3v35h0v11.16h0v12.5h0V192c.34-.06.68-.14,1-.23a13.52,13.52,0,0,0,1.43-.5l.48-.2V183.6h0v-11.9h0V166h0V127.15a14.18,14.18,0,0,0-.94-5.27l0-.08a9.72,9.72,0,0,0-3.91-4.7A13.42,13.42,0,0,1,126.78,121.88Z"/><path class="cls-23" d="M134.15,121.88a13.39,13.39,0,0,0-1,5.27v43.62h0v.94h0v11.88h0v7.48c.38.16.76.31,1.14.43a11.33,11.33,0,0,0,1.46.4V183.6h0V160.11h0V126.41a14.59,14.59,0,0,1,.67-4.53,10.27,10.27,0,0,1,4.11-5.57l.38-.23a6.76,6.76,0,0,0-.85.24A9.73,9.73,0,0,0,134.15,121.88Z"/></g></svg>