<svg xmlns="http://www.w3.org/2000/svg" viewBox="0 0 146.46 122.95"><defs><style>.cls-1{isolation:isolate;}.cls-2{opacity:0.68;}.cls-3{fill:#e28014;mix-blend-mode:soft-light;}.cls-4{fill:#ef9d59;}.cls-5{fill:#e88e18;}.cls-6{fill:#dd2828;}.cls-7{fill:#e02828;}.cls-8{fill:#fff;}</style></defs><g class="cls-1"><g id="OBJECTS"><g class="cls-2"><path class="cls-3" d="M100.75,75.13a132.35,132.35,0,0,1-3,29.57c-.56,2.44-1.21,4.87-2,7.27A60.39,60.39,0,0,1,93,119.1a31.77,31.77,0,0,1-4.18,6.72,15,15,0,0,1-3.15,2.86,9.81,9.81,0,0,1-2.07,1,8,8,0,0,1-2.42.45,8,8,0,0,1-2.44-.33,9.86,9.86,0,0,1-2.13-1,14.79,14.79,0,0,1-3.25-2.79A30.76,30.76,0,0,1,69,119.45a58.78,58.78,0,0,1-2.89-7.08c-.82-2.4-1.5-4.82-2.09-7.25A119.73,119.73,0,0,1,61.5,90.41c-.55-4.93-.84-9.88-.9-14.83,0-2.47,0-4.94.14-7.42s.27-4.94.49-7.41A129.75,129.75,0,0,1,63.38,46c.52-2.45,1.12-4.88,1.85-7.29a59.05,59.05,0,0,1,2.63-7.15c.54-1.17,1.12-2.33,1.78-3.46a24.6,24.6,0,0,1,2.29-3.29A13.67,13.67,0,0,1,75.07,22a8.91,8.91,0,0,1,2.09-1,7.42,7.42,0,0,1,2.4-.34,7.87,7.87,0,0,1,2.38.41,9.89,9.89,0,0,1,2.07,1,15.36,15.36,0,0,1,3.25,2.75,32.21,32.21,0,0,1,4.47,6.57,57.22,57.22,0,0,1,3.08,7c.87,2.39,1.6,4.8,2.24,7.22A121,121,0,0,1,100.75,75.13Zm-1,0A135.15,135.15,0,0,0,99,60.36a111.23,111.23,0,0,0-2.58-14.63c-.6-2.42-1.3-4.83-2.13-7.2a58.72,58.72,0,0,0-3-7A30.78,30.78,0,0,0,87,25a15.69,15.69,0,0,0-3.14-2.73,9.63,9.63,0,0,0-2-1,7.48,7.48,0,0,0-2.27-.42,7,7,0,0,0-2.28.35,8.51,8.51,0,0,0-2,1,13.33,13.33,0,0,0-3,2.8A23.68,23.68,0,0,0,70,28.23a36.84,36.84,0,0,0-1.71,3.45,56.49,56.49,0,0,0-2.52,7.13c-.69,2.4-1.26,4.83-1.74,7.27a126.55,126.55,0,0,0-1.93,14.71c-.38,4.93-.49,9.86-.46,14.79s.26,9.86.76,14.77A120.34,120.34,0,0,0,64.83,105c.56,2.42,1.22,4.83,2,7.22a57,57,0,0,0,2.81,7,29.93,29.93,0,0,0,4.18,6.58,13.81,13.81,0,0,0,3.11,2.71,8.41,8.41,0,0,0,2,.92,6.71,6.71,0,0,0,2.24.31,7.17,7.17,0,0,0,2.21-.43,9,9,0,0,0,1.93-1,14.19,14.19,0,0,0,3-2.8,30.37,30.37,0,0,0,4.05-6.65,58.44,58.44,0,0,0,2.69-7.08c.75-2.39,1.37-4.81,1.9-7.24a120.58,120.58,0,0,0,2.21-14.69C99.63,85,99.83,80.06,99.8,75.13Z" transform="translate(-9.35 -20.35)"/><path class="cls-3" d="M133.09,74.94a57.05,57.05,0,0,1-3.21,18.91,55.22,55.22,0,0,1-27.52,30.85A54.22,54.22,0,0,1,79,130.2a54.52,54.52,0,0,1-41-18.49A55.57,55.57,0,0,1,27.55,94.44,54.41,54.41,0,0,1,25,85.09a58.76,58.76,0,0,1-.89-9.53A57.66,57.66,0,0,1,24.91,66a54.87,54.87,0,0,1,2.44-9.38A55.77,55.77,0,0,1,37.53,39.27a55.1,55.1,0,0,1,7.8-7.42,53.75,53.75,0,0,1,20.81-10,53.92,53.92,0,0,1,45.29,9.67,55.41,55.41,0,0,1,18.22,24.59A56.91,56.91,0,0,1,133.09,74.94ZM132,75a56.19,56.19,0,0,0-3.29-18.67,55,55,0,0,0-10-17.14A54.18,54.18,0,0,0,111,31.81,52.25,52.25,0,0,0,90.41,22a54,54,0,0,0-12.08-1.34A52.25,52.25,0,0,0,45.8,32.2,54.5,54.5,0,0,0,28.42,56.87a56,56,0,0,0-2.32,9.26A55.46,55.46,0,0,0,26.21,85a56,56,0,0,0,2.44,9.24,54.85,54.85,0,0,0,10,17.12,53.4,53.4,0,0,0,7.67,7.32,51.48,51.48,0,0,0,20.57,9.81,51.66,51.66,0,0,0,24.1-.13,51.7,51.7,0,0,0,20.48-10,53.34,53.34,0,0,0,7.6-7.4,54.59,54.59,0,0,0,9.83-17.24A56,56,0,0,0,132,75Z" transform="translate(-9.35 -20.35)"/><path class="cls-3" d="M15,53.87l16.35-.2,16.35-.15,32.7-.23,32.71-.13,16.35,0,16.35,0s.05,0,.05,0a0,0,0,0,1-.05,0l-16.35.2-16.35.16-32.7.23L47.69,54,31.33,54H15a.07.07,0,0,1-.07-.06S14.94,53.87,15,53.87Z" transform="translate(-9.35 -20.35)"/><path class="cls-3" d="M33.83,32.63c3.87-.07,7.74-.11,11.61-.17l11.61-.12c3.87-.05,7.74-.07,11.61-.1l11.6-.08,23.22-.08h11.61c3.87,0,7.74,0,11.61,0a0,0,0,0,1,0,0s0,0,0,0c-3.87.08-7.74.12-11.61.18l-11.61.13-23.21.18-11.61,0c-3.87,0-7.74,0-11.61,0H45.44l-11.61,0a.07.07,0,0,1-.07-.06S33.79,32.63,33.83,32.63Z" transform="translate(-9.35 -20.35)"/><path class="cls-3" d="M9.42,75l17.77-.2L45,74.67l35.54-.24,35.55-.15,17.77,0h17.77a0,0,0,0,1,0,0s0,0,0,0l-17.77.21-17.77.17L80.51,75,45,75.1l-17.77.05H9.42s-.07,0-.07,0A.07.07,0,0,1,9.42,75Z" transform="translate(-9.35 -20.35)"/><path class="cls-3" d="M15.22,96.14l16.35-.2,16.35-.15,32.7-.23,32.71-.13,16.35,0H146s.05,0,.05,0,0,0-.05,0l-16.35.2-16.35.16-32.7.23-32.71.14-16.35,0H15.22a.07.07,0,0,1-.07-.06S15.18,96.14,15.22,96.14Z" transform="translate(-9.35 -20.35)"/><path class="cls-3" d="M129.52,116.87l-92.87.53a.2.2,0,1,1,0-.39l92.87-.52c.14,0,.25.08.25.19A.23.23,0,0,1,129.52,116.87Z" transform="translate(-9.35 -20.35)"/></g><rect class="cls-4" x="74.88" y="80.65" width="80.91" height="62.43" rx="27.61" transform="translate(-9.98 -19.69) rotate(-0.32)"/><path class="cls-5" d="M147.67,142.89l-71.33.41a5.1,5.1,0,0,1-5-5.15L71,86.07a5.1,5.1,0,0,1,5-5.2l71.33-.4a5.1,5.1,0,0,1,5.06,5.14l.29,52.08A5.09,5.09,0,0,1,147.67,142.89Z" transform="translate(-9.35 -20.35)"/><path class="cls-6" d="M82.64,110.31a1.38,1.38,0,0,0-1.21.78,5,5,0,0,0-.56,2.14l2.78,0V115l-2.8,0c.13,2,.76,3.06,1.91,3.06a3.64,3.64,0,0,0,1.79-.57v1.83a3.53,3.53,0,0,1-2,.55,3.13,3.13,0,0,1-2.79-1.47,7.61,7.61,0,0,1-1-4.18,7.47,7.47,0,0,1,1-4.2,3.15,3.15,0,0,1,2.76-1.52,4,4,0,0,1,1.15.16,4.43,4.43,0,0,1,1.16.57l-.67,1.68a4.57,4.57,0,0,0-.71-.42A1.73,1.73,0,0,0,82.64,110.31Z" transform="translate(-9.35 -20.35)"/><path class="cls-7" d="M81.28,104v-1.09a8.44,8.44,0,0,1-3-.67.64.64,0,0,1-.34-.75l.27-1a.62.62,0,0,1,.84-.41,7,7,0,0,0,2.75.6c1.06,0,1.85-.36,1.86-1.12s-.61-1.1-2.09-1.51C79.49,97.4,78,96.44,78,94.53c0-1.72,1.24-3,3.37-3.38V90.06a.63.63,0,0,1,.62-.64h.62a.63.63,0,0,1,.62.64v1a8,8,0,0,1,2.36.44.64.64,0,0,1,.38.77l-.25.94a.6.6,0,0,1-.81.42,6.51,6.51,0,0,0-2.31-.44c-1.27,0-1.63.54-1.63,1s.76,1,2.4,1.53c2.34.73,3.31,1.74,3.31,3.54,0,1.65-1.2,3.13-3.51,3.49V104a.62.62,0,0,1-.62.63h-.62A.62.62,0,0,1,81.28,104Z" transform="translate(-9.35 -20.35)"/><path class="cls-6" d="M82.6,129.74l1.09-3.09,2.39.06-2.2,7,0,4.38L81.49,138l0-4.2-2.37-7.2,2.42.13Z" transform="translate(-9.35 -20.35)"/><rect class="cls-6" x="78.95" y="131.29" width="7.46" height="0.5" rx="0.22" transform="translate(-10.09 -19.88) rotate(-0.32)"/><rect class="cls-6" x="78.95" y="132.13" width="7.46" height="0.5" rx="0.22" transform="translate(-10.1 -19.88) rotate(-0.32)"/><rect class="cls-6" x="78.92" y="124.98" width="3.24" height="2.68" rx="1.18" transform="translate(-10.06 -19.89) rotate(-0.32)"/><rect class="cls-6" x="83" y="124.95" width="3.38" height="2.68" rx="1.18" transform="translate(-10.06 -19.87) rotate(-0.32)"/><path class="cls-6" d="M81.33,135.5H84a.36.36,0,0,1,.36.36v.09a.33.33,0,0,1-.33.33H81.44a.36.36,0,0,1-.36-.36v-.17a.26.26,0,0,1,.26-.26Z" transform="translate(-10.12 -19.88) rotate(-0.32)"/><path class="cls-6" d="M81.84,136.59h1.38a1.12,1.12,0,0,1,1.12,1.12v.55a0,0,0,0,1,0,0H81.09a0,0,0,0,1,0,0v-.92A.75.75,0,0,1,81.84,136.59Z" transform="translate(-10.12 -19.88) rotate(-0.32)"/><path class="cls-8" d="M115.61,88.22l-27.11.15a1.16,1.16,0,0,1-1.15-1.16v-.47a1.16,1.16,0,0,1,1.13-1.17l27.11-.16a1.16,1.16,0,0,1,1.15,1.17V87A1.15,1.15,0,0,1,115.61,88.22Z" transform="translate(-9.35 -20.35)"/><path class="cls-8" d="M147.42,88,122,88.18A1.15,1.15,0,0,1,120.8,87v-.46a1.15,1.15,0,0,1,1.13-1.18l25.47-.15a1.17,1.17,0,0,1,1.15,1.17v.46A1.15,1.15,0,0,1,147.42,88Z" transform="translate(-9.35 -20.35)"/><rect class="cls-8" x="88.26" y="93.83" width="5.05" height="8.58" rx="2.23" transform="translate(-9.9 -19.83) rotate(-0.32)"/><rect class="cls-8" x="95.24" y="93.79" width="5.05" height="8.58" rx="2.23" transform="translate(-9.9 -19.79) rotate(-0.32)"/><rect class="cls-8" x="102.54" y="93.75" width="5.05" height="8.58" rx="2.23" transform="translate(-9.9 -19.75) rotate(-0.32)"/><rect class="cls-8" x="109.41" y="93.58" width="5.05" height="8.58" rx="2.23" transform="translate(-9.9 -19.71) rotate(-0.32)"/><rect class="cls-8" x="88.47" y="110.71" width="5.05" height="8.58" rx="2.23" transform="translate(-10 -19.83) rotate(-0.32)"/><rect class="cls-8" x="95.45" y="110.68" width="5.05" height="8.58" rx="2.23" transform="translate(-10 -19.79) rotate(-0.32)"/><rect class="cls-8" x="102.75" y="110.63" width="5.05" height="8.58" rx="2.23" transform="translate(-10 -19.75) rotate(-0.32)"/><rect class="cls-8" x="109.62" y="110.46" width="5.05" height="8.58" rx="2.23" transform="translate(-10 -19.71) rotate(-0.32)"/><rect class="cls-8" x="88.53" y="128.03" width="5.05" height="8.58" rx="2.23" transform="translate(-10.09 -19.83) rotate(-0.32)"/><rect class="cls-8" x="95.51" y="127.99" width="5.05" height="8.58" rx="2.23" transform="matrix(1, -0.01, 0.01, 1, -10.09, -19.79)"/><rect class="cls-8" x="102.81" y="127.95" width="5.05" height="8.58" rx="2.23" transform="translate(-10.09 -19.75) rotate(-0.32)"/><rect class="cls-8" x="109.68" y="127.77" width="5.05" height="8.58" rx="2.23" transform="translate(-10.09 -19.71) rotate(-0.32)"/><rect class="cls-8" x="120.35" y="93.5" width="5.05" height="8.58" rx="2.23" transform="translate(-9.9 -19.65) rotate(-0.32)"/><rect class="cls-8" x="127.33" y="93.46" width="5.05" height="8.58" rx="2.23" transform="translate(-9.9 -19.61) rotate(-0.32)"/><rect class="cls-8" x="134.62" y="93.42" width="5.05" height="8.58" rx="2.23" transform="translate(-9.9 -19.57) rotate(-0.32)"/><rect class="cls-8" x="141.49" y="93.25" width="5.05" height="8.58" rx="2.23" transform="translate(-9.9 -19.53) rotate(-0.32)"/><rect class="cls-8" x="120.56" y="110.39" width="5.05" height="8.58" rx="2.23" transform="translate(-9.99 -19.65) rotate(-0.32)"/><rect class="cls-8" x="127.54" y="110.35" width="5.05" height="8.58" rx="2.23" transform="translate(-9.99 -19.61) rotate(-0.32)"/><rect class="cls-8" x="134.83" y="110.3" width="5.05" height="8.58" rx="2.23" transform="translate(-9.99 -19.57) rotate(-0.32)"/><rect class="cls-8" x="141.7" y="110.13" width="5.05" height="8.58" rx="2.23" transform="translate(-9.99 -19.53) rotate(-0.32)"/><rect class="cls-8" x="120.62" y="127.7" width="5.05" height="8.58" rx="2.23" transform="translate(-10.09 -19.65) rotate(-0.32)"/><rect class="cls-8" x="127.6" y="127.66" width="5.05" height="8.58" rx="2.23" transform="translate(-10.09 -19.61) rotate(-0.32)"/><rect class="cls-8" x="134.89" y="127.62" width="5.05" height="8.58" rx="2.23" transform="matrix(1, -0.01, 0.01, 1, -10.09, -19.57)"/><rect class="cls-8" x="141.76" y="127.44" width="5.05" height="8.58" rx="2.23" transform="translate(-10.09 -19.53) rotate(-0.32)"/></g></g></svg>