<svg id="katman_1" data-name="katman 1" xmlns="http://www.w3.org/2000/svg" xmlns:xlink="http://www.w3.org/1999/xlink" viewBox="0 0 540.54 166.93"><defs><style>.cls-1{fill:#fff;fill-rule:evenodd;}.cls-2{mask:url(#mask);}.cls-3{mask:url(#mask-5);}</style><mask id="mask" x="0" y="-6.18" width="540.54" height="164.81" maskUnits="userSpaceOnUse"><g transform="translate(-129.46 -216.52)"><g id="mask-2"><polygon id="path-1" class="cls-1" points="129.46 375.15 670 375.15 670 210.34 129.46 210.34 129.46 375.15"/></g></g></mask><mask id="mask-5" x="0" y="-6.18" width="540.54" height="164.81" maskUnits="userSpaceOnUse"><g transform="translate(-129.46 -216.52)"><g id="mask-2-6" data-name="mask-2"><polygon id="path-1-5" data-name="path-1" class="cls-1" points="129.46 375.15 670 375.15 670 210.34 129.46 210.34 129.46 375.15"/></g></g></mask></defs><g id="定稿"><g id="关于页面_首页相关" data-name="关于页面/首页相关"><g id="bg"><g id="导航"><g id="logo"><path id="Fill-1" class="cls-1" d="M129.46,216.52l67.16,166.93L290.2,270.83l-33.13-31.11Zm23.81,13.28,92,16.72-35.7,29.39ZM146.89,236l58.65,48.06L196.37,359ZM255,249.94l19.52,18.33-53.39,9.55ZM214,288l59.12-10.57-67.81,81.61Z" transform="translate(-129.46 -216.52)"/><g id="编组"><path id="Fill-2" class="cls-1" d="M473.45,296.3c4.32-4.07,6.51-9.67,6.51-16.64,0-25.25-22.75-25.24-23-25.25H409v79.33h7.9V262.32h39.81c1.2.06,15.31,1.12,15.31,17.34,0,4.75-1.31,8.3-4,10.86-5.13,4.87-13.68,4.48-13.75,4.48H422.87v38.75h7.9V302.9H454L472.62,334h9.2l-19.16-32.08a24.08,24.08,0,0,0,10.79-5.63" transform="translate(-129.46 -216.52)"/><g class="cls-2"><polygon id="Fill-4" class="cls-1" points="215.75 117.22 223.65 117.22 223.65 62.64 215.75 62.64 215.75 117.22"/></g><g class="cls-2"><polygon id="Fill-6" class="cls-1" points="190.79 45.7 261.58 45.7 261.58 37.89 190.79 37.89 190.79 45.7"/></g><g class="cls-2"><polygon id="Fill-7" class="cls-1" points="229.57 117.22 237.47 117.22 237.47 62.64 229.57 62.64 229.57 117.22"/></g><g class="cls-2"><polygon id="Fill-8" class="cls-1" points="483.09 116.87 491.09 116.87 491.09 88.07 483.09 88.07 483.09 116.87"/></g><g class="cls-3"><polygon id="Fill-9" class="cls-1" points="532.55 38.42 532.55 102.1 468.74 30.1 468.74 116.71 476.74 116.71 476.74 53.61 540.54 125.61 540.54 38.42 532.55 38.42"/></g><g class="cls-2"><path id="Fill-10" class="cls-1" d="M541,326a32.23,32.23,0,1,1,32.6-32.22A32.45,32.45,0,0,1,541,326m0-72.35c-22.38,0-40.59,18-40.59,40.13s18.21,40.12,40.59,40.12,40.59-18,40.59-40.12S563.39,253.67,541,253.67" transform="translate(-129.46 -216.52)"/></g><g class="cls-2"><path id="Fill-11" class="cls-1" d="M541,287.47a5.43,5.43,0,1,0,5.49,5.42,5.46,5.46,0,0,0-5.49-5.42" transform="translate(-129.46 -216.52)"/></g></g></g></g></g></g></g></svg>