<svg xmlns="http://www.w3.org/2000/svg" xmlns:xlink="http://www.w3.org/1999/xlink" viewBox="0 0 59.23 62.3"><defs><style>.cls-1{isolation:isolate;}.cls-2{fill:#dd3f18;}.cls-3{fill:#ef7f18;}.cls-4{fill:#fff;}.cls-5{fill:#ef8220;}.cls-6{fill:#f4741e;}.cls-7{fill:#d92400;}.cls-8{fill:url(#linear-gradient);}.cls-9{fill:#ff832b;opacity:0.8;}.cls-15,.cls-21,.cls-9{mix-blend-mode:screen;}.cls-10,.cls-12{fill:#ebc68d;}.cls-10,.cls-11,.cls-17,.cls-19,.cls-22{mix-blend-mode:multiply;}.cls-11{opacity:0.7;}.cls-13{fill:url(#linear-gradient-2);}.cls-14{fill:url(#linear-gradient-3);}.cls-16,.cls-21{fill:#45778a;}.cls-17{fill:#e4cdc0;}.cls-18{fill:url(#linear-gradient-4);}.cls-20{fill:#0e3655;}.cls-22{fill:#9fcbd6;}</style><linearGradient id="linear-gradient" x1="8.13" y1="41.35" x2="54.56" y2="41.35" gradientUnits="userSpaceOnUse"><stop offset="0.22" stop-color="#fd6120"/><stop offset="0.43" stop-color="#ef521d"/><stop offset="0.74" stop-color="#e24419"/><stop offset="1" stop-color="#dd3f18"/></linearGradient><linearGradient id="linear-gradient-2" x1="18.53" y1="35.94" x2="44.16" y2="61.56" gradientUnits="userSpaceOnUse"><stop offset="0" stop-color="#65cfe5"/><stop offset="0.01" stop-color="#64cee4"/><stop offset="0.24" stop-color="#4ab9d2"/><stop offset="0.48" stop-color="#38abc5"/><stop offset="0.73" stop-color="#2da2be"/><stop offset="1" stop-color="#299fbb"/></linearGradient><linearGradient id="linear-gradient-3" x1="18.53" y1="21.64" x2="44.16" y2="47.27" xlink:href="#linear-gradient-2"/><linearGradient id="linear-gradient-4" x1="3.54" y1="41.8" x2="16.37" y2="41.8" xlink:href="#linear-gradient"/></defs><g class="cls-1"><g id="Layer_1" data-name="Layer 1"><rect class="cls-2" x="5.32" y="23.72" width="46.43" height="34.54" rx="3.4"/><rect class="cls-3" x="26.29" y="13.03" width="28.38" height="15.59" transform="translate(-0.91 39.76) rotate(-51.81)"/><path class="cls-4" d="M27.67,26.79l10,7.89L53.28,14.85,43.27,7ZM50.13,14.2a1.43,1.43,0,0,0,.24,2l.18.12L38.49,31.66l-.15-.14a1.44,1.44,0,0,0-2,.24,1.74,1.74,0,0,0-.11.18l-5.52-4.35a1.06,1.06,0,0,0,.15-.15,1.44,1.44,0,0,0-.25-2,.81.81,0,0,0-.18-.12L42.46,10a1.07,1.07,0,0,0,.16.14,1.43,1.43,0,0,0,2-.24.54.54,0,0,0,.11-.18l5.53,4.35A1.06,1.06,0,0,0,50.13,14.2Z"/><path class="cls-4" d="M41.69,20.87a3.11,3.11,0,0,0-.61.23l1.25,1a.91.91,0,0,0,.17-.62.75.75,0,0,0-.3-.48A.58.58,0,0,0,41.69,20.87Z"/><path class="cls-4" d="M38.77,20.43a.56.56,0,0,0,.49.11,2.29,2.29,0,0,0,.59-.2l-1.16-.92a.79.79,0,0,0-.2.59A.77.77,0,0,0,38.77,20.43Z"/><path class="cls-4" d="M36.9,17.88a4.63,4.63,0,1,0,6.5-.77A4.63,4.63,0,0,0,36.9,17.88Zm6.69,3.23a2,2,0,0,1-.24,1.28l.66.52-.58.74-.62-.49a4.81,4.81,0,0,1-.64.64,2.44,2.44,0,0,1-.55.35L41,23.23a1.76,1.76,0,0,0,.43-.24,3.65,3.65,0,0,0,.53-.47l-1.44-1.14a5.77,5.77,0,0,1-.56.27,2.11,2.11,0,0,1-.6.15,1.64,1.64,0,0,1-.62,0,1.94,1.94,0,0,1-.65-.34,1.68,1.68,0,0,1-.69-1.07,2,2,0,0,1,.25-1.22L37,18.62l.58-.74.62.49a2.81,2.81,0,0,1,.51-.48,4.07,4.07,0,0,1,.49-.32l.58.87a2.15,2.15,0,0,0-.35.22,2.6,2.6,0,0,0-.42.35l1.34,1a5,5,0,0,1,.57-.27,2.64,2.64,0,0,1,.61-.17,1.87,1.87,0,0,1,.62,0,1.48,1.48,0,0,1,.64.32A1.88,1.88,0,0,1,43.59,21.11Z"/><rect class="cls-5" x="17.22" y="9.17" width="28.38" height="15.59" transform="translate(14.22 48.25) rotate(-89.58)"/><path class="cls-4" d="M25,29.53l12.75.09L37.88,4.4,25.13,4.3ZM35,5.82a1.46,1.46,0,0,0,1.44,1.45l.21,0-.14,19.5-.22,0a1.44,1.44,0,0,0-1.45,1.43,1.49,1.49,0,0,0,0,.21l-7-.05a1.49,1.49,0,0,0,0-.21,1.45,1.45,0,0,0-1.43-1.46l-.21,0,.14-19.5.21,0A1.44,1.44,0,0,0,28,5.77a1.5,1.5,0,0,0,0-.22l7,.06A1.18,1.18,0,0,0,35,5.82Z"/><path class="cls-4" d="M32.4,16.26a3.07,3.07,0,0,0-.34.55h1.59a.92.92,0,0,0-.24-.59.77.77,0,0,0-.54-.2A.57.57,0,0,0,32.4,16.26Z"/><path class="cls-4" d="M29.82,17.7a.6.6,0,0,0,.46-.21,2.86,2.86,0,0,0,.34-.53H29.14a.79.79,0,0,0,.21.59A.74.74,0,0,0,29.82,17.7Z"/><path class="cls-4" d="M26.79,16.83a4.63,4.63,0,1,0,4.66-4.59A4.63,4.63,0,0,0,26.79,16.83Zm7.26-1.55a2,2,0,0,1,.59,1.16h.84v.94h-.78a4.56,4.56,0,0,1-.12.9,2.51,2.51,0,0,1-.21.61l-1-.36a1.84,1.84,0,0,0,.2-.46,3.82,3.82,0,0,0,.13-.7H31.82a5.77,5.77,0,0,1-.29.55,2,2,0,0,1-.37.49,1.9,1.9,0,0,1-.52.35,2,2,0,0,1-.72.12,1.66,1.66,0,0,1-1.21-.42,2,2,0,0,1-.54-1.12h-.83v-.94h.79a3.32,3.32,0,0,1,.11-.69,3.93,3.93,0,0,1,.19-.55l1,.33a2.68,2.68,0,0,0-.15.39,2.47,2.47,0,0,0-.11.53h1.69l.29-.56a2.44,2.44,0,0,1,.38-.5,1.82,1.82,0,0,1,.51-.36,1.73,1.73,0,0,1,.71-.14A1.91,1.91,0,0,1,34.05,15.28Z"/><rect class="cls-6" x="11.35" y="7.17" width="15.59" height="28.38" transform="translate(-6.51 8.53) rotate(-21.56)"/><path class="cls-4" d="M17.85,35.43l11.86-4.68L20.44,7.29,8.58,12Zm.44-25.74a1.44,1.44,0,0,0,1.87.81l.19-.1,7.16,18.14-.2.06a1.44,1.44,0,0,0-.81,1.87,1.74,1.74,0,0,0,.1.19l-6.54,2.58A1.6,1.6,0,0,0,20,33a1.46,1.46,0,0,0-1.88-.81l-.18.1L10.78,14.18a1.66,1.66,0,0,0,.21-.06,1.44,1.44,0,0,0,.81-1.87l-.1-.18,6.53-2.59A1.66,1.66,0,0,0,18.29,9.69Z"/><path class="cls-4" d="M19.8,20.34a3.69,3.69,0,0,0-.11.64l1.48-.59a.91.91,0,0,0-.45-.46.76.76,0,0,0-.57,0A.6.6,0,0,0,19.8,20.34Z"/><path class="cls-4" d="M18,22.64a.57.57,0,0,0,.34-.37,2.53,2.53,0,0,0,.12-.61L17,22.2a.78.78,0,0,0,.41.47A.73.73,0,0,0,18,22.64Z"/><path class="cls-4" d="M14.81,23a4.62,4.62,0,1,0,2.6-6A4.62,4.62,0,0,0,14.81,23ZM21,18.82a2,2,0,0,1,1,.85l.78-.31.34.88-.73.28a4.61,4.61,0,0,1,.23.88,2.53,2.53,0,0,1,0,.65l-1.09.05a2.61,2.61,0,0,0,0-.5,4.44,4.44,0,0,0-.14-.69l-1.71.67c0,.2,0,.41-.06.62a1.91,1.91,0,0,1-.16.59,1.76,1.76,0,0,1-.35.52,2,2,0,0,1-.62.38,1.69,1.69,0,0,1-1.28.06,1.91,1.91,0,0,1-.92-.83l-.77.3-.34-.87.73-.29a3.38,3.38,0,0,1-.16-.69,5.78,5.78,0,0,1,0-.58l1.05-.06a3,3,0,0,0,0,.41,2.77,2.77,0,0,0,.09.54l1.58-.62c0-.21,0-.42.06-.64a2.41,2.41,0,0,1,.16-.6,1.69,1.69,0,0,1,.35-.53,1.52,1.52,0,0,1,.59-.39A1.89,1.89,0,0,1,21,18.82Z"/><rect class="cls-7" x="5.36" y="30.62" width="46.43" height="21.24"/><rect class="cls-8" x="8.13" y="24.08" width="46.43" height="34.54" rx="3.4"/><path class="cls-9" d="M51.17,24.08H11.53a3.4,3.4,0,0,0-3.4,3.4v.67a3.4,3.4,0,0,1,3.4-3.39H51.17a3.39,3.39,0,0,1,3.39,3.39v-.67A3.4,3.4,0,0,0,51.17,24.08Z"/><path class="cls-10" d="M51.17,57.64H11.53a3.39,3.39,0,0,1-3.4-3.39v1a3.39,3.39,0,0,0,3.4,3.39H51.17a3.39,3.39,0,0,0,3.39-3.39v-1A3.39,3.39,0,0,1,51.17,57.64Z"/><g class="cls-11"><rect class="cls-12" x="8.13" y="47.09" width="46.43" height="4.82"/><rect class="cls-12" x="8.13" y="32.8" width="46.43" height="4.82"/></g><rect class="cls-13" x="8.13" y="46.34" width="46.43" height="4.82"/><rect class="cls-14" x="8.13" y="32.05" width="46.43" height="4.82"/><g class="cls-15"><rect class="cls-16" x="8.13" y="46.34" width="46.43" height="0.8"/><rect class="cls-16" x="8.13" y="32.05" width="46.43" height="0.8"/></g><path class="cls-17" d="M13.76,37.19H6.16a2,2,0,0,0-.8.18v9.76a2.17,2.17,0,0,0,.8.18h7.6c1.44,0,2.61-1.52,2.61-3.4V40.59C16.37,38.71,15.2,37.19,13.76,37.19Z"/><path class="cls-18" d="M16.37,43.47c0,1.88-1.17,3.39-2.61,3.39H6.16c-1.44,0-2.62-1.51-2.62-3.39V40.15c0-1.89,1.18-3.4,2.62-3.4h7.6c1.44,0,2.61,1.51,2.61,3.4Z"/><path class="cls-9" d="M13.76,36.75H6.16c-1.44,0-2.62,1.51-2.62,3.4v.76c0-1.88,1.18-3.4,2.62-3.4h7.6c1.44,0,2.61,1.52,2.61,3.4v-.76C16.37,38.26,15.2,36.75,13.76,36.75Z"/><path class="cls-10" d="M13.76,46.08H6.16c-1.44,0-2.62-1.51-2.62-3.4v.79c0,1.88,1.18,3.39,2.62,3.39h7.6c1.44,0,2.61-1.51,2.61-3.39v-.79C16.37,44.57,15.2,46.08,13.76,46.08Z"/><g class="cls-19"><path class="cls-12" d="M14,40.73a2.74,2.74,0,1,1-3.71-1.12A2.75,2.75,0,0,1,14,40.73Z"/></g><path class="cls-20" d="M13.74,40.29A2.74,2.74,0,1,1,10,39.17,2.74,2.74,0,0,1,13.74,40.29Z"/><path class="cls-21" d="M13.67,40.18a2.73,2.73,0,0,0-4.81,2.59.61.61,0,0,1,.07.1,2.73,2.73,0,0,1,4.79-2.57Z"/><path class="cls-22" d="M12.5,43.75a2.74,2.74,0,0,1-3.64-1s0,.08.05.13a2.74,2.74,0,0,0,4.83-2.6l-.08-.12A2.74,2.74,0,0,1,12.5,43.75Z"/></g></g></svg>