<svg xmlns="http://www.w3.org/2000/svg" xmlns:xlink="http://www.w3.org/1999/xlink" viewBox="0 0 266.33 188.19"><defs><style>.cls-1{fill:#3e2344;}.cls-2,.cls-35{fill:#ffb072;}.cls-3{fill:#fd6141;}.cls-4{fill:#207089;}.cls-5{isolation:isolate;}.cls-6{fill:#f29353;}.cls-23,.cls-7{fill:#9d68aa;}.cls-8,.cls-9{fill:#e4bce8;}.cls-10,.cls-40,.cls-63,.cls-70,.cls-9{opacity:0.5;}.cls-10,.cls-16{fill:#7c4284;}.cls-11{fill:#e2e2e2;}.cls-12{fill:#552f5e;}.cls-13{fill:#ed9621;}.cls-14{fill:#eda635;}.cls-15{fill:#f2721c;}.cls-17{fill:#fff;}.cls-18{fill:#dd4026;}.cls-19{fill:#f4850c;}.cls-20{fill:#ffbe57;}.cls-21{fill:#ff8976;}.cls-22{fill:#71bf9d;}.cls-23,.cls-59{opacity:0.3;}.cls-24{fill:#ffdcae;}.cls-25{fill:#cc584e;}.cls-26{fill:#e57873;}.cls-27{fill:#3e2b13;}.cls-28{fill:#e06258;}.cls-29{clip-path:url(#clip-path);}.cls-30{fill:#f7b614;}.cls-31{clip-path:url(#clip-path-2);}.cls-32{fill:#ba2f1c;}.cls-33,.cls-63{fill:#a1abad;}.cls-34{fill:#ef7265;}.cls-35,.cls-74,.cls-75{fill-rule:evenodd;}.cls-36,.cls-40{fill:#e57e55;}.cls-37{fill:#ffa399;}.cls-38{mix-blend-mode:multiply;}.cls-39{fill:#d8462a;}.cls-41{clip-path:url(#clip-path-3);}.cls-42{fill:#1c3742;}.cls-43{fill:#efefef;}.cls-44{fill:#19323a;}.cls-45{clip-path:url(#clip-path-4);}.cls-46,.cls-52{fill:none;stroke-miterlimit:10;}.cls-46{stroke:#7c4284;stroke-width:0.76px;}.cls-47{fill:#bc6658;}.cls-48{fill:#1e1c1c;}.cls-49{fill:#c67154;}.cls-50{clip-path:url(#clip-path-5);}.cls-51{clip-path:url(#clip-path-6);}.cls-52{stroke:#f7dfd8;stroke-width:0.35px;}.cls-53,.cls-59{fill:#549e7b;}.cls-54{fill:#8c8c8c;}.cls-55{fill:#f4b998;}.cls-56{clip-path:url(#clip-path-7);}.cls-57{clip-path:url(#clip-path-8);}.cls-58{fill:#3c8460;}.cls-60{fill:#764582;}.cls-61{fill:#84d1aa;}.cls-62{fill:#e57930;}.cls-64{fill:#2b545e;}.cls-65{clip-path:url(#clip-path-9);}.cls-66,.cls-70{fill:#2e1933;}.cls-67{fill:#4c2b54;}.cls-68{clip-path:url(#clip-path-10);}.cls-69{fill:#efe9da;}.cls-71{fill:#aaa;}.cls-72{fill:#201d42;}.cls-73{fill:#666;}.cls-74{fill:#ed8a14;}.cls-75{fill:#ed9e40;}</style><clipPath id="clip-path" transform="translate(-18.55 -16.66)"><path class="cls-1" d="M132.51,192.08a21.44,21.44,0,0,0-1.58,2.06c-.21.43-.8,3.47-.8,3.47a2.48,2.48,0,0,0,1.76.86l1-1.85a16.42,16.42,0,0,0,1.9,3.64c1,1,5.78,1.64,6.41,1.19a2.05,2.05,0,0,0-1-2.52c-2.93-1.31-3.53-4.89-3.53-4.89A2.54,2.54,0,0,0,132.51,192.08Z"/></clipPath><clipPath id="clip-path-2" transform="translate(-18.55 -16.66)"><path class="cls-1" d="M121.42,194a24.78,24.78,0,0,0-1.12,2.35c-.1.46,0,3.56,0,3.56a2.45,2.45,0,0,0,1.91.47l.62-2a16.46,16.46,0,0,0,2.63,3.15c1.16.79,6,.38,6.52-.19a2.06,2.06,0,0,0-1.5-2.26c-3.14-.66-4.48-4-4.48-4A2.54,2.54,0,0,0,121.42,194Z"/></clipPath><clipPath id="clip-path-3" transform="translate(-18.55 -16.66)"><path class="cls-2" d="M163.52,191.73l-.36,6.69s.23,1.41.23,1.89-.26,1.86-.26,1.86a5.46,5.46,0,0,1-3.4.27l-.18-.16a8.46,8.46,0,0,1-1.52.41c-1.35.3-5.37.35-6-.14,0,0-.49-2,1.18-2.4,4.17-1,4.79-2.11,5.1-3.39.39-1.61.85-5.63.85-5.63Z"/></clipPath><clipPath id="clip-path-4" transform="translate(-18.55 -16.66)"><path class="cls-2" d="M175.57,191.37l-.37,6.69a18.63,18.63,0,0,0-.44,1.85c0,.46.05,1.87.05,1.87a5.41,5.41,0,0,0,3.36.64l.19-.13a9.42,9.42,0,0,0,1.46.57c1.32.45,5.3.94,6,.52,0,0,.7-1.95-.91-2.52-4-1.46-4.54-2.63-4.7-3.93-.21-1.64-.23-5.69-.23-5.69Z"/></clipPath><clipPath id="clip-path-5" transform="translate(-18.55 -16.66)"><path class="cls-3" d="M184,88s-3,0-4.5,1.53c-2.31,2.47-3.48,3.15-7.17,3.72,0,0,4.77-9,4.6-9.58s-.54-1.63.65-1.75S184.06,85.06,184,88Z"/></clipPath><clipPath id="clip-path-6" transform="translate(-18.55 -16.66)"><path class="cls-3" d="M163.8,88.43A4.89,4.89,0,0,1,167.66,90c1.35,1.66,2.17,3.12,5,3.25,0,0-2-8.8-1.84-9.38s.1-1.61-1.1-1.63S163.19,86,163.8,88.43Z"/></clipPath><clipPath id="clip-path-7" transform="translate(-18.55 -16.66)"><path class="cls-4" d="M209,190.32l-.47,6.72a18.77,18.77,0,0,1,.21,1.9,18.57,18.57,0,0,1-.29,1.87,5.43,5.43,0,0,1-3.43.22l-.17-.16a9.61,9.61,0,0,1-1.53.39c-1.37.29-5.42.28-6-.23,0,0-.46-2,1.22-2.4,4.21-.95,4.86-2,5.18-3.33.41-1.62.94-5.66.94-5.66Z"/></clipPath><clipPath id="clip-path-8" transform="translate(-18.55 -16.66)"><path class="cls-4" d="M225.51,190.47v6.74a18.86,18.86,0,0,0-.33,1.89c0,.47.15,1.88.15,1.88a5.56,5.56,0,0,0,3.41.46l.19-.15a9.82,9.82,0,0,0,1.5.49c1.34.38,5.38.65,6,.19,0,0,.6-2-1.06-2.48-4.14-1.24-4.7-2.39-4.94-3.69-.3-1.63-.54-5.7-.54-5.7Z"/></clipPath><clipPath id="clip-path-9" transform="translate(-18.55 -16.66)"><path class="cls-4" d="M40.53,191.62v6.8s.31,1.42.34,1.9-.16,1.9-.16,1.9a5.55,5.55,0,0,1-3.43.46l-.2-.15a7.79,7.79,0,0,1-1.51.49c-1.35.39-5.42.66-6.05.19,0,0-.6-2,1.06-2.5,4.18-1.24,4.75-2.4,5-3.71.3-1.65.54-5.75.54-5.75Z"/></clipPath><clipPath id="clip-path-10" transform="translate(-18.55 -16.66)"><path class="cls-4" d="M57.15,191.46l.47,6.79a17,17,0,0,0-.2,1.91c0,.48.28,1.89.28,1.89a5.53,5.53,0,0,0,3.46.22l.18-.16a9.65,9.65,0,0,0,1.54.39c1.38.29,5.46.28,6.05-.23,0,0,.47-2-1.23-2.42-4.25-1-4.9-2.07-5.23-3.36-.41-1.63-.94-5.7-.94-5.7Z"/></clipPath></defs><g class="cls-5"><g id="OBJECTS"><rect class="cls-6" x="189.52" y="73.56" width="76.82" height="3.41"/><rect class="cls-7" x="251.83" y="48.51" width="10.57" height="24.98"/><rect class="cls-8" x="251.83" y="68.15" width="10.57" height="1.31"/><rect class="cls-8" x="251.83" y="49.64" width="10.57" height="1.31"/><rect class="cls-9" x="251.83" y="48.51" width="1.01" height="24.98"/><rect class="cls-10" x="261.39" y="48.51" width="1.01" height="24.98"/><path class="cls-11" d="M278.1,71.26a2.43,2.43,0,1,1-2.43-2.43A2.43,2.43,0,0,1,278.1,71.26Z" transform="translate(-18.55 -16.66)"/><circle class="cls-12" cx="257.11" cy="54.61" r="1.72"/><rect class="cls-13" x="241.26" y="48.51" width="10.57" height="24.98"/><rect class="cls-8" x="241.26" y="68.15" width="10.57" height="1.31"/><rect class="cls-8" x="241.26" y="49.64" width="10.57" height="1.31"/><rect class="cls-9" x="241.26" y="48.51" width="1.01" height="24.98"/><rect class="cls-10" x="250.82" y="48.51" width="1.01" height="24.98"/><path class="cls-11" d="M267.53,71.26a2.43,2.43,0,1,1-2.43-2.43A2.43,2.43,0,0,1,267.53,71.26Z" transform="translate(-18.55 -16.66)"/><circle class="cls-12" cx="246.55" cy="54.61" r="1.72"/><rect class="cls-14" x="230.69" y="48.51" width="9.14" height="24.98"/><rect class="cls-8" x="230.69" y="68.15" width="9.14" height="1.31"/><rect class="cls-8" x="230.69" y="49.64" width="9.14" height="1.31"/><rect class="cls-9" x="230.69" y="48.51" width="0.87" height="24.98"/><rect class="cls-10" x="238.96" y="48.51" width="0.87" height="24.98"/><path class="cls-11" d="M255.92,71.26a2.13,2.13,0,1,1-2.1-2.43A2.29,2.29,0,0,1,255.92,71.26Z" transform="translate(-18.55 -16.66)"/><ellipse class="cls-12" cx="235.27" cy="54.61" rx="1.49" ry="1.72"/><rect class="cls-15" x="220.13" y="48.51" width="10.57" height="24.98"/><rect class="cls-8" x="220.13" y="68.15" width="10.57" height="1.31"/><rect class="cls-8" x="220.13" y="49.64" width="10.57" height="1.31"/><rect class="cls-9" x="220.13" y="48.51" width="1.01" height="24.98"/><rect class="cls-10" x="229.68" y="48.51" width="1.01" height="24.98"/><path class="cls-11" d="M246.4,71.26A2.44,2.44,0,1,1,244,68.83,2.44,2.44,0,0,1,246.4,71.26Z" transform="translate(-18.55 -16.66)"/><circle class="cls-12" cx="225.41" cy="54.61" r="1.72"/><circle class="cls-8" cx="208.59" cy="57.46" r="16.16" transform="translate(-1.72 141.01) rotate(-42.99)"/><circle class="cls-16" cx="208.59" cy="57.46" r="13.43" transform="translate(-1.91 140.63) rotate(-42.88)"/><circle class="cls-17" cx="190.04" cy="40.8" r="12.84"/><rect class="cls-7" x="211.91" y="50.54" width="1.49" height="9.39" transform="translate(144.76 -175.52) rotate(62.46)"/><rect class="cls-7" x="211" y="56.61" width="0.71" height="12.2" transform="translate(-23.7 87.65) rotate(-27.4)"/><path class="cls-12" d="M209.61,57.46a1,1,0,1,1-1-1A1,1,0,0,1,209.61,57.46Z" transform="translate(-18.55 -16.66)"/><rect class="cls-18" x="189.52" y="28.55" width="1.03" height="2.15"/><rect class="cls-18" x="189.52" y="51.1" width="1.03" height="2.15"/><rect class="cls-18" x="219.35" y="56.48" width="1.03" height="2.15" transform="translate(258.87 -178.96) rotate(90)"/><rect class="cls-18" x="196.8" y="56.48" width="1.03" height="2.15" transform="translate(236.32 -156.42) rotate(90)"/><rect class="cls-18" x="216.05" y="48.51" width="1.03" height="2.15" transform="translate(79.94 -155.27) rotate(45)"/><rect class="cls-18" x="200.11" y="64.45" width="1.03" height="2.15" transform="translate(86.54 -139.32) rotate(45)"/><rect class="cls-18" x="216.05" y="64.45" width="1.03" height="2.15" transform="translate(397.48 -57.92) rotate(135)"/><rect class="cls-18" x="200.11" y="48.51" width="1.03" height="2.15" transform="translate(358.99 -73.87) rotate(135)"/><rect class="cls-8" x="56.54" y="34.92" width="105.83" height="69.07"/><rect class="cls-17" x="59.02" y="44.5" width="100.87" height="56.43"/><rect class="cls-19" x="56.54" y="34.92" width="105.83" height="7.02"/><path class="cls-11" d="M178.44,107.08H162.79V96h15.65v-.6H162.79v-11h15.65v-.59H162.79v-11h15.65v-.59H162.79v-11h-.59v11H145.54v-11H145v11H128.29v-11h-.58v11H111.05v-11h-.59v11H93.8v-11h-.59v11H77.57v.59H93.21v11H77.57v.59H93.21v11H77.57V96H93.21v11H77.57v.59H93.21v9.82h.59v-9.82h16.66v9.82h.59v-9.82h16.66v9.82h.58v-9.82H145v9.82h.59v-9.82H162.2v9.82h.59v-9.82h15.65ZM127.71,95.44H111.05v-11h16.66Zm.58-11H145v11H128.29Zm17.25,11v-11H162.2v11Zm0-11.63v-11H162.2v11Zm-.59,0H128.29v-11H145Zm-17.24,0H111.05v-11h16.66Zm-17.25,0H93.8v-11h16.66Zm0,.59v11H93.8v-11Zm0,11.64v11H93.8V96Zm.59,0h16.66v11H111.05Zm17.24,0H145v11H128.29Zm17.25,0H162.2v11H145.54Z" transform="translate(-18.55 -16.66)"/><rect class="cls-20" x="111.97" y="73.31" width="5.48" height="8.3" transform="matrix(0.99, -0.16, 0.16, 0.99, -29.47, 2.7)"/><rect class="cls-21" x="102.76" y="85.23" width="5.48" height="8.3" transform="translate(-4.95 -30.59) rotate(8.07)"/><rect class="cls-22" x="104.06" y="85.59" width="5.48" height="8.3" transform="translate(-12.02 -23.9) rotate(4.01)"/><path class="cls-23" d="M103.05,192.7l-7,6.94S94,202,99.42,202H271.88s3.23-.18,1.08-3.39-7.66-5.86-7.66-5.86Z" transform="translate(-18.55 -16.66)"/><path class="cls-24" d="M101.74,143.62s-4.51,41-5.73,56c-.17,2,3.31,2.55,3.64.56,2.11-12.84,8.88-56.58,8.88-56.58Z" transform="translate(-18.55 -16.66)"/><path class="cls-6" d="M108.07,143.62s-3.94,35.94-5,49.08c-.15,1.76,2.9,2.23,3.19.49,1.85-11.25,7.78-49.57,7.78-49.57Z" transform="translate(-18.55 -16.66)"/><path class="cls-6" d="M260.28,143.62s3.94,35.94,5,49.08c.15,1.76-2.9,2.23-3.19.49-1.85-11.25-7.78-49.57-7.78-49.57Z" transform="translate(-18.55 -16.66)"/><path class="cls-24" d="M267.22,143.62s4.5,41,5.73,56c.16,2-3.32,2.55-3.64.56-2.11-12.84-8.89-56.58-8.89-56.58Z" transform="translate(-18.55 -16.66)"/><path class="cls-25" d="M79.21,122.35H253.32a0,0,0,0,1,0,0v0a6.88,6.88,0,0,1-6.88,6.88H86.08a6.88,6.88,0,0,1-6.88-6.88v0A0,0,0,0,1,79.21,122.35Z"/><rect class="cls-6" x="70.17" y="121.64" width="192.19" height="2.89"/><polygon class="cls-24" points="79.38 116.42 70.17 121.64 262.36 121.64 253.87 116.42 79.38 116.42"/><path class="cls-25" d="M270,127.53l-.14,2.29-.07,1.1-.23,3.41c-.11,1.52-11.93,1.68-12.06.15l-.28-3.4-.1-1.11-.2-2.44Z" transform="translate(-18.55 -16.66)"/><ellipse class="cls-26" cx="244.86" cy="110.87" rx="6.54" ry="0.8"/><path class="cls-27" d="M268.44,127.53c0,.27-2.25.5-5,.5s-5-.23-5-.5,2.25-.5,5-.5S268.44,127.25,268.44,127.53Z" transform="translate(-18.55 -16.66)"/><path class="cls-8" d="M269.81,129.82l-.07,1.1a25.15,25.15,0,0,1-12.57.16l-.1-1.11a17.42,17.42,0,0,0,6.17.83A18.44,18.44,0,0,0,269.81,129.82Z" transform="translate(-18.55 -16.66)"/><path class="cls-22" d="M261.79,128s-4.63-10.54,1.62-10.54S265.05,128,265.05,128,263,128.05,261.79,128Z" transform="translate(-18.55 -16.66)"/><path class="cls-18" d="M117.24,66.48c1.51-4.61,4.24-4.42,4.24-4.42s1.27-4,8.56-1.56c3.4.87,7.78,5.92,4.88,14.7-.95,2.88,3.51,5.2,2.71,12.33-.71,6.31-22.43,5.9-23.51.12-1.25-6.65,4.55-7.54,4.1-11S116.31,69.29,117.24,66.48Z" transform="translate(-18.55 -16.66)"/><path class="cls-28" d="M135.91,84.71c8.32,5.87,14.06,19.84,12.26,22.1s-5.27.13-7.23-2c-2.79-3.06-9.2-12.09-9.94-13.81C129.2,86.81,134.48,83.7,135.91,84.71Z" transform="translate(-18.55 -16.66)"/><path class="cls-1" d="M132.51,192.08a21.44,21.44,0,0,0-1.58,2.06c-.21.43-.8,3.47-.8,3.47a2.48,2.48,0,0,0,1.76.86l1-1.85a16.42,16.42,0,0,0,1.9,3.64c1,1,5.78,1.64,6.41,1.19a2.05,2.05,0,0,0-1-2.52c-2.93-1.31-3.53-4.89-3.53-4.89A2.54,2.54,0,0,0,132.51,192.08Z" transform="translate(-18.55 -16.66)"/><g class="cls-29"><path class="cls-16" d="M141.75,201.12c-.09,0-6,0-7-1.56-.74-1.26-1.44-3.47-1.79-3.69s-2.07-1.73-2.07-1.73l-1.73,4.4,9.86,6.05Z" transform="translate(-18.55 -16.66)"/></g><path class="cls-30" d="M138.38,197.67l-.77.29a2.71,2.71,0,0,1-.73-1.4l.73-.39a.28.28,0,0,1,.38.12l.54,1A.28.28,0,0,1,138.38,197.67Z" transform="translate(-18.55 -16.66)"/><path class="cls-1" d="M146,157.28c0-5.86-4.26-28.93-8.15-42.28-1.79-6.12-7.84-3.47-10.55,1.32-6.07,10.74,9.16,39.27,8.51,42.76a208.49,208.49,0,0,0-3.32,33c.07,1.41,4.29,4.11,4.33,1.48C136.84,193.56,146,162.07,146,157.28Z" transform="translate(-18.55 -16.66)"/><path class="cls-1" d="M121.42,194a24.78,24.78,0,0,0-1.12,2.35c-.1.46,0,3.56,0,3.56a2.45,2.45,0,0,0,1.91.47l.62-2a16.46,16.46,0,0,0,2.63,3.15c1.16.79,6,.38,6.52-.19a2.06,2.06,0,0,0-1.5-2.26c-3.14-.66-4.48-4-4.48-4A2.54,2.54,0,0,0,121.42,194Z" transform="translate(-18.55 -16.66)"/><g class="cls-31"><path class="cls-16" d="M132.36,200.88c-.09,0-5.87,1.33-7.13,0-1-1.08-2.14-3.09-2.53-3.23s-2.4-1.26-2.4-1.26l-.75,4.67,10.92,3.83Z" transform="translate(-18.55 -16.66)"/></g><path class="cls-30" d="M128.34,198.22l-.69.45a2.72,2.72,0,0,1-1-1.21l.63-.53a.27.27,0,0,1,.39,0l.74.85A.27.27,0,0,1,128.34,198.22Z" transform="translate(-18.55 -16.66)"/><path class="cls-1" d="M128.07,135l-.34-15.19c-2.18-5-9.65-6.52-11.77-.65-4,11,3.48,51,5.46,75.37.36,1.72,4.51,2.06,4.37,0C125.79,194.48,127.76,141.83,128.07,135Z" transform="translate(-18.55 -16.66)"/><path class="cls-18" d="M117.28,115.4s-2.84,2.78-3.73,9-1.14,21.26-1.14,21.26,17.2,6.34,32.67-.62c0,0-4-26.7-8.11-30.3S121.26,110.34,117.28,115.4Z" transform="translate(-18.55 -16.66)"/><path class="cls-32" d="M139,119.54c-.26,1.2-4.89,4-11.56,3.76s-11.9-2.2-11.62-3.94c.67-4.11,5-19.66,11.62-19.44S139.71,116.21,139,119.54Z" transform="translate(-18.55 -16.66)"/><path class="cls-21" d="M113.53,87.53c2-4.32,12.18-7.32,12.7-7.6,0,0,9.8,3.56,11,6.15.25.51-1.12,2.25-1.33,4.35-.09.89,1,3.94.89,5-.48,3.47-1.78,8.71-1.35,9.91.61,1.68,3.18,10.25,3.92,12.72a.84.84,0,0,1-.42,1c-10.25,4.84-18.62,2.59-23.69-.23a.83.83,0,0,1-.52-.91c.63-2.42,3.42-9.53,4.21-11.7C120,103.29,111.94,90.87,113.53,87.53Z" transform="translate(-18.55 -16.66)"/><path class="cls-28" d="M119.08,105.46s2,7.76,5.32,7.94,11.92-6,11.92-6Z" transform="translate(-18.55 -16.66)"/><path class="cls-16" d="M127.72,92.07a.15.15,0,0,1-.13,0c-4.45-4.38-6.91-7.77-7.32-9.85,0-.1.36-.21.38-.11.39,2,2.84,5.41,7.13,9.65l1.21-.09c2.28-4.67,2.37-8.62,1.16-10.18-.06-.08.4,0,.46,0,1.32,1.69,1,5.54-1.33,10.4a.21.21,0,0,1-.16.11l-1.39.09Z" transform="translate(-18.55 -16.66)"/><rect class="cls-17" x="123.6" y="92.66" width="10.31" height="6.58" rx="0.77" transform="translate(-25 -7.34) rotate(-4.05)"/><rect class="cls-18" x="124.25" y="94.49" width="3.04" height="3.86" rx="0.62" transform="translate(-25.04 -7.55) rotate(-4.04)"/><rect class="cls-1" x="127.23" y="92.93" width="2.64" height="0.4" transform="translate(-24.8 -7.36) rotate(-4.05)"/><rect class="cls-16" x="127.74" y="91.4" width="1.4" height="1.73" rx="0.32" transform="translate(-24.74 -7.37) rotate(-4.05)"/><rect class="cls-33" x="128.28" y="94.14" width="4.7" height="0.44" transform="translate(-24.88 -7.21) rotate(-4.04)"/><rect class="cls-33" x="128.34" y="95.07" width="4.7" height="0.44" transform="matrix(1, -0.07, 0.07, 1, -24.95, -7.2)"/><rect class="cls-33" x="128.41" y="95.99" width="4.7" height="0.44" transform="translate(-25.01 -7.19) rotate(-4.04)"/><rect class="cls-33" x="128.52" y="97.55" width="4.7" height="0.44" transform="translate(-25.12 -7.18) rotate(-4.05)"/><path class="cls-34" d="M124.8,97.65c6.12-.11,17.19.8,21.8,3.22a4.68,4.68,0,0,1,2.25,5.2c-.71,2.64-4.58,1.85-4.58,1.85s-14.6-2.77-18.33-4C121.81,102.44,121.75,97.7,124.8,97.65Z" transform="translate(-18.55 -16.66)"/><path class="cls-35" d="M131.36,72.87a2.72,2.72,0,0,1-.35-3,1,1,0,0,1,1.26-.38,1.76,1.76,0,0,1,.77,1.9C132.94,72.37,132.1,73.43,131.36,72.87Z" transform="translate(-18.55 -16.66)"/><path class="cls-36" d="M131.58,72.48l.16-.89-.54-.15s.08-1.63,1-1.17C132.94,70.65,132.47,72.69,131.58,72.48Z" transform="translate(-18.55 -16.66)"/><path class="cls-2" d="M144.53,103.19a6.3,6.3,0,0,0,2.64-1.18c.69-.57,1.52,1.46,1.52,1.46a3,3,0,0,0-.21-2.81c-.18-.26.06-.73-.24-1.25s-.42-.25-.66-.64-.12-.56-.27-1-.46-.31-.71-.55-.35-.68-.66-.81a1.86,1.86,0,0,0-1.51.21,6.77,6.77,0,0,0-2.83,2.66C141.11,100.34,140.39,103.68,144.53,103.19Z" transform="translate(-18.55 -16.66)"/><path class="cls-37" d="M113,91.46c-.55-6.06,4.34-9.26,7.54-4.71,2.37,3.37,4.76,15.3,6.27,16,1.24.53,14.78-3.6,14.78-3.6,2.14.05,3.18,3.79,2.45,5.1-9.07,4-16.87,8.64-20.45,6.94C119.14,109.05,113.5,97.45,113,91.46Z" transform="translate(-18.55 -16.66)"/><path class="cls-2" d="M123.67,73.51a21,21,0,0,1-.68,5,6.79,6.79,0,0,1-2.17,3.63c-.88.9,6.65,4.65,6.65,4.65s.81,2.11,1.21,2.2l.22-2.35s2.76-2.72,1.63-4.16c-1.67-2.13-2.34-1.59-2-4.62.28-2.65.46-4.12.46-4.12Z" transform="translate(-18.55 -16.66)"/><path class="cls-35" d="M123.12,73.63s1.57,5.44,6.72,4.25c2.59-.59,3.1-5.81,1.88-7.36A9,9,0,0,0,131,65.6c-.95-2.09-5.36-2.65-8.76-1,0,0-.88,1.13.18,5.44a1.34,1.34,0,0,0-1.73,0,2,2,0,0,0-.24,2.49C120.92,73.63,122.26,74.44,123.12,73.63Z" transform="translate(-18.55 -16.66)"/><path class="cls-36" d="M122.69,73.27l-.55-1,.62-.38s-.73-1.87-1.7-1C120.26,71.64,121.64,73.83,122.69,73.27Z" transform="translate(-18.55 -16.66)"/><path class="cls-3" d="M130.17,74.29s-.49-.81-3.18-.11C127.52,75.58,130.19,75.9,130.17,74.29Z" transform="translate(-18.55 -16.66)"/><g class="cls-38"><path class="cls-36" d="M130.17,74.29a9.32,9.32,0,0,1-3.18-.11" transform="translate(-18.55 -16.66)"/><path class="cls-36" d="M130.17,74.29a4.17,4.17,0,0,1-1.6.26,3.93,3.93,0,0,1-1.58-.37c.55,0,1.06,0,1.59,0S129.62,74.23,130.17,74.29Z" transform="translate(-18.55 -16.66)"/></g><path class="cls-1" d="M131.17,70.53c0,.25-.3.32-.7.35s-.72,0-.74-.25.29-.47.69-.5S131.16,70.29,131.17,70.53Z" transform="translate(-18.55 -16.66)"/><path class="cls-39" d="M131.83,69.39a8.16,8.16,0,0,0-1.27-.6c-.3,0-1.12.53-1.23.42a2.48,2.48,0,0,1-.25-.38,7.76,7.76,0,0,1,1.55-.4A2.76,2.76,0,0,1,131.83,69.39Z" transform="translate(-18.55 -16.66)"/><path class="cls-1" d="M127.52,70.78c0,.25-.3.32-.7.34s-.73,0-.74-.24.29-.47.69-.5S127.5,70.53,127.52,70.78Z" transform="translate(-18.55 -16.66)"/><path class="cls-39" d="M125,69.57a6.71,6.71,0,0,1,1.47-.63c.32,0,1.39.38,1.51.26a1.91,1.91,0,0,0,.22-.4,10.82,10.82,0,0,0-1.88-.21A2.79,2.79,0,0,0,125,69.57Z" transform="translate(-18.55 -16.66)"/><path class="cls-40" d="M129.47,72.94s-.92.11-.93-.14,1.84-.82,2-.65S129.86,72.77,129.47,72.94Z" transform="translate(-18.55 -16.66)"/><path class="cls-36" d="M129.05,69.13a4.91,4.91,0,0,0,.1,1.58c.2.38,1.18,1.18,1.23,1.38s-.85.81-.91.85,1.34-.4,1.23-.84-1.36-1.41-1.43-1.62S129.05,69.13,129.05,69.13Z" transform="translate(-18.55 -16.66)"/><path class="cls-39" d="M131.1,63.94c.41.35,2.64,1.51,0,1.89-2,.3-6.18-.74-7.41-1.08a7.14,7.14,0,0,1,.31,2.93c-.23,1.06-.67,3.48-.67,3.48a11.61,11.61,0,0,0-.92-1.14c-.38-.39-1.72-.67-2.25.92a10.84,10.84,0,0,1-1.3-3.83C118.75,62.68,125.92,59.51,131.1,63.94Z" transform="translate(-18.55 -16.66)"/><path class="cls-2" d="M118.71,100.48a5.33,5.33,0,0,1,3-2.5,2.41,2.41,0,0,1,1.45-.24l.41,0s3.74,0,4.22,1.48a7.38,7.38,0,0,1,0,3.5,7.74,7.74,0,0,1-2.51,0,5.62,5.62,0,0,0-1.82,1.6c-.22.32-.88.2-.8-.18A4,4,0,0,1,123.9,102a7.09,7.09,0,0,0-2.5,1.34c-.33.29-1,0-.87-.34a5.18,5.18,0,0,1,2.67-2.37h0A7.5,7.5,0,0,0,120.4,102c-.33.27-1,0-.86-.33a4.31,4.31,0,0,1,1.66-1.73,5.87,5.87,0,0,0-1.64,1C119.21,101.21,118.51,100.89,118.71,100.48Z" transform="translate(-18.55 -16.66)"/><path class="cls-2" d="M157.42,141a11.72,11.72,0,0,0-.13-2.91c-.67-2.26-3.41-3.16-4.58-2.37-.75.49-2.49,5-1.81,7.58a.39.39,0,0,0,.26.29,4.29,4.29,0,0,0,.05.93c.1.34.42.4.6.22a3.06,3.06,0,0,0,.12.61c.12.42.57.46.65.07.18-.85.2-1.42.38-2a7.21,7.21,0,0,1,.5-1.26c-.11.36-.21.75-.3,1.13a5.28,5.28,0,0,0,0,2.3c.15.42.65.41.72,0a17.68,17.68,0,0,1,.37-2.05,8.7,8.7,0,0,1,1.27-2.87,2.41,2.41,0,0,1,.18.43,11,11,0,0,1,0,1.6c0,.63.74,1.35,1,.47A19,19,0,0,0,157.42,141Z" transform="translate(-18.55 -16.66)"/><path class="cls-32" d="M157.64,114.54c1.18-5.88-1.08-17.07,1.29-21.86,2.55-5.16,10.86-1.94,10.65,2.23a153.62,153.62,0,0,1-2.88,21.58c-1.51,6.9-9,22.28-9,22.28a18.84,18.84,0,0,1-5.44-2.83S156.42,120.55,157.64,114.54Z" transform="translate(-18.55 -16.66)"/><path class="cls-2" d="M163.52,191.73l-.36,6.69s.23,1.41.23,1.89-.26,1.86-.26,1.86a5.46,5.46,0,0,1-3.4.27l-.18-.16a8.46,8.46,0,0,1-1.52.41c-1.35.3-5.37.35-6-.14,0,0-.49-2,1.18-2.4,4.17-1,4.79-2.11,5.1-3.39.39-1.61.85-5.63.85-5.63Z" transform="translate(-18.55 -16.66)"/><g class="cls-41"><path class="cls-42" d="M157.28,198.33a2.42,2.42,0,0,1,1.73.51c.58.59,1,1.09,1.93.92,2.29-.43,2.18-2.2,3.15-1.4l0,4.63-12.64.49V200Z" transform="translate(-18.55 -16.66)"/><path class="cls-43" d="M151.78,202.05s.16.61,4.14.44,4.32-1.07,7.42-1l-.16,1.08-11.63,1Z" transform="translate(-18.55 -16.66)"/></g><path class="cls-44" d="M161.78,126.32c1.34-6.61,14.9-6.64,13.58,0-4.53,22.87-6.31,51.67-11.21,66.51a6.48,6.48,0,0,1-5.45-.79S157.43,147.9,161.78,126.32Z" transform="translate(-18.55 -16.66)"/><path class="cls-4" d="M164.59,193.17a8.7,8.7,0,0,1-6.39-.79.08.08,0,0,1,0-.09c0-.15,0-.63.05-2a.1.1,0,0,1,.14-.09c2.07.88,4.49,1.47,6.63.68a.1.1,0,0,1,.13.12c-.24,1.15-.4,1.9-.45,2.1A.08.08,0,0,1,164.59,193.17Z" transform="translate(-18.55 -16.66)"/><path class="cls-2" d="M175.57,191.37l-.37,6.69a18.63,18.63,0,0,0-.44,1.85c0,.46.05,1.87.05,1.87a5.41,5.41,0,0,0,3.36.64l.19-.13a9.42,9.42,0,0,0,1.46.57c1.32.45,5.3.94,6,.52,0,0,.7-1.95-.91-2.52-4-1.46-4.54-2.63-4.7-3.93-.21-1.64-.23-5.69-.23-5.69Z" transform="translate(-18.55 -16.66)"/><g class="cls-45"><path class="cls-42" d="M181.05,198.61a2.4,2.4,0,0,0-1.77.32c-.65.52-1.15,1-2,.7-2.23-.68-1.93-2.43-3-1.73l-.48,4.6,12.51,1.87.4-3.49Z" transform="translate(-18.55 -16.66)"/><path class="cls-43" d="M186.11,202.91s-.23.58-4.16,0-4.19-1.54-7.28-1.79l.05,1.1,11.45,2.24Z" transform="translate(-18.55 -16.66)"/></g><path class="cls-42" d="M172.65,126.8c.25-6.75,12.17-9.36,12.88-2.63,3.06,29.07-3.55,50.5-4.6,68.67a7.66,7.66,0,0,1-6.29.07S172.27,137,172.65,126.8Z" transform="translate(-18.55 -16.66)"/><path class="cls-4" d="M181.41,191c-.18,1.15-.27,1.66-.3,1.82a.1.1,0,0,1-.07.08,8,8,0,0,1-6.53.08.11.11,0,0,1-.06-.09c0-.19,0-.78,0-1.69a.11.11,0,0,1,.12-.11,12.1,12.1,0,0,0,6.74-.21A.1.1,0,0,1,181.41,191Z" transform="translate(-18.55 -16.66)"/><path class="cls-42" d="M161.82,128.1c.14,3.52,5.68,6.17,12.37,5.91s11.71-3.32,11.57-6.85c-.45-11.38-6.11-24.68-12.8-24.41S161.37,116.5,161.82,128.1Z" transform="translate(-18.55 -16.66)"/><path class="cls-18" d="M162.63,115.59c.73-7.33-4.47-21.08-3.7-22.91,1.15-2.74,14.33-10,14.33-10,.55.27,13.72,5.67,16.32,9.88,1.09,1.76-5.36,19-4.93,25.53.21,3.2,1.38,6.35,1.5,9.43.14,3.53-25,3.85-25.11.32C160.87,123.76,162.23,119.61,162.63,115.59Z" transform="translate(-18.55 -16.66)"/><path class="cls-32" d="M189.58,92.58l-.05-.06c-10.31,8.6-11.19,24-3.43,34.31-.25-2.85-1.26-5.76-1.45-8.72C184.22,111.6,190.67,94.34,189.58,92.58Z" transform="translate(-18.55 -16.66)"/><polyline class="cls-46" points="149.36 73 152.69 81.65 154.2 81.65 159.44 72.76"/><rect class="cls-17" x="147.91" y="82.56" width="11.15" height="7.12" rx="0.77"/><rect class="cls-18" x="148.59" y="84.3" width="3.29" height="4.18" rx="0.62"/><rect class="cls-1" x="152.06" y="82.83" width="2.86" height="0.44"/><rect class="cls-16" x="152.69" y="81.18" width="1.52" height="1.88" rx="0.32"/><rect class="cls-33" x="153.1" y="84.3" width="5.09" height="0.48"/><rect class="cls-33" x="153.1" y="85.31" width="5.09" height="0.48"/><rect class="cls-33" x="153.1" y="86.31" width="5.09" height="0.48"/><rect class="cls-33" x="153.1" y="88" width="5.09" height="0.48"/><path class="cls-2" d="M166.19,72.53c.17,4.29,2.5,5.55,6.5,5.39,5.13-.2,7.17-2.5,7-6.79s-3.52-6.74-7.52-6.58S166,66.44,166.19,72.53Z" transform="translate(-18.55 -16.66)"/><path class="cls-2" d="M167.91,73.29c-.28-.47-1.22-1.6-2.12-.92s-.42,2.72.49,3.51S169.72,76.34,167.91,73.29Z" transform="translate(-18.55 -16.66)"/><path class="cls-36" d="M166.88,74.76c.15-.24.52.26.72-.31.07-.2-.16-.64-.32-.88s-.85-1.11-1.37-.63-.17,1.93.45,2.39c.36.27.69.23.62.09S166.78,74.88,166.88,74.76Z" transform="translate(-18.55 -16.66)"/><path class="cls-47" d="M166.52,73.9a1.28,1.28,0,0,0,.39,1.34c-.07-.19-.11-.39,0-.48.15-.24.52.26.72-.31.07-.2-.16-.64-.32-.88l0,0A.67.67,0,0,0,166.52,73.9Z" transform="translate(-18.55 -16.66)"/><path class="cls-18" d="M165.61,67.58a11.2,11.2,0,0,0,.91,6.32C168,76.61,169,66.18,165.61,67.58Z" transform="translate(-18.55 -16.66)"/><path class="cls-2" d="M176,76.46s.2,6.64,1.24,7.92c3.66,4.46-.17,8.35-3.38,8.28-4.26-.09-5.74-3.26-3.3-7,.48-.75.07-8.41.07-8.41Z" transform="translate(-18.55 -16.66)"/><path class="cls-2" d="M170.82,82.2c2.53-.1,5.14-3.49,5.38-6.2.15-1.63-1.1-2.67-.62-4.88,1-4.49-3.43-4.9-5.37-4.82-2.65.11-4.16,2.27-4.06,5,0,0,.1,4,.21,5.27C166.69,80.36,168.3,82.3,170.82,82.2Z" transform="translate(-18.55 -16.66)"/><path class="cls-18" d="M168.42,64.78c-.61.09-1.61.55-1.74.42-.28-.47.85-3.41,6.42-1.75,0,0-.5-.62-.19-.7,3.61-1,6.86,3.14,6.71,7.18,0-.44.11-1.22.34-1.26.41-.08.86,2.24,0,4.39-.69,2.3-3.83,5.52-3.9,3.78a11,11,0,0,0-.71-3.4,6.53,6.53,0,0,1-.7-2.19,4.77,4.77,0,0,1,.08-1.36,19.27,19.27,0,0,1-5.43-1.82,3.9,3.9,0,0,0,.42.32c.93.66,3,1.42,3,1.76s-6.47.14-6.55-1.66c-.24,0-.87,2-1.06,1.66C163.76,67.81,166.12,65.48,168.42,64.78Z" transform="translate(-18.55 -16.66)"/><path class="cls-48" d="M172.31,72.55s0,0,0,0,0,0,0,0Z" transform="translate(-18.55 -16.66)"/><path class="cls-17" d="M172.68,77.53a14.63,14.63,0,0,0-4.12.12c-.09.18.34.95,1.46.95C171.3,78.6,172.74,77.74,172.68,77.53Z" transform="translate(-18.55 -16.66)"/><path class="cls-49" d="M172.42,77.6c0,.07.09.16.12.15h0l-.11,0-.26,0-.56,0-1.11,0c-.38,0-.75,0-1.12,0a4.63,4.63,0,0,0-.55.06l-.11,0s0-.07,0,0a.43.43,0,0,0,.08.19,1.29,1.29,0,0,0,.86.5,2.69,2.69,0,0,0,1.05-.08,5.73,5.73,0,0,0,1-.38l.47-.26.2-.15.07-.07S172.4,77.41,172.42,77.6Zm.52-.15a.43.43,0,0,1-.12.38.75.75,0,0,1-.14.12,1.51,1.51,0,0,1-.26.18,3.78,3.78,0,0,1-.53.27,4.87,4.87,0,0,1-1.13.32,2.19,2.19,0,0,1-2.21-.66.72.72,0,0,1-.13-.32.22.22,0,0,1,.14-.25l.17,0a5.58,5.58,0,0,1,.57-.08c.38-.05.75-.09,1.13-.12s.75-.06,1.14-.07h.87l.17,0,.09,0A.41.41,0,0,1,172.94,77.45Z" transform="translate(-18.55 -16.66)"/><path class="cls-2" d="M175.73,73c.24-.5,1.09-1.7,2-1.09s.63,2.68-.21,3.54S174.16,76.17,175.73,73Z" transform="translate(-18.55 -16.66)"/><path class="cls-36" d="M176.87,74.37l-.74-.26a4.23,4.23,0,0,1,.25-.9c.17-.3.76-1.17,1.32-.73s.32,1.91-.26,2.42a1.47,1.47,0,0,1-.64.34Z" transform="translate(-18.55 -16.66)"/><path class="cls-2" d="M189.24,139.91a11.69,11.69,0,0,1,1.17-2.67c1.44-1.86,4.32-1.71,5.13-.56.52.73.51,5.58-1,7.72a.42.42,0,0,1-.34.19,4,4,0,0,1-.39.84.35.35,0,0,1-.63,0,4.19,4.19,0,0,1-.34.53c-.26.35-.69.22-.63-.17.14-.86.32-1.41.37-2a7.9,7.9,0,0,0,0-1.35c0,.37-.08.77-.13,1.16a5.22,5.22,0,0,1-.87,2.13c-.28.34-.75.15-.67-.24a17.77,17.77,0,0,0,.39-2.05,8.7,8.7,0,0,0-.15-3.13,2.61,2.61,0,0,0-.32.34,11.23,11.23,0,0,0-.62,1.48c-.26.57-1.18,1-1.13.06A16.91,16.91,0,0,1,189.24,139.91Z" transform="translate(-18.55 -16.66)"/><path class="cls-18" d="M188.84,91.64c3.08,3.09,4.82,11.33,6.34,20.8,1.75,10.87,1,25.64,1,25.64,0,.68-6.55-.41-6.49-1.09,0,0-.77-15.07-2.94-21.8-2.3-7.12-4.43-12.28-6.51-18.08C178.88,93.18,184.78,87.56,188.84,91.64Z" transform="translate(-18.55 -16.66)"/><path class="cls-3" d="M184,88s-3,0-4.5,1.53c-2.31,2.47-3.48,3.15-7.17,3.72,0,0,4.77-9,4.6-9.58s-.54-1.63.65-1.75S184.06,85.06,184,88Z" transform="translate(-18.55 -16.66)"/><g class="cls-50"><path class="cls-18" d="M172.32,93.26s6.91-6.56,7.07-8-.56-3.14-2.64-2.7S170.73,90.07,172.32,93.26Z" transform="translate(-18.55 -16.66)"/></g><path class="cls-3" d="M163.8,88.43A4.89,4.89,0,0,1,167.66,90c1.35,1.66,2.17,3.12,5,3.25,0,0-2-8.8-1.84-9.38s.1-1.61-1.1-1.63S163.19,86,163.8,88.43Z" transform="translate(-18.55 -16.66)"/><g class="cls-51"><path class="cls-18" d="M172.65,93.25s-4.22-6.13-4.5-7.54.32-3.17,2.43-2.9S174,89.94,172.65,93.25Z" transform="translate(-18.55 -16.66)"/></g><path class="cls-52" d="M182.2,139.54" transform="translate(-18.55 -16.66)"/><path class="cls-1" d="M171.3,74.31c0,.24.3.29.68.3s.69,0,.7-.27-.3-.43-.68-.44S171.31,74.07,171.3,74.31Z" transform="translate(-18.55 -16.66)"/><path class="cls-18" d="M173.72,72.32a13,13,0,0,0-1.46-.23c-.34,0-1.62.37-1.74.24a2.16,2.16,0,0,1-.26-.58,13.06,13.06,0,0,1,2.13-.27,2.53,2.53,0,0,1,1.11.31A.81.81,0,0,1,173.72,72.32Z" transform="translate(-18.55 -16.66)"/><path class="cls-1" d="M167.5,74.2c0,.24.3.29.68.3s.69,0,.69-.26-.29-.44-.67-.45S167.5,74,167.5,74.2Z" transform="translate(-18.55 -16.66)"/><path class="cls-18" d="M166.29,72.62s.79-.46,1.1-.43,1.69.48,1.81.34a2.63,2.63,0,0,0,.28-.6,14.41,14.41,0,0,0-2.28-.27,2.12,2.12,0,0,0-.8.34C166.22,72.2,166.29,72.47,166.29,72.62Z" transform="translate(-18.55 -16.66)"/><path class="cls-40" d="M169.3,76.43s.87.06.88-.18-1.79-.7-1.91-.53S168.92,76.28,169.3,76.43Z" transform="translate(-18.55 -16.66)"/><path class="cls-36" d="M169.53,72.79a4.48,4.48,0,0,1,0,1.5c-.17.38-1.07,1.18-1.1,1.36s.83.74.9.78-1.3-.33-1.21-.75,1.23-1.39,1.29-1.6S169.53,72.79,169.53,72.79Z" transform="translate(-18.55 -16.66)"/><path class="cls-53" d="M205,90.23c-3.37,6.55-3.74,26.75-8.73,44a18.88,18.88,0,0,0,5.5,2.8,107,107,0,0,0,11.48-42C213.46,90.82,207.63,85.07,205,90.23Z" transform="translate(-18.55 -16.66)"/><polygon class="cls-54" points="196.26 124.53 167.21 119.49 171.15 99.41 199.72 104.55 196.26 124.53"/><polygon class="cls-11" points="168.15 119.65 172.22 100.05 199.72 104.55 196.26 124.53 168.15 119.65"/><path class="cls-54" d="M204.68,128.76a2.19,2.19,0,1,1-2.19-2.19A2.19,2.19,0,0,1,204.68,128.76Z" transform="translate(-18.55 -16.66)"/><path class="cls-55" d="M198.52,139a.77.77,0,1,1-1.49-.28,10.77,10.77,0,0,1,.52-2.12c.35-.71,1.08-.57,1.21.26A10.4,10.4,0,0,1,198.52,139Z" transform="translate(-18.55 -16.66)"/><path class="cls-55" d="M199.88,139.35a.76.76,0,1,1-1.49-.27,10,10,0,0,1,.53-2c.34-.68,1.07-.54,1.2.25A9.72,9.72,0,0,1,199.88,139.35Z" transform="translate(-18.55 -16.66)"/><path class="cls-55" d="M201.25,139.65c-.14.86-1.68.68-1.48-.22a6.66,6.66,0,0,1,.52-1.62.64.64,0,0,1,1.21.19A5.9,5.9,0,0,1,201.25,139.65Z" transform="translate(-18.55 -16.66)"/><path class="cls-55" d="M197.14,138.57c-.15.86-1.69.68-1.48-.22a6.66,6.66,0,0,1,.52-1.62.63.63,0,0,1,1.2.2A6.26,6.26,0,0,1,197.14,138.57Z" transform="translate(-18.55 -16.66)"/><path class="cls-4" d="M209,190.32l-.47,6.72a18.77,18.77,0,0,1,.21,1.9,18.57,18.57,0,0,1-.29,1.87,5.43,5.43,0,0,1-3.43.22l-.17-.16a9.61,9.61,0,0,1-1.53.39c-1.37.29-5.42.28-6-.23,0,0-.46-2,1.22-2.4,4.21-.95,4.86-2,5.18-3.33.41-1.62.94-5.66.94-5.66Z" transform="translate(-18.55 -16.66)"/><g class="cls-56"><path class="cls-42" d="M202.65,196.86a2.39,2.39,0,0,1,1.73.54c.58.6,1,1.11,1.93.95,2.31-.4,2.23-2.18,3.19-1.36l-.09,4.66-12.73.3,0-3.53Z" transform="translate(-18.55 -16.66)"/><path class="cls-4" d="M197.06,200.53s.16.6,4.16.49,4.37-1,7.49-.87l-.18,1.09-11.72.81Z" transform="translate(-18.55 -16.66)"/></g><path class="cls-44" d="M220.06,125.05c-1.55-6.63-10.89-7.31-11.81-.58-1.32,9.65-5.09,72-5.09,72,1.81,1.47,4.42.71,6.06.18C209.22,196.68,224.13,142.38,220.06,125.05Z" transform="translate(-18.55 -16.66)"/><path class="cls-4" d="M225.51,190.47v6.74a18.86,18.86,0,0,0-.33,1.89c0,.47.15,1.88.15,1.88a5.56,5.56,0,0,0,3.41.46l.19-.15a9.82,9.82,0,0,0,1.5.49c1.34.38,5.38.65,6,.19,0,0,.6-2-1.06-2.48-4.14-1.24-4.7-2.39-4.94-3.69-.3-1.63-.54-5.7-.54-5.7Z" transform="translate(-18.55 -16.66)"/><g class="cls-57"><path class="cls-42" d="M231.43,197.44a2.44,2.44,0,0,0-1.77.42c-.62.56-1.1,1-2,.82-2.28-.56-2.07-2.34-3.09-1.58l-.23,4.66L237,202.93l.2-3.52Z" transform="translate(-18.55 -16.66)"/><path class="cls-4" d="M236.75,201.48s-.2.6-4.18.21-4.29-1.31-7.41-1.39l.1,1.1L236.89,203Z" transform="translate(-18.55 -16.66)"/></g><path class="cls-42" d="M231.84,122.88c-3.17-6-12.65-4.13-12.88,2.67-.74,21.54,6.23,71.42,6.23,71.42a5.83,5.83,0,0,0,5.76-.2S237.8,134.17,231.84,122.88Z" transform="translate(-18.55 -16.66)"/><path class="cls-42" d="M209.73,127.52c.08,3.55,6.78,7.63,12.57,7.49s10.15-3.12,10.07-6.67c-.28-11.46-5-17.59-10.81-17.44S209.44,115.85,209.73,127.52Z" transform="translate(-18.55 -16.66)"/><path class="cls-58" d="M208.08,125.92c0,2.08,6.22,3,13,2.82s11.78-1.26,11.73-3.34c-.16-6.71-6-10.48-12.75-10.31S207.91,119.08,208.08,125.92Z" transform="translate(-18.55 -16.66)"/><path class="cls-22" d="M237.11,89.42c-2.55-4.27-15.93-8.15-16.54-8.17-4.26-.12-13.85,5.9-14.82,8.09-.85,1.91,2.86,17.86,2.5,25.1-.19,3.77-.67,6.59-.58,10.39.09,3.55,25.37,3.6,25.28,0-.07-2.94-.62-5.16-.58-8.23C232.44,110.51,238.2,91.25,237.11,89.42Z" transform="translate(-18.55 -16.66)"/><path class="cls-59" d="M233,124.88c-.07-2.94-.62-5.16-.58-8.23.07-6.14,5.83-25.4,4.74-27.23S232,88.85,231.44,91c-4.56,10.65-4.53,20.12-.8,35.51C232.08,126.09,233,125.55,233,124.88Z" transform="translate(-18.55 -16.66)"/><path class="cls-17" d="M219,93.06a.59.59,0,1,0,.58-.61A.59.59,0,0,0,219,93.06Z" transform="translate(-18.55 -16.66)"/><path class="cls-17" d="M218.22,99.35a.6.6,0,0,0,.61.58.59.59,0,0,0,.57-.61.58.58,0,0,0-.6-.57A.58.58,0,0,0,218.22,99.35Z" transform="translate(-18.55 -16.66)"/><path class="cls-17" d="M217.76,105.48a.59.59,0,0,0,.61.57.59.59,0,0,0,0-1.18A.6.6,0,0,0,217.76,105.48Z" transform="translate(-18.55 -16.66)"/><path class="cls-17" d="M217.31,111.14a.59.59,0,1,0,.58-.61A.59.59,0,0,0,217.31,111.14Z" transform="translate(-18.55 -16.66)"/><path class="cls-17" d="M217.32,116.72a.59.59,0,0,0,.61.57.58.58,0,0,0,.57-.6.59.59,0,1,0-1.18,0Z" transform="translate(-18.55 -16.66)"/><path class="cls-17" d="M217.16,122.3a.59.59,0,1,0,.58-.6A.59.59,0,0,0,217.16,122.3Z" transform="translate(-18.55 -16.66)"/><rect class="cls-17" x="194.62" y="81.91" width="11.15" height="7.12" rx="0.77"/><rect class="cls-22" x="195.3" y="83.65" width="3.29" height="4.18" rx="0.62"/><rect class="cls-1" x="198.77" y="82.19" width="2.86" height="0.44"/><rect class="cls-16" x="199.39" y="80.53" width="1.52" height="1.88" rx="0.32"/><rect class="cls-33" x="199.8" y="83.65" width="5.09" height="0.48"/><rect class="cls-33" x="199.8" y="84.66" width="5.09" height="0.48"/><rect class="cls-33" x="199.8" y="85.66" width="5.09" height="0.48"/><rect class="cls-33" x="199.8" y="87.35" width="5.09" height="0.48"/><path class="cls-60" d="M219.39,97.62h-1.34a.36.36,0,0,1-.33-.22c-1.69-4.05-4.17-12.74-2.88-14.52.06-.09.31-.29.27-.19-.76,1.73,1.06,10,3,14.56l1.3,0,.08-.11c2.17-2.5,7.35-9.09,7.66-14,0-.11.34.23.34.34-.33,5-5.5,11.37-7.7,13.9l-.11.12A.36.36,0,0,1,219.39,97.62Z" transform="translate(-18.55 -16.66)"/><path class="cls-58" d="M225.56,79.8c-.48-1.09-9-.73-9.36.33l.41,4.55,9-.55Z" transform="translate(-18.55 -16.66)"/><path class="cls-2" d="M223.29,73.9a22.21,22.21,0,0,0,.6,5.24,28.58,28.58,0,0,0,2.38,5.33l-4,.53-2.63,4.09-1-4.61-3.14-1s2.86-2,2.59-5.18c-.25-2.79-.4-4.34-.4-4.34Z" transform="translate(-18.55 -16.66)"/><path class="cls-61" d="M225.56,79.8s.27.89-1.4,2.52c-.52.52-2.33,1.8-2.33,1.8l-2.46,5.3.62.07,2.34-4.94,2.77,3.71a8.77,8.77,0,0,0,2.26-4.63Z" transform="translate(-18.55 -16.66)"/><polygon class="cls-58" points="206.55 71.61 203.78 67.89 201.44 72.83 204.38 70.18 206.55 71.61"/><path class="cls-61" d="M216.2,80.13a5.16,5.16,0,0,0,2.37,4.07L220,89.49l-.62-.07-1.18-4.77-1.66,3.73a9.88,9.88,0,0,1-1.84-4.71Z" transform="translate(-18.55 -16.66)"/><polygon class="cls-58" points="197.98 71.72 199.63 67.99 200.81 72.76 199.7 70.19 197.98 71.72"/><path class="cls-35" d="M215,73.46c.83-.7.94-2.84.21-3.87a1.22,1.22,0,0,0-1.63-.38,2.21,2.21,0,0,0-.84,2.49C212.93,72.94,214.09,74.24,215,73.46Z" transform="translate(-18.55 -16.66)"/><path class="cls-36" d="M214.68,73l-.27-1.13.68-.24s-.22-2.09-1.35-1.42C212.81,70.74,213.56,73.31,214.68,73Z" transform="translate(-18.55 -16.66)"/><path class="cls-35" d="M223.29,73.9a7.58,7.58,0,0,1-.91,3c-.87,1.25-2.08,2.76-5.58,2.22s-2.75-8-2.75-8a16.49,16.49,0,0,1,.48-5.22c.71-2.31,5.48-3.11,9.16-1.61,0,0,1,1.14.14,5.73a1.42,1.42,0,0,1,1.82-.08,2.1,2.1,0,0,1,.4,2.6C225.6,73.76,224.24,74.69,223.29,73.9Z" transform="translate(-18.55 -16.66)"/><path class="cls-62" d="M214,72.76s-3,7.81,2.48,8.73a6.44,6.44,0,0,0,6.9-3.13c.62-1.3,0-4.34-.28-5.82,0-.22-.2,0-.22-.16L222,75.83a6.52,6.52,0,0,0-4.72-2.21c-2.72-.06-3.19,1.62-3.19,1.62Z" transform="translate(-18.55 -16.66)"/><path class="cls-2" d="M219.8,74.64a3.59,3.59,0,0,1-2.06.64,9.78,9.78,0,0,1-1.09,0,1.63,1.63,0,0,1-.53-.17.87.87,0,0,1-.45-.44.09.09,0,0,1,.05-.11h.07a4.61,4.61,0,0,1,1,0,8.9,8.9,0,0,0,1,.19,5,5,0,0,0,2-.21h0a.07.07,0,0,1,.08,0A.06.06,0,0,1,219.8,74.64Z" transform="translate(-18.55 -16.66)"/><path class="cls-62" d="M225.57,64.27c-.52-1-2.41-1.61-4-2a3.39,3.39,0,0,0-.11-.43,3.44,3.44,0,0,0-3.29-2.25v1.49a4,4,0,0,1-.39-1.75c-1.9,1.11-1.77,2.51-1.77,2.51l-.42-1.08a3.65,3.65,0,0,0-1.34,2.5,1.82,1.82,0,0,0-.66.84c-.63,1.87.49,7,.49,7l.24-3.71a8.36,8.36,0,0,1,.61-2.15s.41.47,2.85.47h.42a23.36,23.36,0,0,0,4.33-.56,13.89,13.89,0,0,0,.52,2.63,28.51,28.51,0,0,1-.18,4.71s.1.48.24,0c.26-.87.76-3,1.77-2.86C224.85,69.68,226.54,66.1,225.57,64.27Z" transform="translate(-18.55 -16.66)"/><path class="cls-36" d="M223.72,73.48l.51-1.06-.67-.36s.65-2,1.72-1.14C226.17,71.63,224.86,74,223.72,73.48Z" transform="translate(-18.55 -16.66)"/><path class="cls-1" d="M219.21,71.23c0,.27.34.32.76.32s.76,0,.76-.3-.34-.48-.76-.49S219.21,71,219.21,71.23Z" transform="translate(-18.55 -16.66)"/><path class="cls-62" d="M222,69.32a16,16,0,0,0-1.58-.34,9,9,0,0,1-1.95.14,2.11,2.11,0,0,1-.23-.62,16.23,16.23,0,0,1,2.37-.14A2.69,2.69,0,0,1,222,69.32Z" transform="translate(-18.55 -16.66)"/><path class="cls-1" d="M215,71.18c0,.26.33.31.75.31s.77,0,.77-.3-.34-.48-.76-.48S215,70.91,215,71.18Z" transform="translate(-18.55 -16.66)"/><path class="cls-62" d="M214.45,69.32s.66-.46.93-.44,1.44.45,1.54.32a2.88,2.88,0,0,0,.23-.61,11,11,0,0,0-1.94-.24C214.92,68.44,214.57,69,214.45,69.32Z" transform="translate(-18.55 -16.66)"/><path class="cls-40" d="M217,73.61s1,.06,1-.21-2-.74-2.12-.56S216.6,73.45,217,73.61Z" transform="translate(-18.55 -16.66)"/><path class="cls-36" d="M217.23,69.58a4.82,4.82,0,0,1,0,1.66c-.18.42-1.16,1.32-1.2,1.52s.94.81,1,.85-1.44-.34-1.35-.81,1.34-1.56,1.4-1.79S217.23,69.58,217.23,69.58Z" transform="translate(-18.55 -16.66)"/><g class="cls-38"><path class="cls-63" d="M213.5,69.74S213,72,215.21,72s1.7-2.32,1.7-2.32A7.36,7.36,0,0,0,213.5,69.74Z" transform="translate(-18.55 -16.66)"/><path class="cls-63" d="M221.76,69.67a7.38,7.38,0,0,0-3.41.07S217.83,72,220.07,72,221.76,69.67,221.76,69.67Z" transform="translate(-18.55 -16.66)"/></g><path class="cls-18" d="M223.57,70.21v-.37l-1.71-.28h-.08a7.71,7.71,0,0,0-3.47.08l-.06,0v0a1.26,1.26,0,0,0-1.21,0v0l0-.08h-.08a7.71,7.71,0,0,0-3.47.08l0,0,0,0a2.34,2.34,0,0,0,.32,1.79,1.8,1.8,0,0,0,1.51.6,1.78,1.78,0,0,0,1.51-.61,2.17,2.17,0,0,0,.35-1.54,1.27,1.27,0,0,1,1.13,0,2.16,2.16,0,0,0,.35,1.53,1.83,1.83,0,0,0,1.52.6,1.8,1.8,0,0,0,1.51-.61,2.07,2.07,0,0,0,.36-1.42h0Zm-7,1.14a2,2,0,0,1-2.66,0,2,2,0,0,1-.28-1.52,8.15,8.15,0,0,1,3.21-.06A2.13,2.13,0,0,1,216.54,71.35Zm4.86,0a2,2,0,0,1-2.66,0,2,2,0,0,1-.28-1.52,8.15,8.15,0,0,1,3.21-.06A2.18,2.18,0,0,1,221.4,71.35Z" transform="translate(-18.55 -16.66)"/><path class="cls-22" d="M237.25,89.6c-3.41-4.69-10.35,1.25-7.64,7s6.84,11,7.64,16.3C237.8,116.6,229,131,229,131c-.07.68,3.93,4.72,4.64,4.74,0,0,15.13-16.09,13.55-24.93C245.9,103.62,241.76,96.35,237.25,89.6Z" transform="translate(-18.55 -16.66)"/><path class="cls-53" d="M237.75,112.88c1.17-1,5.45-2.8,5.81-2.35s-3.92,1.84-3.92,1.84,5.4-1.69,5.7-.54c.16.62-3.32.17-7.19,1.41C238.15,113.24,237.05,113.49,237.75,112.88Z" transform="translate(-18.55 -16.66)"/><path class="cls-64" d="M227.92,129.28A18.52,18.52,0,0,0,234.1,136a.5.5,0,0,1-.33.56c-.4.13-1.34-.66-3.12-2.41a20.62,20.62,0,0,1-3.22-4.5C227.38,129.28,227.92,129.28,227.92,129.28Z" transform="translate(-18.55 -16.66)"/><path class="cls-23" d="M90.83,202.23c0,1.14-16.18,2.07-36.14,2.07s-36.14-.93-36.14-2.07,16.18-2.07,36.14-2.07S90.83,201.09,90.83,202.23Z" transform="translate(-18.55 -16.66)"/><path class="cls-4" d="M40.53,191.62v6.8s.31,1.42.34,1.9-.16,1.9-.16,1.9a5.55,5.55,0,0,1-3.43.46l-.2-.15a7.79,7.79,0,0,1-1.51.49c-1.35.39-5.42.66-6.05.19,0,0-.6-2,1.06-2.5,4.18-1.24,4.75-2.4,5-3.71.3-1.65.54-5.75.54-5.75Z" transform="translate(-18.55 -16.66)"/><g class="cls-65"><path class="cls-66" d="M34.57,198.65a2.41,2.41,0,0,1,1.78.42c.62.57,1.11,1.05,2,.83,2.3-.56,2.09-2.36,3.12-1.59L41.7,203l-12.78,1.19-.21-3.56Z" transform="translate(-18.55 -16.66)"/><path class="cls-67" d="M29.2,202.73s.2.6,4.22.21,4.32-1.32,7.47-1.4l-.11,1.1-11.73,1.63Z" transform="translate(-18.55 -16.66)"/></g><path class="cls-4" d="M57.15,191.46l.47,6.79a17,17,0,0,0-.2,1.91c0,.48.28,1.89.28,1.89a5.53,5.53,0,0,0,3.46.22l.18-.16a9.65,9.65,0,0,0,1.54.39c1.38.29,5.46.28,6.05-.23,0,0,.47-2-1.23-2.42-4.25-1-4.9-2.07-5.23-3.36-.41-1.63-.94-5.7-.94-5.7Z" transform="translate(-18.55 -16.66)"/><g class="cls-68"><path class="cls-66" d="M63.59,198.07a2.43,2.43,0,0,0-1.75.54c-.58.6-1,1.12-2,1-2.33-.4-2.24-2.2-3.22-1.37l.1,4.7,12.83.3,0-3.56Z" transform="translate(-18.55 -16.66)"/><path class="cls-67" d="M69.22,201.76s-.16.61-4.19.5-4.41-1-7.55-.88l.18,1.1,11.81.81Z" transform="translate(-18.55 -16.66)"/></g><path class="cls-66" d="M52,94.31c1.86,3.94,14.24,18.92,19.16,20.87,7.32,2.92,19.28-2,24.45-4,2-1.13-.12-6.58-1.88-6.32,0,0-17,2.43-18.8,1.4-1.59-.89-9.47-13.2-16.16-18.38C56.52,86.11,49.49,89,52,94.31Z" transform="translate(-18.55 -16.66)"/><path class="cls-17" d="M95.78,107.48a4.2,4.2,0,0,1,0,2.63,1,1,0,0,1-.59.59,1.19,1.19,0,0,1-1.13-.42,4.67,4.67,0,0,1-1.1-2,4,4,0,0,1,0-2.64,1,1,0,0,1,.58-.59.93.93,0,0,1,.29,0h0C94.56,105.13,95.37,106.12,95.78,107.48Z" transform="translate(-18.55 -16.66)"/><path class="cls-2" d="M105.72,104a6,6,0,0,1-.48.56.47.47,0,0,1,.22.77,4.07,4.07,0,0,1-.82.72.56.56,0,0,1-.1.48c-1.26,1.86-6.88,3.74-8.39,3.5H96c-.44,0-1.32.33-1.66.2l-.06,0a4.67,4.67,0,0,1-1.1-2,4,4,0,0,1,0-2.64c.17-.23.48-.26.87-.61h0a3.23,3.23,0,0,0,.64-.82,11.35,11.35,0,0,1,3-2.81,11.86,11.86,0,0,1,2.47-.92c1-.32.87.92.31,1.41-.8.69-1.21.82-1.46,1.19a2.91,2.91,0,0,0-.33.58,27.43,27.43,0,0,0,3.65-.8,20.28,20.28,0,0,0,2.18-1.07c.42-.21.8.31.5.75a5.66,5.66,0,0,1-2.12,1.68c-.43.19-.86.36-1.27.5a7.8,7.8,0,0,0,1.53-.37c.68-.24,1.23-.62,2.16-1C105.75,103.08,106,103.58,105.72,104Z" transform="translate(-18.55 -16.66)"/><path class="cls-44" d="M46,125.64c1.57-6.68,11-7.36,11.92-.58,1.33,9.73,5.13,72.64,5.13,72.64-1.83,1.48-4.46.71-6.11.18C57,197.88,41.92,143.12,46,125.64Z" transform="translate(-18.55 -16.66)"/><path class="cls-42" d="M34.14,123.46c3.2-6.07,12.77-4.17,13,2.69.74,21.73-6.29,72-6.29,72a5.88,5.88,0,0,1-5.8-.21S28.13,134.85,34.14,123.46Z" transform="translate(-18.55 -16.66)"/><path class="cls-42" d="M56.45,129.75c-.09,3.57-3.62,7.69-9.46,7.55s-13.46-3.15-13.37-6.73C33.9,119,38.68,112.84,44.52,113S56.74,118,56.45,129.75Z" transform="translate(-18.55 -16.66)"/><path class="cls-58" d="M58.11,126.53c0,2.09-6.28,3-13.07,2.84S33.16,128.09,33.21,126c.16-6.77,6.07-10.57,12.86-10.4S58.28,119.63,58.11,126.53Z" transform="translate(-18.55 -16.66)"/><path class="cls-69" d="M30.2,89.72c2.57-4.31,14.69-8.22,15.32-8.24,4.29-.12,13.54,5.7,14.53,7.91.85,1.92-2.48,18.25-2.12,25.56.19,3.8.68,6.64.59,10.48-.09,3.58-25.58,3.63-25.49,0,.07-3,2.24-5.15,2.2-8.25C35.16,111,29.09,91.57,30.2,89.72Z" transform="translate(-18.55 -16.66)"/><path class="cls-1" d="M39.58,83.34s6.05,21.58,3.57,35.21c-1,5.22-8,11.27-9.94,15.41-1.2,2.53-1.35,8.49-1.35,8.49s-7.39-2.83-7.38-8.49c0-3,8.73-20.31,8.73-20.31s-6-19.13-4.52-23.75S39.58,83.34,39.58,83.34Z" transform="translate(-18.55 -16.66)"/><path class="cls-70" d="M36,115.6c3.24-9.13,2.6-29.64-5.49-28.26a5.84,5.84,0,0,0-1.82,2.56c-1.45,4.62,4.52,23.75,4.52,23.75a67.38,67.38,0,0,0-4.42,8.84C31.38,120,34.82,118.92,36,115.6Z" transform="translate(-18.55 -16.66)"/><path class="cls-17" d="M47.08,93.39a.6.6,0,0,1-.61.58.61.61,0,0,1-.58-.61.59.59,0,0,1,.61-.58A.59.59,0,0,1,47.08,93.39Z" transform="translate(-18.55 -16.66)"/><path class="cls-17" d="M47.88,99.73a.6.6,0,1,1-.58-.61A.59.59,0,0,1,47.88,99.73Z" transform="translate(-18.55 -16.66)"/><path class="cls-17" d="M48.34,105.91a.6.6,0,1,1-.58-.61A.59.59,0,0,1,48.34,105.91Z" transform="translate(-18.55 -16.66)"/><path class="cls-17" d="M48.8,111.62a.6.6,0,1,1-.58-.61A.59.59,0,0,1,48.8,111.62Z" transform="translate(-18.55 -16.66)"/><path class="cls-17" d="M48.79,117.25a.6.6,0,1,1-.58-.61A.59.59,0,0,1,48.79,117.25Z" transform="translate(-18.55 -16.66)"/><path class="cls-17" d="M49,122.88a.6.6,0,1,1-.58-.61A.59.59,0,0,1,49,122.88Z" transform="translate(-18.55 -16.66)"/><path class="cls-67" d="M29.43,88.48c3.43-4.73,9,2,6.29,7.8s-6.22,11.73-7,17.1c-.57,3.74,8.31,18.28,8.31,18.28.07.68-4,4.76-4.67,4.77,0,0-15.27-16.21-13.67-25.14A45.28,45.28,0,0,1,29.43,88.48Z" transform="translate(-18.55 -16.66)"/><path class="cls-70" d="M28.19,113.38c-1.18-1-5.5-2.83-5.86-2.37s4,1.85,4,1.85-5.44-1.7-5.74-.55c-.17.63,3.34.18,7.24,1.43C27.78,113.74,28.89,114,28.19,113.38Z" transform="translate(-18.55 -16.66)"/><path class="cls-64" d="M38.1,129.91a18.67,18.67,0,0,1-6.23,6.81.52.52,0,0,0,.33.57c.41.12,1.35-.67,3.14-2.43a21.28,21.28,0,0,0,3.26-4.54C38.65,129.91,38.1,129.91,38.1,129.91Z" transform="translate(-18.55 -16.66)"/><path class="cls-1" d="M51.15,83s1.09,31.61,1.4,33.6,2.59,22.87,3.91,24.49,5.18-.75,5.18-.75l-3-26.33s3-20.72,1.85-24.41S51.15,83,51.15,83Z" transform="translate(-18.55 -16.66)"/><path class="cls-71" d="M40.63,80.37c.76-1,8.39-1.19,8.79-.14l-.17,4.61-9.09-.08Z" transform="translate(-18.55 -16.66)"/><path class="cls-2" d="M42.6,74.3a22,22,0,0,1-.33,5.31,28.39,28.39,0,0,1-2.1,5.49l4.1.32,2.86,4,.73-4.7L51,83.55s-3-1.84-2.88-5.07c.09-2.83.16-4.4.16-4.4Z" transform="translate(-18.55 -16.66)"/><path class="cls-35" d="M50.92,73.42c-.88-.67-1.1-2.82-.42-3.9a1.24,1.24,0,0,1,1.62-.47c.85.35,1.09,1.41,1,2.46C53,72.77,51.88,74.15,50.92,73.42Z" transform="translate(-18.55 -16.66)"/><path class="cls-36" d="M51.21,72.92l.22-1.16-.7-.2s.11-2.11,1.28-1.5C53,70.56,52.37,73.18,51.21,72.92Z" transform="translate(-18.55 -16.66)"/><path class="cls-35" d="M42.6,74.3a7.6,7.6,0,0,0,1.07,3c.95,1.21,2.25,2.66,5.74,1.94S51.75,71,51.75,71A16.92,16.92,0,0,0,51,65.8c-.84-2.28-5.68-2.84-9.31-1.12,0,0-.93,1.19.16,5.77a1.42,1.42,0,0,0-1.83,0c-.77.58-.7,1.67-.27,2.64C40.26,74.28,41.69,75.15,42.6,74.3Z" transform="translate(-18.55 -16.66)"/><path class="cls-3" d="M46.22,74.74a4.82,4.82,0,0,0,2,.1,7,7,0,0,0,1-.24,5.4,5.4,0,0,1,1-.08h0a.09.09,0,0,1,.09.09v0a.88.88,0,0,1-.43.46,1.56,1.56,0,0,1-.53.2c-.35.06-.72.07-1.09.1a3.72,3.72,0,0,1-2.11-.54.07.07,0,0,1,0-.09.07.07,0,0,1,.08,0Z" transform="translate(-18.55 -16.66)"/><path class="cls-72" d="M39.78,64.73A8.46,8.46,0,0,1,47,59.64l.08,1.5a4,4,0,0,0,.29-1.78c2,1,1.92,2.43,1.92,2.43l.36-1.11c3,1.54,3.18,5.15,2.08,10.36l-.44-3.73a8.13,8.13,0,0,0-.73-2.13s-.39.5-2.84.63h-.43a23.76,23.76,0,0,1-4.39-.33,14.29,14.29,0,0,1-.38,2.67A29.27,29.27,0,0,0,43,72.91s-.07.49-.24,0c-.31-.87-.63-3.3-2.72-2.45C40,70.47,38.91,66.62,39.78,64.73Z" transform="translate(-18.55 -16.66)"/><path class="cls-36" d="M42.14,73.9l-.57-1,.66-.39s-.76-2-1.8-1.07C39.58,72.16,41,74.5,42.14,73.9Z" transform="translate(-18.55 -16.66)"/><path class="cls-1" d="M46.56,71.39c0,.27-.32.34-.74.36s-.77,0-.79-.26.31-.5.74-.53S46.55,71.13,46.56,71.39Z" transform="translate(-18.55 -16.66)"/><path class="cls-72" d="M43.63,69.62a14.35,14.35,0,0,1,1.57-.42,9.45,9.45,0,0,0,2,0,2,2,0,0,0,.2-.63,15.22,15.22,0,0,0-2.39,0,3,3,0,0,0-1.19.46A.81.81,0,0,0,43.63,69.62Z" transform="translate(-18.55 -16.66)"/><path class="cls-1" d="M50.8,71.11c0,.27-.32.33-.74.36s-.77,0-.79-.26.31-.5.74-.53S50.79,70.85,50.8,71.11Z" transform="translate(-18.55 -16.66)"/><path class="cls-72" d="M51.25,69.21s-.69-.43-1-.39-1.42.53-1.53.4a2.75,2.75,0,0,1-.27-.6,10.61,10.61,0,0,1,1.94-.34,1.52,1.52,0,0,1,.7.32A.94.94,0,0,1,51.25,69.21Z" transform="translate(-18.55 -16.66)"/><path class="cls-40" d="M48.89,73.67s-1,.11-1-.16,2-.86,2.11-.68S49.31,73.48,48.89,73.67Z" transform="translate(-18.55 -16.66)"/><path class="cls-36" d="M48.47,69.62a4.9,4.9,0,0,0,.1,1.67c.21.42,1.24,1.27,1.29,1.47s-.9.87-1,.91,1.43-.42,1.32-.89-1.43-1.5-1.51-1.73S48.47,69.62,48.47,69.62Z" transform="translate(-18.55 -16.66)"/><g class="cls-38"><path class="cls-63" d="M52.23,69.58s.65,2.24-1.6,2.36S48.8,69.7,48.8,69.7A7.58,7.58,0,0,1,52.23,69.58Z" transform="translate(-18.55 -16.66)"/><path class="cls-63" d="M43.91,70a7.44,7.44,0,0,1,3.43-.11s.65,2.23-1.6,2.35S43.91,70,43.91,70Z" transform="translate(-18.55 -16.66)"/></g><path class="cls-73" d="M43.75,70.37h0a2.06,2.06,0,0,0,.44,1.41,1.79,1.79,0,0,0,1.56.54,1.85,1.85,0,0,0,1.49-.69,2.17,2.17,0,0,0,.27-1.56c.12-.06.74-.35,1.14-.08a2.17,2.17,0,0,0,.43,1.53,1.85,1.85,0,0,0,1.56.54,1.83,1.83,0,0,0,1.49-.7,2.36,2.36,0,0,0,.22-1.81l0-.06-.06,0a7.65,7.65,0,0,0-3.49.11H48.7l0,.08v0a1.31,1.31,0,0,0-1.23.11v-.06l-.06,0a7.69,7.69,0,0,0-3.5.11l-.07,0-1.71.37,0,.37Zm5.15-.57a8.08,8.08,0,0,1,3.24-.12,2.07,2.07,0,0,1-.2,1.55,1.62,1.62,0,0,1-1.31.59,1.6,1.6,0,0,1-1.37-.45A2.13,2.13,0,0,1,48.9,69.8ZM44,70.06a8.09,8.09,0,0,1,3.24-.12,2.07,2.07,0,0,1-.2,1.55,2,2,0,0,1-2.69.14A2.16,2.16,0,0,1,44,70.06Z" transform="translate(-18.55 -16.66)"/><path class="cls-69" d="M40.63,80.37s-.22.91,1.54,2.46c.56.49,2.45,1.68,2.45,1.68l2.76,5.21-.62.1L44.13,85l-2.58,3.89a13.82,13.82,0,0,1-2.3-5.09Z" transform="translate(-18.55 -16.66)"/><polygon class="cls-71" points="22.99 72.2 25.58 68.31 28.21 73.16 25.1 70.66 22.99 72.2"/><path class="cls-69" d="M49.42,80.23a7.34,7.34,0,0,1-1.51,4.18l-1.15,5.41.62-.1.93-4.87,1.87,3.67a8.09,8.09,0,0,0,.75-5.68Z" transform="translate(-18.55 -16.66)"/><polygon class="cls-71" points="31.63 71.86 29.76 68.19 28.83 73.06 29.81 70.41 31.63 71.86"/><path class="cls-74" d="M113.94,24.33A5.65,5.65,0,1,1,108.3,30,5.65,5.65,0,0,1,113.94,24.33Zm1.41-7.6a13.2,13.2,0,0,0-2.81,0l-.26,4.08a9.52,9.52,0,0,0-1.89.55L108,18.07a14,14,0,0,0-2.37,1.52l2,3.58a9.13,9.13,0,0,0-1.29,1.48l-3.82-1.46a13.4,13.4,0,0,0-1.16,2.56l3.6,1.93a9.17,9.17,0,0,0-.28,1.95l-4,.84a13.13,13.13,0,0,0,.4,2.78l4.07-.33a8.8,8.8,0,0,0,.82,1.79L103,37.58a12.79,12.79,0,0,0,1.84,2.12l3.25-2.47a9.26,9.26,0,0,0,1.65,1.06l-.89,4a13.19,13.19,0,0,0,2.69.79l1.4-3.84a9.27,9.27,0,0,0,2,0l1.4,3.84a13.38,13.38,0,0,0,2.69-.79l-.9-4a8.92,8.92,0,0,0,1.65-1.06L123,39.7a13.27,13.27,0,0,0,1.84-2.12L122,34.71a9.34,9.34,0,0,0,.81-1.79l4.08.33a13.81,13.81,0,0,0,.4-2.78l-4-.84a9.86,9.86,0,0,0-.28-1.95l3.6-1.93a13.44,13.44,0,0,0-1.17-2.56l-3.82,1.46a8.62,8.62,0,0,0-1.28-1.48l2-3.58a13.57,13.57,0,0,0-2.36-1.52l-2.43,3.29a9.24,9.24,0,0,0-1.88-.55Z" transform="translate(-18.55 -16.66)"/><path class="cls-75" d="M138.4,32.71a5,5,0,1,1-5.75,4.18A5,5,0,0,1,138.4,32.71ZM140,26.07c-.34-.07-.69-.13-1-.17l-1.29,3.49a8.14,8.14,0,0,0-1.48.13l-1.86-3.23c-.33.1-.67.21-1,.34l.47,3.69a8.27,8.27,0,0,0-1.25.8l-3.14-2c-.25.24-.49.5-.72.76l2.13,3a8.53,8.53,0,0,0-.74,1.28l-3.7-.3c-.11.33-.21.67-.29,1l3.3,1.71a8.11,8.11,0,0,0,0,1.48l-3.42,1.46q.09.51.21,1l3.72,0a9,9,0,0,0,.64,1.33l-2.35,2.88a10.28,10.28,0,0,0,.67.81l3.28-1.75a8,8,0,0,0,1.19.89l-.75,3.64c.32.15.64.29,1,.41l2.09-3.08a9.07,9.07,0,0,0,1.46.24l1,3.57,1-.09.42-3.7a7.68,7.68,0,0,0,1.4-.47l2.58,2.68a10.07,10.07,0,0,0,.88-.56l-1.34-3.47a9.36,9.36,0,0,0,1-1.07L147.63,44a10.19,10.19,0,0,0,.52-.91l-2.8-2.44a9,9,0,0,0,.41-1.43l3.67-.6c0-.35,0-.69,0-1l-3.62-.87a8.89,8.89,0,0,0-.3-1.45l3-2.23c-.14-.33-.29-.64-.45-.95l-3.61.91a8.5,8.5,0,0,0-.94-1.14l1.59-3.36q-.41-.33-.84-.63l-2.77,2.49a9.11,9.11,0,0,0-1.36-.58Z" transform="translate(-18.55 -16.66)"/></g></g></svg>